<svg width="826" height="642" viewBox="0 0 826 642" fill="none" xmlns="http://www.w3.org/2000/svg">
<path d="M823.507 431.908C847.149 440.6 870.538 449.187 893.778 457.417C893.704 457.239 893.71 457.153 893.629 457.061C893.555 456.882 893.555 456.882 893.555 456.882C870.447 448.618 847.178 440.169 823.835 431.542C793.736 420.444 762.702 409.106 731.299 398.088C680.967 380.358 637.014 377.497 597.069 389.379C559.078 400.535 523.438 424.715 484.724 465.906C462.595 489.357 441.996 517.635 422.289 544.894C386.759 593.931 350.042 644.485 299.921 674.043C254.534 700.864 202.449 702.967 152.15 704.894C133.969 705.551 115.478 706.316 97.2537 708.225C97.2879 708.357 97.3622 708.536 97.3905 708.754C115.609 706.931 134.06 706.12 152.115 705.41C202.505 703.404 254.625 701.434 300.19 674.539C350.363 644.854 387.086 594.214 422.691 545.355C442.483 518.102 462.904 489.898 485.171 466.327C562.587 384.117 633.802 364.411 731.132 398.639C762.506 409.438 793.581 420.822 823.507 431.908Z" fill="#D6D6D6"/>
<path d="M728.471 401.438C766.798 413.726 803.93 426.406 838.852 438.496C857.374 444.833 875.524 450.927 893.674 457.021C893.612 456.671 893.538 456.492 893.549 456.32C875.474 450.404 857.41 444.316 839.008 438.118C804.08 426.114 766.874 413.255 728.645 400.801C669.446 381.705 619.84 382.382 572.758 403.628C542.694 417.208 512.912 439.293 481.811 471.111C458.769 494.627 437.539 522.644 417.028 549.63L412.599 555.506C377.372 602.01 341.847 645.938 294.067 674.191C248.824 700.806 197.673 703.798 148.223 706.607C131.753 707.559 114.978 708.532 98.3166 710.379L98.5855 710.875C115.155 709.107 131.803 708.082 148.181 707.21C197.804 704.413 248.914 701.375 294.29 674.726C342.116 646.433 377.693 602.379 412.96 555.921L417.464 550.223C437.906 522.973 459.084 495.082 482.212 471.573C513.193 439.616 542.877 417.697 572.855 404.111C620.063 382.918 669.515 381.97 728.471 401.438Z" fill="#D6D6D6"/>
<path d="M834.993 437.962C854.143 443.997 873.459 450.131 893.43 456.181C893.097 455.984 893.109 455.812 893.029 455.72C873.488 449.7 854.127 443.607 835.063 437.578C796.265 425.212 760.531 414.233 726.008 403.903C667.438 386.367 618.093 388.275 570.742 409.675C540.66 423.514 510.597 445.275 478.94 476.362C454.559 500.475 432.099 528.751 410.387 556.214L408.4 558.67C374.83 601.223 337.828 645.219 288.248 674.47C243.263 701.103 193.007 704.938 144.325 708.537C129.486 709.692 114.52 710.794 99.5014 712.671C99.5757 712.849 99.6099 712.982 99.7303 713.12C114.617 711.277 129.668 710.181 144.329 709.101C193.063 705.375 243.446 701.593 288.471 675.006C338.097 645.715 375.145 601.678 408.767 559L410.846 556.463C432.506 529.126 454.966 500.85 479.261 476.731C510.86 445.857 540.901 423.79 571.097 410.177C618.27 388.85 667.437 387.017 725.939 404.288C760.341 414.479 796.075 425.458 834.993 437.962Z" fill="#D6D6D6"/>
<path d="M831.169 437.561C852.265 443.605 872.679 449.513 892.898 455.105C892.91 454.932 892.755 454.661 892.761 454.575C872.714 448.996 852.243 443.3 831.29 437.05C798.621 427.458 763.041 417.399 723.228 406.563C665.648 391.003 616.462 393.744 568.862 415.603C538.471 429.549 508.069 451.2 475.943 481.56C450.372 505.979 427.004 534.234 404.258 561.623C370.024 603.133 331.618 645.515 282.441 674.578C237.646 700.965 188.29 705.555 140.622 710.136C127.38 711.361 113.919 712.613 100.555 714.348C100.675 714.486 100.709 714.618 100.784 714.797C114.108 713.016 127.476 711.844 140.639 710.527C188.519 706.005 237.841 701.281 282.722 674.901C331.899 645.838 370.391 603.462 404.631 561.866C427.245 534.51 450.796 506.096 476.402 481.809C508.396 451.483 538.665 429.866 569.097 415.966C616.725 394.325 665.619 391.433 723.199 406.994C762.919 417.91 798.459 427.922 831.169 437.561Z" fill="#D6D6D6"/>
<path d="M827.43 437.165C849.665 443.03 871.268 448.633 892.504 453.907C892.522 453.649 892.367 453.378 892.333 453.246C871.085 448.144 849.442 442.494 827.552 436.654C791.126 426.925 754.567 417.879 720.431 409.481C663.772 395.631 614.9 399.477 566.753 421.73C536.085 435.916 505.316 457.238 472.893 486.885C446.052 511.516 420.476 541.043 399.932 564.736C367.758 602.106 327.841 644.424 276.455 674.758C232.017 700.997 183.497 706.643 136.776 711.941C125.038 713.315 113.26 714.643 101.418 716.27C101.453 716.402 101.521 716.667 101.601 716.759C113.363 715.04 125.187 713.672 136.832 712.378C183.726 707.092 232.154 701.526 276.678 675.293C328.288 644.845 368.118 602.521 400.259 565.019C420.843 541.372 446.327 511.925 473.208 487.34C505.672 457.74 536.354 436.411 566.988 422.093C614.904 400.04 663.777 396.194 720.435 410.044C754.452 418.304 791.063 427.224 827.43 437.165Z" fill="#D6D6D6"/>
<path d="M823.737 436.731C845.616 442.094 868.461 447.266 891.915 452.394C891.846 452.13 891.858 451.957 891.692 451.859C868.278 446.776 845.75 441.411 823.773 436.214C788.568 427.61 752.569 419.859 717.765 412.366C661.935 400.306 613.382 405.171 564.741 427.692C533.791 442.204 502.822 463.296 469.975 492.176C443.764 515.207 419.913 541.047 395.824 567.821C366.025 600.858 324.868 642.958 270.635 675.038C226.473 701.037 178.98 707.492 133.153 713.632C122.972 715.031 112.618 716.417 102.207 718.015C102.413 718.16 102.447 718.292 102.522 718.47C112.807 716.82 123.028 715.468 133.169 714.023C179.169 707.895 226.656 701.527 270.91 675.447C325.183 643.413 366.346 601.227 396.151 568.104C420.366 541.382 444.182 515.41 470.342 492.505C503.189 463.625 534.118 442.487 565.108 428.021C613.433 405.694 661.945 400.783 717.775 412.843C752.534 420.376 788.527 428.213 823.737 436.731Z" fill="#D6D6D6"/>
<path d="M726.141 417.722C758.496 423.699 789.082 429.594 819.879 436.196C844.567 441.629 868.217 446.425 891.265 450.529C891.11 450.259 891.042 449.994 891.048 449.908C868.178 445.73 844.482 440.974 819.995 435.772C789.123 428.991 758.474 423.395 726.13 417.245L714.974 415.198C660.06 404.935 611.746 410.725 562.771 433.698C531.539 448.537 500.162 469.254 466.88 497.54C439.819 520.338 414.624 546.212 391.419 570.842C348.509 616.41 308.14 649.562 264.651 675.219C220.891 701.03 174.464 708.34 129.532 715.323C120.787 716.607 111.904 718.01 102.968 719.541C103.043 719.719 103.123 719.811 103.151 720.03C111.908 718.574 120.659 717.204 129.548 715.713C174.561 708.823 221.034 701.473 264.874 675.754C308.409 650.057 348.789 616.733 391.78 571.257C414.939 546.667 440.14 520.707 467.201 497.909C500.351 469.657 531.688 448.894 562.948 434.274C611.871 411.427 659.886 405.572 714.886 415.841L726.141 417.722Z" fill="#D6D6D6"/>
<path d="M730.377 421.573C759.978 426.056 787.862 430.33 816.054 435.795C841.685 440.732 866.41 444.999 890.413 448.435C890.419 448.348 890.344 448.17 890.236 447.859C866.239 444.337 841.588 440.249 816.049 435.232C787.852 429.853 760.008 425.625 730.424 420.884C724.47 419.985 718.475 419.04 712.262 418.123C658.355 409.576 610.189 416.373 560.799 439.706C529.171 454.647 497.496 475.299 463.928 502.699C435.275 525.99 409.052 551.704 387.225 573.921C345.591 616.03 304.713 648.41 258.699 675.533C215.394 701.03 170.039 709.108 126.053 716.808C118.428 718.171 110.975 719.547 103.614 720.842C103.729 721.067 103.763 721.199 103.837 721.378C111.118 719.99 118.571 718.614 126.104 717.331C170.05 709.585 215.484 701.599 258.933 675.896C304.994 648.733 345.866 616.44 387.505 574.244C409.373 552.073 435.544 526.485 464.163 503.062C497.851 475.8 529.353 455.136 560.896 440.189C610.233 416.982 658.365 410.053 712.146 418.547C718.359 419.465 724.314 420.364 730.377 421.573Z" fill="#D6D6D6"/>
<path d="M732.175 424.385C759.826 427.647 785.874 430.925 812.361 435.36C838.769 439.703 864.357 443.381 889.711 446.047C889.631 445.955 889.378 445.85 889.476 445.684C864.272 442.726 838.713 439.266 812.351 434.883C785.949 430.454 759.889 427.348 732.256 423.828C724.659 422.899 717.274 422.028 709.677 421.099C656.639 414.389 608.752 422.158 558.822 445.8C526.992 461.159 494.898 481.608 461.051 508.036C437.255 526.78 413.167 547.884 383.111 577.092C343.755 615.034 301.234 647.383 252.839 675.766C210.023 701.081 165.621 709.79 122.827 718.397C116.466 719.634 110.323 720.842 104.261 722.144C104.341 722.236 104.409 722.5 104.489 722.593C110.506 721.332 116.603 720.163 122.878 718.92C165.884 710.372 210.251 701.53 253.148 676.307C301.475 647.66 344.082 615.317 383.398 577.329C413.482 548.339 437.542 527.016 461.286 508.399C495.144 481.798 527.054 461.51 558.965 446.243C608.889 422.687 656.621 414.648 709.561 421.524C717.331 422.465 724.67 423.376 732.175 424.385Z" fill="#D6D6D6"/>
<path d="M732.439 426.829C758.713 429.344 783.448 431.576 808.45 434.953C835.64 438.615 862.235 441.499 888.75 443.642C888.676 443.463 888.596 443.371 888.602 443.285C862.092 441.056 835.55 438.046 808.566 434.528C783.523 431.105 758.754 428.74 732.475 426.312C724.17 425.592 715.487 424.716 706.936 423.806C655.032 418.865 607.333 427.686 556.891 451.854C524.571 467.395 492.237 487.567 458.053 513.235C433.217 531.992 408.043 553.148 378.928 579.999C341.584 614.491 299.624 644.975 247.117 675.88C204.755 700.881 161.466 710.405 119.705 719.734C114.74 720.81 109.689 721.88 104.81 722.962C104.97 723.147 105.044 723.325 105.079 723.458C109.917 722.329 114.883 721.253 119.807 720.131C161.695 710.854 204.904 701.238 247.392 676.289C299.905 645.298 341.819 614.854 379.29 580.414C408.45 553.523 433.578 532.407 458.368 513.69C492.558 487.936 524.886 467.85 557.033 452.297C607.556 428.221 655.003 419.296 706.809 424.403C715.417 425.101 724.055 426.017 732.439 426.829Z" fill="#D6D6D6"/>
<path d="M731.988 429.003C756.994 430.433 780.65 431.983 804.724 434.385C832.565 437.4 859.816 439.552 887.517 440.826C887.528 440.654 887.454 440.475 887.38 440.297C859.639 438.976 832.543 437.096 804.668 433.948C780.652 431.333 756.983 429.956 731.943 428.394C722.839 427.964 713.49 427.344 704.22 426.815C653.088 423.228 605.743 433.2 554.834 457.854C522.549 473.527 489.888 493.416 455.09 518.565C429.134 537.242 402.881 558.365 374.69 583.117C339.685 613.792 299.724 641.648 241.213 676.152C199.483 700.766 157.399 711.024 116.676 720.99C112.849 721.887 109.015 722.871 105.188 723.768C105.262 723.946 105.302 723.992 105.417 724.217C109.204 723.274 112.991 722.33 116.819 721.433C157.455 711.461 199.546 701.116 241.356 676.595C299.953 642.097 339.92 614.155 375.011 583.486C403.202 558.734 429.449 537.697 455.325 518.928C490.122 493.779 522.738 473.93 555.109 458.263C605.839 433.683 653.265 423.803 704.202 427.074C713.454 427.861 722.81 428.395 731.988 429.003Z" fill="#D6D6D6"/>
<path d="M730.772 430.951C754.93 431.498 777.95 432.223 800.94 434.029C830.477 436.299 858.626 437.346 886.444 437.546C886.363 437.454 886.375 437.281 886.295 437.189C858.477 436.989 830.248 435.85 800.889 433.506C777.814 431.694 754.954 431.153 730.893 430.441C721.301 430.192 711.325 429.874 701.468 429.693C650.868 427.832 605.175 438.311 552.944 463.953C520.204 479.941 487.222 499.461 452.081 523.936C424.947 542.745 397.54 563.657 370.496 586.196C330.586 619.596 285.692 646.799 235.308 676.425C194.217 700.564 153.463 711.61 113.825 722.173C111.083 723.017 108.261 723.769 105.486 724.481C105.646 724.666 105.726 724.758 105.714 724.93C108.49 724.218 111.272 723.42 114.048 722.708C153.6 712.139 194.48 701.146 235.537 676.874C285.881 647.202 330.907 619.965 370.765 586.691C397.855 564.112 425.308 543.16 452.316 524.299C487.404 499.95 520.387 480.43 553.08 464.482C605.168 439.046 650.952 428.487 701.473 430.256C711.41 430.529 721.352 430.715 730.772 430.951Z" fill="#D6D6D6"/>
<path d="M729.303 432.796C752.721 432.77 774.721 432.601 797.201 433.634C827.36 435.04 856.482 435.159 885.25 434.128C885.083 434.03 885.015 433.765 884.941 433.587C856.299 434.67 827.269 434.47 797.024 433.059C774.722 431.951 752.682 432.075 729.292 432.319C719.378 432.351 709.027 432.438 698.808 432.492C649.381 432.446 603.796 443.885 550.84 469.995C517.744 486.13 484.417 505.626 449.089 529.048C420.243 548.213 392.354 568.57 366.302 589.275C331.332 616.923 293.14 639.19 248.984 665.102C242.623 668.85 236.045 672.625 229.362 676.653C189.122 700.376 149.498 711.979 111.289 723.162C109.346 723.717 107.576 724.284 105.634 724.838C105.748 725.063 105.788 725.109 105.822 725.241C107.719 724.727 109.569 724.252 111.472 723.651C149.779 712.302 189.356 700.739 229.683 677.022C236.36 673.081 242.846 669.385 249.213 665.552C293.495 639.691 331.647 617.378 366.577 589.684C392.715 568.986 420.552 548.754 449.357 529.544C484.686 506.121 517.967 486.666 551.12 470.318C603.973 444.46 649.472 433.015 698.819 432.969C709.21 432.927 719.296 432.908 729.303 432.796Z" fill="#D6D6D6"/>
<path d="M727.616 434.667C750.192 433.673 771.55 432.765 793.25 433.18C824.502 433.797 854.264 432.794 883.758 430.645C883.69 430.381 883.702 430.208 883.581 430.07C854.047 432.172 824.325 433.222 793.286 432.663C771.546 432.202 750.182 433.196 727.52 434.184C717.237 434.536 706.598 435.036 696.057 435.37C647.874 436.754 602.602 449.297 548.829 475.956C515.175 492.658 481.487 511.738 446.085 534.333C414.842 554.366 387.353 573.323 362.022 592.348C332.406 614.531 299.339 633.396 264.34 653.292C251.142 660.796 237.587 668.449 223.555 676.76C184.132 699.935 145.937 712.158 108.991 723.864C107.881 724.262 106.904 724.625 105.8 724.937C105.835 725.069 105.915 725.161 105.989 725.34C107.052 724.982 108.11 724.711 109.173 724.354C146.126 712.562 184.36 700.384 223.743 677.163C237.776 668.852 251.423 661.119 264.569 653.741C299.574 633.759 332.641 614.894 362.349 592.631C387.679 573.606 415.209 554.695 446.366 534.656C481.813 512.021 515.409 493.021 549.069 476.233C602.791 449.7 648.143 437.249 696.028 435.801C706.741 435.479 717.328 435.105 727.616 434.667Z" fill="#D6D6D6"/>
<path d="M725.591 436.428C747.611 434.702 768.413 433.062 789.472 432.739C821.582 432.205 851.851 430.112 882.262 426.6C882.273 426.428 882.193 426.335 882.119 426.157C851.674 429.536 821.439 431.762 789.467 432.176C768.421 432.326 747.52 434.133 725.466 435.727C714.975 436.584 704.187 437.376 693.265 438.202C646.492 441.115 601.58 454.723 546.777 481.871C512.341 499.253 478.372 518.011 443.042 539.572C409.069 560.277 381.92 578.046 357.708 595.288C331.54 613.907 302.845 629.619 272.402 646.202C254.823 655.733 236.651 665.699 217.529 676.895C179.181 699.541 142.341 712.206 106.783 724.487C106.387 724.589 105.99 724.691 105.634 724.838C105.708 725.017 105.742 725.149 105.857 725.374C106.213 725.226 106.524 725.118 106.966 724.976C142.65 712.748 179.364 700.03 217.758 677.344C236.834 666.188 255.046 656.268 272.671 646.697C303.114 630.114 331.855 614.362 357.977 595.784C382.103 578.535 409.286 560.898 443.271 540.021C478.595 518.546 512.535 499.57 547 482.407C601.59 455.2 646.715 441.65 693.19 438.673C704.311 438.078 715.1 437.285 725.591 436.428Z" fill="#D6D6D6"/>
<path d="M723.577 438.017C744.99 435.684 765.162 433.134 785.739 432.257C818.385 430.852 849.623 427.269 880.605 422.369C880.524 422.277 880.53 422.191 880.37 422.006C849.4 426.734 818.208 430.277 785.729 431.78C765.146 432.743 744.951 434.989 723.388 437.614C712.616 438.797 701.831 440.152 690.634 441.219C644.966 445.682 601.409 459.732 544.921 488.103C509.236 506.002 474.935 524.563 440.21 544.868C413.468 560.502 382.326 579.07 353.641 598.419C329.954 614.314 304.147 627.676 276.811 641.883C256.024 652.745 234.397 663.85 211.796 677.18C174.759 699.01 139.671 712.017 105.606 724.62C105.68 724.798 105.754 724.977 105.788 725.109C139.767 712.5 174.902 699.453 212.065 677.676C234.58 664.339 256.212 653.148 276.993 642.372C304.37 628.212 330.223 614.809 353.829 598.822C382.647 579.44 413.663 560.819 440.267 545.305C475.164 525.012 509.431 506.319 545.109 488.506C601.603 460.049 645.022 446.119 690.783 441.576C701.848 440.543 712.845 439.246 723.577 438.017Z" fill="#D6D6D6"/>
<path d="M878.822 417.438C847.136 423.76 815.592 428.663 781.869 431.247C762.014 432.954 742.128 435.741 721.248 439.151C710.445 440.765 699.161 442.474 687.968 444.104C633.023 451.285 585.827 472.307 543.001 493.985C504.936 513.144 470.468 531.606 437.246 550.2C404.974 568.212 376.065 584.514 349.406 601.453C327.584 615.401 303.889 627.009 278.849 639.301C255.39 650.622 231.286 662.504 205.85 677.408C170.613 698.24 137.454 711.514 105.37 724.257C105.45 724.35 105.571 724.488 105.605 724.62C137.643 711.917 170.802 698.643 206.118 677.904C231.475 662.907 255.659 651.118 278.991 639.744C304.032 627.452 327.727 615.844 349.635 601.902C376.293 584.963 405.242 568.707 437.389 550.643C470.611 532.049 505.245 513.685 543.138 494.514C585.912 472.962 632.982 451.888 687.978 444.581C699.343 442.963 710.444 441.414 721.246 439.8C742.115 436.563 761.933 433.511 781.868 431.896C815.504 429.306 847.187 424.283 879.005 417.927C878.89 417.703 878.81 417.611 878.822 417.438Z" fill="#D6D6D6"/>
<path d="M877.069 412.725C844.661 420.727 812.712 427.116 778.165 430.984C758.631 433.06 739.363 436.93 718.803 440.708C707.972 442.753 696.571 444.888 685.096 446.843C635.732 455.33 591.671 474.193 540.984 500.032C508.944 516.545 471.678 535.414 434.157 555.478C430.609 557.347 427.015 559.257 423.375 561.206C395.785 575.957 369.724 589.865 345.126 604.525C324.629 616.836 302.591 627.003 279.26 637.728C253.824 649.472 227.595 661.419 199.944 677.681C166.427 697.423 135.17 710.745 104.941 723.577C105.015 723.756 105.096 723.848 105.17 724.026C135.439 711.24 166.61 697.912 200.173 678.13C227.818 661.955 254.019 649.789 279.443 638.217C302.78 627.406 324.898 617.332 345.395 605.021C369.907 590.354 395.967 576.446 423.598 561.741C427.146 559.872 430.74 557.963 434.38 556.013C471.763 536.07 509.047 516.942 541.028 500.641C591.934 474.774 635.869 455.859 685.175 447.585C696.484 445.531 707.964 443.489 718.808 441.272C739.282 437.487 758.457 433.697 778.043 431.495C812.584 427.713 844.792 421.342 877.079 413.202C877.131 413.075 877.143 412.903 877.069 412.725Z" fill="#D6D6D6"/>
<path d="M875.121 407.694C842.216 417.263 809.717 425.345 774.26 430.49C755.334 433.172 736.255 437.445 716.365 442.18C705.418 444.649 694.062 447.393 682.477 449.687C630.753 460.387 583.163 483.372 538.881 506.073C520.13 515.65 501.379 525.228 481.697 535.13C465.234 543.528 448.289 552.022 431.246 560.682C423.845 564.442 416.497 568.077 409.321 571.723C385.286 583.869 362.59 595.418 340.979 607.564C321.616 618.483 300.753 627.305 278.717 636.823C251.644 648.451 223.68 660.448 194.051 677.782C162.34 696.44 132.943 709.764 104.536 722.552C104.616 722.645 104.69 722.823 104.765 723.001C133.172 710.213 162.529 696.843 194.366 678.237C223.783 660.845 251.833 648.854 278.946 637.272C300.976 627.841 321.805 618.886 341.214 607.927C362.825 595.781 385.475 584.272 409.55 572.172C416.634 568.606 424.034 564.845 431.394 561.039C448.484 552.339 465.389 543.799 481.833 535.659C501.654 525.637 520.267 516.18 539.15 506.568C583.339 483.948 630.804 460.91 682.608 450.303C694.251 447.796 705.555 445.179 716.514 442.537C736.438 437.934 755.299 433.689 774.323 430.84C809.854 425.874 842.353 417.792 875.257 408.223C875.269 408.051 875.201 407.786 875.121 407.694Z" fill="#D6D6D6"/>
<path d="M873.017 402.394C839.552 413.827 806.687 423.442 770.441 430.003C751.812 433.399 733.466 438.33 714.018 443.573C702.943 446.639 691.465 449.894 679.845 452.705C631.606 464.345 588.424 485.522 536.989 512.173C503.788 529.21 470.387 545.367 435.009 562.595L428.327 565.974C418.029 570.957 407.824 575.86 397.934 580.569C376.453 590.819 356.18 600.505 336.825 610.69C318.36 620.504 298.475 628.313 277.429 636.646C248.858 648.037 219.356 659.752 188.191 678.016C158.24 695.63 130.67 708.824 103.997 721.563C104.077 721.655 104.151 721.833 104.226 722.012C130.893 709.359 158.376 696.159 188.46 678.511C219.446 660.322 249.087 648.487 277.618 637.049C298.618 628.756 318.423 620.855 336.967 611.133C356.283 600.902 376.556 591.216 398.083 580.926C407.84 576.251 418.132 571.354 428.384 566.411L435.146 563.124C470.61 545.902 503.936 529.567 537.144 512.444C588.521 486.005 631.789 464.834 679.867 453.01C691.488 450.198 702.947 447.202 714.017 444.222C733.649 438.819 751.828 433.79 770.537 430.486C806.818 424.058 839.648 414.311 873.298 402.717C873.258 402.671 873.263 402.585 873.017 402.394Z" fill="#D6D6D6"/>
<path d="M871.025 396.754C837.177 409.979 803.435 421.652 766.663 429.561C748.515 433.511 730.646 439.082 711.488 445.124C700.476 448.541 688.968 452.227 677.14 455.543C630.277 468.579 586.46 491.442 540.004 515.547L535.059 518.226C501.443 535.623 466.899 552.045 425.279 571.298C412.768 576.99 400.349 582.602 388.339 587.939C368.82 596.727 350.382 604.898 332.592 613.722C314.807 622.459 295.843 629.468 275.73 636.828C245.758 647.817 214.802 659.255 182.373 678.295C154.728 694.471 129.571 707.187 105.14 719.435C104.605 719.657 104.018 720.005 103.432 720.353C103.426 720.439 103.632 720.584 103.666 720.716C104.201 720.494 104.788 720.146 105.328 719.838C129.76 707.59 154.997 694.966 182.561 678.698C214.859 659.692 245.854 648.3 275.826 637.311C295.94 629.951 314.904 622.942 332.734 614.165C350.386 605.461 368.876 597.164 388.436 588.423C400.406 583.039 412.859 577.559 425.467 571.701C466.91 552.522 501.454 536.1 535.167 518.537L540.055 516.07C586.505 492.052 630.327 469.102 677.197 455.98C689.019 452.75 700.532 448.978 711.539 445.647C730.65 439.645 748.526 433.988 766.708 430.17C803.48 422.262 837.221 410.588 871.15 397.456C871.081 397.191 871.105 396.846 871.025 396.754Z" fill="#D6D6D6"/>
<path d="M868.647 391.044C834.537 406.198 800.406 419.749 762.798 429.113C745.138 433.53 727.651 439.821 709.016 446.464C697.789 450.472 686.298 454.548 674.401 458.248C632.522 471.812 593.092 492.562 551.288 514.486C545.301 517.828 539.114 520.938 533.008 524.141C494.705 544.235 455.621 561.85 422.327 576.456C407.862 582.875 393.466 588.909 379.605 594.722C361.646 602.235 344.669 609.298 328.312 616.795C311.184 624.799 292.888 630.903 273.396 637.398C242.288 647.917 210.07 658.833 176.427 678.522C151.98 692.89 129.617 704.636 107.927 716.04C106.087 716.992 104.379 717.909 102.539 718.861C102.613 719.039 102.733 719.178 102.814 719.27C104.562 718.398 106.362 717.401 108.156 716.489C129.8 705.125 152.162 693.38 176.656 678.971C210.219 659.189 242.391 648.313 273.533 637.927C292.944 631.34 311.246 625.15 328.454 617.238C344.725 609.735 361.742 602.718 379.662 595.159C393.569 589.306 407.872 583.352 422.378 576.979C455.631 562.327 494.814 544.546 533.018 524.618C539.217 521.335 545.398 518.311 551.373 515.142C593.189 493.045 632.532 472.289 674.399 458.898C686.263 455.065 697.76 450.903 709.026 446.941C727.61 440.424 745.136 434.18 762.889 429.682C800.423 420.139 834.541 406.761 868.83 391.533C868.716 391.308 868.9 391.148 868.647 391.044Z" fill="#D6D6D6"/>
<path d="M866.385 384.909C831.661 402.054 797.257 417.707 758.979 428.626C741.754 433.637 724.49 440.463 706.41 447.837C695.154 452.276 683.714 456.875 671.643 461.213C634.578 474.642 599.115 493.726 561.68 513.796C551.743 519.194 541.496 524.701 531.03 530.235C499.956 546.557 465.527 562.554 419.357 581.873C403.139 588.601 387.221 594.743 371.786 600.79C355.109 607.269 339.278 613.418 324.158 619.92C307.525 627.007 289.748 632.498 270.959 638.221C238.594 648.131 205.251 658.404 170.607 678.802C150.042 690.848 130.973 701.269 112.663 711.355C108.977 713.344 105.423 715.3 101.91 717.301C101.944 717.434 102.064 717.572 102.098 717.704C105.652 715.749 109.206 713.793 112.846 711.844C131.282 701.811 150.225 691.337 170.836 679.251C205.515 658.986 238.857 648.712 271.136 638.796C289.885 633.028 307.702 627.583 324.34 620.409C339.501 613.953 355.286 607.844 372.009 601.326C387.352 595.359 403.402 589.182 419.546 582.276C465.664 563.083 500.086 547.172 531.305 530.644C541.672 525.276 551.972 519.643 561.949 514.291C599.257 494.169 634.766 475.045 671.779 461.742C683.765 457.398 695.377 452.812 706.553 448.28C724.874 441.183 741.844 434.206 759.196 429.247C797.652 418.255 831.97 402.596 866.7 385.365C866.447 385.26 866.413 385.128 866.385 384.909Z" fill="#D6D6D6"/>
<path d="M703.948 449.654C721.501 441.766 738.369 434.392 755.377 428.76C794.342 416.029 828.763 398.256 864.025 378.941C863.945 378.849 863.865 378.756 863.888 378.412C828.706 397.819 794.125 415.407 755.241 428.231C738.324 433.783 721.496 441.203 703.679 449.159C692.388 454.115 680.912 459.231 668.931 464.138C635.951 477.337 604.455 494.755 571.113 513.21C557.564 520.777 543.349 528.599 528.979 536.15C497.438 552.958 461.706 569.036 416.279 586.98C398.567 594.034 381.213 600.291 364.302 606.407C348.724 612.011 334.031 617.331 319.797 622.901C303.603 629.283 286.35 634.076 267.993 639.179C234.682 648.373 200.255 658.05 164.542 678.891C148.617 688.28 133.757 696.662 119.3 704.856C113.043 708.352 106.826 711.893 100.788 715.36C100.948 715.545 100.983 715.677 101.017 715.81C107.141 712.348 113.312 708.847 119.615 705.312C133.986 697.111 148.886 688.775 164.857 679.346C200.404 658.406 234.818 648.902 268.222 639.628C286.493 634.519 303.746 629.726 320.032 623.264C334.226 617.648 348.959 612.374 364.537 606.77C381.35 600.82 398.75 594.523 416.462 587.469C461.848 569.479 497.719 553.281 529.248 536.645C543.629 528.922 557.707 521.22 571.341 513.66C604.551 495.238 636.225 477.747 669.028 464.621C681.089 459.806 692.783 454.662 703.948 449.654Z" fill="#D6D6D6"/>
<path d="M579.935 513.317C609.461 496.236 637.559 480.395 666.363 467.505C678.379 462.081 690.108 456.42 701.131 450.969C718.633 442.558 735.038 434.372 751.639 428.364C791.383 413.74 825.9 393.94 861.362 372.345C861.374 372.172 861.294 372.08 861.219 371.902C825.597 393.312 791.068 413.285 751.496 427.921C734.883 434.101 718.37 441.976 700.988 450.526C689.753 455.919 678.19 461.678 666.26 467.108C637.238 480.026 609.3 496.051 579.747 512.914C562.667 522.741 545.196 532.582 527.082 542.335C495.041 559.498 458.856 575.241 413.396 592.403C394.248 599.571 375.556 605.777 357.438 611.807C342.821 616.656 329.095 621.136 315.684 626.072C299.922 631.836 283.015 636.003 265.176 640.494C230.872 649.011 195.379 657.833 158.849 679.222C148.698 685.212 138.916 690.881 129.444 696.442C119.259 702.299 109.477 707.968 99.9532 713.656C100.073 713.794 100.108 713.927 100.142 714.059C109.654 708.544 119.528 702.794 129.679 696.805C139.099 691.37 148.927 685.661 159.072 679.758C195.562 658.322 231.049 649.586 265.359 640.983C283.151 636.532 299.973 632.359 315.867 626.561C329.226 621.752 342.958 617.185 357.569 612.422C375.687 606.392 394.465 600.193 413.613 593.024C459.113 575.908 495.264 560.033 527.293 543.043C545.459 533.164 563.04 522.983 579.935 513.317Z" fill="#D6D6D6"/>
<path d="M587.53 513.033C613.577 497.437 638.313 482.656 663.698 470.389C675.755 464.362 687.296 458.298 698.533 452.256C715.605 443.165 731.707 434.351 747.694 427.824C788 411.335 822.757 389.3 858.763 365.449C858.677 365.443 858.437 365.166 858.615 365.093C822.447 388.759 787.937 410.984 747.546 427.467C731.426 434.028 715.17 442.571 698.396 451.727C687.159 457.769 675.607 464.005 663.475 469.853C638.124 482.253 613.44 496.907 587.393 512.504C567.31 524.455 546.693 536.628 525.065 548.382C492.536 565.726 456.098 581.365 410.439 597.647C390.079 604.816 370.135 610.976 350.817 616.834C337.028 620.963 324.199 624.987 311.537 629.11C296.115 634.335 279.593 637.924 262.147 641.75C228.569 649.15 190.377 657.564 152.95 679.409L143.788 684.862C127.778 694.245 112.94 702.932 98.9416 711.376C98.9758 711.508 99.004 711.726 99.0843 711.819C113.083 703.375 128.052 694.654 143.977 685.265L153.185 679.772C190.526 657.921 228.626 649.587 262.163 642.141C279.65 638.361 296.131 634.726 311.686 629.467C324.216 625.378 337.171 621.406 350.914 617.317C370.191 611.413 390.216 605.345 410.582 598.09C456.367 581.86 492.81 566.136 525.306 548.659C546.962 537.123 567.631 524.824 587.53 513.033Z" fill="#D6D6D6"/>
<path d="M594.394 512.656C617.313 498.482 638.841 485.032 661.032 473.274C673.239 466.954 684.805 459.897 695.973 453.59C712.588 443.601 728.271 434.584 744.087 427.395C784.994 409.087 819.538 384.484 855.997 358.457C856.009 358.285 855.854 358.014 855.86 357.928C819.367 383.822 784.639 408.586 743.939 427.039C728.042 434.135 712.353 443.238 695.676 452.876C684.484 459.528 673.022 466.333 660.901 472.658C638.745 484.549 617.131 497.993 594.171 512.12C571.551 526.358 547.999 540.92 523.111 554.132C490.201 571.968 453.477 587.37 407.401 602.8C385.829 609.97 364.736 615.831 344.264 621.477C331.379 625.065 319.114 628.436 307.268 632.011C292.106 636.605 275.925 639.656 258.898 643.036C224.38 649.632 185.254 657.157 147.062 679.424C129.377 689.857 113.044 699.52 97.8429 709.09C97.8771 709.223 97.9514 709.401 98.0316 709.493C113.313 700.015 129.652 690.266 147.377 679.88C185.442 657.56 224.483 650.029 258.995 643.519C276.061 640.185 292.243 637.135 307.537 632.506C319.389 628.846 331.521 625.508 344.447 621.967C364.833 616.314 385.966 610.499 407.63 603.249C453.706 587.819 490.424 572.504 523.248 554.661C548.228 541.369 571.693 526.802 594.394 512.656Z" fill="#D6D6D6"/>
<path d="M600.386 512.388C620.247 499.253 639.136 487.044 658.372 476.072C670.403 469.177 682.079 461.781 693.214 454.692C709.508 444.334 724.847 434.644 740.315 426.867C781.254 406.83 815.509 380.128 851.944 351.935C852.266 351.655 852.675 351.381 852.905 351.181C852.929 350.836 852.762 350.738 852.86 350.572C852.366 350.84 852.078 351.252 851.537 351.56C815.32 379.725 781.111 406.387 740.08 426.504C724.578 434.149 709.239 443.839 692.893 454.323C681.798 461.458 670.214 468.774 658.138 475.709C638.861 486.635 620.053 498.936 600.071 511.933C574.959 528.418 549.001 545.234 521.088 560.265C487.902 578.342 450.891 593.506 404.524 608.136C381.694 615.347 359.499 620.87 337.965 626.225C325.77 629.212 314.322 632.035 303.155 635.182C288.206 639.185 272.353 641.869 255.5 644.612C220.174 650.372 180.113 657.009 141.283 679.75C125.18 689.213 110.417 698.078 96.7449 706.804C96.7732 707.023 96.8475 707.201 96.8876 707.247C110.645 698.527 125.455 689.622 141.557 680.159C180.342 657.458 220.311 650.902 255.603 645.009C272.502 642.226 288.389 639.675 303.344 635.585C314.551 632.484 325.999 629.661 338.234 626.72C359.687 621.273 381.882 615.75 404.712 608.539C451.08 593.909 488.223 578.711 521.49 560.726C549.184 545.723 575.285 528.701 600.386 512.388Z" fill="#D6D6D6"/>
<path d="M605.51 512.146C622.721 500.424 639.068 489.29 655.535 478.944C667.779 471.458 679.318 463.533 690.368 455.789C706.353 444.889 721.344 434.612 736.576 426.472C776.432 405.189 809.46 377.447 844.422 348.024C846.257 346.51 848.093 344.995 849.928 343.48C849.854 343.302 849.693 343.117 849.792 342.951C847.772 344.626 845.988 346.014 844.187 347.661C809.22 377.17 776.111 404.82 736.342 426.109C721.149 434.295 706.113 444.613 690.168 455.559C679.043 463.124 667.458 471.089 655.34 478.627C638.885 488.801 622.526 500.107 605.413 511.663C578.108 530.46 549.865 549.667 519.192 566.451C485.603 584.716 448.259 599.683 401.56 613.467C377.656 620.558 354.359 625.744 331.895 630.772C320.379 633.331 309.61 635.727 298.955 638.347C284.255 641.892 268.655 644.031 252.05 646.315C216.002 651.245 175.013 656.906 135.411 680.155C121.344 688.334 107.973 696.476 95.4744 704.506C95.5487 704.685 95.5829 704.817 95.6171 704.949C108.294 696.845 121.567 688.87 135.6 680.559C175.155 657.349 216.053 651.768 252.107 646.752C268.706 644.554 284.305 642.415 299.098 638.79C309.666 636.164 320.516 633.861 331.992 631.255C354.45 626.313 377.707 621.081 401.697 613.997C448.402 600.126 485.786 585.205 519.334 566.894C550.146 549.99 578.342 530.823 605.51 512.146Z" fill="#D6D6D6"/>
<path d="M610.157 511.913C624.826 501.266 638.679 491.167 652.909 481.874C665.115 473.693 676.511 465.325 687.723 457.116C703.233 445.577 718.006 434.678 732.625 426.018C771.392 403.576 803.371 374.72 837.198 344.178C840.466 341.336 843.516 338.523 846.647 335.801C846.59 335.364 846.51 335.272 846.516 335.186C843.322 338.206 840.099 341.007 836.871 343.895C803.096 374.311 771.163 403.127 732.39 425.655C717.593 434.389 702.924 445.035 687.46 456.535C676.19 464.956 664.886 473.244 652.64 481.379C638.438 490.89 624.592 500.903 609.836 511.544C580.654 532.459 550.504 554.215 517.14 572.366C483.804 590.735 444.977 605.857 398.516 618.706C373.538 625.677 349.191 630.399 325.671 635.049C314.88 637.14 304.743 639.148 294.727 641.294C280.182 644.46 264.785 646.181 248.434 647.92C211.531 652.053 169.665 656.613 129.391 680.204C116.848 687.625 105.098 694.843 94.0893 701.984C94.1695 702.076 94.2439 702.254 94.3182 702.433C105.235 695.372 116.985 688.155 129.666 680.613C169.848 657.102 211.628 652.536 248.484 648.443C264.881 646.664 280.279 644.943 294.824 641.777C304.794 639.671 314.976 637.623 325.814 635.492C349.288 630.882 373.641 626.074 398.699 619.195C445.12 606.3 484.033 591.184 517.363 572.901C550.739 554.578 580.934 532.782 610.157 511.913Z" fill="#D6D6D6"/>
<path d="M614.082 511.499C626.497 502.164 638.359 493.309 650.244 484.759C662.319 475.962 673.716 466.945 684.832 458.253C700.033 446.172 714.497 434.731 728.881 425.709C766.697 401.987 797.449 372.092 830.153 340.258C834.464 336.105 838.78 331.866 843.35 327.731C843.103 327.541 843.115 327.368 843.035 327.276C838.546 331.503 834.137 335.822 829.74 339.969C797.036 371.803 766.296 401.526 728.566 425.254C714.216 434.408 699.758 445.763 684.511 457.884C673.396 466.575 661.912 475.587 649.843 484.297C637.906 492.974 626.21 501.927 613.709 511.256C582.93 534.612 550.88 558.83 515.117 578.499C481.419 597.102 442.266 611.942 395.507 624.077C369.381 630.75 344.064 635.099 319.626 639.252C309.421 640.995 299.871 642.654 290.442 644.452C276.105 647.114 260.995 648.422 244.754 649.823C207.102 652.907 164.433 656.545 123.526 680.524C112.565 686.975 102.397 693.223 92.705 699.461C92.7793 699.639 92.8596 699.732 92.9799 699.87C102.591 693.539 112.806 687.252 123.761 680.887C164.576 656.988 207.278 653.483 244.903 650.18C261.006 648.899 276.247 647.557 290.59 644.809C299.974 643.051 309.564 641.438 319.723 639.735C344.081 635.49 369.392 631.227 395.57 624.427C442.454 612.345 481.654 597.465 515.306 578.902C551.207 559.113 583.245 535.067 614.082 511.499Z" fill="#D6D6D6"/>
<path d="M617.298 511.295C627.689 503.071 637.619 495.248 647.538 487.597C659.608 478.238 671.087 468.663 682.118 459.316C696.969 446.648 711.004 434.527 725.068 425.136C761.961 400.352 791.762 369.178 823.451 336.362C828.856 330.772 834.36 325.015 839.845 319.517C839.696 319.16 839.788 319.08 839.622 318.982C834.165 324.699 828.622 330.409 823.124 336.079C791.522 368.901 761.686 399.943 724.833 424.773C710.717 434.29 696.643 446.365 681.625 458.935C670.732 468.162 659.413 477.921 647.303 487.234C637.39 494.799 627.506 502.582 617.069 510.846C584.734 536.689 551.358 563.194 513.105 584.461C479.263 603.27 439.863 617.919 392.555 629.235C365.355 635.789 339.08 639.594 313.592 643.283C304.1 644.73 295.056 645.949 286.213 647.399C272.072 649.729 257.078 650.612 241.131 651.514C202.67 653.762 159.166 656.344 117.632 680.625C108.431 686.032 99.7517 691.39 91.4175 696.772C91.5319 696.997 91.5661 697.129 91.6463 697.222C99.8944 691.833 108.619 686.435 117.815 681.114C159.302 656.873 202.761 654.331 241.176 652.124C257.089 651.089 272.169 650.212 286.264 647.922C295.147 646.518 304.11 645.207 313.682 643.852C339.084 640.158 365.412 636.226 392.606 629.758C439.914 618.442 479.36 603.753 513.374 584.956C551.581 563.729 585.009 537.098 617.298 511.295Z" fill="#D6D6D6"/>
<path d="M620.171 511.066C628.715 503.88 636.668 497.129 644.878 490.396C656.898 480.513 668.166 470.231 679.106 460.315C693.769 447.243 707.529 434.713 721.415 424.747C757.358 398.684 786.231 366.534 816.796 332.427C823.164 325.433 829.629 318.273 836.267 311.125C836.198 310.86 836.21 310.688 836.136 310.509C829.36 317.777 822.941 324.897 816.51 332.19C785.996 366.171 756.991 398.354 721.146 424.251C707.254 434.304 693.506 446.661 678.911 459.998C668.011 469.96 656.709 480.11 644.643 490.033C636.525 496.686 628.268 503.459 619.908 510.484C586.229 538.873 551.596 567.929 511.22 590.474C477.102 609.524 437.289 623.883 389.643 634.44C361.416 640.834 334.182 644.095 307.868 647.205C298.831 648.339 290.362 649.382 282.151 650.444C268.172 652.309 253.329 652.9 237.583 653.384C198.412 654.629 154.065 656.242 111.905 680.824C104.331 685.222 97.1818 689.736 90.2168 694.09C90.3312 694.314 90.4516 694.453 90.4858 694.585C97.4166 690.099 104.56 685.671 112.14 681.187C154.128 656.592 198.463 655.152 237.594 653.861C253.385 653.337 268.183 652.786 282.208 650.881C290.597 649.745 298.933 648.735 307.925 647.642C334.245 644.446 361.57 641.105 389.786 634.883C437.437 624.24 477.296 609.841 511.455 590.837C551.773 568.505 586.55 539.242 620.171 511.066Z" fill="#D6D6D6"/>
<path d="M622.493 510.668C629.139 504.646 635.596 498.871 642.121 493.36C654.28 482.708 665.498 471.902 676.261 461.411C690.528 447.792 704.065 434.727 717.545 424.385C752.623 397.048 780.745 363.85 810.302 328.675C817.529 319.881 825.055 311.151 832.494 302.415C832.414 302.322 832.346 302.058 832.265 301.966C824.74 310.695 817.254 319.471 809.803 328.38C780.379 363.521 752.302 396.679 717.282 423.803C703.785 434.404 690.254 447.383 675.9 460.996C665.137 471.487 653.873 482.332 641.766 492.858C635.355 498.594 628.916 504.111 622.137 510.166C587.432 540.906 551.621 572.606 509.164 596.475C474.815 615.725 434.669 629.888 386.594 639.764C357.23 645.688 329.033 648.491 301.761 651.057C293.39 651.935 285.594 652.637 277.872 653.517C264.009 654.957 249.241 655.077 233.731 655.275C193.844 655.603 148.627 656.028 105.92 681.005C100.014 684.439 94.3199 687.93 88.7523 691.475C88.8727 691.613 88.947 691.791 89.0673 691.93C94.5428 688.466 100.277 685.02 106.149 681.454C148.809 656.518 193.849 656.166 233.742 655.751C249.331 655.646 264.099 655.526 278.009 654.046C285.638 653.246 293.573 652.424 301.851 651.626C329.17 649.021 357.321 646.257 386.737 640.207C434.852 630.377 474.998 616.214 509.479 596.93C551.838 573.228 587.695 541.487 622.493 510.668Z" fill="#D6D6D6"/>
<path d="M624.297 510.233C629.332 505.612 634.334 500.859 639.421 496.112C651.478 485.063 662.478 473.636 673.375 462.462C687.333 448.301 700.561 434.695 713.634 423.978C748.047 395.598 775.179 361.074 803.819 324.752C811.98 314.335 820.129 304.091 828.508 293.647C828.428 293.555 828.354 293.376 828.446 293.296C819.82 303.55 811.739 314.058 803.579 324.475C774.72 360.825 747.692 395.097 713.325 423.436C700.148 434.406 686.926 447.926 673.174 462.231C662.283 473.319 651.03 484.642 639.054 495.783C634.093 500.582 628.879 505.277 623.976 509.864C588.265 543.26 551.53 577.708 507.14 602.609C472.549 622.231 432.083 636.025 383.538 645.175C353.238 650.86 323.963 652.98 295.772 655.048C288.114 655.63 280.847 656.196 273.666 656.768C259.912 657.87 245.34 657.658 229.947 657.43C189.298 656.882 143.295 656.126 100.042 681.497C95.7117 684.047 91.5594 686.523 87.4873 689.091C87.5617 689.269 87.5498 689.441 87.63 689.534C91.8284 687.018 95.9064 684.364 100.185 681.94C143.444 656.483 189.4 657.279 229.877 657.815C245.317 658.002 259.889 658.214 273.682 657.159C280.829 656.454 288.131 656.02 295.789 655.439C324.111 653.337 353.255 651.25 383.687 645.532C432.317 636.388 472.71 622.416 507.381 602.886C551.724 578.025 588.638 543.503 624.297 510.233Z" fill="#D6D6D6"/>
<path d="M625.809 509.647C629.51 506.187 633.038 502.715 636.756 498.996C648.768 487.338 659.868 475.095 670.576 463.518C684.311 448.822 697.126 434.926 709.948 423.456C743.577 393.895 769.78 358.395 797.636 320.892C806.432 308.789 815.435 296.831 824.696 284.891C824.633 284.54 824.639 284.454 824.473 284.355C815.206 296.382 806.231 308.559 797.281 320.391C769.505 357.986 743.216 393.48 709.759 423.053C696.903 434.391 683.95 448.407 670.427 463.161C659.627 474.819 648.407 486.923 636.614 498.553C632.953 502.059 629.195 505.732 625.534 509.238C589.123 545.268 551.555 582.385 505.348 608.542C470.492 628.232 429.779 641.835 380.766 650.26C349.323 655.56 317.877 657.136 289.993 658.533C282.916 658.853 276.183 659.198 269.577 659.594C255.933 660.357 241.557 659.813 226.267 659.333C184.954 657.742 138.121 655.845 94.2875 681.478C91.5846 683.017 88.9619 684.649 86.2531 686.275C86.3274 686.454 86.4077 686.546 86.482 686.724C89.1507 685.052 91.7273 683.46 94.5163 681.927C138.172 656.368 184.93 658.086 226.198 659.718C241.521 660.33 255.984 660.88 269.587 660.071C276.188 659.761 282.874 659.456 289.917 659.004C317.802 657.607 349.414 656.129 380.862 650.743C429.83 642.358 470.681 628.635 505.576 608.991C551.652 582.868 589.398 545.677 625.809 509.647Z" fill="#D6D6D6"/>
<path d="M626.833 509.244C629.204 506.858 631.628 504.346 634.085 501.966C646.07 489.441 657.016 476.927 667.604 464.562C680.778 449.22 693.463 434.709 706.17 423.014C739.008 392.358 764.381 355.718 791.378 316.855C800.838 303.284 810.395 289.546 820.47 275.846C820.315 275.575 820.408 275.495 820.167 275.218C810.126 289.051 800.517 302.914 791.045 316.658C763.928 355.382 738.515 391.977 705.762 422.639C693.262 434.479 680.538 448.943 667.197 464.187C656.608 476.552 645.485 489.139 633.5 501.665C631.307 503.977 628.923 506.535 626.466 508.915C591.127 545.714 551.12 587.462 503.153 614.663C468.021 634.593 427.016 648.045 377.584 655.618C345.12 660.672 312.469 661.514 283.811 662.207C277.303 662.437 271.191 662.566 265.159 662.787C251.625 663.211 237.319 662.282 222.185 661.424C180.116 658.87 132.493 655.878 88.1641 681.779C86.9968 682.388 85.9038 683.177 84.7766 683.833C84.8568 683.925 84.8851 684.143 84.9653 684.236C86.0925 683.58 87.2256 682.838 88.4389 682.188C132.629 656.407 180.218 659.267 222.11 661.895C237.283 662.799 251.63 663.775 265.21 663.31C271.195 663.129 277.353 662.96 283.862 662.73C312.48 661.991 345.171 661.195 377.681 656.101C427.198 648.535 468.336 635.048 503.341 615.066C551.36 587.739 591.534 546.089 626.833 509.244Z" fill="#D6D6D6"/>
<path d="M627.729 508.788L631.253 504.753C643.187 491.704 654.18 478.501 664.69 465.395C677.801 449.702 689.986 434.896 702.304 422.567C734.445 390.736 759.073 352.96 785.325 312.962C795.306 297.48 805.367 282.09 816.209 266.669C816.141 266.405 816.06 266.312 815.986 266.134C805.132 281.727 794.927 297.323 784.832 312.581C758.666 352.585 734.084 390.321 702.063 422.29C689.631 434.394 677.348 449.367 664.357 465.198C653.773 478.126 642.86 491.421 631.018 504.39L627.368 508.373C591.501 547.818 550.827 592.334 501.267 620.677C466.032 640.859 424.613 654.023 374.666 660.909C341.02 665.533 307.469 665.619 277.852 665.767C271.965 665.782 266.514 665.741 260.965 665.866C247.541 665.952 233.384 664.731 218.36 663.534C175.937 659.829 128.081 655.825 83.5634 681.323C83.5976 681.455 83.7179 681.593 83.7922 681.772C128.171 656.394 175.988 660.352 218.325 664.051C233.349 665.248 247.631 666.521 261.055 666.436C266.604 666.31 272.009 666.391 277.817 666.284C307.467 666.268 341.11 666.102 374.803 661.438C424.664 654.546 466.128 641.342 501.45 621.166C551.102 592.743 591.914 548.108 627.729 508.788Z" fill="#D6D6D6"/>
<path d="M628.116 508.209L628.508 507.545C640.437 493.933 651.397 479.949 661.713 466.525C674.533 450.032 686.495 434.691 698.394 422.159C729.928 389.073 753.892 350.254 779.274 309.069C789.758 291.934 800.518 274.559 811.915 257.359C811.835 257.267 811.674 257.083 811.686 256.91C800.065 274.224 789.477 291.611 778.815 308.82C753.445 349.833 729.733 388.756 698.199 421.842C686.122 434.448 674.074 449.783 661.432 466.202C650.898 479.653 640.024 493.643 628.141 507.215L627.749 507.88C591.584 549.772 550.444 597.285 499.216 626.592C463.745 647.06 422.045 659.901 371.669 666.107C336.966 670.353 302.343 669.67 271.78 669.102C266.64 668.953 261.752 668.909 256.777 668.859C243.463 668.606 229.325 667.126 214.416 665.505C172.868 661.039 126.116 656.075 82.3915 678.858C82.4658 679.036 82.5 679.169 82.5743 679.347C126.167 656.598 172.913 661.649 214.335 666.062C229.289 667.643 243.508 669.215 256.828 669.382C261.756 669.472 266.638 669.602 271.831 669.625C302.347 670.233 336.977 670.83 371.76 666.677C422.182 660.43 463.927 647.549 499.439 627.127C550.679 597.648 591.859 550.181 628.116 508.209Z" fill="#D6D6D6"/>
<path d="M625.921 510.522C637.64 496.202 648.429 481.557 658.746 467.484C671.245 450.622 682.95 434.613 694.746 421.684C725.496 387.417 748.676 347.417 773.187 305.044C784.226 286.131 795.375 266.879 807.321 247.986C807.241 247.894 807.081 247.709 807.012 247.445C794.876 266.583 783.773 285.795 772.682 304.835C748.165 347.294 725.129 387.088 694.374 421.441C682.663 434.376 670.78 450.459 658.367 467.327C647.976 481.222 637.279 495.787 625.37 510.353C591.775 551.388 549.836 602.351 497.146 632.766C461.45 653.348 419.458 666.038 368.664 671.393C332.733 675.248 297.124 673.802 265.661 672.477C261.209 672.378 256.77 672.106 252.537 671.978C239.326 671.473 225.206 669.735 210.407 667.775C169.739 662.463 124.086 656.624 81.2346 676.785C81.3148 676.877 81.3891 677.056 81.4634 677.234C124.183 657.107 169.75 662.94 210.372 668.292C225.268 670.086 239.337 671.95 252.501 672.495C256.78 672.583 261.14 672.762 265.625 672.994C297.088 674.319 332.784 675.772 368.761 671.876C419.515 666.475 461.639 653.752 497.427 633.089C550.203 602.68 592.148 551.631 625.921 510.522Z" fill="#D6D6D6"/>
<path d="M623.21 513.446C634.85 498.385 645.502 483.21 655.952 468.454C668.131 451.223 679.394 434.707 691.054 421.249C721.179 385.985 743.494 344.711 767.267 301.117C778.769 280.505 790.313 259.29 802.906 238.538C802.746 238.354 802.671 238.175 802.511 237.991C789.992 258.92 778.414 280.004 766.934 300.92C743.208 344.474 720.646 385.557 690.555 420.954C679.159 434.344 667.545 450.922 655.533 468.251C645.267 482.847 634.563 498.148 622.625 513.145C583.973 562.869 544.989 609.885 495.221 638.733C459.335 659.562 416.93 671.963 365.661 676.677C328.633 680.109 292.003 677.768 259.548 675.766C255.757 675.497 252.001 675.36 248.257 675.051C235.196 674.254 221.231 672.137 206.451 669.918C166.738 663.938 122.27 657.231 80.2448 674.81C80.3652 674.949 80.3934 675.167 80.5138 675.305C122.321 657.754 166.742 664.501 206.415 670.435C221.196 672.654 235.115 674.811 248.307 675.574C251.971 675.791 255.762 676.06 259.598 676.289C292.008 678.331 328.684 680.632 365.705 677.287C417.015 672.618 459.472 660.091 495.444 639.268C545.396 610.261 584.346 563.112 623.21 513.446Z" fill="#D6D6D6"/>
<path d="M620.459 516.324C632.146 500.574 642.76 484.703 652.907 469.32C664.696 451.455 676.064 434.686 687.242 420.675C716.749 384.328 738.578 341.937 761.429 297.282C773.165 274.522 785.057 251.383 798.24 228.985C798.079 228.801 798.103 228.456 797.856 228.266C784.776 251.06 772.758 274.147 761.056 297.039C738.027 341.768 716.244 384.119 686.863 420.518C675.565 434.391 664.415 451.132 652.442 469.157C642.307 484.368 631.814 500.377 619.966 515.943C583.746 564.93 544.02 615.184 493.331 644.832C457.083 665.895 414.471 678.151 362.778 682.1C324.581 684.929 286.837 681.773 253.442 678.969C250.306 678.616 247.251 678.356 244.15 678.136C231.027 676.988 217.16 674.704 202.576 672.153C163.771 665.545 120.437 658.096 79.4046 673.191C79.6111 673.336 79.6854 673.514 79.7137 673.733C120.573 658.625 163.776 666.108 202.54 672.67C217.165 675.267 231.032 677.551 244.154 678.699C247.216 678.873 250.351 679.225 253.412 679.399C286.796 682.376 324.585 685.492 362.795 682.491C414.482 678.628 457.259 666.47 493.513 645.321C544.427 615.559 584.073 565.213 620.459 516.324Z" fill="#D6D6D6"/>
<path d="M617.765 518.99C629.31 502.796 639.752 486.265 649.866 470.1C661.507 451.878 672.48 434.562 683.423 420.187C712.146 382.659 733.351 339.272 755.601 293.275C767.6 268.586 779.8 243.477 793.47 219.036C793.309 218.852 793.229 218.759 793.241 218.587C779.393 243.102 767.227 268.343 755.222 293.118C732.886 339.109 711.865 382.336 683.136 419.95C672.199 434.239 661.226 451.555 649.672 469.783C639.598 485.994 629.115 502.48 617.611 518.719C582.089 568.882 543.096 620.443 491.411 650.713C455.019 671.983 412.087 683.869 359.919 687.178C320.36 689.651 281.557 685.554 247.221 681.947C244.774 681.643 242.368 681.386 239.916 681.169C226.943 679.728 213.146 677.06 198.619 674.297C160.73 666.974 118.689 658.968 78.6497 671.579C78.724 671.758 78.8845 671.942 78.8726 672.115C118.779 659.537 160.728 667.624 198.497 674.808C213.104 677.663 226.862 680.285 239.926 681.645C242.246 681.897 244.739 682.16 247.151 682.332C281.441 685.978 320.371 690.128 359.797 687.689C412.005 684.426 455.076 672.419 491.428 651.104C543.364 620.938 582.358 569.377 617.765 518.99Z" fill="#D6D6D6"/>
<path d="M615.128 522.093C626.525 504.893 636.929 487.666 646.808 471.138C658.14 452.375 668.803 434.517 679.552 419.825C707.749 381.134 728.089 336.474 749.715 289.48C762.017 262.907 774.365 235.645 788.384 209.281C788.309 209.102 788.229 209.01 788.161 208.746C773.952 235.356 761.489 262.394 749.21 289.271C727.619 336.397 707.238 381.011 679.121 419.795C668.425 434.36 657.727 452.086 646.43 470.981C636.24 487.617 626.054 504.816 614.549 521.705C581.39 570.867 541.717 626.016 489.216 656.834C452.726 678.27 409.415 690 356.783 692.497C316.134 694.459 276.19 689.328 240.959 684.879L235.762 684.293C222.807 682.594 209.068 679.714 194.565 676.606C157.791 668.8 117.095 660.11 78.1177 670.502C78.238 670.641 78.2722 670.773 78.3524 670.865C117.186 660.679 157.755 669.317 194.529 677.123C209.078 680.191 222.726 683.151 235.727 684.81L240.872 685.522C276.194 689.892 316.139 695.022 356.828 693.106C409.505 690.569 452.943 678.891 489.531 657.29C542.216 626.311 581.963 571.34 615.128 522.093Z" fill="#D6D6D6"/>
<path d="M612.469 524.891C623.809 507.254 634.134 489.286 643.895 471.97C654.917 452.666 665.472 434.497 675.86 419.39C703.439 379.616 723.213 333.747 743.934 285.434C756.423 256.753 769.08 227.521 783.62 199.246C783.373 199.055 783.299 198.877 783.184 198.652C768.719 227.106 756.05 256.51 743.721 285.375C722.616 333.618 702.986 379.281 675.441 419.187C664.887 434.196 654.625 452.515 643.482 471.681C633.629 489.077 623.494 506.799 612.05 524.688C579.676 575.031 540.787 631.362 487.371 662.894C450.605 684.57 406.967 696.017 353.912 697.748C312.04 699.234 270.903 693.196 234.612 687.805L231.615 687.332C218.758 685.467 205.088 682.202 190.683 678.928C154.984 670.592 115.576 661.43 77.7121 669.478C77.7404 669.697 77.8607 669.835 77.941 669.927C115.667 662 154.948 671.109 190.561 679.439C205.046 682.805 218.676 686.024 231.493 687.843L234.536 688.276C270.879 693.54 311.965 699.704 353.916 698.311C407.104 696.546 450.748 685.013 487.6 663.343C541.022 631.725 580.089 575.32 612.469 524.891Z" fill="#D6D6D6"/>
<path d="M555.007 607.09C576.136 581.187 594.479 552.359 609.717 527.769C620.945 509.259 631.086 490.801 640.894 472.796C651.504 453.203 661.79 434.539 671.955 418.897C699.02 377.787 718.083 330.915 738.244 281.307C750.858 250.817 763.537 219.379 778.603 189.106C778.529 188.927 778.449 188.835 778.168 188.512C763.268 218.883 750.491 250.487 737.952 281.156C717.705 330.758 698.687 377.59 671.588 418.568C661.475 434.083 651.223 452.88 640.481 472.507C630.679 490.426 620.578 508.93 609.224 527.388C575.242 582.855 536.659 638.515 485.406 668.815C448.576 690.789 404.611 701.954 350.954 702.992C307.746 703.777 265.507 696.752 228.242 690.426L227.34 690.319C214.679 688.121 201.062 684.73 186.594 681.106C151.965 672.326 114.097 662.797 77.3286 668.758C77.4029 668.937 77.4831 669.029 77.6435 669.214C114.188 663.367 151.969 672.889 186.559 681.622C200.894 685.281 214.512 688.672 227.305 690.836L228.074 690.977C265.472 697.269 307.658 704.42 350.918 703.509C404.748 702.483 448.798 691.325 485.641 669.178C509.501 655.158 532.238 634.824 555.007 607.09Z" fill="#D6D6D6"/>
<path d="M606.971 530.562C618.148 511.528 628.131 492.237 637.848 473.662C648.413 453.46 658.344 434.294 668.216 418.502C694.571 376.389 713.062 328.394 732.657 277.577C745.31 244.622 758.045 211.11 773.558 178.748C773.398 178.563 773.398 178.563 773.237 178.379C757.765 210.787 744.811 244.327 732.238 277.374C712.597 328.231 694.29 376.066 667.803 418.212C657.873 434.218 647.914 453.164 637.349 473.367C627.712 492.034 617.735 511.239 606.558 530.273C573.171 587.167 535.286 644.002 483.382 674.949C446.322 697.123 402.03 708.005 347.858 708.357C303.387 708.62 258.866 700.177 223.146 693.398C210.371 690.976 196.857 687.332 182.58 683.461C149.1 674.331 112.6 664.423 77.0995 668.309C77.1738 668.488 77.2481 668.666 77.2764 668.885C112.69 664.992 149.064 674.848 182.458 683.972C196.781 687.803 210.249 691.487 223.025 693.909C258.79 700.648 303.312 709.091 347.828 708.788C402.087 708.442 446.471 697.48 483.617 675.312C535.641 644.503 573.664 587.548 606.971 530.562Z" fill="#D6D6D6"/>
<path d="M604.266 533.399C615.358 513.71 625.216 493.717 634.803 474.527C644.92 453.903 654.709 434.295 664.57 418.025C690.186 374.692 708.14 325.706 726.997 273.668C739.574 238.673 752.641 202.847 768.508 168.475C768.428 168.382 768.181 168.192 768.113 167.927C752.228 202.557 739.299 238.263 726.532 273.505C707.635 325.497 689.848 374.581 663.933 417.85C654.336 434.052 644.76 453.719 634.436 474.198C624.93 493.48 615.038 513.341 603.847 533.196C571.325 591.364 533.954 649.534 481.458 680.916C444.254 703.296 399.583 714.021 344.947 713.561C299.174 713.255 252.794 703.511 218.913 696.43C206.242 693.756 192.832 689.86 178.572 685.73C146.368 676.301 111.31 666.192 77.1865 668.315C77.2207 668.447 77.341 668.585 77.3752 668.718C111.533 666.727 146.373 676.864 178.503 686.115C192.756 690.33 206.206 694.273 218.838 696.901C252.718 703.982 299.098 713.726 345.004 713.998C399.686 714.418 444.362 703.607 481.693 681.279C534.275 649.903 571.732 591.739 604.266 533.399Z" fill="#D6D6D6"/>
<path d="M548.75 621.928C570.412 593.292 588.291 561.141 601.508 536.365C612.527 515.848 622.374 495.378 631.801 475.355C641.736 454.241 651.278 434.442 660.601 417.831C685.835 373.129 703.056 322.836 721.26 269.582C734.077 232.353 747.166 194.32 763.256 157.973C763.009 157.782 762.935 157.604 762.867 157.339C746.627 193.979 733.572 232.144 720.663 269.453C702.505 322.666 685.324 373.006 660.113 417.364C650.572 434.003 641.243 453.86 631.21 475.139C621.709 494.985 612.028 515.553 601.083 536.248C570.746 592.84 532.615 655.155 479.262 687.038C441.827 709.619 396.87 720.106 341.805 718.967C298.324 718.044 255.062 708.912 214.54 699.584C201.927 696.697 188.534 692.543 174.333 688.201C143.444 678.518 109.949 668.348 77.0755 668.654C77.1498 668.833 77.184 668.965 77.2583 669.144C110.092 668.791 143.363 679.075 174.217 688.626C188.373 693.007 201.891 697.214 214.471 699.969C255.033 709.343 298.295 718.475 341.815 719.444C396.932 720.457 442.05 710.154 479.536 687.447C503.87 672.854 526.505 651.474 548.75 621.928Z" fill="#D6D6D6"/>
<path d="M598.935 539.168C609.657 517.938 619.345 496.634 628.676 476.127C638.302 454.473 647.574 434.179 656.914 417.309C681.565 371.656 698.174 320.194 715.633 265.805C728.398 226.191 741.349 185.768 757.891 147.245C757.816 147.066 757.742 146.888 757.754 146.715C741.08 185.272 728.037 225.776 715.175 265.556C697.635 319.852 680.933 371.395 656.427 416.841C647.155 433.976 638.015 454.236 628.269 475.752C618.972 496.391 609.29 517.609 598.309 538.821C568.734 596.938 531.203 660.595 477.435 692.838C439.764 715.705 394.434 725.95 338.992 724.005C294.381 722.525 251.046 712.565 210.531 702.502C197.935 699.357 184.555 695.03 170.503 690.396C140.873 680.673 108.998 670.228 77.5693 669.035C77.6837 669.26 77.7521 669.524 77.8323 669.616C109.175 670.803 140.918 681.282 170.341 690.861C184.439 695.455 197.814 699.868 210.409 703.013C251.01 713.082 294.351 722.956 338.956 724.522C394.617 726.439 439.987 716.241 477.658 693.374C531.523 660.964 569.187 597.274 598.935 539.168Z" fill="#D6D6D6"/>
<path d="M596.183 542.047C606.918 519.995 616.39 498.07 625.676 476.954C635.159 454.856 643.95 434.008 653.01 416.815C677.226 369.919 693.039 317.448 710.064 261.816C722.725 219.944 735.795 177.148 752.703 136.443C752.715 136.271 752.475 135.994 752.394 135.902C735.428 176.819 722.404 219.575 709.507 261.733C692.746 317.297 676.675 369.75 652.643 416.486C643.738 433.95 634.614 454.601 625.142 476.526C616.011 497.913 606.453 519.832 595.718 541.884C566.709 601.21 529.778 666.208 475.412 698.972C437.643 722.005 391.986 731.967 335.982 729.376C290.333 727.26 245.14 715.999 206.331 705.667C193.793 702.31 180.477 697.684 166.437 692.878C138.283 683.086 108.091 672.717 78.1012 670.112C78.1294 670.33 78.2498 670.469 78.3241 670.647C108.142 673.241 138.201 683.643 166.275 693.343C180.355 698.195 193.592 702.728 206.216 706.092C244.978 716.464 290.211 727.771 335.952 729.806C392.043 732.404 437.786 722.448 475.687 699.381C530.013 666.571 567.035 601.493 596.183 542.047Z" fill="#D6D6D6"/>
<path d="M593.517 544.932C604.03 522.344 613.434 499.505 622.601 477.602C631.797 455.267 640.646 434.207 649.231 416.374C672.875 368.355 688.294 314.687 704.541 257.788C717.189 213.577 730.218 168.224 747.573 125.43C747.327 125.239 747.252 125.061 747.258 124.975C729.771 167.803 716.828 213.162 703.984 257.705C687.783 314.565 672.41 368.193 648.852 416.218C640.015 433.945 631.344 454.932 622.05 477.433C613.147 499.268 603.663 522.015 593.058 544.683C564.649 605.35 528.18 671.81 473.48 705.026C435.442 728.213 389.498 737.938 333.024 734.621C288.444 732.061 243.78 720.665 202.143 708.661C189.623 705.044 176.404 700.253 162.463 695.28C135.647 685.541 107.144 675.162 78.7873 671.46C78.8616 671.638 78.9359 671.817 79.0102 671.995C107.274 675.777 135.611 686.057 162.301 695.745C176.277 700.85 189.582 705.647 202.016 709.258C243.704 721.136 288.449 732.625 333.023 735.27C359.241 736.699 383.828 735.414 405.94 731.097C430.896 726.332 453.735 717.737 473.715 705.389C528.547 672.139 565.016 605.68 593.517 544.932Z" fill="#D6D6D6"/>
<path d="M540.42 641.726C556.997 617.188 573.027 587.373 590.76 547.896C601.285 524.487 610.571 500.86 619.492 478.117C628.58 455.471 636.942 433.944 645.452 415.933C668.512 366.963 683.325 312.04 699.018 253.759C711.619 207.078 724.516 159.248 742.163 114.093C742.083 114.001 741.922 113.816 741.934 113.644C724.075 158.74 711.166 206.742 698.547 253.683C682.832 311.659 668.145 366.634 645.033 415.73C636.523 433.741 627.955 455.124 619.027 477.954C610.278 500.709 600.832 524.152 590.295 547.733C562.55 609.444 526.67 677.417 471.469 710.987C433.188 734.546 386.918 743.988 330.061 739.951C284.449 736.669 239.619 724.525 197.863 711.733C185.395 707.991 172.24 702.901 158.23 697.663C133.097 688 106.305 677.916 79.5363 673.158C79.6967 673.342 79.7651 673.607 79.8394 673.785C106.442 678.445 133.096 688.649 158.114 698.088C172.119 703.412 185.319 708.462 197.742 712.244C239.463 724.904 284.459 737.146 329.985 740.422C356.432 742.3 381.18 741.2 403.412 737.021C428.569 732.487 451.54 723.858 471.738 711.482C496.399 696.523 518.837 673.614 540.42 641.726Z" fill="#D6D6D6"/>
<path d="M538.302 646.727C554.874 621.626 570.693 591.104 588.009 550.774C598.513 526.411 607.529 502.289 616.412 478.85C625.185 455.75 633.399 433.865 641.674 415.491C664.168 365.313 678.489 309.359 693.431 250.029C706.004 200.618 718.774 150.225 736.919 102.855C736.771 102.498 736.777 102.412 736.53 102.221C718.419 149.724 705.545 200.369 693.092 249.919C677.984 309.15 663.783 365.242 641.341 415.294C633.026 433.622 624.761 455.633 616.074 478.74C607.197 502.092 598.174 526.301 587.596 550.485C561.986 610.096 525.436 682.784 469.493 717.08C430.981 740.84 384.384 749.999 327.011 745.276C280.275 741.351 233.3 727.669 193.624 714.852C181.214 710.897 168.025 705.675 154.164 700.145C130.57 690.764 105.541 680.848 80.5545 675.351C80.6288 675.53 80.7892 675.714 80.8576 675.979C105.758 681.47 130.529 691.367 153.956 700.65C167.897 706.272 181.046 711.448 193.456 715.403C233.172 728.266 280.107 741.902 326.976 745.793C353.572 748.028 378.52 747.158 400.953 743.21C426.322 738.734 449.465 730.118 469.629 717.61C494.441 702.358 516.896 679.19 538.302 646.727Z" fill="#D6D6D6"/>
<path d="M585.349 553.572C595.769 528.554 604.66 503.73 613.378 479.544C621.824 456.16 629.981 433.839 637.941 415.01C659.829 363.576 673.578 306.499 687.908 246.001C700.314 193.98 712.935 140.719 731.585 91.0472C731.338 90.8565 731.27 90.5919 731.19 90.4996C712.522 140.43 699.769 193.725 687.357 245.832C672.889 306.45 659.358 363.499 637.39 414.841C629.258 433.658 621.245 455.773 612.827 479.375C604.196 503.568 595.132 528.379 584.804 553.317C559.709 614.263 523.701 688.505 467.424 723.254C429.275 746.779 381.029 755.995 323.968 750.514C275.332 745.892 226.504 730.823 189.338 718.011C176.946 713.798 163.688 708.311 149.633 702.464C127.877 693.43 104.851 683.96 81.7673 677.862C81.8416 678.04 81.9961 678.311 82.1165 678.449C105.028 684.535 127.841 693.947 149.472 702.929C163.446 708.683 176.664 714.124 189.136 718.43C226.308 731.156 275.17 746.357 323.892 750.985C350.809 753.589 375.877 752.858 398.425 749.134C424.006 744.717 447.282 736.066 467.658 723.617C524.194 688.886 560.214 614.473 585.349 553.572Z" fill="#D6D6D6"/>
<path d="M582.598 556.45C592.806 530.725 601.631 504.987 610.224 480.099C618.401 456.22 626.271 433.662 633.996 414.47C655.599 362.15 668.535 303.674 682.247 242.092C694.624 187.342 707.089 131.3 726.17 79.1473C726.015 78.8766 725.941 78.6982 725.861 78.6059C706.688 130.839 694.13 186.961 681.828 241.889C668.15 303.603 655.088 362.027 633.657 414.359C625.852 433.459 617.936 456.057 609.753 480.022C601.166 504.824 592.433 530.482 582.225 556.207C557.695 618.363 522.236 694.072 465.51 729.049C427.165 752.907 378.547 761.879 321.096 755.765C271.64 750.479 222.487 734.477 185.237 721.01C172.862 716.538 159.702 710.885 145.786 704.918C125.648 696.259 104.672 687.194 83.4269 680.793C83.5012 680.972 83.6097 681.282 83.6899 681.375C104.803 687.809 125.652 696.822 145.624 705.383C159.541 711.35 172.746 716.963 185.121 721.434C222.417 734.862 271.518 750.989 321.153 756.202C348.178 759.117 373.441 758.703 396.333 755.003C421.983 750.85 445.431 742.212 465.779 729.544C522.603 694.401 558.022 618.646 582.598 556.45Z" fill="#D6D6D6"/>
<path d="M579.926 559.421C589.988 532.689 598.681 506.336 607.057 480.826C615.046 456.545 622.647 433.491 630.298 414.12C651.294 360.545 663.652 301.032 676.89 238.161C688.905 180.485 701.222 121.575 720.807 67.121C720.75 66.6841 720.584 66.5857 720.51 66.4072C700.861 121.16 688.492 180.196 676.327 238.165C663.215 301.088 650.777 360.509 629.741 414.037C622.262 433.42 614.581 456.382 606.678 480.67C598.17 506.213 589.563 532.572 579.421 559.212C555.418 622.53 520.587 699.799 463.447 735.136C424.872 759.194 376.053 767.936 318.047 761.09C267.604 755.04 218.298 738.119 180.957 724.082C168.594 719.438 155.532 713.619 141.627 707.48C123.195 699.201 104.257 690.714 85.0569 684.156C85.1714 684.38 85.2917 684.519 85.3601 684.783C104.52 691.295 123.412 699.823 141.512 707.905C155.411 714.13 168.512 719.995 180.881 724.553C218.263 738.636 267.655 755.563 318.097 761.613C345.363 764.804 370.833 764.535 393.713 761.008C419.575 756.913 443.229 748.419 463.802 735.637C521 700.088 555.877 622.779 579.926 559.421Z" fill="#D6D6D6"/>
<path d="M529.967 666.611C546.314 639.114 561.363 605.939 577.226 562.173C587.151 534.912 595.726 507.771 603.937 481.514C611.696 456.783 619.183 433.505 626.473 413.719C646.833 359.32 658.665 298.644 671.309 234.345C683.221 173.762 695.246 111.541 715.405 54.3998C715.337 54.1352 715.262 53.9568 715.188 53.7784C694.805 111.033 682.734 173.294 670.838 234.269C658.292 298.401 646.432 358.858 626.094 413.562C618.592 433.29 611.318 456.626 603.564 481.271C595.181 507.516 586.686 534.749 576.796 562.142C553.353 626.756 519.07 705.492 461.51 741.276C422.711 765.448 373.485 773.814 315.089 766.334C263.304 759.67 211.365 740.744 176.803 727.208C164.452 722.391 151.414 716.227 137.607 709.922C120.994 702.249 104.042 694.465 86.9677 687.841L87.305 688.601C104.346 695.093 121.211 702.87 137.491 710.347C151.246 716.778 164.25 722.81 176.561 727.58C211.157 741.249 263.102 760.089 315.014 766.805C342.514 770.36 368.132 770.447 391.265 767.025C417.42 763.081 441.074 754.587 461.785 741.685C486.93 725.981 509.176 701.456 529.967 666.611Z" fill="#D6D6D6"/>
<path d="M527.808 671.566C544.196 643.465 558.988 609.623 574.475 565.051C584.28 537.002 592.65 509.068 600.834 481.943C608.313 456.889 615.467 433.414 622.694 413.277C642.62 357.635 653.926 295.796 665.78 230.403C677.526 166.561 689.414 101.3 710.135 41.6443C709.981 41.3736 709.82 41.1891 709.832 41.0167C688.967 100.878 676.969 166.478 665.309 230.326C653.369 295.713 642.15 357.558 622.229 413.115C614.921 433.159 607.836 456.899 600.397 481.999C592.219 509.037 583.815 536.839 573.958 565.014C551.173 630.757 517.347 711.041 459.544 747.197C420.595 771.661 370.904 779.865 312.172 771.625C259.353 764.238 207.262 744.392 172.575 730.154C160.275 725.211 147.29 718.921 133.587 712.364C119.505 705.65 104.459 698.477 89.0552 692.102C89.1637 692.413 89.238 692.591 89.3583 692.73C104.297 698.942 119.131 706.056 133.339 712.822C147.128 719.386 160.166 725.55 172.367 730.659C207.054 744.897 259.238 764.663 312.056 772.05C339.705 775.961 365.61 776.285 388.823 772.955C415.138 769.196 439.005 760.76 459.727 747.686C485.005 731.948 507.24 706.946 527.808 671.566Z" fill="#D6D6D6"/>
<path d="M525.742 676.441C541.994 647.811 556.701 613.314 571.77 567.889C581.398 539.265 589.643 510.629 597.546 483.181C604.934 457.558 611.883 433.289 618.842 412.658C638.184 356.065 648.946 293.321 660.135 226.885C671.722 159.698 683.428 90.7877 704.822 28.2798C704.833 28.1074 704.685 27.7505 704.605 27.6583C683.073 90.2863 671.217 159.489 659.791 226.861C648.395 293.152 637.725 355.816 618.503 412.547C611.378 433.08 604.429 457.349 596.961 482.88C589.224 510.426 580.933 539.102 571.345 567.773C548.942 634.884 515.784 716.774 457.574 753.204C418.487 777.789 368.555 785.715 309.174 776.824C268.009 770.567 223.389 756.62 168.347 733.101C156.106 727.946 143.212 721.576 129.481 714.8C117.379 708.875 104.486 702.505 91.4302 696.6C91.5387 696.91 91.6531 697.135 91.7675 697.36C104.536 703.028 117.091 709.288 129.319 715.264C143.045 722.126 155.984 728.457 168.18 733.652C223.181 757.124 267.939 770.952 309.059 777.248C336.989 781.483 363.014 781.945 386.341 778.839C412.949 775.231 436.908 766.715 457.763 753.607C483.132 737.789 505.385 712.529 525.742 676.441Z" fill="#D6D6D6"/>
<path d="M523.663 681.489C539.818 652.375 554.142 617.158 569.052 570.9C578.527 541.356 586.475 512.006 594.305 483.731C601.585 457.797 608.207 433.245 615.143 412.309C633.971 354.38 644.029 290.548 654.79 222.783C666.045 152.239 677.539 80.1097 699.726 14.8874C699.571 14.6167 699.503 14.3521 699.48 14.0475C677.076 79.2976 665.592 151.903 654.411 222.626C643.616 290.259 633.506 354.217 614.678 412.146C607.782 433.128 600.988 457.668 593.88 483.614C586.13 511.982 578.103 541.239 568.633 570.697C546.612 639.178 513.831 722.523 455.504 759.378C416.233 784.122 365.963 791.938 306.211 782.154C264.517 775.384 219.423 760.797 164.141 736.352C152.044 730.991 139.076 724.442 125.569 717.552C115.493 712.378 104.913 706.994 94.0555 701.851C94.1699 702.076 94.2844 702.3 94.3928 702.611C104.871 707.598 115.199 712.876 125.367 717.971C138.955 724.953 151.836 731.495 163.98 736.817C219.255 761.348 264.522 775.947 306.129 782.711C334.3 787.222 360.52 788.002 384.099 785.001C410.828 781.531 434.912 773.067 455.859 759.879C481.173 743.624 503.403 718.059 523.663 681.489Z" fill="#D6D6D6"/>
<path d="M591.422 483.483C598.317 457.478 604.767 432.914 611.232 411.901C629.574 352.856 639.382 287.621 649.549 218.428C660.444 144.308 671.618 68.6504 694.637 0.759849C694.568 0.495243 694.5 0.230637 694.299 -5.77242e-05C671.102 67.9644 659.945 144.013 649.038 218.305C638.791 287.405 629.282 352.705 610.727 411.692C604.302 432.751 597.846 457.402 590.911 483.36C563.67 587.488 529.523 717.143 453.585 765.259C364.47 821.833 243.243 777.597 159.907 739.385C147.822 733.851 134.992 727.183 121.457 720.074C113.475 715.914 105.294 711.524 96.8415 707.287C96.9559 707.512 97.1104 707.783 97.1788 708.047C105.338 712.133 113.36 716.339 121.255 720.493C134.876 727.607 147.706 734.276 159.7 739.89C216.224 765.765 264.343 781.693 306.898 788.524C334.506 793.038 360.169 793.735 383.404 790.709C409.569 787.242 433.263 778.795 453.768 765.748C529.976 717.479 564.043 587.731 591.422 483.483Z" fill="#D6D6D6"/>
</svg>
