<svg width="721" height="544" viewBox="0 0 721 544" fill="none" xmlns="http://www.w3.org/2000/svg">
<path d="M644.915 153.312C651.862 101.987 658.805 50.0978 669.293 0.798336C669.218 0.619914 669.11 0.30921 668.995 0.0846092C658.186 49.6643 651.489 101.744 644.588 153.03C633.677 234.94 623.373 312.435 598.975 377.717C537.707 542.374 443.21 534.928 343.028 527.079C278.361 522.054 211.5 516.83 148.745 556.401C111.952 579.72 85.0702 613.137 67.0606 658.525C67.1809 658.664 67.2552 658.842 67.3696 659.067C83.8146 617.55 108.966 582.235 149.014 556.897C211.597 517.314 278.452 522.623 343.033 527.642C443.353 535.371 538.148 542.881 599.434 377.966C623.751 312.592 634.182 235.149 644.915 153.312Z" fill="#D4EAFF"/>
<path d="M644.176 160.922C651.706 108.036 659.325 54.507 671.205 3.83455C671.177 3.61609 670.97 3.47157 670.81 3.28702C659.016 53.9656 651.426 107.713 643.877 160.858C632.412 241.387 621.519 317.368 596.985 381.472C573.479 443.223 543.652 484.223 505.867 506.865C457.195 536.137 401.487 531.749 342.644 527.008C278.115 521.863 211.432 516.566 148.781 555.884C125.171 570.658 106.109 589.175 90.3965 612.476C81.1951 626.065 73.4898 641.189 66.832 658.076C66.9122 658.168 67.0726 658.353 67.187 658.577C85.1684 612.97 112.149 579.388 149.004 556.42C211.523 517.135 278.159 522.473 342.648 527.571C401.578 532.318 457.279 536.793 506.09 507.401C543.961 484.765 573.886 443.599 597.364 381.628C621.984 317.531 632.848 241.332 644.176 160.922Z" fill="#D4EAFF"/>
<path d="M642.934 169.536C651.21 114.625 659.614 59.1164 672.979 6.99086C672.818 6.8063 672.75 6.5417 672.595 6.271C659.305 58.5749 650.745 114.462 642.503 169.505C630.565 248.096 619.314 322.363 594.755 384.95C570.843 445.677 541.069 485.901 503.688 507.706C455.207 536.083 400.235 531.703 341.862 527.039C277.592 521.913 211.121 516.674 148.598 555.395C111.386 578.511 84.32 612.087 66.4767 657.575C66.5911 657.799 66.6654 657.978 66.6996 658.11C84.6349 612.543 111.529 578.954 148.775 555.97C211.132 517.151 277.55 522.516 341.827 527.556C400.153 532.26 455.35 536.526 503.917 508.155C541.338 486.397 571.25 446.052 595.036 385.273C619.911 322.492 631.036 248.173 642.934 169.536Z" fill="#D4EAFF"/>
<path d="M641.82 177.552C650.984 121.059 660.201 63.7904 674.908 10.418C674.827 10.3258 674.725 9.92887 674.691 9.79655C659.84 63.3751 650.605 120.902 641.43 177.568C629.075 254.657 617.368 327.377 592.685 388.612C568.592 448.201 538.883 487.478 501.728 508.52C453.743 535.979 399.201 531.63 341.431 527.009C277.333 521.895 211.041 516.581 148.674 554.924C111.342 577.902 84.1891 611.472 66.4143 657.224C66.4945 657.316 66.5688 657.495 66.7293 657.679C84.4581 611.968 111.53 578.305 148.902 555.374C211.178 517.111 277.43 522.378 341.396 527.526C399.251 532.153 453.879 536.508 501.997 509.015C539.158 487.887 569.091 448.497 593.15 388.775C617.873 327.586 629.592 254.694 641.82 177.552Z" fill="#D4EAFF"/>
<path d="M640.919 185.627C650.839 127.586 660.892 68.8611 677.151 14.3004C677.049 13.9035 676.968 13.8112 676.848 13.6728C660.364 68.3474 650.38 127.336 640.448 185.55C627.511 261.04 615.296 332.338 590.489 392.223C566.399 450.513 536.577 488.916 499.761 509.419C452.066 535.817 398.213 531.517 341.093 526.898C277.081 521.79 210.961 516.489 148.577 554.441C110.987 577.4 83.7939 610.925 66.0131 656.763L66.3682 657.264C84.0168 611.46 111.175 577.803 148.754 555.017C211.011 517.012 277.091 522.267 340.925 527.449C398.132 532.074 452.197 536.432 499.818 509.856C536.852 489.325 566.594 450.83 591.035 392.478C615.847 332.507 627.982 261.116 640.919 185.627Z" fill="#D4EAFF"/>
<path d="M639.926 193.781C650.727 134.244 661.588 73.8455 679.527 18.1486C679.533 18.0624 679.286 17.8718 679.212 17.6933C661.141 73.4241 650.32 133.869 639.501 193.665C626.028 267.514 613.522 337.364 588.506 395.891C564.108 452.991 534.397 490.406 497.755 510.272C450.602 535.712 397.226 531.403 340.662 526.867C276.874 521.645 210.927 516.357 148.607 554.01C110.85 576.871 83.5193 610.515 65.8648 656.405L66.0937 656.855C83.7021 611.005 111.039 577.274 148.79 554.499C210.972 516.966 276.827 522.335 340.621 527.47C397.104 531.914 450.646 536.322 497.938 510.761C534.792 490.954 564.515 453.366 588.879 396.134C613.734 337.422 626.407 267.671 639.926 193.781Z" fill="#D4EAFF"/>
<path d="M638.864 201.671C650.576 140.857 662.399 79.0546 681.907 22.5601C681.833 22.3816 681.753 22.2894 681.679 22.1109C662.026 78.8117 650.035 141.165 638.399 201.509C624.47 273.811 611.461 342.152 586.27 399.456C561.782 455.337 532.091 491.844 495.628 510.987C448.884 535.504 396.112 531.237 340.151 526.744C276.536 521.535 210.76 516.258 148.51 553.527C110.415 576.277 83.17 609.928 65.4294 655.812L65.7845 656.313C83.4048 610.291 110.73 576.733 148.699 553.93C210.811 516.781 276.58 522.144 340.116 527.261C396.03 531.794 448.969 536.159 495.765 511.516C532.406 492.299 562.057 455.746 586.637 399.785C611.788 342.435 624.928 274.06 638.864 201.671Z" fill="#D4EAFF"/>
<path d="M584.527 403.401C609.854 347.276 623.45 280.448 637.842 209.608C650.498 147.648 663.324 84.4884 684.574 27.2084C684.494 27.1161 684.42 26.9377 684.392 26.7193C662.893 84.4578 650.05 147.876 637.458 209.537C623.026 280.332 609.469 347.206 584.114 403.112C559.273 457.843 529.778 493.368 493.576 511.88C447.316 535.652 395.026 531.29 339.761 526.76C276.237 521.47 210.6 516.074 148.419 552.958C110.157 575.61 82.7346 609.334 65.0801 655.224C65.2465 655.323 65.355 655.633 65.4352 655.726C83.0095 609.743 110.467 576.151 148.642 553.493C210.691 516.643 276.242 522.033 339.679 527.317C395.076 531.813 447.372 536.089 493.712 512.409C511.566 503.287 527.291 490.508 542.02 473.328C557.567 454.951 571.561 432.091 584.527 403.401Z" fill="#D4EAFF"/>
<path d="M582.383 406.886C607.821 352.284 621.8 286.825 636.814 217.63C650.525 154.187 664.288 89.9687 687.436 32.174C687.356 32.0817 687.299 31.6448 687.127 31.6326C663.771 89.932 649.834 154.788 636.355 217.381C621.427 286.582 607.362 352.035 581.964 406.683C556.947 460.189 527.466 494.893 491.529 512.688C445.685 535.45 394.032 531.263 339.376 526.69C275.978 521.452 210.473 516.022 148.408 552.481C122.379 567.82 100.945 588.722 84.5728 614.703C77.0287 626.852 70.4414 640.194 64.805 654.815C64.9253 654.954 64.9996 655.132 65.1259 655.185C82.6081 609.282 110.157 575.61 148.499 553.051C210.564 516.591 275.937 522.055 339.294 527.247C393.956 531.734 445.689 536.013 491.706 513.263C509.37 504.387 525.065 492.038 539.81 475.249C555.275 457.429 569.28 435.047 582.383 406.886Z" fill="#D4EAFF"/>
<path d="M580.227 410.542C605.801 357.119 620.368 293.174 635.851 225.354C650.344 161.231 665.224 95.8793 690.246 37.2653C690.171 37.0869 690.177 37.0007 690.011 36.9023C690.005 36.9885 689.999 37.0746 689.953 37.1147C664.787 95.9348 649.751 161.665 635.294 225.271C619.995 292.931 605.468 356.922 579.814 410.253C554.616 462.621 525.16 496.331 489.522 513.541C444.088 535.38 393.09 531.11 338.951 526.573C275.772 521.308 210.359 515.797 148.358 551.958C121.978 567.358 100.262 588.587 83.8199 614.953C76.4257 626.809 70.0285 639.905 64.542 654.234C64.6683 654.286 64.6965 654.505 64.7768 654.597C82.305 608.655 109.94 574.989 148.495 552.488C210.41 516.32 275.828 521.745 338.961 527.05C393.101 531.587 444.185 535.863 489.705 514.03C507.3 505.539 522.977 493.448 537.647 477.13C553.076 459.827 567.039 438.048 580.227 410.542Z" fill="#D4EAFF"/>
<path d="M577.945 414.146C603.866 361.96 618.85 299.516 634.789 233.244C650.404 167.902 666.251 101.71 693.33 42.7657C693.33 42.7657 693.262 42.5011 693.182 42.4088C692.126 44.5417 691.197 46.7268 690.199 48.6474C664.806 106.369 649.347 170.684 634.41 233.088C618.609 299.239 603.54 361.677 577.784 413.962C552.456 465.065 522.973 497.907 487.516 514.394C442.577 535.316 392.188 531.002 338.784 526.474C275.651 521.169 210.365 515.711 148.347 551.481C121.611 567.029 99.6189 588.498 83.0549 615.375C75.937 626.991 69.6036 639.788 64.319 653.699C64.3532 653.831 64.4794 653.883 64.5077 654.102C81.9557 608.067 109.757 574.499 148.53 551.97C210.461 516.194 275.656 521.732 338.743 527.078C392.199 531.479 442.668 535.885 487.607 514.963C505.269 506.737 520.791 495.025 535.437 479.051C550.923 462.185 564.85 440.923 577.945 414.146Z" fill="#D4EAFF"/>
<path d="M575.921 417.769C601.846 366.795 617.39 305.647 633.917 240.888C650.516 175.096 667.594 107.996 696.489 48.4447C696.409 48.3524 696.386 48.0478 696.346 48.0017C694.419 52.1073 692.63 56.0929 690.657 60.2386C664.956 116.77 648.88 180.002 633.406 240.765C617.011 305.49 601.553 366.644 575.554 417.44C549.693 468.115 521.069 499.157 485.383 515.195C440.987 535.16 391.114 530.883 338.399 526.404C275.405 520.979 210.21 515.44 148.205 551.038C120.992 566.596 98.8093 588.311 82.0835 615.652C75.2017 626.982 69.0583 639.533 63.8435 653.059C63.8836 653.105 63.998 653.33 64.1183 653.468C81.5723 607.347 109.46 573.786 148.433 551.488C210.261 515.963 275.369 521.496 338.404 526.967C391.205 531.452 441.117 535.775 485.526 515.638C502.987 507.83 518.611 496.515 533.233 480.886C548.592 464.617 562.696 443.93 575.921 417.769Z" fill="#D4EAFF"/>
<path d="M573.719 421.466C599.946 371.768 615.872 311.989 632.947 248.698C650.777 181.998 668.902 114.149 699.877 54.5728C699.877 54.5728 699.803 54.3943 699.722 54.302C696.775 60.0236 693.724 65.9976 690.817 71.7653C664.871 127.456 648.431 189.061 632.391 248.615C615.579 311.838 599.613 371.572 573.479 421.189C547.488 470.6 518.751 500.767 483.371 516.134C439.424 535.222 390.155 530.988 338.049 526.466C275.1 521 210.084 515.388 148.148 550.601C120.539 566.26 98.034 588.256 81.1524 615.975C74.3686 627.139 68.4672 639.318 63.4825 652.644C63.6029 652.782 63.6772 652.96 63.7455 653.225C81.4001 607.335 109.686 573.022 148.193 551.211C210.043 515.991 275.059 521.603 337.881 527.016C390.027 531.585 439.297 535.819 483.335 516.651C500.686 509.182 516.207 498.119 530.787 483.094C546.306 467.009 560.369 446.925 573.719 421.466Z" fill="#D4EAFF"/>
<path d="M571.61 425.082C598.104 376.529 614.584 318.131 632.03 256.382C650.981 189.112 670.314 120.7 703.333 60.9651C703.333 60.9651 703.265 60.7005 703.231 60.5682C699.051 67.8473 695.193 75.4956 691.356 83.4484C664.89 137.89 647.889 198.2 631.565 256.219C614.119 317.968 597.553 376.36 571.289 424.713C545.077 472.939 516.532 502.211 481.371 516.901C437.92 535.072 389.346 530.8 337.843 526.321C275.026 520.821 210.016 515.123 148.15 549.952C120.184 565.759 97.4432 588.04 80.4919 616.145C73.8922 627.148 68.1809 639.08 63.1857 651.929C63.26 652.108 63.4205 652.292 63.5809 652.477C81.2354 606.587 109.601 572.367 148.367 550.573C210.233 515.745 275.117 521.391 337.888 526.93C389.345 531.449 437.965 535.681 481.513 517.344C498.841 510.219 514.331 499.587 528.808 484.814C544.067 469.361 558.181 449.8 571.61 425.082Z" fill="#D4EAFF"/>
<path d="M631.026 264.06C651.167 196.484 671.627 127.416 706.978 67.7607C706.898 67.6684 706.744 67.3978 706.749 67.3116C701.544 76.2928 696.545 85.4185 691.821 94.9534C665.173 148.257 647.584 207.052 630.734 263.909C612.647 324.271 595.745 381.253 569.087 428.409C542.705 475.324 514.173 503.775 479.399 517.886C436.357 535.134 388.392 530.819 337.705 526.441C274.9 520.769 209.942 514.945 148.087 549.601C119.731 565.423 96.6279 587.939 79.6009 616.514C73.2373 627.231 67.5898 638.865 62.7906 651.382L63.0996 651.923C80.8061 605.907 109.292 571.825 148.19 549.998C210.079 515.474 274.911 521.246 337.589 526.865C388.357 531.336 436.368 535.611 479.455 518.323C514.402 504.224 543.072 475.654 569.592 428.618C596.164 381.456 613.072 324.387 631.026 264.06Z" fill="#D4EAFF"/>
<path d="M630.12 271.571C651.416 203.559 673.186 134.324 710.537 74.5507C710.543 74.4645 710.457 74.4584 710.469 74.286C704.06 84.394 698.007 95.0033 692.199 106.453C665.106 158.686 647.186 215.986 629.776 271.547C611.313 330.454 593.903 386.015 567.109 431.992C540.466 477.677 511.913 505.174 477.272 518.602C434.807 535.024 387.485 530.798 337.418 526.204C274.78 520.631 209.873 514.68 147.991 549.118C119.238 565.042 95.9044 587.758 78.7557 616.844C72.5421 627.269 67.0445 638.61 62.4413 650.795C62.5616 650.933 62.636 651.111 62.7103 651.29C80.4509 605.406 108.937 571.324 148.133 549.561C209.964 515.25 274.79 521.108 337.423 526.767C387.495 531.275 434.811 535.587 477.322 519.125C512.056 505.617 540.655 478.08 567.396 432.229C594.195 386.165 611.566 330.558 630.12 271.571Z" fill="#D4EAFF"/>
<path d="M629.334 279.222C651.808 211.076 674.831 141.238 714.456 81.756C714.456 81.756 714.376 81.6637 714.209 81.5653C706.592 92.8861 699.365 104.841 692.549 117.734C665.187 168.822 646.748 224.873 628.881 278.887C609.91 336.372 591.974 390.77 564.833 435.51C538.054 480.017 509.646 506.658 475.185 519.363C433.296 534.96 386.669 530.697 337.337 526.112C274.671 520.321 209.891 514.422 147.986 548.556C108.669 570.18 79.8843 604.197 62.0976 650.121C62.1259 650.34 62.2922 650.438 62.4126 650.577C80.1473 604.779 108.806 570.709 148.122 549.085C209.975 515.078 274.669 520.97 337.296 526.715C386.679 531.174 433.3 535.524 475.402 519.985C509.829 507.147 538.409 480.518 565.28 435.932C592.307 390.967 610.237 336.655 629.334 279.222Z" fill="#D4EAFF"/>
<path d="M628.395 286.601C652.219 218.334 676.5 148.456 718.227 89.2528C718.14 89.2467 718.152 89.0744 718.152 89.0744C709.286 101.562 700.964 114.954 693.026 129.066C665.391 179.096 646.403 233.679 627.89 286.392C608.411 342.455 589.96 395.519 562.632 439.207C535.729 482.362 507.254 508.09 473.133 520.256C431.694 534.976 385.808 530.636 337.252 526.106C274.545 520.268 209.777 514.197 147.844 548.112C108.321 569.592 79.4496 603.603 61.5827 649.435C61.7431 649.619 61.8174 649.798 61.9378 649.936C79.7186 604.099 108.543 570.127 148.032 548.515C209.827 514.72 274.51 520.785 337.17 526.663C385.819 531.113 431.796 535.373 473.275 520.699C507.391 508.619 536.004 482.771 563.004 439.45C590.419 395.768 608.956 342.711 628.395 286.601Z" fill="#D4EAFF"/>
<path d="M627.621 294.079C652.577 225.719 678.27 156.071 722.185 97.1532C722.243 96.9409 722.162 96.8486 722.088 96.6702C712.013 110.371 702.396 124.969 693.478 140.743C665.633 189.416 646.183 242.539 627.294 293.796C607.215 348.518 588.21 400.2 560.614 442.743C533.53 484.76 505.114 509.626 471.166 521.155C430.315 534.878 385.073 530.627 337.212 526.06C274.591 520.228 209.875 514.031 147.925 547.555C108.184 569.063 79.1463 602.976 61.3596 648.9C61.3938 649.032 61.5542 649.217 61.5884 649.349C79.4553 603.517 108.28 569.546 148.022 548.038C209.879 514.594 274.555 520.745 337.09 526.571C385.037 531.144 430.366 535.402 471.223 521.592C505.211 510.109 533.724 485.077 560.98 443.072C588.703 400.581 607.541 348.801 627.621 294.079Z" fill="#D4EAFF"/>
<path d="M626.899 301.43C653.055 233.243 680.081 163.732 726.396 105.158C726.321 104.979 726.235 104.973 726.241 104.887C714.821 119.271 704.093 134.917 694.006 151.95C665.722 199.466 645.849 251.173 626.446 301.095C605.852 354.482 586.408 405.007 558.458 446.4C531.164 487.06 502.722 511.058 469.166 521.922C428.805 534.814 384.257 530.526 337.131 525.967C274.563 520.01 209.806 513.767 147.788 547.026C107.921 568.481 78.8372 602.434 60.8901 648.174C61.0045 648.398 61.1649 648.583 61.159 648.669C79.066 602.883 108.097 569.057 147.965 547.601C209.897 514.336 274.521 520.613 337.044 526.611C384.256 531.175 428.763 535.418 469.13 522.439C502.812 511.627 531.347 487.549 558.779 446.769C586.608 405.238 606.133 354.805 626.899 301.43Z" fill="#D4EAFF"/>
<path d="M626.27 308.701C653.746 240.824 682.018 171.445 730.463 113.368C730.463 113.368 730.302 113.184 730.394 113.104C717.617 128.344 705.698 144.944 694.568 163.288C666.057 209.706 645.504 259.979 625.719 308.532C604.478 360.618 584.479 409.761 556.348 450.016C528.833 489.491 500.363 512.622 467.027 522.809C427.328 534.882 383.516 530.603 337.172 526.013C274.615 519.883 209.824 513.508 147.778 546.549C116.95 563.061 92.3559 587.116 74.5883 618.28C69.325 627.473 64.6351 637.14 60.535 647.672C60.6153 647.764 60.7356 647.903 60.8158 647.995C78.6827 602.163 107.84 568.389 147.88 546.946C209.875 514.031 274.499 520.308 337.05 526.524C383.573 531.04 427.379 535.405 467.17 523.252C500.679 513.077 529.062 489.94 556.629 450.339C584.852 410.004 604.943 360.781 626.27 308.701Z" fill="#D4EAFF"/>
<path d="M625.559 315.881C654.43 248.492 684.155 179.389 734.764 121.943C734.684 121.851 734.776 121.771 734.696 121.678C720.481 137.682 707.411 155.283 694.998 174.661C666.225 219.849 645.302 268.58 625.14 315.678C603.34 366.468 582.729 414.443 554.146 453.713C526.461 491.878 498.097 514.106 464.94 523.57C425.858 534.865 382.74 530.548 337.217 525.974C274.494 519.745 209.841 513.25 147.635 546.106C116.508 562.554 91.5861 586.976 73.6627 618.517C68.6756 627.471 64.0896 636.886 60.1973 646.912C60.2716 647.091 60.3519 647.183 60.3801 647.402C78.4193 601.582 107.623 567.768 147.817 546.595C209.846 513.813 274.545 520.268 337.222 526.537C382.837 531.031 425.902 535.474 465.163 524.106C498.332 514.469 526.782 492.247 554.519 453.956C583.01 414.766 603.627 366.705 625.559 315.881Z" fill="#D4EAFF"/>
<path d="M624.982 323.025C653.835 259.056 685.572 189.014 739.083 130.907C738.922 130.723 738.848 130.544 738.768 130.452C723.518 147.032 709.097 165.402 695.745 185.84C666.664 229.836 645.273 277.193 624.477 322.816C602.116 372.312 581.065 419.13 552.215 457.255C524.136 494.223 495.837 515.504 462.974 524.47C424.428 534.893 382.132 530.591 337.39 525.986C274.771 519.505 209.86 512.991 147.631 545.543C116.102 562.179 90.9093 586.754 72.8641 618.807C67.9868 627.422 63.677 636.596 59.8085 646.278C59.8828 646.457 59.9571 646.635 60.0834 646.687C78.0706 600.994 107.487 567.238 147.894 546.124C209.996 513.52 274.729 520.108 337.441 526.509C382.188 531.028 424.61 535.382 463.071 524.953C496.106 515.999 524.503 494.552 552.449 457.618C581.306 419.406 602.357 372.589 624.982 323.025Z" fill="#D4EAFF"/>
<path d="M624.365 330.125C654.634 266.948 687.772 197.308 743.447 139.832C743.281 139.734 743.299 139.475 743.132 139.377C726.583 156.6 710.902 175.66 696.274 197.046C667.063 239.778 645.124 285.667 623.912 329.789C601.031 378.036 579.281 423.678 549.979 460.819C521.777 496.436 493.531 516.942 460.934 525.19C423.09 534.841 381.529 530.548 337.523 525.952C274.823 519.378 209.924 512.692 147.528 545.146C115.655 561.757 90.1804 586.659 71.9794 619.09C67.3323 627.505 63.0863 636.381 59.4196 645.645C59.4538 645.777 59.5281 645.955 59.6485 646.094C77.7679 600.366 107.178 566.697 147.751 545.681C210.015 513.261 274.822 520.028 337.527 526.515C381.534 531.111 423.181 535.41 460.979 525.8C493.708 517.517 522.126 497.024 550.294 461.274C579.562 424.001 601.352 378.405 624.365 330.125Z" fill="#D4EAFF"/>
<path d="M624.01 337.156C655.405 274.622 690.086 205.828 747.885 148.936C747.586 148.871 747.558 148.653 747.478 148.56C729.566 166.077 712.667 185.873 696.939 208.133C667.369 249.8 645.111 294.022 623.563 336.735C599.898 383.8 577.358 428.348 547.742 464.384C519.491 498.829 491.178 518.42 458.841 526.038C421.532 534.818 380.925 530.506 337.694 525.964C274.914 519.299 209.901 512.388 147.437 544.577C115.075 561.37 89.37 586.472 71.0933 619.374C66.6422 627.456 62.5521 635.954 58.9893 644.965C59.0696 645.057 59.184 645.282 59.1781 645.368C77.3836 599.647 106.914 566.116 147.7 545.158C209.951 512.911 274.919 519.862 337.698 526.527C380.93 531.069 421.709 535.393 458.971 526.653C491.401 518.956 519.719 499.278 548.103 464.799C577.725 428.677 600.213 384.255 624.01 337.156Z" fill="#D4EAFF"/>
<path d="M623.622 344.056C656.468 282.447 692.526 214.4 752.133 158.285C752.139 158.199 752.065 158.021 751.985 157.929C732.601 176.076 714.626 196.402 697.772 219.318C667.94 259.755 645.226 302.429 623.215 343.68C599.018 389.669 575.826 433.001 545.718 468.007C517.251 501.181 488.958 519.865 456.92 526.898C420.36 534.865 380.402 530.556 338.13 525.909C275.184 519.145 210.142 512.016 147.598 544.113C114.806 560.875 88.9048 586.309 70.4262 619.63C66.1251 627.42 62.225 635.671 58.732 644.298C58.8865 644.569 59.001 644.793 59.1213 644.932C77.5794 599.315 107.49 565.291 147.781 544.602C210.273 512.631 275.327 519.588 338.135 526.472C380.407 531.119 420.491 535.48 457.051 527.513C489.226 520.36 517.566 501.636 546.119 468.468C576.147 433.37 599.213 389.986 623.622 344.056Z" fill="#D4EAFF"/>
<path d="M623.408 350.966C657.492 290.225 695.088 223.11 756.651 168.129C756.657 168.043 756.503 167.772 756.555 167.646C735.948 185.967 716.633 206.89 698.645 230.549C668.57 269.496 645.473 310.8 623.087 350.597C597.893 395.346 574.215 437.561 543.689 471.715C515.007 503.618 486.732 521.394 454.868 527.79C418.925 534.978 379.874 530.69 338.424 526.059C275.415 518.944 210.253 511.677 147.416 543.623C114.227 560.487 88.0041 586.201 69.4097 619.947C65.3446 627.45 61.5946 635.409 58.2114 643.697C58.3718 643.882 58.4402 644.146 58.6007 644.331C77.1449 598.721 107.228 564.709 147.593 544.198C210.212 512.28 275.374 519.547 338.296 526.656C379.713 531.155 418.889 535.495 454.747 528.301C486.743 521.871 515.069 503.969 543.838 472.072C574.576 437.977 598.306 395.635 623.408 350.966Z" fill="#D4EAFF"/>
<path d="M623.296 357.625C658.682 298.102 697.838 232.223 761.405 177.688C761.192 177.629 761.112 177.537 761.084 177.319C739.149 196.065 718.823 217.219 699.576 241.567C669.411 279.296 645.732 319.001 623.056 357.348C597.117 400.962 572.643 442.168 541.453 475.279C512.687 505.878 484.386 522.786 452.816 528.683C417.667 535.019 379.357 530.654 338.854 526.09C275.72 518.923 210.311 511.464 147.406 543.146C113.86 560.158 87.3726 585.94 68.6507 620.282C64.7355 627.494 61.1354 635.16 57.9081 643.07C57.9824 643.248 58.0567 643.427 58.1711 643.651C76.8416 598.093 106.965 564.127 147.589 543.635C210.402 512.034 275.644 519.393 338.733 526.6C379.276 531.211 417.671 535.582 452.786 529.114C484.522 523.315 512.744 506.315 541.602 475.636C572.964 442.538 597.398 401.285 623.296 357.625Z" fill="#D4EAFF"/>
<path d="M623.403 364.256C660.05 305.904 700.726 241.216 766.002 187.624C765.922 187.532 765.63 187.382 765.728 187.215C742.523 206.174 720.995 227.806 700.553 252.545C670.212 289.05 646.209 327.173 623.209 363.939C596.348 406.491 571.243 446.787 539.252 478.975C510.276 508.217 482.12 524.27 450.77 529.49C416.231 535.133 378.875 530.749 339.325 526.166C275.95 518.722 210.467 511.085 147.349 542.708C113.373 559.69 86.5974 585.885 67.7657 620.565C63.9604 627.438 60.5622 634.686 57.3927 642.383C57.5532 642.568 57.6334 642.66 57.788 642.931C76.5045 597.333 106.708 563.459 147.412 543.059C210.564 511.569 275.955 519.285 339.204 526.677C378.839 531.266 416.321 535.702 450.74 529.921C482.302 524.759 510.418 508.66 539.492 479.252C571.432 447.19 596.663 406.946 623.403 364.256Z" fill="#D4EAFF"/>
<path d="M623.734 370.773C661.631 313.766 703.561 250.335 770.496 197.814C770.416 197.722 770.393 197.417 770.233 197.233C746.017 216.423 723.081 238.387 701.587 263.312C671.077 298.506 646.87 335.186 623.275 370.524C595.796 411.994 569.637 451.262 537.107 482.46C507.996 510.523 479.945 525.674 448.683 530.251C415.105 535.14 378.524 530.811 339.842 526.203C276.352 518.534 210.669 510.667 147.305 542.099C112.931 559.183 85.874 585.704 66.9725 620.769C63.3513 627.482 60.103 634.437 57.0553 641.624C57.2559 641.854 57.3361 641.947 57.4505 642.171C76.2473 596.665 106.623 562.804 147.487 542.589C210.759 511.236 276.397 519.144 339.853 526.68C378.535 531.288 415.063 535.743 448.779 530.734C480.042 526.157 508.185 510.926 537.468 482.875C569.906 451.758 596.065 412.489 623.734 370.773Z" fill="#D4EAFF"/>
<path d="M624.065 377.291C663.251 321.674 706.85 259.79 775.156 208.102C775.076 208.01 774.961 207.786 774.973 207.613C706.409 259.283 662.838 321.385 623.658 376.915C595.199 417.536 568.197 455.836 534.991 486.163C505.63 512.823 477.599 527.067 446.544 531.139C413.702 535.387 378.121 530.999 340.393 526.372C276.697 518.56 210.858 510.421 147.156 541.743C112.352 558.796 85.0641 585.517 65.9949 621.133C62.6098 627.56 59.3852 634.171 56.6196 641.031C56.734 641.255 56.8083 641.434 56.9228 641.658C73.3755 601.917 101.276 565.023 147.332 542.318C210.909 510.944 276.787 519.129 340.351 526.975C378.086 531.516 413.747 535.996 446.681 531.668C477.724 527.768 505.853 513.358 535.22 486.612C568.598 456.297 595.479 417.859 624.065 377.291Z" fill="#D4EAFF"/>
<path d="M624.799 383.62C665.222 329.519 710.145 269.158 779.85 218.522C779.902 218.396 779.747 218.125 779.839 218.045C709.996 268.801 665.033 329.116 624.61 383.217C594.963 422.844 566.975 460.381 532.967 489.785C503.517 515.227 475.332 528.551 444.709 532.004C412.57 535.48 377.937 531.159 341.208 526.473C277.277 518.298 211.146 510.009 147.191 541.226C100.974 563.746 72.9414 600.674 56.2763 640.357C56.3506 640.535 56.465 640.76 56.6313 640.858C73.1762 601.037 101.151 564.321 147.42 541.675C211.237 510.578 277.322 518.907 341.219 526.95C377.948 531.636 412.621 536.003 444.76 532.527C475.469 529.08 503.666 515.584 533.202 490.148C567.296 460.75 595.238 423.253 624.799 383.62Z" fill="#D4EAFF"/>
<path d="M784.671 228.995C784.55 228.856 784.51 228.81 784.402 228.499C713.331 278.216 667.011 336.876 625.528 389.386C594.809 428.244 565.846 464.847 530.686 493.39C501.025 517.474 472.98 530.029 442.491 532.799C411.307 535.607 377.587 531.221 341.978 526.615C310.446 522.514 277.8 518.248 244.995 518.819C207.847 519.602 175.844 526.767 147.055 540.697C100.711 563.164 72.6044 599.914 55.761 639.671C55.9214 639.855 55.9957 640.034 56.0299 640.166C72.7471 600.357 100.808 563.647 147.191 541.226C211.359 510.067 277.759 518.851 341.936 527.218C377.586 531.87 411.305 536.256 442.536 533.408C473.077 530.512 501.248 518.01 530.874 493.793C566.208 465.262 595.09 428.567 625.803 389.795C667.28 337.371 713.64 278.757 784.671 228.995Z" fill="#D4EAFF"/>
<path d="M789.572 239.559C789.405 239.46 789.325 239.368 789.337 239.196C717.252 287.931 669.465 344.626 626.894 395.327C594.93 433.404 564.849 469.278 528.536 496.96C498.706 519.734 470.766 531.386 440.485 533.652C410.083 535.779 377.443 531.427 342.92 526.768C311.221 522.569 278.455 518.164 245.524 518.683C208.129 519.275 175.914 526.382 147.044 540.219C100.587 562.462 72.2672 599.153 55.4238 638.911C55.458 639.043 55.5724 639.267 55.6868 639.492C72.5361 599.649 100.723 562.991 147.227 540.709C211.681 509.787 278.334 518.675 342.838 527.325C377.402 532.03 410.168 536.435 440.529 534.261C470.897 532.002 498.963 520.401 528.759 497.495C565.038 469.681 595.297 433.733 627.249 395.828C669.74 345.035 717.435 288.42 789.572 239.559Z" fill="#D4EAFF"/>
<path d="M794.328 250.33C794.42 250.25 794.225 249.933 794.317 249.853C721.304 297.613 672.355 352.321 628.697 401.213C595.58 438.429 563.984 473.676 526.432 500.49C496.507 522.132 468.546 532.831 438.57 534.425C409.025 536.051 377.379 531.726 343.941 527.014C312.129 522.59 279.242 518.047 246.058 518.462C208.497 518.955 176.127 525.791 147.079 539.703C110.701 556.99 82.3429 584.804 62.7245 622.113C59.8992 627.324 57.4125 632.645 55.0402 638.191L55.3091 638.686C72.2446 598.849 100.638 562.336 147.176 540.186C212.015 509.335 279.069 518.684 343.814 527.611C377.263 532.15 408.904 536.561 438.396 535.063C468.636 533.4 496.684 522.707 526.781 501.078C564.081 474.159 595.763 438.918 628.972 401.622C672.498 352.764 721.487 298.103 794.328 250.33Z" fill="#D4EAFF"/>
<path d="M799.325 261.378C799.171 261.107 799.177 261.021 799.056 260.883C725.735 307.452 675.55 359.994 631.041 406.791C596.184 443.494 563.199 478.166 524.316 504.193C494.187 524.392 466.239 534.269 436.385 535.353C407.882 536.316 377.361 531.984 345.049 527.266C313.07 522.744 279.937 518.01 246.593 518.24C208.871 518.549 176.237 525.453 146.937 539.26C110.162 556.649 81.4873 584.657 61.8334 622.483C59.2441 627.407 56.8212 632.43 54.5588 637.638C54.639 637.73 54.7594 637.868 54.8797 638.007C71.8553 598.216 100.323 561.881 147.073 539.789C212.389 508.928 279.816 518.521 345.008 527.869C377.28 532.541 407.88 536.965 436.43 535.962C466.37 534.884 494.278 524.961 524.585 504.688C563.555 478.667 596.459 443.903 631.442 407.252C675.825 360.403 725.884 307.809 799.325 261.378Z" fill="#D4EAFF"/>
<path d="M804.122 272.195C804.042 272.103 804.013 271.884 803.939 271.706C730.304 317.171 679.366 367.451 634.131 412.205C597.409 448.343 562.811 482.554 522.12 507.803C491.954 526.657 464.019 535.713 434.385 536.12C406.784 536.541 377.349 532.157 346.198 527.564C314.064 522.771 280.811 517.899 247.133 517.932C209.119 518.09 176.318 524.896 146.846 538.691C109.594 556.089 80.6837 584.383 60.8278 622.628C58.4806 627.18 56.2938 631.916 54.1813 636.831C54.2556 637.01 54.3358 637.102 54.37 637.234C71.4837 597.323 100.112 561.174 146.989 539.134C212.821 508.31 280.609 518.318 346.162 528.081C377.314 532.674 406.748 537.058 434.349 536.637C464.116 536.196 492.004 527.181 522.309 508.206C563.006 482.871 597.598 448.746 634.279 412.562C679.601 367.814 730.533 317.62 804.122 272.195Z" fill="#D4EAFF"/>
<path d="M809.16 283.288C809.039 283.15 808.919 283.012 808.885 282.879C735.569 326.852 683.711 374.772 637.63 417.345C599.031 453.09 562.475 486.815 519.965 511.46C490.037 528.729 461.322 537.166 432.287 537.053C405.721 536.898 377.532 532.646 347.593 528.052C315.259 523.029 281.718 517.92 247.915 517.901C209.568 517.862 176.434 524.471 146.698 538.333C109.05 555.834 79.9146 584.242 59.9371 622.997C57.7799 627.303 55.6109 631.781 53.6602 636.231C53.7746 636.456 53.7687 636.542 53.843 636.721C71.175 596.782 99.9697 560.73 146.829 538.949C213.322 507.955 281.597 518.431 347.603 528.529C377.589 533.082 405.818 537.381 432.297 537.53C461.419 537.649 490.18 529.172 520.285 511.829C562.658 487.304 599.312 453.413 637.991 417.76C683.986 375.181 735.798 327.301 809.16 283.288Z" fill="#D4EAFF"/>
<path d="M814.145 294.508C814.037 294.198 813.962 294.019 813.968 293.933C741.316 336.438 688.854 381.804 642.635 421.986C599.61 459.149 562.65 491.2 517.906 514.95C487.717 530.989 459.154 538.485 430.246 537.774C404.795 537.136 377.819 532.883 349.211 528.427C316.55 523.121 282.85 517.827 248.8 517.618C210.126 517.296 176.694 523.84 146.699 537.684C108.74 555.293 79.1968 583.975 59.1897 623.161C57.1824 627.174 55.2153 631.234 53.3225 635.472C53.3567 635.604 53.483 635.656 53.4771 635.742C70.9353 595.856 99.8162 559.811 146.795 538.168C213.754 507.337 285.685 518.765 349.136 528.898C377.697 533.393 404.714 537.693 430.21 538.291C459.158 539.048 487.854 531.518 518.043 515.479C562.706 491.637 599.885 459.558 642.731 422.47C689.169 382.26 741.453 336.967 814.145 294.508Z" fill="#D4EAFF"/>
<path d="M818.96 305.067C747.62 346.106 695.043 388.737 648.479 426.384C602.778 463.443 563.129 495.563 515.751 518.607C485.604 533.393 456.928 540.015 428.234 538.713C403.939 537.637 378.22 533.344 350.997 528.9C318.083 523.489 284.142 517.919 249.765 517.426C210.713 516.948 177.022 523.473 146.723 537.34C108.339 554.831 78.5538 583.886 58.3507 623.404C56.4934 627.125 54.6703 630.978 53.0195 634.844C53.1057 634.85 53.1339 635.069 53.174 635.115C70.7185 595.234 99.8058 559.333 146.859 537.869C214.387 506.949 286.932 518.896 350.875 529.411C378.138 533.901 403.863 538.108 428.198 539.23C456.978 540.538 485.655 533.916 515.928 519.182C563.186 496 602.828 463.966 648.708 426.833C695.146 389.134 747.895 346.515 819.269 305.608C819.074 305.291 819.126 305.165 818.96 305.067Z" fill="#D4EAFF"/>
<path d="M824.256 316.179C823.221 316.755 822.231 317.291 821.328 317.833C753.234 356.375 701.675 395.529 656.099 430.129C606.698 467.487 564.269 499.757 513.681 522.269C483.325 535.698 454.76 541.333 426.273 539.526C403.047 538.007 378.747 533.857 352.914 529.339C319.847 523.658 285.486 517.885 250.777 517.195C211.305 516.514 177.282 522.843 146.678 536.73C107.898 554.323 77.8423 583.532 57.4714 623.601C55.8101 626.99 54.0969 630.505 52.5158 633.986C52.6302 634.21 52.7847 634.481 52.9853 634.712C73.1486 589.476 104.919 556.103 146.78 537.127C215.175 506.182 288.282 518.776 352.833 529.896C378.638 534.196 402.972 538.478 426.157 539.951C454.73 541.763 483.335 536.175 513.703 522.574C564.412 500.2 607.013 467.943 656.208 430.439C701.731 395.965 753.336 356.772 821.391 318.183C822.42 317.694 823.409 317.158 824.364 316.49C824.318 316.53 824.284 316.397 824.256 316.179Z" fill="#D4EAFF"/>
<path d="M829.407 327.498C829.097 327.606 828.602 327.874 828.194 328.148C826.031 329.379 823.961 330.531 821.759 331.717C758.858 367.121 709.352 402.222 665.754 433.239C612.152 471.252 565.868 504.2 511.657 525.892C481.045 538.005 452.493 542.817 424.226 540.334C402.322 538.476 379.36 534.378 355.072 530.056C321.677 524.091 287.042 517.909 251.908 517.103C211.984 516.086 177.616 522.391 146.667 536.254C107.45 553.903 77.1125 583.437 56.666 623.978C55.1087 627.114 53.5914 630.296 52.1603 633.485C52.3207 633.669 52.4351 633.894 52.5496 634.118C72.7871 589.061 104.644 555.695 146.717 536.777C215.853 505.755 289.826 518.973 355.037 530.573C379.325 534.895 402.333 538.953 424.191 540.851C452.544 543.34 481.182 538.534 511.794 526.421C566.097 504.649 612.461 471.793 665.983 433.688C709.621 402.717 758.994 367.651 821.942 332.206C824.104 330.974 826.346 329.835 828.423 328.597C828.865 328.455 829.233 328.135 829.676 327.993C829.475 327.762 829.401 327.584 829.407 327.498Z" fill="#D4EAFF"/>
<path d="M834.691 338.782C832.587 339.802 830.563 340.913 828.625 342.031C826.462 343.263 824.358 344.282 822.196 345.514C765.471 377.331 719.07 408.193 678.197 435.464C619.188 474.695 568.421 508.624 509.455 529.589C478.806 540.356 450.319 544.221 422.042 541.261C401.546 539.07 380.049 535.076 357.351 530.91C291.413 518.566 216.58 504.637 146.478 535.851C106.871 553.515 76.2632 583.204 55.695 624.255C54.2876 627.099 52.9722 629.863 51.645 632.799C51.8055 632.983 51.9199 633.208 52.0744 633.478C72.3982 588.427 104.467 555.119 146.615 536.38C216.619 505.333 291.331 519.123 357.31 531.513C379.961 535.719 401.418 539.667 422.006 541.778C450.237 544.778 478.851 540.966 509.552 530.072C568.655 508.987 619.583 475.243 678.42 436C719.247 408.768 765.568 377.814 822.373 346.089C824.535 344.858 826.651 343.666 828.808 342.52C830.746 341.402 832.764 340.377 834.874 339.271C834.806 339.007 834.686 338.868 834.691 338.782Z" fill="#D4EAFF"/>
<path d="M839.981 349.98C836.387 351.89 832.661 353.833 829.153 355.749C826.865 356.928 824.881 358.086 822.764 359.278C773.355 386.679 731.335 413.003 694.33 436.264C626.031 479.034 572.025 512.862 507.271 533.027C476.664 542.542 448.111 545.493 420.093 541.902C400.953 539.504 381.047 535.666 360.032 531.577C293.273 518.568 217.54 503.883 146.48 535.202C106.436 552.921 75.5915 582.896 54.8616 624.412C53.61 626.878 52.4387 629.435 51.3535 631.999C51.5139 632.183 51.5021 632.356 51.6566 632.626C72.1527 587.587 104.256 554.412 146.656 535.777C217.539 504.532 293.186 519.211 359.945 532.22C381.005 536.269 400.866 540.147 420.046 542.591C448.149 546.188 476.657 543.277 507.356 533.682C572.236 513.57 626.162 479.649 694.547 436.885C731.552 413.625 773.658 387.307 822.895 359.893C825.052 358.747 827.082 357.55 829.41 356.416C832.924 354.415 836.558 352.551 840.417 350.574C840.084 350.377 840.096 350.205 839.981 349.98Z" fill="#D4EAFF"/>
<path d="M845.478 361.323C840.275 363.984 834.754 366.839 829.625 369.678C827.463 370.91 825.392 372.061 823.11 373.155C782.93 395.367 747.061 416.587 715.476 435.297C638.262 481.201 577.082 517.377 505.07 536.723C474.38 544.933 445.885 547.023 417.995 542.835C400.43 540.202 382.24 536.573 362.908 532.559C295.238 518.967 218.496 503.214 146.338 534.758C105.823 552.401 74.8288 582.668 53.937 624.649C52.9215 626.828 51.86 629.047 50.8446 631.226C50.9129 631.491 50.9932 631.583 51.1477 631.854C71.77 586.867 104.034 553.876 146.48 535.201C218.541 503.824 295.168 519.351 362.867 533.163C382.118 537.084 400.342 540.845 417.873 543.345C445.896 547.5 474.384 545.496 505.126 537.16C577.311 517.826 638.359 481.684 715.653 435.872C747.33 417.082 783.079 395.724 823.246 373.684C825.403 372.538 827.565 371.306 829.589 370.195C834.897 367.282 840.285 364.461 845.707 361.772C845.587 361.634 845.553 361.501 845.478 361.323Z" fill="#D4EAFF"/>
<path d="M851.027 372.539C844.075 376.072 836.939 379.764 829.929 383.509C827.853 384.747 825.875 385.819 823.719 386.964C794.845 402.75 768.863 417.399 743.733 431.632C651.048 484.1 584.252 521.998 503.006 540.299C472.146 547.199 443.763 548.301 415.994 543.602C400.078 540.913 383.651 537.452 366.243 533.792C297.569 519.046 219.715 502.478 146.373 534.241C105.554 551.906 74.0651 582.441 53.0977 624.892C52.198 626.647 51.2864 628.573 50.415 630.546C50.5353 630.685 50.6557 630.823 50.8102 631.094C71.5127 586.199 103.856 553.3 146.47 534.724C219.72 503.041 297.488 519.602 366.167 534.263C383.529 537.963 399.996 541.47 415.913 544.159C443.675 548.944 472.243 547.682 503.056 540.822C584.349 522.481 651.19 484.543 743.915 432.121C769.046 417.888 795.074 403.199 823.855 387.494C825.931 386.256 828.122 385.242 830.152 384.044C837.036 380.247 844.304 376.521 851.256 372.989C851.175 372.896 851.141 372.764 851.027 372.539Z" fill="#D4EAFF"/>
<path d="M856.747 383.769C847.961 388.167 839.164 392.737 830.492 397.359C828.508 398.517 826.225 399.611 824.109 400.802C809.463 408.594 795.512 416.348 782.015 423.788C668.5 485.859 593.571 526.86 500.77 543.864C469.993 549.557 441.583 549.791 413.942 544.495C399.668 541.837 385.183 538.471 369.79 535.083C299.964 519.476 220.848 501.737 146.236 533.712C104.974 551.519 73.3417 582.26 52.2585 625.136C51.4627 626.638 50.7011 628.273 49.9856 629.867C50.1059 630.005 50.1802 630.184 50.3005 630.322C71.1293 585.48 103.593 552.719 146.413 534.288C220.985 502.266 299.968 520.039 369.749 535.686C385.135 539.16 399.626 542.44 413.895 545.185C441.547 550.308 469.952 550.161 500.854 544.519C543.733 536.568 586.279 522.749 634.528 500.893C679.246 480.648 726.964 454.555 782.146 424.403C795.729 416.969 809.72 409.261 824.372 401.384C826.402 400.186 828.639 399.133 830.669 397.935C839.341 393.312 848.311 388.754 856.924 384.344C856.89 384.212 856.73 384.027 856.747 383.769Z" fill="#D4EAFF"/>
<path d="M862.473 394.912C851.974 400.313 841.434 405.669 830.968 411.203L824.804 414.618C685.327 489.781 601.369 533.041 498.785 547.533C467.891 551.789 439.54 551.162 412.021 545.355C399.688 542.791 387.253 539.83 374.008 536.682C302.92 519.902 222.503 500.945 146.311 533.242C104.619 551.017 72.7038 582.085 51.5048 625.386C50.8991 626.642 50.2934 627.897 49.7278 629.199C49.808 629.292 49.8823 629.47 49.9566 629.648C70.9116 584.858 103.462 552.104 146.402 533.811C222.508 501.508 302.879 520.505 373.88 537.279C386.999 540.375 399.566 543.302 411.847 545.992C439.326 551.753 467.804 552.433 498.744 548.136C548.358 541.052 595.315 527.287 650.766 503.301C700.956 481.54 754.635 453.1 824.9 415.101L831.099 411.818C841.565 406.284 852.202 400.763 862.777 395.539C862.662 395.315 862.582 395.222 862.473 394.912Z" fill="#D4EAFF"/>
<path d="M868.367 406.153C855.953 412.328 843.527 418.675 831.48 425.179L825.281 428.462C685.041 503.397 600.096 540.873 496.584 551.229C465.687 554.273 437.321 552.606 409.963 546.334C399.738 543.963 389.531 541.333 378.634 538.655C306.211 520.525 224.08 500.061 146.255 532.804C104.132 550.55 71.9009 581.812 50.5402 625.577C50.0844 626.54 49.6286 627.504 49.1728 628.467C49.2531 628.559 49.3734 628.698 49.4477 628.876C70.4428 584.132 103.205 551.436 146.226 533.235C223.964 500.486 306.049 520.99 378.426 539.16C389.283 541.792 399.536 544.381 409.669 546.833C437.193 553.203 465.605 554.83 496.549 551.746C547.411 546.656 596.301 534.37 650.62 512.988C707.147 490.984 767.995 459.633 825.343 428.812L831.536 425.616C843.67 419.118 856.182 412.777 868.556 406.556C868.476 406.463 868.401 406.285 868.367 406.153Z" fill="#D4EAFF"/>
<path d="M874.278 417.135C860.328 424.24 845.89 431.526 831.831 438.97C829.898 440.001 827.788 441.107 825.77 442.133C700.568 508.612 606.341 548.243 494.435 554.799C463.494 556.585 435.227 554.102 407.877 547.095C399.972 544.975 392.101 542.987 383.771 540.751C309.8 521.213 226.012 499.029 146.159 532.321C103.599 550.122 71.1376 581.584 49.6953 625.906C49.4013 626.405 49.1356 627.122 48.7496 627.701C48.7838 627.833 48.9041 627.971 49.0244 628.11C70.1919 583.378 103.069 550.907 146.255 532.804C225.936 499.5 309.764 521.73 383.603 541.302C391.939 543.452 399.844 545.572 407.629 547.553C435.071 554.48 463.458 557.102 494.359 555.27C546.9 552.204 596.509 542.046 650.536 523.025C699.201 505.831 753.274 481.098 825.82 442.656C827.839 441.63 829.863 440.518 831.881 439.493C845.906 431.917 860.345 424.63 874.335 417.572C874.34 417.486 874.358 417.227 874.278 417.135Z" fill="#D4EAFF"/>
<path d="M48.4062 627.027C48.5666 627.212 48.5607 627.298 48.635 627.476C67.2697 588.106 97.5454 552.55 146.285 532.373C228.213 498.493 313.904 522.586 389.566 543.976C394.962 545.442 400.444 546.913 405.668 548.367C433.063 555.983 461.437 559.426 492.335 558.893C546.503 557.977 596.757 549.77 650.412 533.017C701.59 517.04 757.541 492.7 826.343 456.459C828.534 455.446 830.466 454.414 832.49 453.303C845.871 446.287 859.602 439.21 873.011 432.413L876.876 430.35L876.693 429.861L872.788 431.878C859.552 438.687 845.688 445.798 832.307 452.814C830.283 453.925 828.265 454.951 826.327 456.069C689.585 527.963 595.979 556.685 492.371 558.376C461.427 558.949 433.139 555.512 405.784 547.942C400.52 546.443 395.216 544.897 389.693 543.379C353.303 533.133 312.028 521.544 270.783 517.057C223.527 511.884 182.723 516.735 146.142 531.93C103.158 549.615 70.4601 581.363 48.856 626.15C48.712 626.356 48.5561 626.735 48.4062 627.027Z" fill="#D4EAFF"/>
<path d="M48.0976 626.485C66.8527 587.253 97.3348 551.841 146.143 531.93C230.68 497.239 318.675 523.704 396.326 547.01L403.749 549.225C431.016 557.438 459.325 561.829 490.14 562.502C598.903 565.16 696.4 538.402 826.947 470.355C828.965 469.329 830.983 468.304 832.967 467.146C844.686 461.008 856.67 454.802 868.337 448.791L877.002 444.255L876.9 443.858L868.24 448.308C856.613 454.366 844.676 460.531 832.825 466.703C830.933 467.78 828.782 468.84 826.804 469.912C696.389 537.926 598.898 564.597 490.255 562.078C459.32 561.266 431.045 557.008 403.784 548.708L396.488 546.545C359.296 535.376 317.104 522.64 274.615 517.372C225.855 511.399 183.816 515.946 146.138 531.367C102.757 549.152 69.7491 581.009 48.0233 626.306C48.0233 626.306 48.0174 626.393 48.0976 626.485Z" fill="#D4EAFF"/>
<path d="M47.628 625.759C66.6014 586.5 97.1638 551.18 146.178 531.413C233.676 495.85 326.787 525.969 401.61 550.113C428.589 558.738 457.642 564.265 488.03 566.119C545.163 569.916 596.742 565.743 650.158 553.085C704.857 540.042 762.843 517.579 827.337 484.193C829.442 483.173 831.288 482.135 833.398 481.03L847.854 473.485C857.635 468.465 867.382 463.313 877.123 458.247L876.854 457.751C867.159 462.777 857.504 467.849 847.717 472.955L833.261 480.501C831.243 481.526 829.225 482.552 827.2 483.663C702.163 548.379 600.794 572.914 488.105 565.648C457.77 563.668 428.67 558.182 401.737 549.516C326.828 525.365 233.585 495.281 146.047 530.798C102.586 548.491 69.4518 580.295 47.5596 625.495C47.5537 625.581 47.5938 625.627 47.628 625.759Z" fill="#D4EAFF"/>
<path d="M47.2501 624.954C66.2234 585.694 96.9923 550.519 146.087 530.844C229.588 497.379 317.035 522.376 399.477 550.914C426.408 560.229 455.534 566.583 485.965 569.696C603.543 582.027 705.865 560.634 827.825 497.864C829.798 496.879 831.856 495.899 833.828 494.914C846.847 488.132 861.038 480.655 877.168 472.06L877.066 471.663C860.815 480.12 846.71 487.603 833.605 494.379C831.805 495.376 829.569 496.43 827.597 497.415C705.642 560.099 603.406 581.498 485.875 569.127C455.53 566.02 426.576 559.678 399.65 550.277C317.11 521.905 229.583 496.816 146.03 530.408C102.368 547.87 69.1883 579.714 47.1238 624.902C47.1238 624.902 47.1639 624.948 47.2501 624.954Z" fill="#D4EAFF"/>
<path d="M47.1246 624.901C69.1134 580.184 102.605 547.583 146.031 530.407C227.91 497.865 315.286 521.385 397.425 551.806C424.493 561.651 453.549 569.038 483.724 573.346C542.473 581.976 596.812 581.722 649.658 572.963C707.571 563.525 766.087 543.437 828.389 511.713C830.401 510.774 832.288 509.782 834.312 508.67C849.883 500.642 865.472 492.354 877.289 486.051L877.106 485.561C865.289 491.865 849.654 500.192 834.089 508.135C832.065 509.247 830.179 510.238 828.166 511.178C708.772 571.879 605.79 590.281 483.766 572.743C453.636 568.395 424.615 561.14 397.645 551.129C361.594 537.834 318.912 523.417 275.316 517.248C226.747 510.38 184.48 514.478 145.935 529.923C102.192 547.294 68.8918 578.999 46.7011 624.135C46.8155 624.359 46.9701 624.63 47.1246 624.901Z" fill="#D4EAFF"/>
<path d="M46.7462 624.095C68.8093 579.557 102.468 547.055 145.98 529.884C230.284 496.692 319.389 522.76 395.464 552.62C422.559 563.332 451.521 571.45 481.654 577.009C541.495 588.011 596.329 590 649.607 583.134C708.873 575.437 767.478 556.567 828.859 525.644C830.917 524.664 832.89 523.679 834.782 522.601C849.456 515.028 863.964 507.357 877.409 500.043L877.272 499.514C863.781 506.867 849.319 514.499 834.559 522.066C832.707 523.19 830.694 524.129 828.716 525.201C712.946 583.562 605.948 599.298 481.689 576.492C451.682 570.985 422.773 562.742 395.631 552.07C319.516 522.163 230.372 496.049 145.975 529.321C102.02 546.633 68.5937 578.287 46.3228 623.329C46.4773 623.6 46.5457 623.865 46.7462 624.095Z" fill="#D4EAFF"/>
<path d="M46.3236 623.329C68.5189 578.757 102.211 546.387 145.878 529.487C232.786 495.57 323.815 524.502 393.418 553.427C420.678 564.887 449.569 574.038 479.418 580.573C540.334 594.206 595.721 598.225 649.312 593.112C709.831 587.323 768.652 569.724 829.383 539.447C831.441 538.467 833.281 537.516 835.34 536.536C848.622 529.687 861.837 522.573 877.53 514.034L877.261 513.538C861.654 522.084 848.572 529.164 835.157 536.047C833.144 536.986 831.258 537.978 829.326 539.01C715.081 595.964 607.297 608.657 479.62 580.154C449.829 573.407 420.892 564.296 393.626 552.922C347.467 533.67 309.166 522.249 273.128 516.963C225.95 510.02 184.309 513.817 145.879 528.837C101.983 545.937 68.3493 577.446 45.9403 622.609C46.0087 622.873 46.1632 623.144 46.3236 623.329Z" fill="#D4EAFF"/>
<path d="M45.8533 622.604C68.1749 578.084 102.034 545.812 145.873 528.925C235.683 494.348 328.939 526.771 391.325 554.275C418.836 566.488 447.748 576.593 477.342 584.322C538.913 600.383 595.054 606.663 649.055 603.138C710.868 599.302 769.824 582.882 829.905 553.251C831.791 552.259 833.803 551.32 835.557 550.362C850.312 542.882 864.97 534.918 877.748 527.86L877.519 527.411C864.919 534.395 850.255 542.445 835.547 549.885C833.707 550.837 831.654 551.73 829.682 552.716C718.507 607.81 606.64 617.573 477.47 583.725C448.008 575.962 419.05 565.897 391.532 553.77C347.332 534.355 308.212 522.269 271.933 516.706C226.081 509.987 183.619 513.769 145.776 528.442C101.765 545.317 68.0053 576.773 45.4239 621.924C45.6646 622.201 45.779 622.425 45.8533 622.604Z" fill="#D4EAFF"/>
<path d="M45.3435 621.831C67.8775 577.37 101.817 545.19 145.776 528.441C214.58 502.244 294.231 510.93 389.318 555.128C417.167 568.101 446.013 579.154 475.112 587.8C537.573 606.651 594.307 615.009 648.832 613.296C711.687 611.308 771.112 596.263 830.375 567.181C832.256 566.275 834.055 565.277 836.16 564.258C850.46 557.091 865.084 548.995 877.689 541.925L877.553 541.396C864.953 548.38 850.369 556.522 835.977 563.769C834.051 564.714 832.211 565.666 830.245 566.565C720.141 620.567 607.372 627.062 475.274 587.336C446.181 578.603 417.288 567.59 389.52 554.709C294.313 510.373 214.575 501.681 145.725 527.918C101.628 544.787 67.794 576.065 45.0805 621.25C45.1489 621.514 45.2291 621.607 45.3435 621.831Z" fill="#D4EAFF"/>
<path d="M44.9667 621.025C67.4546 576.604 101.692 544.488 145.766 527.964C214.737 501.865 296.023 511.316 387.186 555.929C415.492 569.8 444.32 581.761 472.957 591.456C535.976 612.901 593.44 623.215 648.451 623.268C679.095 623.28 709.625 619.906 738.859 613.367C769.989 606.313 800.954 595.351 830.865 580.851C832.613 579.98 834.625 579.041 836.551 578.095C850.811 570.882 864.802 563.174 877.822 555.744L877.634 555.341C864.574 562.725 850.536 570.473 836.414 577.566C834.442 578.551 832.47 579.537 830.676 580.449C721.47 633.345 607.876 636.751 473.118 590.992C444.528 581.256 415.614 569.289 387.388 555.51C346.102 535.262 306.449 522.1 269.659 516.414C225.163 509.489 183.397 513.233 145.629 527.435C101.325 544.159 67.3593 575.471 44.6116 620.523C44.726 620.748 44.8924 620.846 44.9667 621.025Z" fill="#D4EAFF"/>
<path d="M44.4568 620.253C67.1631 575.804 101.389 543.861 145.709 527.527C215.507 501.357 296.115 511.237 385.219 556.828C413.599 571.527 442.493 584.402 470.847 595.073C534.549 619.164 592.515 631.635 648.194 633.294C679.336 634.25 710.026 631.71 739.396 625.7C770.777 619.4 801.621 608.949 831.295 594.736C833.216 593.876 835.056 592.925 837.028 591.939C851.184 584.979 864.917 577.252 877.948 569.649L877.8 569.292C864.826 576.683 850.967 584.357 836.931 591.456C835.005 592.401 833.039 593.301 831.205 594.166C724.265 645.578 606.484 645.657 471.1 594.528C442.747 583.857 413.899 570.943 385.427 556.324C344.952 535.614 305.72 522.005 268.637 516.169C224.71 509.154 183.294 512.836 145.71 526.878C101.212 543.286 67.1539 574.678 44.1879 619.758C44.3082 619.896 44.3825 620.075 44.4568 620.253Z" fill="#D4EAFF"/>
<path d="M44.0274 619.573C66.906 575.136 101.252 543.332 145.618 526.958C234.391 494.256 323.777 525.669 383.127 557.675C462.885 600.698 534.527 627.041 601.939 638.105C641.479 644.722 680.179 645.911 716.657 641.661C756.529 637.133 795.302 625.947 831.858 608.585C847.6 601.218 862.737 592.596 878.149 583.733L878.052 583.25C862.468 592.1 847.464 600.689 831.761 608.102C705.045 668.283 558.457 651.684 383.375 557.217C343.935 535.931 304.979 522.083 267.477 516.043C224.239 509.077 183.265 512.618 145.516 526.561C101.103 542.975 66.9369 574.056 43.8446 619.084C43.8387 619.17 43.9531 619.395 44.0274 619.573Z" fill="#D4EAFF"/>
</svg>
