<svg width="836" height="616" viewBox="0 0 836 616" fill="none" xmlns="http://www.w3.org/2000/svg">
<g opacity="0.2">
<path d="M210.98 189.938C210.473 188.07 208.67 186.817 206.793 187.32C204.866 187.623 203.668 189.485 204.109 191.348C204.486 193.205 206.354 194.464 208.226 194.026C210.093 193.653 211.297 191.726 210.98 189.938Z" fill="#D4EAFF"/>
<path d="M334.373 430.434C333.866 428.566 332.058 427.378 330.12 427.811C328.183 428.243 327.12 430.051 327.361 431.963C327.803 433.826 329.676 435.02 331.489 434.512C333.546 434.219 334.679 432.351 334.373 430.434Z" fill="#D4EAFF"/>
<path d="M291.927 459.941C291.605 458.218 289.737 456.96 287.875 457.268C285.883 457.566 284.739 459.563 285.045 461.48C285.432 463.208 287.42 464.607 289.238 464.034C291.225 463.801 292.434 461.809 291.927 459.941Z" fill="#D4EAFF"/>
<path d="M403.348 477.969C403.096 476.187 401.158 474.988 399.361 475.302C397.354 475.794 396.176 477.397 396.667 479.459C397.049 481.252 398.922 482.446 400.649 482.192C402.591 481.694 403.839 480.032 403.348 477.969Z" fill="#D4EAFF"/>
<path d="M515.912 510.447C515.671 508.535 513.732 507.336 511.865 507.709C509.988 508.212 508.794 510.01 509.182 511.738C509.678 513.735 511.486 514.924 513.223 514.54C515.155 514.172 516.348 512.375 515.912 510.447Z" fill="#D4EAFF"/>
<path d="M649.142 92.3469C649.649 94.2148 651.457 95.4033 653.324 95.0302C655.321 94.6675 656.46 92.7351 656.143 90.9476C655.711 88.9552 653.768 87.8211 651.901 88.1943C649.958 88.6919 648.895 90.4998 649.142 92.3469Z" fill="#D4EAFF"/>
<path d="M342.401 341.334C344.252 341.156 345.45 339.293 345.014 337.366C344.707 335.449 342.699 334.309 341.032 334.633C339.09 335.131 337.701 336.913 338.268 338.851C338.645 340.708 340.523 341.837 342.401 341.334Z" fill="#D4EAFF"/>
<path d="M618.607 451.157C616.549 451.45 615.411 453.382 615.662 455.164C616.169 457.032 618.103 458.296 620.045 457.798C621.831 457.614 622.97 455.682 622.593 453.825C622.282 451.972 620.484 450.654 618.607 451.157Z" fill="#D4EAFF"/>
<path d="M676.667 459.51C677.103 461.438 678.922 462.496 680.859 462.064C682.786 461.76 683.985 459.898 683.472 458.095C683.041 456.103 681.368 454.86 679.426 455.357C677.494 455.725 676.285 457.717 676.667 459.51Z" fill="#D4EAFF"/>
<path d="M697.971 328.198C698.413 330.061 700.281 331.319 702.148 330.946C704.086 330.513 705.284 328.651 704.842 326.788C704.596 324.941 702.592 323.737 700.725 324.11C698.788 324.543 697.66 326.346 697.971 328.198Z" fill="#D4EAFF"/>
<path d="M633.068 373.535C631.141 373.838 630.068 375.776 630.385 377.563C630.691 379.48 632.575 380.544 634.376 380.166C636.314 379.733 637.572 377.941 637.125 376.143C636.759 374.156 634.94 373.097 633.068 373.535Z" fill="#D4EAFF"/>
<path d="M589.967 525.559C589.459 523.691 587.657 522.438 585.784 522.876C583.852 523.244 582.654 525.106 583.09 527.034C583.477 528.761 585.27 530.144 587.087 529.572C589.14 529.344 590.283 527.346 589.967 525.559Z" fill="#D4EAFF"/>
<path d="M698.967 423.435C699.219 425.218 701.147 426.546 703.019 426.108C704.951 425.74 706.15 423.878 705.703 422.08C705.261 420.217 703.393 418.959 701.526 419.332C699.719 419.775 698.585 421.643 698.967 423.435Z" fill="#D4EAFF"/>
<path d="M610.713 579.688C612.585 579.25 613.713 577.447 613.276 575.52C612.97 573.603 611.222 572.484 609.28 572.982C607.298 573.15 606.23 575.023 606.531 577.005C606.782 578.787 608.65 580.046 610.713 579.688Z" fill="#D4EAFF"/>
<path d="M762.892 115.717C764.824 115.349 766.023 113.486 765.521 111.554C765.269 109.771 763.396 108.578 761.524 109.016C759.597 109.319 758.398 111.181 758.775 113.039C759.277 114.971 760.954 116.15 762.892 115.717Z" fill="#D4EAFF"/>
<path d="M715.828 11.517C717.76 11.1491 718.964 9.22191 718.386 7.41365C718.004 5.621 716.196 4.43247 714.46 4.81602C712.528 5.18396 711.269 6.97625 711.711 8.83895C712.017 10.7561 714.021 11.9602 715.828 11.517Z" fill="#D4EAFF"/>
<path d="M472.619 586.747C472.177 584.885 470.309 583.626 468.437 584.064C466.515 584.302 465.251 586.159 465.743 588.222C466.125 590.014 467.998 591.208 469.87 590.77C471.797 590.467 472.991 588.67 472.619 586.747Z" fill="#D4EAFF"/>
<path d="M800.738 293.519C800.361 291.661 798.488 290.468 796.551 290.901C794.749 291.279 793.425 293.066 793.992 295.004C794.374 296.797 796.247 297.99 797.984 297.607C799.846 297.298 801.18 295.382 800.738 293.519Z" fill="#D4EAFF"/>
<path d="M751.766 347.241C751.45 345.454 749.576 344.26 747.579 344.623C745.712 344.996 744.513 346.858 744.885 348.781C745.332 350.578 747.14 351.767 749.012 351.329C750.944 350.961 752.208 349.104 751.766 347.241Z" fill="#D4EAFF"/>
<path d="M387.503 509.599C389.446 509.101 390.634 507.369 390.197 505.441C389.946 503.659 387.953 502.325 386.07 502.893C384.213 503.136 382.945 505.058 383.321 506.916C383.638 508.703 385.566 510.032 387.503 509.599Z" fill="#D4EAFF"/>
<path d="M247.479 71.3255C246.843 68.5989 244.565 66.7202 242.012 66.647L240.408 25.0752C241.071 24.9975 241.597 24.9743 242.265 24.8318C249.879 23.155 254.728 15.8406 253.095 8.33528C251.398 0.824801 243.976 -4.00977 236.502 -2.45233C229.426 -0.928535 224.84 5.55844 225.525 12.5966L144.267 23.6037C143.532 20.4776 140.407 18.5313 137.215 19.0598C134.068 19.8529 131.918 22.9447 132.653 26.0708C133.383 29.2618 136.563 31.343 139.705 30.6147C142.641 30.0006 144.554 27.412 144.39 24.5273L225.507 13.6394C225.502 13.7043 225.552 13.904 225.667 14.109C227.05 20.6155 232.858 25.1254 239.295 25.0516L240.893 66.6882C240.763 66.6778 240.627 66.7323 240.427 66.7815C237.219 67.5046 235.205 70.5419 235.875 73.6628C236.524 77.0432 239.72 78.9298 242.922 78.2716C246.059 77.6082 248.083 74.4412 247.479 71.3255ZM236.55 -1.40428C243.551 -2.80357 250.483 1.60025 251.896 8.56589C253.439 15.5419 248.958 22.3636 241.886 23.8225C241.414 23.9807 240.822 23.9987 240.23 24.0167L240.061 17.0851C240.192 17.0955 240.327 17.041 240.463 16.9866C243.736 16.2687 245.755 13.1666 245.09 9.9808C244.426 6.79502 241.306 4.78385 238.098 5.50691C235.233 6.06143 233.255 8.64478 233.358 11.4595L226.453 12.4748C225.782 6.09046 230.141 -0.0230106 236.55 -1.40428ZM226.605 13.8576C226.55 13.7227 226.561 13.593 226.571 13.4632L233.406 12.5075C234.046 15.1693 236.33 16.9831 238.883 17.0563L239.242 24.0684C233.272 24.0489 227.965 19.84 226.605 13.8576Z" fill="#D4EAFF"/>
<path d="M628.907 142.814C629.572 146 632.817 148.087 635.954 147.423C637.62 147.099 638.882 146.09 639.708 144.786L687.057 169.775C686.708 170.857 686.414 172.074 686.848 173.218C687.437 176.528 690.622 178.544 693.764 177.816C697.026 177.228 699.121 174.001 698.261 170.8C697.787 167.695 694.542 165.608 691.334 166.331C689.668 166.655 688.482 167.54 687.586 168.904L640.237 143.914C640.721 142.778 640.819 141.546 640.451 140.407C639.787 137.221 636.732 135.215 633.464 135.868C630.333 136.467 628.183 139.559 628.907 142.814Z" fill="#D4EAFF"/>
<path d="M280.035 36.6565C280.765 39.8475 283.885 41.8586 287.157 41.1408C288.693 40.8065 290.015 39.8677 290.841 38.563L338.255 63.5579C337.781 64.5643 337.683 65.7965 337.91 67.0547C338.575 70.2405 341.76 72.2569 345.033 71.539C348.235 70.8808 350.254 67.7786 349.589 64.5929C348.86 61.4019 345.679 59.3207 342.537 60.0489C340.936 60.378 339.544 61.3765 338.794 62.5567L291.369 37.6915C291.789 36.5501 291.947 35.388 291.714 34.1946C290.985 31.0036 287.804 28.9224 284.667 29.5858C281.395 30.3037 279.376 33.4058 280.035 36.6565Z" fill="#D4EAFF"/>
<path d="M92.2251 175.828C92.9547 179.019 96.0698 181.095 99.2719 180.437C100.878 180.043 102.265 179.109 103.086 177.869L150.44 202.794C149.966 203.8 149.933 205.038 150.1 206.226C150.825 209.482 154.01 211.498 157.207 210.905C160.414 210.182 162.504 207.02 161.774 203.829C161.115 200.578 157.99 198.632 154.793 199.225C153.247 199.689 151.86 200.623 150.974 201.858L103.56 176.863C104.039 175.791 104.132 174.624 103.909 173.301C103.24 170.18 100.049 168.229 96.7819 168.882C93.5798 169.54 91.6259 172.647 92.2251 175.828Z" fill="#D4EAFF"/>
<path d="M634.386 528.059C635.045 531.31 638.1 533.316 641.313 532.528C642.898 532.393 644.22 531.455 645.051 530.085L692.601 555.025C692.051 556.156 691.958 557.324 692.251 558.587C692.91 561.838 696.025 563.914 699.298 563.196C702.505 562.473 704.519 559.436 703.855 556.25C703.196 552.999 700.015 550.918 696.748 551.571C695.082 551.895 693.89 552.844 693.07 554.084L645.45 529.203C645.984 528.267 646.092 526.905 645.865 525.647C645.205 522.396 642.09 520.32 638.878 521.108C635.796 521.906 633.706 525.068 634.386 528.059Z" fill="#D4EAFF"/>
<path d="M423.003 440.508C422.339 437.323 419.218 435.311 415.951 435.964C412.884 436.568 410.785 439.86 411.449 443.046C412.048 446.226 415.169 448.237 418.425 447.714C421.573 446.921 423.597 443.754 423.003 440.508Z" fill="#D4EAFF"/>
<path d="M568.153 345.838C569.124 350.941 574.178 354.216 579.322 353.06C579.724 352.962 580.196 352.804 580.803 352.591L652.073 507.867C649.943 509.068 648.743 511.779 649.258 514.365C649.867 517.416 653.113 519.503 656.25 518.839C659.452 518.181 661.547 514.954 660.953 511.709C660.278 508.653 657.032 506.566 653.83 507.225C653.564 507.269 653.288 507.442 652.957 507.481L581.687 352.205C584.279 350.976 586.04 348.636 586.589 345.873L676.867 359.147C676.701 361.222 676.921 363.394 677.332 365.646C679.911 377.73 691.832 385.403 704.168 382.929C716.124 380.293 724.088 368.463 721.444 356.373C718.936 344.23 706.89 336.481 694.749 338.971C685.138 341.01 678.336 348.952 677.09 357.99L586.807 344.781C586.945 343.879 587.017 342.971 586.578 341.891C585.472 336.843 580.614 333.584 575.6 334.75C570.325 335.895 566.982 340.785 568.153 345.838ZM694.862 340.024C706.406 337.617 717.885 345.059 720.25 356.539C722.805 368.099 715.403 379.452 703.729 381.849C692.186 384.257 680.706 376.814 678.341 365.334C677.785 363.267 677.744 361.306 677.839 359.29L683.285 360.116C683.208 361.089 683.441 362.282 683.559 363.271C685.22 371.235 692.963 376.161 700.898 374.575C708.903 372.929 713.858 365.101 712.187 357.266C710.581 349.437 702.782 344.376 694.908 346.032C688.433 347.408 683.8 352.847 683.303 359.073L677.852 358.312C679.143 349.539 685.652 341.965 694.862 340.024Z" fill="#D4EAFF"/>
<path d="M345.136 521.686C344.54 519.289 343.477 516.985 341.851 515.158L493.447 306.004C496.693 308.09 500.819 309.007 504.754 308.211C506.751 307.849 508.72 307.027 510.388 305.854L564.008 353.404C562.921 354.688 562.52 356.418 562.847 358.076C563.025 359.135 563.485 359.954 564.02 360.65L548.575 374.951C546.448 372.823 543.26 371.655 540.053 372.378C538.452 372.707 537.146 373.451 536.03 374.276L523.853 360.773C524.361 360.161 524.64 359.139 524.532 358.021C524.025 356.153 522.277 355.035 520.154 355.322C518.413 355.771 517.279 357.638 517.596 359.425C518.028 361.418 519.836 362.606 521.898 362.249C522.24 362.08 522.592 361.782 522.998 361.619L535.175 375.121C533.103 377.24 532.002 380.351 532.737 383.477C533.838 388.59 538.967 391.741 543.961 390.834C548.915 389.597 552.323 384.713 551.292 379.54C551.01 378.147 550.326 376.853 549.37 375.667L564.957 361.247C566.238 362.458 567.957 363.118 570.085 362.765C573.357 362.048 575.381 358.881 574.521 355.679C573.862 352.429 570.737 350.482 567.6 351.146C566.536 351.322 565.571 351.897 564.808 352.424L511.042 305.058C514.47 302.395 516.366 298.369 516.452 294.003L556.177 292.017C556.216 292.346 556.255 292.676 556.295 293.005C557.461 298.124 562.324 301.318 567.268 300.212C572.538 299.131 575.821 294.172 574.78 289.129C573.608 284.075 568.554 280.8 563.545 281.901C561.804 282.35 560.096 283.192 558.884 284.401L542.301 269.372C543.917 267.217 544.867 264.355 544.182 261.429C543.076 256.381 538.152 253.116 532.948 254.202C528.004 255.308 524.591 260.257 525.697 265.306C526.089 266.969 526.773 268.263 527.794 269.454L512.153 283.74C508.685 280.33 503.893 278.708 498.819 279.804C497.69 279.975 496.62 280.216 495.721 280.797L470.68 210.596C478.197 207.671 482.832 199.752 481.035 191.842C478.995 182.869 470.326 177.217 461.316 179.108C457.648 179.86 454.467 181.89 452.289 184.523L421.067 159.711L466.332 64.4449C468.662 65.675 471.38 66.153 474.125 65.4583C474.853 65.3859 475.601 65.054 476.404 64.857L510.929 133.792C507.488 135.801 505.537 139.692 506.385 143.871C507.296 148.904 512.414 152.184 517.614 151.164C522.628 149.997 525.976 145.043 524.865 140.06C524.656 139.39 524.446 138.721 524.227 138.181L548.134 126.383C550.027 129.797 554.206 131.697 558.276 130.847C563.285 129.746 566.628 124.857 565.527 119.743C564.486 114.7 559.493 111.495 554.358 112.521C553.756 112.669 553.154 112.817 552.682 112.975L543.367 94.0224C547.129 92.1036 549.156 88.0883 548.308 83.9089C547.137 78.8552 542.148 75.5855 537.139 76.6869C534.143 77.231 531.967 79.0153 530.727 81.3965L482.159 58.5285C483.107 56.5157 483.363 54.1213 482.767 51.7242C481.488 45.5524 475.373 41.6053 469.36 42.9529C463.026 44.2097 459.128 50.2947 460.272 56.521C460.536 57.3252 460.865 58.1347 461.069 58.8689L369.073 105.764C367.659 99.6466 361.658 95.9044 355.46 97.1068C349.251 98.4388 345.294 104.454 346.568 110.69C347.857 116.732 353.712 120.659 359.829 119.646L387.703 219.312C384.921 220.461 383.324 223.205 383.813 226.116C384.093 226.725 384.432 227.405 384.526 227.869L327.24 272.313C324.375 268.756 319.995 266.905 315.324 267.054L308.174 181.508C308.44 181.464 308.766 181.49 309.103 181.386C315.311 180.054 319.269 174.039 317.995 167.802C316.711 161.695 310.535 157.678 304.332 158.945C300.658 159.762 297.843 162.148 296.275 165.351L195.693 123.322C197 120.097 197.361 116.406 196.602 112.756C194.46 102.599 184.418 96.0545 174.269 98.2469C164.055 100.434 157.43 110.283 159.702 120.45C161.91 130.612 171.827 137.081 182.03 135.023C188.173 133.686 192.959 129.63 195.29 124.268L295.876 166.233C295.129 168.197 294.958 170.337 295.38 172.459C296.51 178.032 301.587 181.831 307.056 181.549L314.195 267.225C313.739 267.189 313.272 267.282 312.81 267.311C304.865 269.026 299.92 276.725 301.581 284.689C303.193 292.454 310.986 297.579 318.926 295.928C322.79 295.192 326.056 292.908 328.01 289.8L385.924 314.784C385.867 315.498 385.745 316.206 386.009 317.01C386.511 318.943 387.897 320.489 389.621 321.084L334.212 510.567C332.162 509.947 329.94 509.835 327.667 510.371C319.797 511.962 314.656 519.645 316.317 527.61C317.989 535.444 325.722 540.5 333.662 538.849C341.792 537.279 346.807 529.521 345.136 521.686ZM397.484 313.814C397.082 312.281 395.68 310.929 394.157 310.285L408.643 288.272L487.037 293.418C486.959 294.391 487.268 295.46 487.401 296.254L397.484 313.814ZM489.669 285.927L406.975 235.991C403.989 228.182 400.62 219.429 397.15 210.276L411.991 178.892L492.421 282.687C491.24 283.507 490.364 284.612 489.669 285.927ZM395.482 223.783C395.1 221.991 394.155 220.675 392.457 219.757L396.455 211.591C399.665 219.875 402.711 227.754 405.597 235.164L394.578 228.541C395.349 227.101 395.869 225.511 395.482 223.783ZM396.532 208.987C383.541 175.252 368.576 136.66 361.907 119.094C362.791 118.707 363.675 118.321 364.504 117.8L411.27 178.052L396.532 208.987ZM365.278 117.144C365.414 117.089 365.56 116.905 365.7 116.786L419.677 159.861L411.684 176.975L365.278 117.144ZM360.828 119.464C367.627 137.041 382.572 175.892 395.841 210.237L391.5 219.419C390.733 219.162 389.564 219.004 388.691 219.26L360.828 119.464ZM393.863 229.267L406.256 236.783C410.782 248.304 414.575 258.331 417.302 265.271C417.107 265.256 417.036 265.316 416.896 265.435L392.677 230.151C393.16 229.864 393.381 229.555 393.863 229.267ZM425.58 269.261C424.855 266.005 421.73 264.058 418.457 264.776C418.392 264.771 418.257 264.825 418.246 264.955C415.948 259.224 412.199 249.462 407.633 237.61L488.879 286.777C488.087 288.476 487.405 290.445 487.185 292.386L409.313 287.281L417.051 275.824C418.193 276.307 419.612 276.616 420.953 276.266C424.149 275.673 426.304 272.516 425.58 269.261ZM528.464 270.095C530.586 272.288 533.789 273.261 537.051 272.673C538.798 272.16 540.375 271.307 541.582 270.163L558.295 285.203C556.922 286.79 556.164 288.883 555.993 291.023L516.269 293.009C516.265 292.226 516.252 291.572 516.048 290.838C515.588 288.387 514.389 286.137 512.823 284.381L528.464 270.095ZM461.515 179.907C469.987 178.169 478.346 183.6 479.921 191.819C481.679 199.399 477.482 206.766 470.513 209.408L467.158 200.46C469.745 199.295 471.081 196.53 470.571 193.879C469.906 190.693 466.661 188.607 463.524 189.27C462.314 189.63 461.284 190.201 460.56 191.057L452.899 185.094C455.013 182.456 457.982 180.604 461.515 179.907ZM467.963 210.118C459.491 211.857 451.322 206.506 449.496 198.136C448.539 193.687 449.613 189.27 452.261 185.696L459.715 191.773C459.025 193.023 458.635 194.623 458.902 196.211C459.626 199.467 462.882 201.424 466.079 200.83C466.084 200.765 466.22 200.711 466.225 200.646L469.634 209.729C468.956 210.001 468.489 210.095 467.963 210.118ZM451.455 185.109C448.797 188.813 447.496 193.604 448.553 198.453C450.532 207.356 459.262 213.078 468.206 211.182C468.673 211.088 469.34 210.946 469.872 210.858L494.717 281.043C494.305 281.271 493.748 281.684 493.195 282.031L412.394 177.946L420.674 160.528L451.455 185.109ZM551.678 113.221C548.171 115.226 546.009 119.295 546.987 123.485C547.142 124.02 547.225 124.614 547.565 125.293L523.598 137.021C522.614 135.377 521.338 134.1 519.498 133.301L535.771 94.6563C537.31 95.1055 539.065 95.3108 540.737 94.922C541.464 94.8496 541.871 94.6862 542.478 94.4736L551.678 113.221ZM530.268 82.2083C529.477 83.9073 529.397 85.7284 529.643 87.5755C530.253 90.6264 532.299 92.9434 534.829 94.1243L518.606 132.968C517.078 132.389 515.317 132.249 513.581 132.633C513.104 132.856 512.306 132.988 511.894 133.216L477.113 64.1957C479.243 62.995 480.747 61.4181 481.815 59.5454L530.268 82.2083ZM465.401 63.7832L420.146 158.919L366.485 116C368.572 113.686 369.694 110.317 369.241 106.952L461.513 59.8833C462.437 61.4582 463.778 62.74 465.401 63.7832ZM385.171 228.835C386.486 230.441 388.787 231.212 390.985 230.8C391.181 230.815 391.392 230.636 391.783 230.667L416.001 265.951C414.573 267.403 413.354 269.525 414.031 271.733C414.308 273.191 415.138 274.301 416.25 275.173L408.134 287.252L330.713 282.249C330.681 281.007 330.633 279.959 330.4 278.765C329.914 276.638 329.07 274.874 327.89 273.213L385.171 228.835ZM328.73 289.009C329.787 287.266 330.404 285.292 330.57 283.217L407.409 288.108L393.134 309.943C392.357 309.815 391.635 309.823 390.696 310.075C388.503 310.422 386.939 311.929 386.257 313.897L328.73 289.009ZM390.509 323.113L396.884 366.566C396.748 366.621 396.748 366.621 396.628 366.481C390.545 367.888 386.647 373.973 387.791 380.199C389.13 386.441 395.185 390.318 401.449 389.121C407.657 387.789 411.761 381.59 410.406 375.543C409.041 369.625 403.698 365.87 397.817 366.38L391.295 321.479C391.872 321.655 392.534 321.577 393.131 321.495C396.333 320.836 398.332 317.994 397.793 314.883L487.459 297.172C488.374 300.508 490.183 303.328 492.711 305.358L341.066 514.312C339.555 512.691 337.546 511.551 335.436 510.861L390.509 323.113Z" fill="#D4EAFF"/>
<path d="M373.383 4.88069C371.006 4.23422 368.518 4.16622 366.049 4.6871C357.442 6.48036 351.913 14.9153 353.793 23.4194C355.543 31.9131 364.023 37.4847 372.57 35.6213C381.178 33.8281 386.701 25.4579 384.896 16.8294C384.747 16.2301 384.583 15.8254 384.434 15.2261L429.822 -0.992947C431.085 1.26166 433.671 2.57747 436.406 2.01255C439.613 1.28949 441.703 -1.87232 441.033 -4.99325C440.309 -8.24909 437.058 -10.2707 433.911 -9.47754C430.643 -8.82454 428.689 -5.71718 429.419 -2.5262C429.464 -2.26158 429.518 -2.12667 429.563 -1.86206L384.044 14.3466C382.294 9.96465 378.686 6.67443 374.405 5.22334L397.461 -62.5103C398.423 -62.2377 399.592 -62.0792 400.726 -62.315C403.933 -63.0381 406.023 -66.1999 405.228 -69.3961C404.629 -72.5767 401.448 -74.6579 398.241 -73.9348C395.034 -73.2118 393.085 -70.1692 393.684 -66.9887C394.006 -65.2661 395.081 -63.9402 396.454 -63.0475L373.383 4.88069ZM383.827 17.0704C385.553 25.04 380.397 32.9174 372.447 34.6978C364.376 36.3381 356.518 31.2077 354.792 23.2381C353.131 15.2736 358.222 7.39108 366.232 5.68071C368.566 5.21428 370.858 5.26666 372.979 5.82747L370.381 13.7131C369.539 13.5807 368.756 13.5182 367.953 13.7152C364.746 14.4383 362.732 17.4756 363.402 20.5965C364.066 23.7823 367.246 25.8635 370.443 25.2702C373.45 24.5964 375.524 21.6291 375.045 18.5886L383.49 15.5424C383.649 16.0119 383.738 16.5412 383.827 17.0704ZM383.106 14.598L374.671 17.5146C374.214 15.8464 372.872 14.5646 371.279 13.9806L373.941 6.10006C378.032 7.47069 381.4 10.4807 383.106 14.598Z" fill="#D4EAFF"/>
<path d="M602.639 115.134C602.84 115.085 603.161 115.176 603.552 115.207L603.303 124.912C601.717 125.046 600.445 126.185 600.055 127.785C599.835 129.726 601.074 131.456 602.945 131.867C604.755 132.207 606.624 130.985 606.844 129.045C607.26 127.12 606.026 125.325 604.085 124.974C604.02 124.969 603.889 124.959 603.889 124.959L604.074 115.249C610.8 115.655 616.806 111.109 617.925 104.476C618.068 103.508 618.201 102.67 618.203 101.822L713.072 96.2083C713.284 97.6611 714.244 98.782 715.734 99.0313C717.734 99.452 719.614 98.1009 719.954 96.3006C720.235 94.4303 718.875 92.5596 717.13 92.2245C715.184 91.9388 713.451 93.1058 713.029 95.0954C713.019 95.2251 712.938 95.4144 712.928 95.5441L618.059 101.158C617.672 95.3181 613.29 90.204 607.333 89.2065C600.027 87.8404 593.148 92.6433 591.726 99.7743C590.63 106.931 595.464 113.778 602.639 115.134ZM617.404 104.434C616.185 110.667 610.45 115.105 604.055 114.66L604.226 108.408C606.959 108.691 609.673 106.754 610.297 103.867C610.333 103.413 610.32 102.759 610.356 102.305L617.48 101.829C617.674 102.693 617.541 103.531 617.404 104.434ZM607.286 89.7902C613.048 90.7721 617.054 95.6604 617.657 101.256L610.147 101.636C609.715 99.6434 608.019 97.8764 605.692 97.4297C602.714 96.9309 599.995 98.933 599.431 101.89C598.807 104.777 600.741 107.673 603.775 108.307L603.539 114.553C603.087 114.452 602.957 114.442 602.561 114.475C595.772 113.216 591.178 106.649 592.503 99.9016C593.704 93.0792 600.367 88.5201 607.286 89.7902Z" fill="#D4EAFF"/>
<path d="M300.666 361.108C298.822 352.15 290.022 346.487 281.083 348.319C278.152 348.869 275.616 350.233 273.499 352.087L211.531 286.641C212.818 285.307 213.365 283.393 212.928 281.466C212.329 278.285 209.078 276.263 205.876 276.922C202.669 277.645 200.574 280.871 201.238 284.057C201.898 287.308 205.143 289.394 208.366 288.477C209.229 288.35 210.037 288.088 210.746 287.426L272.715 352.873C268.933 356.683 267.043 362.275 268.238 367.853C268.223 368.048 268.267 368.312 268.387 368.452L256.114 371.78C255.093 368.958 252.197 367.421 249.266 367.971C246.064 368.629 244.05 371.666 244.709 374.917C245.374 378.103 248.564 380.054 251.751 379.591C254.888 378.927 256.902 375.89 256.368 372.714L268.581 369.316C271.079 377.478 279.48 382.391 287.952 380.652C296.896 378.755 302.651 369.946 300.666 361.108ZM269.308 367.612C268.212 362.434 269.88 357.15 273.445 353.584L279.975 360.566C278.823 361.845 278.216 363.689 278.663 365.487L269.352 367.877C269.347 367.941 269.297 367.742 269.308 367.612ZM269.65 369.075L278.977 366.491C280.009 369.184 282.829 370.845 285.635 370.22C288.837 369.562 290.921 366.465 290.262 363.214C289.532 360.023 286.487 357.888 283.21 358.67C282.211 358.852 281.453 359.313 280.759 359.78L274.159 352.857C276.065 351.182 278.521 350.007 281.191 349.437C289.673 347.569 297.837 352.985 299.738 361.229C301.362 369.648 296.04 377.969 287.709 379.588C279.839 381.179 272.059 376.708 269.65 369.075Z" fill="#D4EAFF"/>
<path d="M594.047 221.158C595.836 229.981 604.756 235.784 613.635 233.882C616.305 233.312 618.631 232.126 620.591 230.586L644.927 258.634C643.564 260.092 642.887 261.996 643.379 264.058C643.994 267.044 646.728 268.959 649.769 268.68L651.703 279.799C648.626 280.532 646.677 283.575 647.412 286.701C648.081 289.822 651.267 291.838 654.409 291.11C657.671 290.522 659.761 287.36 659.091 284.239C659.122 283.85 658.757 283.495 658.707 283.295L679.183 273.377C680.397 275.432 682.928 276.612 685.533 276.037C688.74 275.314 690.759 272.212 690.024 269.086C689.501 265.781 686.245 263.824 682.972 264.542C679.906 265.146 677.821 268.243 678.421 271.423C678.65 271.833 678.695 272.098 678.739 272.362L658.334 282.221C657.109 280.296 654.91 279.076 652.777 279.493L650.838 268.439C653.729 267.56 655.608 264.577 655.068 261.467C654.208 258.265 651.213 256.329 647.886 256.912C647.088 257.045 646.405 257.382 645.646 257.843L621.446 229.74C625.624 225.897 627.785 220.195 626.555 214.223C624.576 205.32 615.846 199.598 606.837 201.489C597.823 203.446 592.007 212.184 594.047 221.158ZM625.416 214.524C626.481 220.091 624.732 225.565 620.71 229.094L614.593 221.884C615.755 220.475 616.372 218.501 616.076 216.455C615.411 213.269 612.291 211.258 608.958 211.905C605.751 212.629 603.797 215.736 604.462 218.922C605.126 222.107 608.246 224.119 611.378 223.52C612.252 223.263 613.06 223.002 613.628 222.46L619.936 229.751C618.111 231.237 615.921 232.367 613.522 232.828C605.05 234.567 596.817 229.211 595.116 220.917C593.155 212.602 598.603 204.357 606.884 202.537C615.351 200.864 623.721 206.165 625.416 214.524Z" fill="#D4EAFF"/>
<path d="M163.875 163.532C165.79 172.431 174.715 178.168 183.588 176.331C186.198 175.691 188.513 174.635 190.544 173.035L214.75 201.073C213.387 202.531 212.775 204.44 213.147 206.362C213.761 209.348 216.556 211.333 219.461 211.108L221.476 222.038C218.584 222.917 216.641 225.894 217.31 229.015C217.909 232.196 221.16 234.218 224.362 233.559C227.499 232.896 229.589 229.734 228.929 226.484C228.82 226.214 228.775 225.949 228.6 225.674L249.076 215.756C250.285 217.876 252.886 218.997 255.355 218.476C258.628 217.758 260.707 214.726 260.048 211.475C259.318 208.284 256.133 206.268 252.996 206.931C249.799 207.525 247.709 210.687 248.434 213.942C248.478 214.207 248.588 214.477 248.698 214.747L228.292 224.605C227.122 222.815 224.983 221.665 222.68 221.743L220.666 210.813C223.688 209.945 225.571 206.897 224.891 203.906C224.222 200.785 221.112 198.644 217.904 199.367C217.101 199.564 216.288 199.891 215.66 200.363L191.399 172.19C195.642 168.351 197.743 162.58 196.508 156.673C194.664 147.715 185.739 141.977 176.79 143.939C167.705 145.955 161.96 154.634 163.875 163.532ZM195.369 156.973C196.439 162.476 194.56 167.939 190.658 171.608L184.355 164.253C185.708 162.925 186.259 160.945 185.893 158.958C185.229 155.773 182.114 153.696 178.846 154.349C175.639 155.073 173.62 158.175 174.284 161.36C174.884 164.541 178.129 166.628 181.336 165.904C182.145 165.643 182.822 165.37 183.581 164.909L189.824 172.195C187.994 173.745 185.88 174.752 183.415 175.208C175.069 177.022 166.704 171.655 165.009 163.296C163.178 154.992 168.556 146.806 176.958 145.127C185.244 143.243 193.473 148.664 195.369 156.973Z" fill="#D4EAFF"/>
<path d="M609.843 -59.8563C613.338 -42.8041 627.4 -30.7173 643.953 -28.4827L637.769 24.3461C636.385 24.4314 634.935 24.5114 633.529 24.8562C627.727 26.0248 622.994 29.4325 619.762 33.7433L580.507 1.89386C581.272 0.519121 581.587 -0.956884 581.26 -2.61463C580.53 -5.80561 577.41 -7.81678 574.273 -7.15337C571.126 -6.36025 568.922 -3.40341 569.711 -0.142365C570.376 3.04341 573.686 5.13504 576.698 4.39638C578.028 4.17617 578.998 3.53562 579.787 2.68491L619.299 34.62C616.102 39.3251 614.708 45.2836 615.987 51.4554C618.696 63.55 630.551 71.2184 642.757 68.7333C655.039 66.1237 662.743 54.2727 660.104 42.1184C658.032 31.9022 649.025 24.7221 638.818 24.3644L644.936 -28.4695C649.034 -28.012 653.248 -28.1979 657.253 -29.053C678.94 -33.588 692.973 -54.8544 688.32 -76.3066C683.738 -97.8184 662.401 -111.66 640.774 -107.055C619.087 -102.52 605.261 -81.3681 609.843 -59.8563ZM633.637 25.9743C634.972 25.6892 636.427 25.5443 637.616 25.4434L636.422 37.9444C635.509 37.8715 634.526 37.8583 633.918 38.0709C631.785 38.4881 630.067 39.4605 628.704 40.9182L620.634 34.335C623.589 30.1979 628.171 27.0393 633.637 25.9743ZM659.035 42.3594C661.655 53.9248 654.188 65.2726 642.645 67.68C630.905 70.0718 619.682 62.7149 617.056 51.2144C615.931 45.577 616.978 39.8519 619.969 35.2609L628.165 41.9194C626.56 43.9451 625.886 46.6325 626.396 49.2838C627.688 54.4776 632.556 57.6072 637.625 56.5759C642.77 55.42 645.982 50.5204 645.006 45.4823C644.078 41.4923 641.08 38.7729 637.259 38.1417L638.725 25.5318C648.486 25.7233 656.932 32.5323 659.035 42.3594ZM687.121 -76.076C691.619 -55.1583 678.16 -34.4987 657.135 -30.0414C653 -29.1967 649.046 -28.99 645.079 -29.4371L647.268 -48.6464C649.094 -48.5007 650.94 -48.6144 652.677 -48.998C662.945 -51.0503 669.386 -61.0442 667.369 -71.1255C665.161 -81.2873 654.984 -87.7776 644.971 -85.6396C634.762 -83.5173 628.126 -73.539 630.339 -63.442C632.06 -55.4075 638.502 -49.8027 646.285 -48.6596L644.036 -29.5203C627.994 -31.5836 614.373 -43.4394 610.837 -59.9728C606.408 -80.9502 619.933 -101.604 640.958 -106.062C661.917 -110.524 682.752 -96.9833 687.121 -76.076Z" fill="#D4EAFF"/>
<path d="M78.7965 16.0299C82.4321 32.9628 96.5485 45.1845 112.977 47.3439L106.848 100.308C105.473 100.263 104.018 100.408 102.417 100.737C96.7458 101.916 92.0172 105.259 88.8462 109.64L49.52 77.8501C50.4059 76.6155 50.6708 74.9397 50.3386 73.3468C49.6742 70.161 46.5591 68.085 43.2866 68.8029C40.0845 69.4611 38.0002 72.5581 38.6594 75.8087C39.3838 79.0645 42.5745 81.0161 45.7766 80.3578C46.9709 80.1921 48.0762 79.4971 48.8659 78.6464L88.1869 110.501C84.9796 115.336 83.7159 121.305 85.0002 127.412C87.5089 139.556 99.6248 147.245 111.7 144.749C123.781 142.189 131.626 130.219 129.042 118.199C126.845 107.908 117.893 100.863 107.755 100.445L113.874 47.6113C117.846 47.9935 122.126 47.8129 126.196 46.9629C147.878 42.4927 161.71 21.2756 157.133 -0.301101C152.615 -21.8077 131.274 -35.5848 109.652 -31.0447C88.1111 -26.6938 74.2843 -5.54151 78.7965 16.0299ZM102.666 101.736C104.006 101.386 105.401 101.171 106.775 101.215L105.32 113.696C104.538 113.633 103.675 113.76 102.806 113.952C100.744 114.309 99.0806 115.417 97.7828 116.88L89.6524 110.226C92.7427 106.035 97.2602 102.871 102.666 101.736ZM128.194 118.132C130.619 129.681 123.217 141.034 111.663 143.571C100.054 145.974 88.5748 138.531 86.1501 126.981C84.9651 121.274 86.2081 115.564 89.1287 111.033L97.2042 117.551C95.5887 119.707 94.9853 122.335 95.4955 124.986C96.5966 130.099 101.655 133.309 106.659 132.273C111.799 131.182 114.946 126.277 113.975 121.174C113.107 117.254 109.978 114.524 106.353 113.909L107.759 101.229C117.444 101.545 126.086 108.369 128.194 118.132ZM156.275 -0.239024C160.773 20.6787 147.184 41.3278 126.099 45.715C122.029 46.565 118.14 46.7769 114.168 46.3947L116.352 27.2502C118.042 27.4504 119.888 27.3366 121.761 26.8986C131.904 24.7711 138.475 14.7876 136.262 4.69063C134.18 -5.39593 124.138 -11.9406 113.995 -9.81307C103.716 -7.63107 97.2804 2.29796 99.4175 12.5194C101.084 20.419 107.586 26.0939 115.309 27.167L113.055 46.3711C97.0121 44.3078 83.3263 32.4468 79.8552 15.9186C75.3565 -4.99911 88.8211 -25.7235 109.966 -30.0407C131.071 -34.6873 151.781 -21.2216 156.275 -0.239024Z" fill="#D4EAFF"/>
<path d="M576.704 554.458C580.363 547.244 577.575 538.602 570.451 534.966C568.241 533.876 565.99 533.305 563.813 533.458L562.733 500.934C564.58 500.821 566.102 499.833 566.693 498.183C567.993 495.872 567.107 492.995 564.989 491.585L569.876 482.969C572.205 484.199 575.253 483.006 576.292 480.674C577.743 478.114 576.802 475.102 574.222 473.722C571.642 472.341 568.524 473.593 567.209 476.099C567.068 476.218 567.052 476.413 566.75 476.911L547.488 472.437C547.8 470.177 546.716 468.133 544.632 467.118C542.041 465.867 538.954 466.73 537.759 469.376C536.508 471.887 537.384 474.894 540.029 476.28C542.489 477.52 545.592 476.462 546.913 473.892C547.064 473.643 547.074 473.513 547.301 473.14L566.769 477.5C566.478 479.5 567.301 481.523 568.994 482.507L564.167 491.194C561.702 490.018 558.805 490.961 557.615 493.542C556.234 496.043 557.295 499.195 559.885 500.446C560.451 500.752 561.223 500.944 561.875 500.996L562.91 533.255C557.963 533.578 553.195 536.592 550.997 541.115C547.387 548.529 550.316 557.051 557.386 560.552C564.56 564.388 573.19 561.487 576.704 554.458ZM551.733 541.761C553.926 537.303 558.266 534.712 563.073 534.508L563.198 542.807C561.612 542.941 560.09 543.929 559.233 545.623C557.847 548.189 559.119 551.162 561.639 552.472C564.099 553.713 567.257 552.79 568.577 550.219C569.762 547.703 568.702 544.551 566.307 543.316C565.55 542.929 564.903 542.812 564.257 542.695L563.931 534.446C565.837 534.402 568.098 534.844 569.927 535.773C576.741 539.188 579.495 547.436 576.017 554.011C572.731 560.667 564.442 563.4 557.693 559.989C550.944 556.579 548.386 548.347 551.733 541.761Z" fill="#D4EAFF"/>
</g>
<path d="M247.57 165.577C247.227 164.114 245.795 163.151 244.259 163.485C242.789 163.825 241.892 165.189 242.165 166.712C242.437 168.235 243.999 169.208 245.405 168.863C246.946 168.464 247.907 167.105 247.57 165.577Z" fill="#D4EAFF"/>
<path d="M344.66 354.96C344.443 353.572 342.875 352.663 341.414 352.873C340.069 353.288 338.972 354.701 339.32 356.1C339.657 357.628 341.095 358.526 342.615 358.386C344.026 357.976 344.997 356.488 344.66 354.96Z" fill="#D4EAFF"/>
<path d="M311.31 378.209C310.967 376.745 309.535 375.783 308.189 376.197C306.669 376.337 305.682 378.021 305.894 379.473C306.367 380.947 307.734 381.904 309.139 381.56C310.751 381.101 311.718 379.677 311.31 378.209Z" fill="#D4EAFF"/>
<path d="M397.862 480.925C397.525 479.397 396.087 478.499 394.617 478.839C393.222 479.054 392.13 480.403 392.522 482.066C392.739 483.454 394.167 484.481 395.632 484.206C397.243 483.748 398.145 482.319 397.862 480.925Z" fill="#D4EAFF"/>
<path d="M487.826 405.217C487.609 403.829 486.166 402.996 484.711 403.141C483.165 403.605 482.138 404.959 482.611 406.432C482.883 407.955 484.256 408.848 485.802 408.384C487.252 408.304 488.229 406.75 487.826 405.217Z" fill="#D4EAFF"/>
<path d="M592.535 88.8094C592.813 90.2673 594.375 91.2405 596.037 90.9815C597.317 90.5615 598.409 89.2128 598.071 87.6847C597.729 86.2215 596.296 85.2588 594.826 85.5983C593.23 85.8626 592.263 87.2865 592.535 88.8094Z" fill="#D4EAFF"/>
<path d="M351.228 284.996C352.508 284.576 353.54 283.158 353.257 281.764C352.92 280.236 351.422 279.268 349.962 279.478C348.431 279.748 347.525 281.242 347.857 282.835C348.074 284.223 349.567 285.255 351.228 284.996Z" fill="#D4EAFF"/>
<path d="M568.488 371.254C566.903 371.388 566.051 373.017 566.394 374.48C566.671 375.938 568.033 376.961 569.639 376.567C571.17 376.297 572.006 374.863 571.669 373.335C571.261 371.867 570.035 370.79 568.488 371.254Z" fill="#D4EAFF"/>
<path d="M614.156 377.835C614.493 379.363 616.001 380.201 617.472 379.861C618.937 379.587 619.904 378.163 619.556 376.764C619.214 375.301 617.716 374.333 616.311 374.678C614.785 374.883 614.009 376.387 614.156 377.835Z" fill="#D4EAFF"/>
<path d="M630.933 274.487C631.276 275.95 632.773 276.918 634.244 276.579C635.775 276.309 636.616 274.81 636.404 273.357C635.926 271.949 634.624 270.996 633.093 271.266C631.628 271.54 630.786 273.04 630.933 274.487Z" fill="#D4EAFF"/>
<path d="M579.799 310.088C578.329 310.428 577.422 311.922 577.644 313.245C577.982 314.773 579.479 315.741 580.945 315.466C582.541 315.202 583.387 313.638 583.105 312.245C582.767 310.717 581.265 309.814 579.799 310.088Z" fill="#D4EAFF"/>
<path d="M546.058 417.173C545.726 415.58 544.283 414.747 542.752 415.017C541.222 415.286 540.38 416.785 540.658 418.243C540.995 419.771 542.492 420.739 543.958 420.465C545.509 419.936 546.406 418.571 546.058 417.173Z" fill="#D4EAFF"/>
<path d="M654.456 368.65C654.869 370.054 656.171 371.006 657.702 370.737C659.303 370.408 660.134 369.038 659.867 367.45C659.585 366.057 658.027 365.019 656.551 365.424C655.146 365.768 654.244 367.197 654.456 368.65Z" fill="#D4EAFF"/>
<path d="M551.73 516.308C553.125 516.093 554.102 514.539 553.82 513.146C553.352 511.608 551.974 510.78 550.514 510.99C548.983 511.259 548.077 512.753 548.349 514.276C548.697 515.674 550.129 516.637 551.73 516.308Z" fill="#D4EAFF"/>
<path d="M682.079 107.18C683.55 106.841 684.647 105.427 684.174 103.953C683.962 102.501 682.399 101.528 680.933 101.802C679.468 102.077 678.496 103.566 678.839 105.029C679.111 106.552 680.668 107.59 682.079 107.18Z" fill="#D4EAFF"/>
<path d="M644.987 25.1832C646.518 24.9138 647.555 23.4302 647.147 21.9618C646.869 20.5038 645.307 19.5306 643.906 19.8105C642.371 20.1448 641.469 21.574 641.812 23.0372C642.084 24.56 643.516 25.5227 644.987 25.1832Z" fill="#D4EAFF"/>
<path d="M453.763 465.35C453.421 463.887 451.993 462.859 450.458 463.193C448.992 463.468 448.091 464.897 448.363 466.42C448.765 467.953 450.133 468.911 451.658 468.706C453.134 468.302 454.121 466.618 453.763 465.35Z" fill="#D4EAFF"/>
<path d="M711.86 247.072C711.643 245.684 710.145 244.716 708.615 244.986C707.144 245.325 706.308 246.759 706.515 248.277C706.983 249.816 708.355 250.708 709.76 250.364C711.286 250.159 712.258 248.67 711.86 247.072Z" fill="#D4EAFF"/>
<path d="M720.854 300.459C720.571 299.066 719.079 298.033 717.608 298.373C716.078 298.642 715.171 300.136 715.323 301.519C715.661 303.047 717.163 303.95 718.569 303.605C720.034 303.331 721.191 301.987 720.854 300.459Z" fill="#D4EAFF"/>
<path d="M386.601 417.306C388.072 416.967 388.918 415.403 388.701 414.015C388.363 412.487 386.921 411.654 385.39 411.923C383.854 412.257 383.023 413.627 383.355 415.22C383.633 416.678 385.135 417.581 386.601 417.306Z" fill="#D4EAFF"/>
<path d="M276.341 72.2581C275.859 70.0659 274.077 68.5531 272.046 68.5215L270.786 35.7881C271.313 35.7649 271.775 35.7364 272.307 35.6483C278.244 34.4252 281.985 28.654 280.761 22.6172C279.456 16.7696 273.661 12.9134 267.654 14.1962C262.178 15.3909 258.423 20.5083 259.037 25.9744L194.956 34.6973C194.365 32.2353 191.996 30.6757 189.461 31.1914C186.922 31.7719 185.356 34.1271 185.871 36.7136C186.457 39.2404 188.886 40.8701 191.426 40.2895C193.699 39.753 195.305 37.7274 195.084 35.556L259.1 26.8279C259.095 26.8927 259.139 27.1573 259.134 27.2222C260.295 32.4056 264.806 35.8983 269.918 35.9799L271.117 68.6432C270.987 68.6328 270.922 68.6276 270.786 68.6821C268.246 69.2626 266.61 71.6774 267.196 74.2043C267.651 76.7207 270.211 78.3608 272.685 77.775C275.29 77.1997 276.866 74.7149 276.341 72.2581ZM267.787 14.99C273.258 13.8602 278.687 17.3609 279.827 22.8037C280.958 28.3762 277.453 33.6442 271.977 34.8389C271.511 34.9322 271.044 35.0255 270.588 34.9891L270.37 29.4894C270.566 29.505 270.636 29.4453 270.832 29.461C273.306 28.8752 274.943 26.4604 274.487 23.944C273.901 21.4171 271.337 19.8419 268.873 20.2979C266.664 20.8396 265.059 22.8653 265.209 25.0963L259.704 25.8318C259.25 20.8354 262.648 16.081 267.787 14.99ZM259.937 27.0252C259.882 26.8903 259.887 26.8254 259.827 26.7554L265.337 25.955C265.829 28.0175 267.616 29.4654 269.713 29.5022L269.86 35.0615C265.205 35.0164 260.944 31.6742 259.937 27.0252Z" fill="#D4EAFF"/>
<path d="M576.637 128.527C577.153 131.114 579.717 132.689 582.121 132.163C583.391 131.873 584.371 131.102 585.101 130.182L622.385 149.734C621.987 150.616 621.914 151.524 622.228 152.528C622.814 155.055 625.123 156.545 627.717 156.099C630.257 155.518 631.828 153.098 631.372 150.582C630.727 147.985 628.233 146.35 625.693 146.931C624.368 147.086 623.448 147.926 622.708 148.977L585.434 129.295C585.772 128.343 585.91 127.44 585.852 126.521C585.201 123.989 582.577 122.344 580.102 122.93C577.622 123.58 576.182 126.011 576.637 128.527Z" fill="#D4EAFF"/>
<path d="M292.41 49.327C292.995 51.8539 295.424 53.4835 297.964 52.903C299.234 52.6127 300.279 51.8477 300.938 50.9866L338.288 70.5445C337.824 71.4212 337.812 72.3992 338 73.3279C338.521 75.8496 341.015 77.4845 343.549 76.9688C346.089 76.3883 347.595 73.963 347.14 71.4466C346.619 68.925 344.06 67.2849 341.585 67.8706C340.386 68.1012 339.34 68.8663 338.671 69.8571L301.266 50.1643C301.589 49.4069 301.732 48.4393 301.479 47.5053C301.023 44.9889 298.534 43.2892 295.989 43.9345C293.46 44.3854 291.819 46.865 292.41 49.327Z" fill="#D4EAFF"/>
<path d="M118.343 173.344C118.929 175.871 121.428 177.441 123.832 176.914C125.092 176.754 126.208 175.929 126.882 174.874L164.222 194.561C163.899 195.319 163.751 196.351 163.999 197.35C164.46 199.801 167.014 201.506 169.488 200.921C172.023 200.405 173.599 197.92 173.078 195.398C172.553 192.942 170.119 191.377 167.589 191.828C166.249 192.178 165.209 192.878 164.61 193.809L127.27 174.121C127.729 173.309 127.736 172.396 127.553 171.403C126.962 168.941 124.533 167.311 121.999 167.827C119.394 168.402 117.752 170.882 118.343 173.344Z" fill="#D4EAFF"/>
<path d="M599.165 487.59C599.626 490.042 602.11 491.807 604.715 491.231C605.984 490.941 606.965 490.171 607.84 489.066L645.104 508.878C644.52 509.615 644.633 510.668 644.691 511.586C645.412 514.059 647.911 515.629 650.316 515.103C652.981 514.597 654.612 512.247 654.031 509.656C653.38 507.124 650.951 505.494 648.291 505.934C647.076 506.359 646.107 507 645.367 508.05L608.153 488.438C608.35 487.605 608.634 486.519 608.26 485.445C607.909 483.263 605.295 481.488 602.69 482.063C600.417 482.6 598.765 485.209 599.165 487.59Z" fill="#D4EAFF"/>
<path d="M413.15 451.34C412.639 448.689 410.265 447.194 407.66 447.769C405.201 448.16 403.55 450.77 404.065 453.356C404.515 455.937 407.09 457.383 409.7 456.743C412.214 456.486 413.735 453.867 413.15 451.34Z" fill="#D4EAFF"/>
<path d="M551.238 301.283C552.166 305.273 555.962 307.86 560.163 307.02C560.624 306.992 560.841 306.748 561.182 306.579L617.498 428.878C615.785 429.786 614.843 431.734 615.128 433.91C615.714 436.437 618.219 437.942 620.824 437.367C623.288 436.911 624.924 434.496 624.403 431.975C623.818 429.448 621.323 427.813 618.849 428.399C618.648 428.448 618.578 428.507 618.307 428.616L562.116 306.393C563.98 305.236 565.303 303.449 565.87 301.275L637.013 311.782C636.818 313.398 636.949 315.04 637.397 316.838C639.199 326.315 648.756 332.364 658.297 330.384C667.903 328.41 674.031 319.043 671.973 309.481C669.969 300.053 660.553 293.885 650.882 295.854C643.273 297.466 637.991 303.637 637.08 310.939L566.073 300.378C566.06 299.724 566.057 298.941 565.978 298.282C565.05 294.292 561.058 291.689 557.118 292.549C553.053 293.334 550.505 297.308 551.238 301.283ZM651.075 296.718C660.22 294.772 669.135 300.639 671.099 309.738C672.998 318.831 667.102 327.758 657.968 329.575C648.888 331.526 640.034 325.729 638.004 316.625C637.737 315.038 637.54 313.39 637.725 311.904L642.072 312.512C642.07 313.36 642.013 314.074 642.272 314.943C643.611 321.185 649.661 325.127 655.87 323.795C662.144 322.468 666.232 316.463 664.827 310.216C663.493 303.909 657.443 299.967 651.164 301.359C645.965 302.38 642.408 306.665 642.009 311.659L637.797 310.996C638.672 304.148 643.808 298.162 651.075 296.718Z" fill="#D4EAFF"/>
<path d="M353.228 426.848C352.932 424.801 351.953 423.091 350.622 421.68L470.124 257.021C472.553 258.651 475.777 259.365 478.849 258.696C480.58 258.378 482.011 257.709 483.393 256.84L525.55 294.273C524.679 295.313 524.305 296.719 524.652 298.117C524.726 298.841 525.136 299.461 525.551 300.016L513.238 311.238C511.667 309.547 509.051 308.62 506.511 309.2C505.442 309.441 504.282 310.001 503.372 310.712L493.776 300.222C494.224 299.54 494.607 298.852 494.349 297.983C494.081 296.395 492.579 295.492 491.043 295.827C489.572 296.166 488.801 297.606 488.948 299.053C489.416 300.592 490.783 301.549 492.254 301.21C492.595 301.041 492.926 301.002 493.208 300.764L502.929 311.329C501.219 313.02 500.431 315.503 500.886 318.019C501.82 321.944 505.811 324.547 509.686 323.682C513.751 322.897 516.299 318.923 515.567 314.948C515.203 313.745 514.819 312.8 513.974 311.884L526.226 300.592C527.268 301.524 528.741 301.968 530.142 301.688C532.747 301.112 534.383 298.698 533.927 296.181C533.276 293.649 530.908 292.089 528.248 292.53C527.439 292.792 526.631 293.054 526.123 293.666L484.026 256.303C486.5 254.086 488.068 250.882 488.141 247.494L519.432 245.945C519.347 246.199 519.451 246.533 519.506 246.668C520.299 250.713 524.301 253.186 528.431 252.406C532.371 251.546 534.914 247.637 533.986 243.647C533.253 239.672 529.131 237.059 525.191 237.92C523.851 238.269 522.545 239.014 521.494 239.844L508.455 228.099C509.774 226.377 510.411 224.144 509.805 221.876C509.072 217.902 505.14 215.369 501.2 216.23C497.13 217.08 494.587 220.988 495.445 225.038C495.813 226.177 496.187 227.251 496.967 228.162L484.78 239.459C482.113 236.701 478.208 235.476 474.143 236.261C473.345 236.393 472.471 236.65 471.718 237.046L452.048 181.763C457.938 179.492 461.45 173.311 460.051 166.999C458.703 160.038 451.716 155.5 444.645 156.959C441.834 157.648 439.287 159.142 437.476 161.281L413.048 141.776L448.693 66.7579C450.391 67.6766 452.592 68.0481 454.66 67.6257C455.263 67.4779 455.935 67.2705 456.352 66.9775L483.579 121.298C480.956 122.916 479.399 125.989 480.058 129.24C480.986 133.23 484.783 135.817 488.793 134.897C493.049 134.193 495.526 130.279 494.538 126.218C494.438 125.819 494.355 125.225 494.245 124.955L513.045 115.491C514.468 118.215 517.82 119.788 521.027 119.064C524.902 118.199 527.51 114.295 526.581 110.305C525.914 106.336 521.857 103.728 517.847 104.648C517.32 104.671 516.973 104.905 516.572 105.003L509.425 90.1396C512.177 88.5318 513.805 85.3984 513.016 82.1374C512.283 78.163 508.291 75.5601 504.221 76.4101C502.078 76.957 500.263 78.3133 499.331 80.1316L461.119 62.3324C461.901 60.7631 462.181 58.8928 461.609 57.0197C460.552 52.171 455.819 48.9869 450.941 50.0987C445.877 51.0652 442.805 55.8455 443.857 60.7591C444.06 61.4933 444.149 62.0225 444.364 62.627L371.997 99.5363C370.86 94.8769 366.116 91.8225 361.253 92.7398C356.38 93.7868 353.243 98.5619 354.229 103.47C355.296 108.189 359.909 111.233 364.696 110.441L386.647 188.945C384.548 189.756 383.253 192.003 383.659 194.319C383.818 194.789 383.913 195.253 384.202 195.733L339.16 230.646C336.884 227.919 333.326 226.46 329.769 226.633L324.19 159.225C324.386 159.241 324.657 159.132 324.917 159.153C329.801 157.976 332.933 153.266 331.816 148.347C330.755 143.563 326.017 140.444 321.148 141.426C318.212 142.04 315.96 143.949 314.715 146.395L235.667 113.263C236.657 110.731 237.02 107.823 236.335 104.897C234.603 96.9921 226.745 91.8617 218.74 93.5072C210.73 95.2176 205.579 103.03 207.305 111C209.026 119.034 216.829 124.03 224.895 122.454C229.703 121.402 233.433 118.241 235.274 114.08L314.463 147.093C313.822 148.543 313.682 150.294 314.069 152.022C314.967 156.401 318.992 159.398 323.277 159.152L328.926 226.501C328.595 226.539 328.199 226.573 327.928 226.682C321.654 228.009 317.691 234.089 319.035 240.266C320.244 246.497 326.49 250.455 332.693 249.187C335.765 248.519 338.208 246.69 339.833 244.405L385.45 263.97C385.338 264.549 385.357 265.138 385.506 265.737C385.773 267.325 386.924 268.526 388.387 269.1L344.746 418.013C343.147 417.494 341.371 417.548 339.57 417.926C333.356 419.323 329.453 425.473 330.667 431.64C331.941 437.876 338.062 441.758 344.411 440.307C350.609 439.105 354.507 433.02 353.228 426.848ZM394.632 263.202C394.008 261.977 393.042 260.921 391.709 260.358L403.259 243.07L465.012 247.084C465.015 247.868 465.033 248.457 465.042 249.175L394.632 263.202ZM466.857 241.227L401.82 201.903C399.618 195.788 396.896 188.784 394.119 181.644L405.863 156.997L469.03 238.659C468.321 239.321 467.396 240.226 466.857 241.227ZM392.944 192.254C392.526 190.915 391.767 189.745 390.504 189.122L393.52 182.575C396.082 189.11 398.47 195.371 400.763 201.166L392.063 195.904C392.863 194.923 393.102 193.572 392.944 192.254ZM393.675 180.629C383.402 153.964 371.712 123.662 366.383 109.857C367.121 109.655 367.804 109.318 368.498 108.851L405.202 156.226L393.675 180.629ZM369.066 108.309C369.201 108.255 369.282 108.065 369.483 108.016L411.984 141.952L405.661 155.414L369.066 108.309ZM365.575 110.119C370.964 123.994 382.768 154.501 393.141 181.566L389.742 188.8C389.041 188.548 388.193 188.481 387.526 188.623L365.575 110.119ZM391.614 196.586L401.312 202.515C404.781 211.668 407.767 219.477 410.026 224.879C410.021 224.944 409.635 224.848 409.624 224.978L390.705 197.296C390.926 196.988 391.203 196.814 391.614 196.586ZM416.399 228.064C416.004 225.617 413.569 224.052 410.975 224.498C410.91 224.493 410.779 224.482 410.633 224.666C408.959 220.16 406.023 212.551 402.374 203.188L466.414 241.844C465.713 243.224 465.268 244.69 465.008 246.301L403.713 242.323L409.76 233.147C410.702 233.679 411.674 233.821 412.939 233.596C415.599 233.156 417.045 230.66 416.399 228.064ZM497.513 228.727C499.214 230.43 501.65 231.146 504.18 230.695C505.776 230.431 507.011 229.746 507.877 228.771L520.91 240.58C519.819 241.929 519.173 243.444 519.419 245.291L488.138 246.711C487.989 246.111 487.83 245.642 487.871 245.123C487.374 243.125 486.531 241.361 485.265 239.955L497.513 228.727ZM444.849 157.693C451.388 156.322 457.945 160.5 459.383 167.141C460.487 173.038 457.333 178.856 451.724 180.889L449.269 173.84C451.247 172.888 452.401 170.761 451.855 168.564C451.334 166.042 448.96 164.548 446.366 164.993C445.367 165.175 444.598 165.766 443.894 166.362L438.031 161.717C439.637 159.692 442.238 158.333 444.849 157.693ZM449.967 181.532C443.292 182.957 436.866 178.789 435.422 172.213C434.658 168.628 435.66 165.118 437.714 162.41L443.571 167.12C442.962 168.181 442.603 169.392 442.896 170.655C443.356 173.107 445.921 174.682 448.395 174.096C448.586 174.177 448.591 174.112 448.591 174.112L451.232 181.306C450.64 181.324 450.298 181.493 449.967 181.532ZM436.907 161.824C434.768 164.786 433.756 168.425 434.63 172.28C436.042 179.246 443.099 183.725 450.041 182.255C450.567 182.232 450.974 182.069 451.31 181.965L471.035 237.383C470.628 237.547 470.216 237.775 469.924 238.143L406.266 156.05L412.806 142.344L436.907 161.824ZM515.758 105.33C512.88 106.862 511.518 109.952 512.102 113.327C512.261 113.796 512.29 114.256 512.58 114.736L493.791 124.07C493.107 122.776 492.011 121.709 490.618 121.076L503.288 90.5636C504.566 90.992 505.871 91.096 507.336 90.8214C507.798 90.7929 508.144 90.5595 508.616 90.4014L515.758 105.33ZM498.883 80.8138C498.388 82.0797 498.199 83.6309 498.541 85.0941C499.142 87.4264 500.698 89.3127 502.527 90.2418L489.725 120.744C488.447 120.315 487.143 120.211 485.678 120.486C485.216 120.514 484.804 120.743 484.392 120.971L457.296 66.6612C458.873 65.8081 459.96 64.5242 460.867 63.0302L498.883 80.8138ZM447.746 66.2907L412.247 141.124L370.056 107.409C371.787 105.459 372.581 102.911 372.271 100.211L444.979 63.133C445.658 64.4925 446.689 65.5538 447.746 66.2907ZM384.688 196.229C385.833 197.495 387.547 198.219 389.349 197.841C389.49 197.721 389.756 197.677 389.951 197.693L409.116 225.59C407.789 226.593 407.123 228.368 407.51 230.095C407.748 231.224 408.327 232.184 409.139 232.705L402.86 242.321L341.83 238.299C341.897 237.456 341.85 236.408 341.656 235.544C341.264 233.881 340.726 232.402 339.71 231.147L384.688 196.229ZM340.357 243.599C341.118 242.289 341.704 240.704 341.833 239.083L402.346 242.998L390.937 260.166C390.421 260.059 389.769 260.007 389.166 260.155C387.495 260.544 386.028 261.667 385.588 263.067L340.357 243.599ZM388.675 270.428L393.883 304.651C393.883 304.651 393.878 304.716 393.813 304.711C388.874 305.753 385.803 310.533 386.729 315.371C387.846 320.29 392.594 323.28 397.452 322.427C402.461 321.326 405.603 316.486 404.486 311.567C403.599 307.058 399.308 304.105 394.741 304.589L389.355 269.307C390.067 269.429 390.534 269.336 391 269.243C393.465 268.787 394.965 266.426 394.7 263.99L465.175 249.969C465.876 252.701 467.405 254.911 469.318 256.435L350.021 420.979C348.805 419.773 347.177 418.794 345.518 418.205L388.675 270.428Z" fill="#D4EAFF"/>
<path d="M375.462 19.9276C373.603 19.3876 371.702 19.3664 369.764 19.7992C362.958 21.2141 358.623 27.8516 360.056 34.5578C361.49 41.2641 368.171 45.5174 374.972 44.1673C381.712 42.7472 385.982 36.1045 384.549 29.3983C384.525 28.8743 384.421 28.5396 384.196 28.0648L420.044 15.4574C421.028 17.1023 423.113 18.117 425.05 17.6842C427.65 17.1738 429.291 14.6941 428.836 12.1777C428.185 9.64564 425.751 8.08083 423.151 8.5913C420.742 9.18224 418.97 11.6515 419.686 14.1887C419.676 14.3184 419.66 14.513 419.715 14.6479L383.922 27.3903C382.621 23.9579 379.738 21.4435 376.295 20.1898L394.464 -33.1837C395.231 -32.9267 396.139 -32.789 397.007 -32.9808C399.536 -33.4316 401.178 -35.9112 400.662 -38.4977C400.077 -41.0246 397.572 -42.5297 395.108 -42.0737C392.568 -41.4932 390.927 -39.0135 391.518 -36.5516C391.805 -35.2233 392.641 -34.1776 393.697 -33.4407L375.462 19.9276ZM383.681 29.5901C385.025 35.7671 381.047 42.0415 374.643 43.3579C368.304 44.6795 362.193 40.6676 360.859 34.3609C359.455 28.1138 363.493 21.9095 369.827 20.6527C371.569 20.2043 373.465 20.2903 375.064 20.8095L373.062 26.9806C372.35 26.8585 371.764 26.8117 371.161 26.9594C368.692 27.4803 367.05 29.9599 367.566 32.5464C368.021 35.0629 370.521 36.6329 373.055 36.1172C375.584 35.6664 377.216 33.3164 376.82 30.8701L383.372 28.5212C383.492 28.6613 383.652 29.1309 383.681 29.5901ZM383.119 27.5873L376.637 29.8765C376.089 28.5274 375.047 27.5958 373.84 27.1079L375.906 20.942C379.104 21.9804 381.797 24.4143 383.119 27.5873Z" fill="#D4EAFF"/>
<path d="M665.779 103.399C666.035 103.485 666.296 103.506 666.497 103.457L666.408 111.151C665.023 111.236 663.967 112.131 663.869 113.363C663.685 114.849 664.619 116.295 666.108 116.544C667.527 116.853 669.05 115.865 669.299 114.384C669.549 112.903 668.489 111.382 667.065 111.138C667.065 111.138 667 111.133 666.869 111.122L667.089 103.439C672.179 103.779 677.059 100.188 677.995 95.041C678.182 94.3381 678.109 93.6143 678.171 92.836L752.861 88.484C752.973 89.5373 753.874 90.5881 755.048 90.6818C756.597 91.0012 758.054 90.008 758.238 88.5215C758.488 87.0403 757.618 85.6004 756.134 85.2861C754.645 85.0368 753.188 86.03 752.938 87.5112C752.933 87.5761 752.847 87.8303 752.837 87.96L678.142 92.3769C677.852 87.7851 674.436 83.7271 669.647 82.8881C663.961 81.7817 658.599 85.6614 657.497 91.2516C656.384 96.9715 660.154 102.363 665.779 103.399ZM677.343 94.989C676.357 99.9359 671.884 103.364 666.989 103.039L666.921 98.1386C669.328 98.396 671.354 96.8607 671.785 94.7413C671.761 94.2173 671.732 93.7581 671.698 93.3638L677.493 93.1083C677.522 93.5674 677.53 94.286 677.343 94.989ZM669.405 83.4562C673.933 84.2744 677.169 88.1222 677.474 92.5194L671.74 92.845C671.413 91.1872 670.071 89.9054 668.261 89.5652C666 89.1237 663.709 90.703 663.261 93.0169C662.874 95.4009 664.344 97.5414 666.671 97.9881L666.533 103.003C666.468 102.997 666.076 102.966 665.881 102.951C660.391 101.86 656.992 96.7589 657.883 91.3477C658.769 86.0013 663.969 82.5003 669.405 83.4562Z" fill="#D4EAFF"/>
<path d="M318.307 300.383C316.769 293.342 309.913 288.814 302.836 290.337C300.507 290.739 298.518 291.82 296.834 293.187L247.985 241.775C248.991 240.681 249.511 239.091 249.164 237.692C248.578 235.166 246.154 233.471 243.614 234.052C241.075 234.632 239.438 237.047 240.019 239.639C240.48 242.09 243.039 243.73 245.513 243.145C246.181 243.002 246.864 242.665 247.357 242.247L296.131 293.783C293.128 296.872 291.673 301.129 292.625 305.643C292.62 305.708 292.735 305.913 292.654 306.102L283.061 308.731C282.319 306.518 280.05 305.358 277.726 305.694C275.187 306.275 273.61 308.76 274.126 311.346C274.657 313.738 277.086 315.368 279.615 314.917C282.15 314.401 283.726 311.917 283.195 309.525L293.054 306.852C294.975 313.206 301.551 317.124 308.227 315.699C315.228 314.3 319.795 307.224 318.307 300.383ZM293.548 305.586C292.63 301.467 294.015 297.27 296.866 294.43L302 299.995C301.069 300.965 300.635 302.301 300.902 303.889L293.653 305.921C293.603 305.721 293.538 305.716 293.548 305.586ZM293.792 306.65L301.1 304.688C301.923 306.711 304.177 308.066 306.446 307.595C308.985 307.014 310.556 304.594 310.031 302.137C309.505 299.68 307.086 297.921 304.481 298.496C303.744 298.699 303.126 299.041 302.573 299.388L297.364 293.947C298.913 292.635 300.831 291.613 302.839 291.121C309.564 289.895 316.065 293.938 317.439 300.575C318.888 307.086 314.623 313.664 308.013 315.095C301.82 316.232 295.689 312.479 293.792 306.65Z" fill="#D4EAFF"/>
<path d="M549.076 190.223C550.554 197.194 557.606 201.738 564.547 200.269C566.68 199.852 568.458 198.949 569.941 197.632L588.975 219.775C588.164 220.885 587.518 222.4 587.856 223.928C588.387 226.32 590.625 227.869 592.873 227.657L594.412 236.329C591.932 236.98 590.627 239.356 591.218 241.818C591.548 244.259 594.108 245.899 596.707 245.388C599.117 244.798 600.758 242.318 600.243 239.731C600.253 239.602 600.083 239.262 600.034 239.062L616.2 231.345C617.054 232.98 619.144 233.93 621.081 233.497C623.681 232.987 625.192 230.497 624.737 227.98C624.151 225.453 621.717 223.888 619.117 224.399C616.648 224.92 614.881 227.324 615.527 229.921C615.576 230.121 615.691 230.326 615.676 230.52L599.694 238.382C598.765 236.872 597.132 235.959 595.285 236.073L593.807 227.47C596.156 226.809 597.531 224.373 597.006 221.917C596.741 219.481 594.111 217.9 591.511 218.411C590.914 218.494 590.236 218.766 589.744 219.183L570.705 197.105C573.968 194.037 575.65 189.407 574.703 184.828C573.165 177.787 566.173 173.313 559.102 174.772C552.16 176.242 547.603 183.188 549.076 190.223ZM573.9 185.025C574.797 189.404 573.277 193.656 570.23 196.48L565.238 190.795C566.304 189.771 566.824 188.181 566.492 186.588C565.906 184.061 563.472 182.496 560.943 182.947C558.403 183.527 556.962 185.958 557.347 188.534C557.933 191.061 560.432 192.631 562.836 192.105C563.559 192.097 564.112 191.75 564.729 191.407L569.591 197.082C568.119 198.27 566.411 199.112 564.474 199.545C557.744 200.835 551.312 196.733 549.939 190.097C548.556 183.59 552.685 177.067 559.225 175.696C565.905 174.206 572.521 178.454 573.9 185.025Z" fill="#D4EAFF"/>
<path d="M178.091 159.707C179.499 166.737 186.42 171.271 193.497 169.747C195.57 169.26 197.484 168.303 198.956 167.115L218.055 189.263C216.984 190.353 216.534 191.883 216.866 193.476C217.337 195.798 219.505 197.407 221.753 197.194L223.362 205.807C221.083 206.409 219.512 208.829 219.978 211.215C220.564 213.742 222.987 215.437 225.597 214.797C228.132 214.281 229.698 211.926 229.182 209.339C229.073 209.069 229.023 208.87 228.908 208.665L245.02 200.813C246.009 202.393 247.969 203.333 250.031 202.975C252.571 202.395 254.212 199.915 253.692 197.393C253.106 194.867 250.607 193.297 248.072 193.812C245.543 194.263 243.896 196.808 244.482 199.334C244.597 199.539 244.706 199.809 244.691 200.004L228.589 207.726C227.655 206.28 225.951 205.427 224.105 205.54L222.697 196.878C224.981 196.212 226.481 193.852 225.95 191.46C225.435 188.873 222.941 187.238 220.466 187.824C219.734 187.961 219.186 188.244 218.699 188.597L199.6 166.449C202.863 163.38 204.535 158.88 203.528 154.231C202.055 147.195 195.068 142.657 188.122 144.191C181.04 145.779 176.553 152.666 178.091 159.707ZM202.785 154.498C203.682 158.877 202.091 163.188 199.044 166.013L194.052 160.328C195.194 159.179 195.714 157.589 195.377 156.061C194.856 153.539 192.297 151.899 189.762 152.415C187.223 152.995 185.717 155.42 186.107 157.932C186.698 160.394 189.192 162.028 191.721 161.578C192.389 161.435 192.941 161.088 193.484 160.87L198.346 166.544C196.944 167.672 195.241 168.45 193.233 168.943C186.694 170.314 180.268 166.146 178.824 159.57C177.38 152.993 181.58 146.41 188.18 145.109C194.92 143.689 201.406 147.927 202.785 154.498Z" fill="#D4EAFF"/>
<path d="M561.727 489.694C564.994 483.297 562.274 475.444 555.911 472.13C554.007 471.325 551.941 470.9 550.04 470.878L549.148 441.764C550.543 441.549 552.055 440.691 552.886 439.321C553.784 437.108 553.128 434.641 551.211 433.183L555.433 425.492C557.658 426.388 560.349 425.558 561.378 423.356C562.607 421.104 561.711 418.357 559.507 417.202C556.976 416.021 554.215 416.91 553.181 419.177C553.02 419.556 552.939 419.745 552.793 419.93L535.265 415.92C535.541 414.115 534.648 412.151 532.884 411.227C530.424 409.986 527.593 410.935 526.619 413.272C525.334 415.389 526.285 418.271 528.62 419.437C530.885 420.662 533.646 419.772 534.875 417.521C535.032 417.207 535.112 417.018 535.133 416.758L552.666 420.703C552.33 422.438 553.174 424.202 554.671 425.17L550.378 432.921C548.153 432.025 545.463 432.855 544.434 435.057C543.134 437.368 544.09 440.186 546.485 441.421C546.991 441.657 547.708 441.714 548.42 441.836L549.232 471.14C544.887 471.316 540.742 473.922 538.499 478.181C535.309 484.453 537.762 492.35 544.261 495.61C550.514 498.654 558.456 496.155 561.727 489.694ZM539.141 478.363C540.972 474.332 545.036 471.915 549.115 471.784L549.432 479.314C547.982 479.395 546.59 480.393 545.895 481.708C544.66 484.024 545.676 486.912 547.886 488.002C550.346 489.243 553.047 488.283 554.141 486.086C555.446 483.71 554.555 480.898 552.095 479.657C551.659 479.362 550.887 479.169 550.355 479.258L549.967 471.786C551.934 471.813 553.734 472.283 555.507 473.077C561.505 476.035 564.065 483.419 561.091 489.447C557.996 495.335 550.591 497.681 544.529 494.717C538.466 491.754 535.911 484.305 539.141 478.363Z" fill="#D4EAFF"/>
<path d="M561.545 -31.0116C564.482 -17.6588 575.59 -8.02684 588.388 -6.41822L583.485 35.287C582.371 35.2634 581.242 35.4344 580.239 35.6806C575.641 36.5538 571.953 39.1965 569.386 42.5813L538.441 17.5952C539.176 16.6096 539.475 15.3282 539.117 14.0595C538.526 11.5976 536.097 9.96789 533.567 10.4187C531.028 10.9992 529.517 13.4893 529.972 16.0057C530.563 18.4677 533.052 20.1675 535.592 19.5869C536.525 19.4004 537.419 18.8843 537.873 18.1373L568.933 43.3283C566.531 47.1179 565.436 51.7949 566.432 56.5736C568.496 66.0712 577.982 72.18 587.333 70.1197C597.069 68.1555 603.137 58.7193 601.139 49.2268C599.423 41.1274 592.323 35.5355 584.473 35.2354L589.175 -6.42064C592.365 -6.10085 595.586 -6.17017 598.858 -6.88803C615.878 -10.4901 626.784 -27.1111 623.153 -44.1089C619.643 -60.9665 602.794 -71.8398 585.715 -68.3077C568.886 -64.6252 557.849 -48.0146 561.545 -31.0116ZM580.372 36.4745C581.436 36.2983 582.435 36.117 583.483 36.1353L582.37 45.967C581.844 45.9902 581.056 45.9926 580.524 46.0807C578.853 46.4694 577.481 47.2085 576.47 48.3678L570.192 43.1678C572.493 39.827 575.97 37.3633 580.372 36.4745ZM600.396 49.4938C602.24 58.4519 596.469 67.455 587.259 69.3959C578.245 71.3525 569.325 65.55 567.301 56.3818C566.409 51.9378 567.162 47.4293 569.614 43.8395L575.892 49.0396C574.779 50.6477 574.217 52.7567 574.704 54.884C575.496 58.9285 579.433 61.3964 583.504 60.5464C587.444 59.686 589.992 55.7123 589.189 51.7976C588.514 48.7415 586.131 46.5281 583.218 46.0346L584.341 36.0733C591.995 36.3577 598.719 41.7239 600.396 49.4938ZM622.541 -43.8314C626.017 -27.3681 615.528 -11.0402 598.845 -7.54176C595.577 -6.88876 592.547 -6.73897 589.292 -7.06397L591.15 -22.1227C592.389 -22.0238 593.904 -22.0987 595.304 -22.3786C603.255 -24.159 608.531 -31.8962 606.799 -39.801C605.144 -47.8303 597.155 -52.9711 589.145 -51.2607C581.139 -49.6152 575.988 -41.8027 577.77 -33.6982C579.049 -27.5264 584.2 -23.0036 590.172 -22.2007L588.565 -6.99148C575.908 -8.7194 565.105 -18.066 562.338 -31.0789C558.801 -47.6123 569.405 -63.7352 586.023 -67.2389C602.657 -70.9371 619.059 -60.2299 622.541 -43.8314Z" fill="#D4EAFF"/>
<path d="M119.052 49.3302C121.864 62.6078 133.037 72.2449 145.895 73.9236L141.128 115.574C139.944 115.61 138.755 115.711 137.686 115.952C133.149 116.896 129.465 119.473 126.959 122.928L96.0839 97.8826C96.6934 96.8218 96.9874 95.6052 96.7597 94.347C96.1739 91.8201 93.7346 90.3201 91.2653 90.841C88.7307 91.3567 87.0893 93.8363 87.6802 96.2983C88.1408 98.7499 90.7001 100.39 93.1643 99.934C94.1682 99.6878 94.932 99.1613 95.6357 98.5648L126.646 123.556C124.109 127.4 123.209 132.093 124.141 136.866C126.069 146.418 135.62 152.532 145.166 150.488C154.772 148.513 160.906 139.082 158.902 129.654C157.186 121.555 150.092 115.898 142.101 115.717L146.938 74.0069C150.058 74.3863 153.349 74.2573 156.692 73.4798C173.701 70.0074 184.617 53.2567 181.042 36.3939C177.346 19.3909 160.628 8.52807 143.608 12.1302C126.464 15.657 115.482 32.4025 119.052 49.3302ZM137.885 116.751C138.954 116.51 139.947 116.394 140.996 116.412L139.888 126.179C139.226 126.257 138.574 126.205 137.906 126.347C136.305 126.676 134.934 127.415 133.928 128.51L127.575 123.434C129.935 120.164 133.548 117.645 137.885 116.751ZM157.848 129.701C159.883 138.739 153.987 147.667 144.908 149.618C135.703 151.495 126.712 145.752 124.879 136.664C123.856 132.21 124.87 127.722 127.126 124.116L133.55 129.132C132.302 130.795 131.74 132.904 132.227 135.031C133.085 139.081 136.951 141.608 141.087 140.764C145.097 139.844 147.569 135.995 146.706 132.01C146.032 128.954 143.644 126.805 140.736 126.247L141.848 116.415C149.508 116.635 156.297 122.006 157.848 129.701ZM179.923 36.4352C183.459 52.9685 172.78 69.216 156.303 72.6003C153.095 73.3234 149.935 73.4628 146.81 73.1482L148.543 58.0142C149.907 58.1883 151.427 58.0486 152.827 57.7687C160.903 56.0636 166.054 48.2511 164.262 40.2762C162.607 32.2469 154.683 27.1113 146.738 28.8269C138.728 30.5373 133.642 38.3549 135.358 46.4543C136.642 52.5612 141.788 57.1489 147.826 57.957L146.098 73.0261C133.496 71.4331 122.693 62.0865 119.931 49.0087C116.384 32.6051 127.069 16.2927 143.617 12.8488C160.094 9.46443 176.452 19.907 179.923 36.4352Z" fill="#D4EAFF"/>
</svg>
