<svg width="140" height="80" viewBox="0 0 140 80" fill="none" xmlns="http://www.w3.org/2000/svg">
<path d="M83.3515 12.5034L79.0078 28.5284L74.664 12.5034H65.5725L61.4981 28.1269L57.2217 12.5034H47.8271L56.9187 45.6573H66.2796L70.3203 30.0004L74.5967 45.6573H83.7219L92.4767 12.5034H83.3515Z" fill="#003874"/>
<path d="M22 53.9541H24.4918L28.5661 60.2436L32.6405 53.9541H35.1322V67.2692H32.7752V57.7011L28.5324 63.9906H28.4651L24.3234 57.768V67.2692H22V53.9541Z" fill="#003874"/>
<path d="M39.7793 53.9541H49.7127V56.0618H42.1027V59.5411H48.8372V61.6487H42.1027V65.2284H49.78V67.3361H39.7793V53.9541Z" fill="#003874"/>
<path d="M53.7197 53.9541H58.7032C62.9123 53.9541 65.8081 56.8312 65.8081 60.5782V60.6116C65.8081 64.3586 62.9123 67.2692 58.7032 67.2692H53.7197V53.9541ZM56.0768 56.0952V65.1615H58.7032C61.5317 65.1615 63.35 63.288 63.35 60.6786V60.6451C63.35 58.0356 61.4981 56.1287 58.7032 56.1287H56.0768V56.0952Z" fill="#003874"/>
<path d="M69.9832 53.9541H72.3402V67.2692H69.9832V53.9541Z" fill="#003874"/>
<path d="M76.4824 60.6452V60.6117C76.4824 56.8313 79.3446 53.72 83.3853 53.72C85.8433 53.72 87.3586 54.5898 88.6382 55.7942L87.1229 57.5338C86.0454 56.5302 84.9005 55.8945 83.3853 55.8945C80.8262 55.8945 78.9742 58.0022 78.9742 60.6117V60.6452C78.9742 63.2546 80.8262 65.3623 83.3853 65.3623C85.0352 65.3623 86.0791 64.7267 87.2239 63.6561L88.7392 65.195C87.3249 66.6336 85.8097 67.5703 83.3179 67.5703C79.3782 67.5034 76.4824 64.4925 76.4824 60.6452Z" fill="#003874"/>
<path d="M97.089 53.8538H99.2777L105.17 67.2692H102.679L101.332 64.0575H95.0013L93.6207 67.2692H91.1963L97.089 53.8538ZM100.456 61.9833L98.1328 56.664L95.8431 61.9833H100.456Z" fill="#003874"/>
<path d="M108.605 53.9541H110.962V65.1615H118V67.3026H108.605V53.9541Z" fill="#003874"/>
<path d="M49.5777 34.818C49.5777 35.1191 49.544 35.3867 49.5103 35.6878C49.4093 36.7918 49.1063 37.8959 48.6349 38.8995C48.3992 39.3679 48.1298 39.8363 47.8267 40.2712C46.5808 42.0443 44.6615 43.4828 42.6412 44.2523H42.6075C40.9239 44.9549 39.1056 45.3563 37.3209 45.5236C36.4791 45.624 35.6373 45.624 34.7955 45.5905C33.9874 45.5571 33.1456 45.4232 32.3711 45.256C31.0242 44.9883 29.711 44.5869 28.4651 44.0516C27.4549 43.6167 26.5121 43.0479 25.6703 42.3788C24.9632 41.8101 24.3234 41.141 23.8183 40.405C23.3806 39.7693 23.0102 39.1002 22.7071 38.3642C22.4714 37.7286 22.3031 37.0929 22.1684 36.4238C22.1347 36.1897 22.101 35.9555 22.0673 35.6878L29.8793 33.4463C30.115 36.0893 32.3038 38.13 34.9975 38.13C35.772 38.13 36.5465 37.9293 37.2199 37.5948C37.8597 37.2937 38.4658 36.9257 38.9035 36.3569C38.9709 36.2566 39.0382 36.1562 39.0719 36.0558C39.1729 35.8217 39.2066 35.5206 39.2066 35.2864C39.2066 35.0187 39.1392 34.7845 39.0046 34.6173C38.9035 34.4835 38.7015 34.2827 38.1964 34.0151C37.7587 33.7809 37.1189 33.5467 36.3444 33.3125C35.5363 33.0783 34.4251 32.7438 32.9772 32.3423L32.4384 32.242C31.1252 31.874 30.014 31.506 29.1385 31.2049C25.4683 30.0005 22.8418 26.5881 22.8418 22.54C22.8418 20.3989 23.5826 18.3916 24.8285 16.8527C26.6805 14.5108 30.4518 12.4366 36.2771 12.5035C36.2771 12.5035 46.2441 12.4032 49.2746 20.6665L40.5872 23.1422C40.2504 22.172 39.6443 21.3022 38.8362 20.7C38.6678 20.5662 38.4321 20.4324 38.1964 20.2985C37.4556 19.8971 36.6475 19.6629 35.7383 19.6629C34.8292 19.6629 33.9537 19.9305 33.1792 20.332C32.8762 20.4993 32.6068 20.6665 32.4048 20.9342C32.2701 21.1015 32.2364 21.3691 32.2701 21.6033C32.2701 21.7037 32.3038 21.8375 32.3374 21.9378C32.4384 22.1386 32.5731 22.3393 32.7752 22.4731C32.9772 22.6404 33.2129 22.7742 33.4486 22.8746C34.3914 23.276 35.9067 23.7444 37.9607 24.2462C39.3076 24.5808 40.2168 24.7815 40.7219 24.9488C41.3616 25.1161 42.0014 25.3168 42.5738 25.5175C44.3921 26.1532 46.0758 27.1568 47.3553 28.5954C48.1298 29.4987 48.7359 30.5358 49.1063 31.6732C49.443 32.6769 49.5777 33.7474 49.5777 34.818Z" fill="#003874"/>
<path d="M117.529 34.8179C117.529 35.119 117.495 35.3867 117.462 35.6878C117.361 36.7918 117.057 37.8958 116.586 38.8994C116.35 39.3678 116.081 39.8362 115.778 40.2711C114.532 42.0442 112.613 43.4828 110.592 44.2522H110.559C108.875 44.9548 107.057 45.3562 105.272 45.5235C104.43 45.5904 103.589 45.6239 102.747 45.5904C101.939 45.557 101.097 45.4232 100.322 45.2559C98.9754 44.9882 97.6622 44.5868 96.4163 44.0515C95.4061 43.6166 94.4633 43.0479 93.6215 42.3788C92.9144 41.81 92.2746 41.1409 91.7695 40.4049C91.3318 39.7693 90.9614 39.1002 90.6583 38.3642C90.4226 37.7285 90.2543 37.0929 90.1196 36.4238C90.0859 36.1896 90.0522 35.9554 90.0186 35.6878L97.8305 33.4463C98.0663 36.0892 100.255 38.13 102.949 38.13C103.723 38.13 104.498 37.9292 105.171 37.5947C105.811 37.2936 106.417 36.9256 106.855 36.3569C106.922 36.2565 106.989 36.1561 107.023 36.0558C107.124 35.8216 107.158 35.5205 107.158 35.2863C107.158 35.0187 107.09 34.7845 106.956 34.6172C106.855 34.4834 106.653 34.2826 106.148 34.015C105.71 33.7808 105.07 33.5466 104.296 33.3124C103.488 33.0783 102.376 32.7437 100.928 32.3423L100.423 32.2084C99.1101 31.8404 97.9989 31.4724 97.1234 31.1713C93.4868 29.9669 90.8267 26.5545 90.8267 22.5065C90.8267 20.3654 91.5675 18.3581 92.8134 16.8191C94.6653 14.5107 98.403 12.4031 104.262 12.5034C104.262 12.5034 114.229 12.4031 117.26 20.6665L108.538 23.1756C108.202 22.2054 107.596 21.3356 106.787 20.7334C106.619 20.5996 106.383 20.4657 106.148 20.3319C105.407 19.9305 104.599 19.6963 103.69 19.6963C102.78 19.6963 101.905 19.9639 101.13 20.3654C100.827 20.5326 100.558 20.6999 100.356 20.9676C100.221 21.1348 100.188 21.4025 100.221 21.6367C100.221 21.737 100.255 21.8708 100.289 21.9712C100.39 22.1719 100.524 22.3727 100.726 22.5065C100.928 22.6738 101.164 22.8076 101.4 22.9079C102.343 23.3094 103.858 23.7778 105.912 24.2796C107.259 24.6142 108.168 24.8149 108.673 24.9822C109.313 25.1494 109.953 25.3502 110.525 25.5509C112.343 26.1865 114.027 27.1902 115.307 28.6287C116.081 29.532 116.687 30.5691 117.057 31.7066C117.394 32.6768 117.563 33.7474 117.529 34.8179Z" fill="#003874"/>
</svg>
