<svg width="160" height="80" viewBox="0 0 160 80" fill="none" xmlns="http://www.w3.org/2000/svg">
<g clip-path="url(#clip0_511_7)">
<path d="M95.3515 12.5034L91.0078 28.5284L86.664 12.5034H77.5725L73.4981 28.1269L69.2217 12.5034H59.8271L68.9187 45.6573H78.2796L82.3203 30.0004L86.5967 45.6573H95.7219L104.477 12.5034H95.3515Z" fill="#003874"/>
<path d="M34 53.9541H36.4918L40.5661 60.2436L44.6405 53.9541H47.1322V67.2692H44.7752V57.7011L40.5324 63.9906H40.4651L36.3234 57.768V67.2692H34V53.9541Z" fill="#003874"/>
<path d="M51.7793 53.9541H61.7127V56.0618H54.1027V59.5411H60.8372V61.6487H54.1027V65.2284H61.78V67.3361H51.7793V53.9541Z" fill="#003874"/>
<path d="M65.7197 53.9541H70.7032C74.9123 53.9541 77.8081 56.8312 77.8081 60.5782V60.6116C77.8081 64.3586 74.9123 67.2692 70.7032 67.2692H65.7197V53.9541ZM68.0768 56.0952V65.1615H70.7032C73.5317 65.1615 75.35 63.288 75.35 60.6786V60.6451C75.35 58.0356 73.4981 56.1287 70.7032 56.1287H68.0768V56.0952Z" fill="#003874"/>
<path d="M81.9832 53.9541H84.3402V67.2692H81.9832V53.9541Z" fill="#003874"/>
<path d="M88.4824 60.6452V60.6117C88.4824 56.8313 91.3446 53.72 95.3853 53.72C97.8433 53.72 99.3586 54.5898 100.638 55.7942L99.1229 57.5338C98.0454 56.5302 96.9005 55.8945 95.3853 55.8945C92.8262 55.8945 90.9742 58.0022 90.9742 60.6117V60.6452C90.9742 63.2546 92.8262 65.3623 95.3853 65.3623C97.0352 65.3623 98.0791 64.7267 99.2239 63.6561L100.739 65.195C99.3249 66.6336 97.8097 67.5703 95.3179 67.5703C91.3782 67.5034 88.4824 64.4925 88.4824 60.6452Z" fill="#003874"/>
<path d="M109.089 53.8538H111.278L117.17 67.2692H114.679L113.332 64.0575H107.001L105.621 67.2692H103.196L109.089 53.8538ZM112.456 61.9833L110.133 56.664L107.843 61.9833H112.456Z" fill="#003874"/>
<path d="M120.605 53.9541H122.962V65.1615H130V67.3026H120.605V53.9541Z" fill="#003874"/>
<path d="M61.5777 34.818C61.5777 35.1191 61.544 35.3867 61.5103 35.6878C61.4093 36.7918 61.1063 37.8959 60.6349 38.8995C60.3992 39.3679 60.1298 39.8363 59.8267 40.2712C58.5808 42.0443 56.6615 43.4828 54.6412 44.2523H54.6075C52.9239 44.9549 51.1056 45.3563 49.3209 45.5236C48.4791 45.624 47.6373 45.624 46.7955 45.5905C45.9874 45.5571 45.1456 45.4232 44.3711 45.256C43.0242 44.9883 41.711 44.5869 40.4651 44.0516C39.4549 43.6167 38.5121 43.0479 37.6703 42.3788C36.9632 41.8101 36.3234 41.141 35.8183 40.405C35.3806 39.7693 35.0102 39.1002 34.7071 38.3642C34.4714 37.7286 34.3031 37.0929 34.1684 36.4238C34.1347 36.1897 34.101 35.9555 34.0673 35.6878L41.8793 33.4464C42.115 36.0893 44.3038 38.13 46.9975 38.13C47.772 38.13 48.5465 37.9293 49.2199 37.5948C49.8597 37.2937 50.4658 36.9257 50.9035 36.3569C50.9709 36.2566 51.0382 36.1562 51.0719 36.0558C51.1729 35.8217 51.2066 35.5206 51.2066 35.2864C51.2066 35.0187 51.1392 34.7845 51.0046 34.6173C50.9035 34.4835 50.7015 34.2827 50.1964 34.0151C49.7587 33.7809 49.1189 33.5467 48.3444 33.3125C47.5363 33.0783 46.4251 32.7438 44.9772 32.3423L44.4384 32.242C43.1252 31.874 42.014 31.506 41.1385 31.2049C37.4683 30.0005 34.8418 26.5881 34.8418 22.54C34.8418 20.3989 35.5826 18.3916 36.8285 16.8527C38.6805 14.5108 42.4518 12.4366 48.2771 12.5035C48.2771 12.5035 58.2441 12.4032 61.2746 20.6665L52.5872 23.1422C52.2504 22.172 51.6443 21.3022 50.8362 20.7C50.6678 20.5662 50.4321 20.4324 50.1964 20.2985C49.4556 19.8971 48.6475 19.6629 47.7383 19.6629C46.8292 19.6629 45.9537 19.9305 45.1792 20.332C44.8762 20.4993 44.6068 20.6665 44.4048 20.9342C44.2701 21.1015 44.2364 21.3691 44.2701 21.6033C44.2701 21.7037 44.3038 21.8375 44.3374 21.9378C44.4384 22.1386 44.5731 22.3393 44.7752 22.4731C44.9772 22.6404 45.2129 22.7742 45.4486 22.8746C46.3914 23.276 47.9067 23.7444 49.9607 24.2462C51.3076 24.5808 52.2168 24.7815 52.7219 24.9488C53.3616 25.1161 54.0014 25.3168 54.5738 25.5175C56.3921 26.1532 58.0758 27.1568 59.3553 28.5954C60.1298 29.4987 60.7359 30.5358 61.1063 31.6732C61.443 32.6769 61.5777 33.7474 61.5777 34.818Z" fill="#003874"/>
<path d="M129.529 34.8179C129.529 35.119 129.495 35.3867 129.462 35.6878C129.361 36.7918 129.057 37.8958 128.586 38.8994C128.35 39.3678 128.081 39.8362 127.778 40.2711C126.532 42.0442 124.613 43.4828 122.592 44.2522H122.559C120.875 44.9548 119.057 45.3562 117.272 45.5235C116.43 45.5904 115.589 45.6239 114.747 45.5904C113.939 45.557 113.097 45.4232 112.322 45.2559C110.975 44.9882 109.662 44.5868 108.416 44.0515C107.406 43.6166 106.463 43.0478 105.622 42.3787C104.914 41.81 104.275 41.1409 103.77 40.4049C103.332 39.7693 102.961 39.1002 102.658 38.3642C102.423 37.7285 102.254 37.0929 102.12 36.4238C102.086 36.1896 102.052 35.9554 102.019 35.6878L109.831 33.4463C110.066 36.0892 112.255 38.13 114.949 38.13C115.723 38.13 116.498 37.9292 117.171 37.5947C117.811 37.2936 118.417 36.9256 118.855 36.3569C118.922 36.2565 118.989 36.1561 119.023 36.0558C119.124 35.8216 119.158 35.5205 119.158 35.2863C119.158 35.0187 119.09 34.7845 118.956 34.6172C118.855 34.4834 118.653 34.2826 118.148 34.015C117.71 33.7808 117.07 33.5466 116.296 33.3124C115.488 33.0783 114.376 32.7437 112.928 32.3423L112.423 32.2084C111.11 31.8404 109.999 31.4724 109.123 31.1713C105.487 29.9669 102.827 26.5545 102.827 22.5065C102.827 20.3654 103.567 18.3581 104.813 16.8191C106.665 14.5107 110.403 12.4031 116.262 12.5034C116.262 12.5034 126.229 12.4031 129.26 20.6665L120.538 23.1756C120.202 22.2054 119.596 21.3356 118.787 20.7334C118.619 20.5996 118.383 20.4657 118.148 20.3319C117.407 19.9305 116.599 19.6963 115.69 19.6963C114.78 19.6963 113.905 19.9639 113.13 20.3654C112.827 20.5326 112.558 20.6999 112.356 20.9676C112.221 21.1348 112.188 21.4025 112.221 21.6367C112.221 21.737 112.255 21.8708 112.289 21.9712C112.39 22.1719 112.524 22.3727 112.726 22.5065C112.928 22.6738 113.164 22.8076 113.4 22.9079C114.343 23.3094 115.858 23.7778 117.912 24.2796C119.259 24.6142 120.168 24.8149 120.673 24.9822C121.313 25.1494 121.953 25.3502 122.525 25.5509C124.343 26.1865 126.027 27.1902 127.307 28.6287C128.081 29.532 128.687 30.5691 129.057 31.7066C129.394 32.6768 129.563 33.7474 129.529 34.8179Z" fill="#003874"/>
</g>
<defs>
<clipPath id="clip0_511_7">
<rect width="160" height="80" fill="white"/>
</clipPath>
</defs>
</svg>
