<svg width="38" height="48" viewBox="0 0 38 48" fill="none" xmlns="http://www.w3.org/2000/svg">
<path d="M19.0002 0C8.73775 0 0.385742 8.35201 0.385742 18.6144C0.385742 28.6272 17.5698 46.9248 18.2994 47.6928C18.4818 47.8848 18.7409 48 19.0002 48C19.2594 48 19.5185 47.8848 19.7009 47.6928C20.4305 46.9248 37.6146 28.6272 37.6146 18.6144C37.6146 8.35201 29.2626 0 19.0002 0ZM19.0002 26.5359C14.6272 26.5359 11.0694 22.9823 11.0694 18.6145C11.0694 14.2416 14.6272 10.6838 19.0002 10.6838C23.3736 10.6838 26.9314 14.2416 26.9314 18.6145C26.9314 22.9823 23.3736 26.5359 19.0002 26.5359Z" fill="#D83A41"/>
</svg>
