<svg width="554" height="711" viewBox="0 0 554 711" fill="none" xmlns="http://www.w3.org/2000/svg">
<path d="M128.967 570.252C128.356 568.541 126.583 567.563 124.811 568.113C123.039 568.663 122.184 570.436 122.55 572.208C123.1 573.919 124.934 574.896 126.583 574.285C128.478 573.858 129.394 572.024 128.967 570.252Z" fill="#F5FAFF"/>
<path d="M91.6293 601.05C91.2016 599.461 89.3684 598.423 87.6574 598.85C85.8242 599.278 84.9076 601.233 85.3353 603.006C85.8242 604.594 87.7796 605.755 89.4295 605.083C91.2627 604.717 92.2404 602.761 91.6293 601.05Z" fill="#F5FAFF"/>
<path d="M196.734 609.605C196.367 607.955 194.473 606.977 192.823 607.405C190.99 608.016 190.012 609.605 190.623 611.499C191.112 613.149 192.945 614.127 194.534 613.76C196.306 613.149 197.345 611.499 196.734 609.605Z" fill="#F5FAFF"/>
<path d="M303.976 631.603C303.61 629.831 301.715 628.854 300.004 629.343C298.293 629.954 297.316 631.726 297.805 633.315C298.416 635.148 300.188 636.125 301.776 635.637C303.549 635.148 304.526 633.376 303.976 631.603Z" fill="#F5FAFF"/>
<path d="M396.981 230.192C397.592 231.903 399.364 232.881 401.075 232.392C402.908 231.903 403.825 230.009 403.397 228.359C402.847 226.526 400.953 225.609 399.242 226.098C397.47 226.709 396.614 228.481 396.981 230.192Z" fill="#F5FAFF"/>
<path d="M301.349 99.057C299.76 99.5459 298.722 101.318 299.149 103.029C299.699 104.74 301.471 105.779 303.244 105.168C305.016 104.74 306.054 102.907 305.504 101.196C304.832 99.4236 302.999 98.4459 301.349 99.057Z" fill="#F5FAFF"/>
<path d="M391.665 33.734C392.154 35.445 394.048 36.4227 395.759 35.9949C397.47 35.3839 398.57 33.6729 397.959 31.9008C397.348 30.1287 395.637 29.151 393.987 29.7009C392.154 30.2509 391.176 32.023 391.665 33.734Z" fill="#F5FAFF"/>
<path d="M129.822 486.23C131.533 485.925 132.511 484.092 131.961 482.32C131.533 480.547 129.578 479.631 128.05 480.059C126.278 480.67 125.117 482.442 125.789 484.214C126.278 485.925 128.111 486.841 129.822 486.23Z" fill="#F5FAFF"/>
<path d="M395.208 568.419C393.314 568.847 392.397 570.741 392.764 572.391C393.375 574.102 395.269 575.141 397.042 574.53C398.691 574.224 399.608 572.33 399.119 570.619C398.691 568.908 396.919 567.808 395.208 568.419Z" fill="#F5FAFF"/>
<path d="M449.899 571.902C450.449 573.674 452.221 574.53 453.993 573.98C455.765 573.552 456.743 571.719 456.132 570.069C455.582 568.236 453.932 567.197 452.16 567.808C450.388 568.297 449.41 570.252 449.899 571.902Z" fill="#F5FAFF"/>
<path d="M459.982 447.366C460.532 449.077 462.365 450.116 464.076 449.627C465.848 449.077 466.826 447.244 466.276 445.533C465.909 443.822 463.954 442.844 462.243 443.333C460.471 443.883 459.554 445.655 459.982 447.366Z" fill="#F5FAFF"/>
<path d="M402.908 494.663C401.136 495.091 400.281 496.985 400.708 498.635C401.136 500.407 402.969 501.263 404.619 500.774C406.391 500.224 407.43 498.452 406.88 496.802C406.391 494.969 404.619 494.113 402.908 494.663Z" fill="#F5FAFF"/>
<path d="M374.066 640.22C373.455 638.509 371.683 637.47 369.972 638.02C368.2 638.509 367.222 640.342 367.772 642.114C368.261 643.703 370.033 644.864 371.683 644.192C373.577 643.825 374.494 641.87 374.066 640.22Z" fill="#F5FAFF"/>
<path d="M467.987 536.46C468.353 538.11 470.248 539.21 471.959 538.66C473.731 538.171 474.709 536.338 474.159 534.688C473.609 532.977 471.775 531.938 470.064 532.427C468.414 532.977 467.498 534.81 467.987 536.46Z" fill="#F5FAFF"/>
<path d="M397.41 689.35C399.121 688.8 400.037 687.028 399.487 685.256C399.059 683.483 397.348 682.567 395.576 683.178C393.743 683.483 392.888 685.317 393.315 687.15C393.682 688.8 395.515 689.838 397.41 689.35Z" fill="#F5FAFF"/>
<path d="M210.849 102.051C212.682 101.501 213.599 99.668 213.232 98.0181C212.682 96.1849 210.91 95.2683 209.138 95.7572C207.305 96.3071 206.388 98.0792 206.877 99.8513C207.427 101.562 209.26 102.54 210.849 102.051Z" fill="#F5FAFF"/>
<path d="M67.3704 97.835C69.1425 97.285 70.1813 95.5129 69.6314 93.8019C69.1425 92.0909 67.2482 91.1132 65.5372 91.5409C63.8262 92.0909 62.7874 93.863 63.3374 95.574C63.8873 97.3461 65.6594 98.3849 67.3704 97.835Z" fill="#F5FAFF"/>
<path d="M271.834 40.6388C273.606 40.0888 274.584 38.3778 273.912 36.5446C273.606 34.8947 271.651 33.8559 270.001 34.4059C268.229 34.8336 267.251 36.7279 267.74 38.3778C268.29 40.211 270.184 41.1887 271.834 40.6388Z" fill="#F5FAFF"/>
<path d="M510.151 7.33572C511.678 6.84686 512.656 4.95255 512.289 3.24156C511.678 1.46946 509.967 0.552857 508.195 1.04171C506.423 1.53057 505.384 3.36377 505.995 5.07477C506.362 6.72465 508.317 7.76347 510.151 7.33572Z" fill="#F5FAFF"/>
<path d="M504.651 243.575C506.423 243.086 507.401 241.253 506.79 239.481C506.423 237.831 504.59 236.853 502.879 237.403C501.107 237.831 500.129 239.664 500.618 241.375C501.229 243.147 502.879 244.125 504.651 243.575Z" fill="#F5FAFF"/>
<path d="M453.078 149.531C454.85 149.042 455.828 147.148 455.156 145.498C454.667 143.848 452.895 142.871 451.306 143.36C449.534 143.848 448.495 145.621 449.045 147.332C449.473 149.104 451.428 150.081 453.078 149.531Z" fill="#F5FAFF"/>
<path d="M269.328 706.276C268.779 704.565 266.945 703.526 265.234 704.076C263.462 704.443 262.423 706.276 263.034 708.171C263.523 709.82 265.357 710.798 267.068 710.248C268.84 709.82 269.817 708.048 269.328 706.276Z" fill="#F5FAFF"/>
<path d="M553.11 407.219C552.621 405.508 550.788 404.53 549.015 405.08C547.366 405.569 546.266 407.341 546.938 409.113C547.427 410.763 549.26 411.741 550.849 411.252C552.56 410.824 553.66 408.93 553.11 407.219Z" fill="#F5FAFF"/>
<path d="M511.495 461.177C511.067 459.527 509.234 458.549 507.401 459.038C505.69 459.527 504.712 461.36 505.201 463.132C505.751 464.782 507.523 465.76 509.234 465.21C511.006 464.721 512.045 462.888 511.495 461.177Z" fill="#F5FAFF"/>
<path d="M184.329 640.403C186.101 639.792 187.078 638.081 186.528 636.309C186.162 634.659 184.206 633.559 182.495 634.231C180.784 634.598 179.746 636.492 180.234 638.203C180.662 639.853 182.556 640.953 184.329 640.403Z" fill="#F5FAFF"/>
<path d="M21.3572 240.519C20.5628 238.014 18.3019 236.425 15.9187 236.547L11.3357 197.745C11.9468 197.622 12.4356 197.561 13.0467 197.378C20.0129 195.239 23.9848 188.029 21.9072 181.124C19.7684 174.218 12.4967 170.247 5.65275 172.263C-0.824577 174.218 -4.61322 180.635 -3.45219 187.173L-78.3081 203.55C-79.2247 200.678 -82.2801 199.089 -85.2132 199.822C-88.0852 200.8 -89.8573 203.855 -88.9407 206.727C-88.0241 209.66 -84.9076 211.371 -82.0356 210.455C-79.3469 209.66 -77.7581 207.094 -78.1248 204.405L-3.39108 188.151C-3.39108 188.212 -3.32996 188.395 -3.20775 188.579C-1.43565 194.567 4.30839 198.356 10.2969 197.806L14.8799 236.67C14.7577 236.67 14.6355 236.731 14.4521 236.792C11.519 237.709 9.86912 240.703 10.7246 243.575C11.5801 246.691 14.6966 248.219 17.6297 247.363C20.5017 246.508 22.1516 243.391 21.3572 240.519ZM5.77496 173.241C12.1912 171.408 18.974 175.013 20.8073 181.429C22.7627 187.845 19.0963 194.567 12.6189 196.461C12.1912 196.645 11.6412 196.706 11.0913 196.767L10.4191 190.29C10.5413 190.29 10.6635 190.228 10.7857 190.167C13.78 189.251 15.4298 186.195 14.5743 183.262C13.7188 180.329 10.6635 178.679 7.73038 179.596C5.10278 180.329 3.4529 182.896 3.75843 185.523L-2.59668 186.99C-3.6966 181.062 -0.0913086 175.013 5.77496 173.241ZM-2.35226 188.273C-2.41336 188.151 -2.41337 188.029 -2.41337 187.906L3.88064 186.501C4.67503 188.945 6.936 190.473 9.31916 190.351L10.1747 196.889C4.61393 197.317 -0.641258 193.773 -2.35226 188.273Z" fill="#F5FAFF"/>
<path d="M381.887 278.956C382.743 281.889 385.92 283.6 388.792 282.744C390.32 282.317 391.42 281.278 392.092 279.995L438.045 299.854C437.8 300.893 437.617 302.054 438.106 303.093C438.9 306.148 442.017 307.798 444.889 306.882C447.883 306.087 449.594 302.91 448.555 299.977C447.883 297.105 444.705 295.394 441.772 296.31C440.244 296.738 439.206 297.654 438.472 298.999L392.52 279.139C392.887 278.039 392.887 276.878 392.459 275.839C391.603 272.906 388.609 271.256 385.615 272.112C382.743 272.906 380.971 275.962 381.887 278.956Z" fill="#F5FAFF"/>
<path d="M49.1002 205.627C50.0168 208.561 53.0722 210.21 56.0664 209.294C57.4719 208.866 58.6329 207.888 59.3051 206.605L105.319 226.465C104.952 227.443 104.952 228.604 105.257 229.765C106.113 232.698 109.229 234.348 112.224 233.431C115.157 232.576 116.807 229.52 115.951 226.587C115.035 223.654 111.918 221.943 109.046 222.86C107.58 223.287 106.357 224.326 105.746 225.487L59.7329 205.75C60.0384 204.65 60.0995 203.55 59.7939 202.45C58.8773 199.517 55.7609 197.806 52.8889 198.661C49.8946 199.578 48.2447 202.633 49.1002 205.627Z" fill="#F5FAFF"/>
<path d="M415.618 639.242C416.473 642.236 419.467 643.886 422.401 642.908C423.867 642.664 425.028 641.686 425.7 640.342L471.836 660.14C471.408 661.24 471.408 662.34 471.775 663.501C472.63 666.496 475.686 668.207 478.68 667.29C481.613 666.373 483.263 663.379 482.408 660.446C481.552 657.452 478.436 655.741 475.441 656.596C473.914 657.024 472.875 658.002 472.203 659.224L426.006 639.486C426.434 638.57 426.434 637.286 426.128 636.125C425.273 633.131 422.217 631.42 419.284 632.398C416.473 633.376 414.762 636.492 415.618 639.242Z" fill="#F5FAFF"/>
<path d="M212.255 573.063C211.399 570.13 208.344 568.48 205.35 569.336C202.539 570.13 200.828 573.369 201.683 576.302C202.478 579.235 205.533 580.885 208.527 580.152C211.399 579.174 213.049 576.057 212.255 573.063Z" fill="#F5FAFF"/>
<path d="M340.396 473.581C341.679 478.286 346.629 480.975 351.334 479.509C351.7 479.386 352.128 479.203 352.678 478.959L430.589 619.016C428.695 620.299 427.778 622.927 428.451 625.31C429.245 628.121 432.423 629.832 435.295 628.976C438.228 628.121 439.939 624.943 439.144 621.949C438.289 619.138 435.111 617.427 432.178 618.282C431.934 618.344 431.689 618.527 431.384 618.588L353.473 478.531C355.795 477.187 357.261 474.865 357.567 472.237L442.627 477.92C442.627 479.875 442.994 481.892 443.544 483.969C446.844 495.091 458.515 501.385 469.82 498.146C480.758 494.785 487.297 483.114 483.936 471.993C480.697 460.81 468.903 454.455 457.782 457.693C448.983 460.321 443.239 468.265 442.75 476.82L357.689 471.198C357.75 470.343 357.75 469.487 357.261 468.509C355.856 463.865 351.089 461.177 346.506 462.643C341.679 464.11 338.929 468.937 340.396 473.581ZM457.965 458.671C468.537 455.555 479.78 461.665 482.836 472.237C486.074 482.87 480.025 494.052 469.331 497.169C458.76 500.285 447.516 494.174 444.461 483.603C443.788 481.708 443.605 479.875 443.544 477.981L448.677 478.348C448.677 479.264 448.983 480.364 449.166 481.281C451.305 488.614 458.882 492.647 466.154 490.569C473.486 488.43 477.519 480.731 475.381 473.52C473.303 466.31 465.665 462.154 458.454 464.293C452.527 466.065 448.616 471.504 448.616 477.37L443.483 477.064C444.033 468.754 449.533 461.177 457.965 458.671Z" fill="#F5FAFF"/>
<path d="M145.77 654.885C145.037 652.686 143.876 650.608 142.226 649.019L267.862 441.867C271.039 443.578 274.95 444.128 278.555 443.089C280.389 442.6 282.161 441.683 283.627 440.461L337.096 480.975C336.179 482.258 335.935 483.908 336.363 485.436C336.607 486.414 337.096 487.147 337.646 487.758L324.325 502.301C322.186 500.468 319.13 499.613 316.197 500.529C314.731 500.957 313.57 501.751 312.592 502.607L300.248 490.874C300.676 490.263 300.859 489.286 300.676 488.247C300.065 486.536 298.354 485.619 296.399 486.047C294.81 486.597 293.893 488.43 294.321 490.08C294.871 491.913 296.643 492.891 298.537 492.402C298.843 492.219 299.148 491.913 299.515 491.73L311.859 503.462C310.087 505.601 309.292 508.595 310.209 511.467C311.614 516.173 316.625 518.739 321.208 517.517C325.73 515.989 328.541 511.162 327.197 506.396C326.83 505.112 326.097 503.951 325.119 502.913L338.562 488.247C339.846 489.286 341.496 489.775 343.451 489.286C346.445 488.369 348.095 485.253 347.056 482.32C346.201 479.325 343.145 477.736 340.273 478.592C339.296 478.836 338.44 479.447 337.768 479.997L284.177 439.667C287.172 436.917 288.638 433.006 288.394 428.912L325.241 424.085C325.302 424.39 325.363 424.696 325.424 425.001C326.891 429.706 331.657 432.334 336.179 430.929C341.007 429.523 343.695 424.635 342.351 419.991C340.884 415.346 335.935 412.658 331.352 414.063C329.763 414.613 328.235 415.53 327.197 416.752L310.637 403.919C311.981 401.781 312.653 399.031 311.798 396.342C310.392 391.698 305.565 389.009 300.798 390.415C296.276 391.82 293.466 396.709 294.871 401.353C295.36 402.881 296.093 404.042 297.132 405.08L283.627 419.624C280.144 416.691 275.561 415.53 270.917 416.935C269.878 417.18 268.901 417.485 268.106 418.096L239.569 354.239C246.352 350.94 250.08 343.179 247.819 335.907C245.252 327.658 236.758 323.014 228.509 325.458C225.148 326.436 222.337 328.575 220.504 331.202L189.584 310.304L224.659 217.727C226.92 218.704 229.487 218.949 231.992 218.093C232.664 217.971 233.336 217.604 234.07 217.36L271.345 279.322C268.289 281.461 266.762 285.25 267.862 289.1C269.084 293.744 274.095 296.432 278.861 295.088C283.444 293.621 286.194 288.733 284.788 284.15C284.544 283.539 284.299 282.928 284.055 282.439L305.442 269.606C307.459 272.662 311.492 274.128 315.22 273.028C319.803 271.623 322.552 266.796 321.147 262.09C319.803 257.446 314.914 254.819 310.209 256.163C309.659 256.346 309.109 256.53 308.681 256.713L298.598 239.664C301.959 237.586 303.548 233.676 302.448 229.826C300.982 225.182 296.093 222.493 291.51 223.898C288.76 224.632 286.866 226.465 285.888 228.787L238.958 211.005C239.691 209.05 239.753 206.789 239.019 204.589C237.369 198.906 231.381 195.667 225.881 197.378C220.076 199.028 216.899 205.016 218.426 210.761C218.732 211.494 219.098 212.227 219.343 212.899L137.154 263.679C135.382 258.057 129.516 255.002 123.833 256.591C118.15 258.302 114.911 264.229 116.561 269.973C118.211 275.534 123.955 278.772 129.577 277.367L162.941 368.6C160.436 369.883 159.153 372.572 159.825 375.26C160.13 375.81 160.497 376.421 160.619 376.849L110.573 422.74C107.639 419.624 103.423 418.218 99.0845 418.707L86.0688 339.146C86.3132 339.085 86.6187 339.085 86.9243 338.963C92.6072 337.252 95.8459 331.324 94.196 325.58C92.5461 319.959 86.4965 316.659 80.8136 318.309C77.4527 319.347 75.0084 321.792 73.7863 324.908L-23.007 293.072C-22.0293 289.955 -21.9682 286.472 -22.9459 283.111C-25.6957 273.762 -35.5339 268.384 -44.8222 271.195C-54.1715 274.006 -59.61 283.722 -56.738 293.072C-53.9271 302.421 -44.2111 307.737 -34.8618 305.048C-29.2399 303.337 -25.0847 299.182 -23.3126 293.988L73.4808 325.764C72.9308 327.658 72.9308 329.675 73.4808 331.63C74.9473 336.763 79.9581 339.94 85.03 339.268L98.0457 418.952C97.618 418.952 97.1902 419.074 96.7625 419.135C89.4907 421.335 85.4577 428.912 87.5964 436.245C89.6741 443.394 97.3124 447.611 104.584 445.472C108.128 444.494 111 442.111 112.589 439.056L168.38 458.121C168.38 458.793 168.319 459.466 168.624 460.199C169.235 461.971 170.641 463.315 172.291 463.743L134.771 645.292C132.816 644.864 130.738 644.925 128.66 645.597C121.45 647.675 117.233 655.252 119.372 662.585C121.511 669.795 129.088 673.951 136.36 671.812C143.815 669.734 147.909 662.096 145.77 654.885ZM179.073 456.349C178.585 454.944 177.179 453.783 175.713 453.294L187.567 431.601L260.957 430.562C260.957 431.479 261.323 432.456 261.507 433.19L179.073 456.349ZM262.851 423.351L182.129 382.776C178.768 375.688 174.979 367.744 171.068 359.434L182.557 328.941L265.173 420.113C264.134 420.968 263.401 422.068 262.851 423.351ZM170.518 372.205C170.03 370.555 169.052 369.394 167.402 368.661L170.518 360.717C174.124 368.233 177.546 375.382 180.784 382.104L170.03 376.727C170.641 375.321 171.007 373.794 170.518 372.205ZM170.396 358.273C155.792 327.658 138.987 292.644 131.471 276.695C132.266 276.267 133.06 275.839 133.793 275.289L181.823 328.208L170.396 358.273ZM134.465 274.617C134.588 274.556 134.71 274.373 134.832 274.251L188.301 310.548L182.129 327.169L134.465 274.617ZM130.493 277.123C138.132 293.071 154.936 328.33 169.846 359.495L166.485 368.416C165.752 368.233 164.652 368.172 163.858 368.477L130.493 277.123ZM169.419 377.46L181.518 383.571C186.59 394.02 190.867 403.125 193.922 409.419C193.739 409.419 193.678 409.48 193.556 409.602L168.38 378.377C168.807 378.071 168.991 377.766 169.419 377.46ZM201.927 412.535C201.011 409.541 197.955 407.952 194.961 408.869C194.9 408.869 194.778 408.93 194.778 409.052C192.211 403.858 187.995 394.998 182.862 384.243L262.179 424.207C261.568 425.857 261.079 427.751 261.018 429.584L188.117 430.623L194.472 419.318C195.572 419.685 196.917 419.868 198.139 419.441C201.072 418.646 202.844 415.53 201.927 412.535ZM297.804 405.63C299.943 407.525 302.998 408.197 305.992 407.402C307.581 406.791 308.987 405.875 310.025 404.714L326.708 417.546C325.547 419.135 324.997 421.152 324.997 423.168L288.149 427.995C288.088 427.262 288.027 426.651 287.783 425.979C287.172 423.718 285.888 421.701 284.299 420.174L297.804 405.63ZM228.753 326.191C236.514 323.93 244.702 328.391 246.78 335.969C248.98 342.935 245.619 350.145 239.325 353.14L235.536 345.012C237.858 343.729 238.897 341.04 238.225 338.596C237.369 335.663 234.192 333.952 231.32 334.807C230.22 335.235 229.303 335.846 228.692 336.702L221.115 331.691C222.887 329.063 225.515 327.108 228.753 326.191ZM237.003 353.995C229.242 356.256 221.237 351.856 218.915 344.157C217.693 340.063 218.365 335.846 220.565 332.302L227.959 337.435C227.409 338.657 227.165 340.185 227.531 341.651C228.448 344.646 231.625 346.234 234.558 345.44C234.558 345.379 234.681 345.318 234.681 345.257L238.53 353.506C237.919 353.812 237.492 353.934 237.003 353.995ZM219.771 331.813C217.571 335.48 216.715 340.063 218.06 344.523C220.565 352.712 229.12 357.417 237.308 354.973C237.736 354.851 238.347 354.667 238.836 354.545L267.19 418.402C266.823 418.646 266.334 419.074 265.845 419.441L182.862 328.025L189.278 311.098L219.771 331.813ZM307.765 257.018C304.648 259.157 302.937 263.129 304.159 266.979C304.343 267.468 304.465 268.018 304.831 268.629L283.383 281.4C282.344 279.934 281.061 278.834 279.289 278.223L291.571 240.825C293.038 241.131 294.688 241.192 296.215 240.703C296.888 240.581 297.254 240.397 297.804 240.153L307.765 257.018ZM285.522 229.581C284.911 231.231 284.972 232.942 285.338 234.653C286.133 237.464 288.21 239.481 290.655 240.397L278.433 277.978C276.967 277.55 275.317 277.55 273.728 278.039C273.3 278.284 272.567 278.467 272.2 278.711L234.681 216.688C236.575 215.405 237.858 213.816 238.714 211.983L285.522 229.581ZM223.743 217.177L188.667 309.631L135.504 273.456C137.276 271.134 138.071 267.895 137.399 264.779L219.832 213.816C220.809 215.221 222.154 216.321 223.743 217.177ZM161.291 377.705C162.636 379.11 164.836 379.66 166.852 379.11C167.035 379.11 167.219 378.927 167.585 378.927L192.761 410.152C191.539 411.619 190.562 413.697 191.356 415.713C191.723 417.057 192.578 418.035 193.678 418.768L187.017 430.684L114.545 431.784C114.422 430.623 114.3 429.645 113.995 428.545C113.384 426.59 112.467 425.001 111.245 423.535L161.291 377.705ZM113.2 438.261C114.056 436.55 114.483 434.656 114.483 432.701L186.406 431.54L174.735 453.049C174.002 452.988 173.329 453.049 172.474 453.355C170.457 453.844 169.113 455.371 168.624 457.266L113.2 438.261ZM173.268 465.576L182.434 505.785C182.312 505.846 182.312 505.846 182.19 505.723C176.629 507.496 173.452 513.484 174.979 519.228C176.69 524.972 182.618 528.15 188.362 526.561C194.045 524.85 197.406 518.739 195.695 513.178C193.984 507.74 188.728 504.624 183.29 505.54L173.879 463.987C174.429 464.11 175.04 463.987 175.59 463.865C178.523 463.01 180.173 460.199 179.44 457.327L261.629 434.045C262.729 437.1 264.623 439.606 267.128 441.317L141.432 648.286C139.904 646.88 137.949 645.964 135.932 645.475L173.268 465.576Z" fill="#F5FAFF"/>
<path d="M133.672 168.902C131.411 168.474 129.089 168.597 126.828 169.269C118.945 171.591 114.423 179.901 116.806 187.723C119.067 195.545 127.378 200.128 135.2 197.745C143.082 195.423 147.604 187.173 145.282 179.229C145.099 178.679 144.916 178.313 144.732 177.763L185.796 159.186C187.14 161.203 189.646 162.242 192.151 161.508C195.084 160.592 196.795 157.475 195.94 154.603C195.023 151.609 191.846 149.959 188.974 150.937C185.979 151.792 184.391 154.848 185.307 157.781C185.368 158.025 185.429 158.147 185.49 158.392L144.304 176.968C142.349 172.996 138.744 170.185 134.65 169.147L151.087 104.007C152.004 104.19 153.104 104.251 154.143 103.946C157.076 103.029 158.787 99.9125 157.809 96.9794C157.015 94.0463 153.898 92.3353 150.965 93.2519C148.032 94.1685 146.443 97.1627 147.238 100.096C147.665 101.685 148.765 102.846 150.11 103.579L133.672 168.902ZM144.304 179.535C146.504 186.868 142.288 194.628 135.016 196.889C127.622 199.028 119.923 194.812 117.723 187.479C115.584 180.146 119.739 172.385 127.072 170.185C129.211 169.574 131.35 169.452 133.366 169.819L131.533 177.396C130.739 177.335 130.005 177.335 129.272 177.579C126.339 178.496 124.689 181.49 125.545 184.362C126.4 187.295 129.517 189.006 132.45 188.212C135.2 187.356 136.911 184.423 136.238 181.612L143.877 178.129C144.06 178.557 144.182 179.046 144.304 179.535ZM143.449 177.274L135.811 180.635C135.261 179.107 133.916 178.007 132.389 177.579L134.283 170.002C138.194 170.98 141.555 173.546 143.449 177.274Z" fill="#F5FAFF"/>
<path d="M355.367 255.002C355.55 254.941 355.856 255.002 356.223 255.002L356.711 264.107C355.245 264.351 354.145 265.512 353.9 267.04C353.839 268.873 355.123 270.401 356.895 270.645C358.606 270.828 360.256 269.545 360.317 267.712C360.561 265.879 359.278 264.29 357.445 264.107C357.384 264.107 357.261 264.107 357.261 264.107L356.711 255.002C363.005 254.88 368.261 250.174 368.811 243.88C368.872 242.964 368.933 242.169 368.872 241.375L456.804 229.031C457.11 230.376 458.088 231.353 459.493 231.476C461.387 231.72 463.037 230.315 463.221 228.604C463.343 226.831 461.937 225.182 460.287 224.998C458.454 224.876 456.927 226.098 456.682 227.993C456.682 228.115 456.621 228.298 456.621 228.42L368.688 240.764C367.894 235.325 363.433 230.865 357.811 230.376C350.906 229.642 344.857 234.653 344.062 241.436C343.573 248.219 348.584 254.268 355.367 255.002ZM368.322 243.88C367.649 249.808 362.639 254.391 356.65 254.452L356.345 248.586C358.911 248.647 361.294 246.63 361.661 243.88C361.661 243.453 361.6 242.841 361.6 242.414L368.199 241.436C368.444 242.23 368.383 243.025 368.322 243.88ZM357.811 230.926C363.25 231.414 367.344 235.692 368.322 240.886L361.355 241.803C360.806 239.969 359.095 238.442 356.895 238.197C354.084 237.953 351.701 240.031 351.395 242.841C351.028 245.591 353.045 248.158 355.917 248.524L356.161 254.391C355.734 254.33 355.611 254.33 355.245 254.391C348.829 253.719 344.062 247.913 344.796 241.497C345.407 235.02 351.273 230.253 357.811 230.926Z" fill="#F5FAFF"/>
<path d="M92.4243 507.862C90.0412 499.613 81.4251 494.968 73.2368 497.352C70.5481 498.085 68.2871 499.552 66.4539 501.446L3.88046 444.8C4.98038 443.455 5.34702 441.622 4.79706 439.85C4.00267 436.917 0.825122 435.267 -2.10801 436.123C-5.04114 437.039 -6.75214 440.217 -5.89664 443.15C-5.04115 446.144 -1.86357 447.855 1.06956 446.755C1.86395 446.572 2.59723 446.266 3.2083 445.594L65.7817 502.24C62.5431 506.09 61.1987 511.467 62.7264 516.6C62.7264 516.784 62.7875 517.028 62.9097 517.15L51.7272 521.183C50.5661 518.617 47.7552 517.395 45.0665 518.128C42.1334 518.984 40.4835 521.978 41.339 524.972C42.1945 527.905 45.3109 529.494 48.2441 528.822C51.1161 527.966 52.766 524.972 52.0327 522.039L63.1541 517.945C66.0873 525.4 74.2756 529.372 82.0362 527.111C90.2245 524.666 94.9297 515.989 92.4243 507.862ZM63.7041 516.295C62.2987 511.528 63.4597 506.457 66.515 502.851L73.1146 508.901C72.1369 510.184 71.7091 511.956 72.2591 513.606L63.7652 516.539C63.7652 516.6 63.7041 516.417 63.7041 516.295ZM64.1319 517.639L72.6257 514.523C73.7867 516.967 76.5365 518.311 79.103 517.517C82.0362 516.661 83.7472 513.606 82.8917 510.612C81.9751 507.679 78.9808 505.907 75.9866 506.884C75.07 507.129 74.3978 507.618 73.7868 508.106L67.1261 502.118C68.776 500.407 70.9758 499.124 73.4201 498.39C81.1807 496.007 89.1857 500.468 91.5688 508.045C93.7076 515.806 89.369 523.994 81.7306 526.133C74.52 528.211 66.9428 524.605 64.1319 517.639Z" fill="#F5FAFF"/>
<path d="M355.245 354.912C357.567 363.039 366.305 367.805 374.432 365.361C376.877 364.628 378.954 363.344 380.665 361.755L405.414 386.198C404.252 387.665 403.764 389.498 404.375 391.392C405.169 394.142 407.858 395.731 410.669 395.242L413.296 405.508C410.485 406.425 408.897 409.419 409.813 412.291C410.669 415.163 413.785 416.813 416.657 415.896C419.651 415.102 421.362 411.985 420.507 409.113C420.507 408.747 420.14 408.441 420.079 408.258L438.411 397.442C439.694 399.275 442.139 400.192 444.522 399.458C447.455 398.542 449.105 395.486 448.188 392.614C447.455 389.559 444.277 387.97 441.283 388.887C438.472 389.681 436.761 392.737 437.556 395.67C437.8 396.036 437.861 396.281 437.922 396.525L419.651 407.28C418.368 405.569 416.229 404.591 414.274 405.141L411.646 394.937C414.274 393.898 415.802 390.965 415.068 388.093C414.03 385.159 411.096 383.571 408.041 384.365C407.308 384.548 406.697 384.915 406.025 385.404L381.398 360.9C385.004 356.989 386.593 351.49 385.004 345.99C382.498 337.802 373.943 333.096 365.694 335.541C357.445 338.046 352.678 346.662 355.245 354.912ZM383.965 346.357C385.37 351.49 384.148 356.745 380.665 360.35L374.432 354.056C375.41 352.651 375.838 350.756 375.41 348.862C374.555 345.929 371.499 344.279 368.444 345.134C365.511 346.051 363.922 349.106 364.777 352.04C365.633 354.973 368.688 356.623 371.56 355.828C372.355 355.523 373.088 355.217 373.577 354.667L379.993 361.022C378.404 362.55 376.449 363.772 374.249 364.383C366.488 366.644 358.422 362.244 356.222 354.606C353.778 346.968 358.239 338.84 365.816 336.518C373.577 334.319 381.765 338.657 383.965 346.357Z" fill="#F5FAFF"/>
<path d="M-49.6493 333.097C-47.205 341.285 -38.4667 345.99 -30.3395 343.607C-27.9563 342.813 -25.8787 341.652 -24.1066 340.002L0.519497 364.444C-0.641537 365.911 -1.06927 367.744 -0.580421 369.516C0.21397 372.266 2.96379 373.916 5.65249 373.488L8.34119 383.571C5.71359 384.61 4.12481 387.543 4.98031 390.415C5.7747 393.348 8.95225 394.998 11.8854 394.142C14.7574 393.287 16.4684 390.17 15.6129 387.176C15.4907 386.932 15.4296 386.687 15.2463 386.443L33.5783 375.627C34.8616 377.521 37.3669 378.377 39.6279 377.705C42.6221 376.788 44.3331 373.794 43.4776 370.8C42.561 367.866 39.4446 366.217 36.5726 367.072C33.6394 367.866 31.9285 370.983 32.8451 373.977C32.9062 374.221 33.0284 374.466 33.1506 374.71L14.8796 385.465C13.6575 383.876 11.5798 382.96 9.4411 383.204L6.75241 373.122C9.50222 372.083 11.0299 369.089 10.1744 366.339C9.3189 363.467 6.26355 361.695 3.33042 362.611C2.59713 362.856 1.86386 363.222 1.3139 363.711L-23.3733 339.146C-19.7069 335.235 -18.1792 329.675 -19.768 324.236C-22.1511 315.987 -30.8894 311.281 -39.0778 313.787C-47.3883 316.353 -52.0935 324.908 -49.6493 333.097ZM-20.8068 324.603C-19.4013 329.675 -20.7457 334.93 -24.1066 338.657L-30.5228 332.241C-29.3618 330.897 -28.9951 329.002 -29.484 327.169C-30.3395 324.236 -33.3948 322.525 -36.3891 323.381C-39.3222 324.297 -40.9721 327.353 -40.1166 330.286C-39.3222 333.219 -36.1446 334.93 -33.2115 334.013C-32.4782 333.708 -31.8671 333.402 -31.195 332.913L-24.8399 339.268C-26.4286 340.857 -28.323 341.957 -30.5839 342.568C-38.2223 344.89 -46.4106 340.491 -48.6104 332.791C-50.9325 325.153 -46.5328 317.087 -38.8333 314.887C-31.2561 312.504 -23.19 316.964 -20.8068 324.603Z" fill="#F5FAFF"/>
<path d="M349.073 90.6242C353.595 106.329 367.588 116.595 383.171 117.45L381.337 167.374C380.054 167.558 378.71 167.741 377.427 168.169C372.11 169.696 367.955 173.241 365.266 177.518L326.341 150.631C326.952 149.287 327.136 147.881 326.708 146.354C325.791 143.421 322.736 141.771 319.864 142.626C316.992 143.604 315.159 146.537 316.136 149.531C316.992 152.464 320.23 154.175 322.98 153.259C324.202 152.953 325.058 152.281 325.73 151.426L364.9 178.374C362.272 183.018 361.417 188.701 363.066 194.384C366.488 205.505 378.099 211.799 389.281 208.56C400.525 205.2 406.819 193.528 403.458 182.346C400.769 172.935 391.848 166.886 382.315 167.313L384.087 117.389C387.937 117.511 391.848 117.022 395.514 115.922C415.374 110.056 426.862 89.0965 420.935 69.359C415.068 49.5604 394.17 38.1945 374.371 44.1218C354.511 49.9881 343.207 70.8256 349.073 90.6242ZM377.61 169.208C378.832 168.841 380.176 168.597 381.276 168.413L381.093 180.207C380.237 180.207 379.321 180.268 378.771 180.512C376.815 181.062 375.288 182.101 374.127 183.568L366.122 178.007C368.566 173.913 372.599 170.613 377.61 169.208ZM402.48 182.651C405.78 193.284 399.669 204.466 389.098 207.583C378.343 210.699 367.344 204.65 364.044 194.078C362.578 188.884 363.128 183.446 365.572 178.924L373.699 184.545C372.355 186.562 371.927 189.128 372.599 191.573C374.188 196.339 378.954 198.906 383.598 197.561C388.304 196.095 390.931 191.267 389.648 186.623C388.487 182.957 385.493 180.635 381.887 180.329L382.315 168.413C391.42 167.863 399.792 173.607 402.48 182.651ZM419.835 69.6645C425.579 88.9132 414.58 109.262 395.331 115.006C391.542 116.106 387.876 116.595 384.148 116.472L384.759 98.3237C386.47 98.3237 388.181 98.0792 389.77 97.5904C399.181 94.9017 404.436 85.0635 401.808 75.7752C398.997 66.4259 389.037 61.1096 379.871 63.8594C370.521 66.6092 365.083 76.4474 367.894 85.7356C370.094 93.1296 376.51 97.8959 383.843 98.3848L383.171 116.472C368.077 115.739 354.511 105.656 349.99 90.4409C344.307 71.1311 355.367 50.7825 374.616 45.0385C393.803 39.2944 414.213 50.4159 419.835 69.6645Z" fill="#F5FAFF"/>
<path d="M363.862 668.268C366.734 661.24 363.495 653.358 356.59 650.486C354.451 649.63 352.312 649.263 350.296 649.569L346.874 619.199C348.585 618.954 349.929 617.916 350.357 616.327C351.396 614.066 350.357 611.438 348.279 610.277L352.19 601.845C354.451 602.822 357.201 601.478 357.995 599.217C359.156 596.712 358.056 593.962 355.551 592.862C353.046 591.762 350.235 593.167 349.196 595.612C349.074 595.734 349.074 595.917 348.829 596.406L330.558 593.656C330.681 591.517 329.519 589.684 327.503 588.89C324.998 587.912 322.187 588.951 321.27 591.517C320.292 593.962 321.331 596.712 323.898 597.812C326.281 598.789 329.092 597.567 330.131 595.062C330.253 594.817 330.253 594.695 330.436 594.328L348.89 596.956C348.768 598.85 349.685 600.684 351.335 601.478L347.485 609.972C345.102 609.055 342.474 610.155 341.558 612.66C340.458 615.105 341.68 617.977 344.185 618.954C344.735 619.199 345.468 619.321 346.079 619.321L349.44 649.447C344.857 650.119 340.641 653.297 338.93 657.696C336.119 664.907 339.48 672.667 346.324 675.417C353.29 678.473 361.112 675.112 363.862 668.268ZM339.663 658.246C341.374 653.908 345.224 651.158 349.685 650.608L350.418 658.368C348.951 658.613 347.607 659.652 346.935 661.302C345.835 663.807 347.24 666.496 349.685 667.534C352.068 668.512 354.94 667.412 355.979 664.907C356.895 662.463 355.673 659.591 353.351 658.613C352.618 658.307 352.007 658.246 351.396 658.185L350.479 650.486C352.251 650.302 354.39 650.547 356.162 651.28C362.762 653.969 365.939 661.485 363.189 667.901C360.623 674.378 353.107 677.556 346.568 674.867C340.03 672.179 337.036 664.662 339.663 658.246Z" fill="#F5FAFF"/>
</svg>
