<svg width="114" height="136" viewBox="0 0 114 136" fill="none" xmlns="http://www.w3.org/2000/svg">
<path d="M0.240776 13.2311C1.40194 16.9078 5.12986 19.0525 8.98002 17.9495C9.40781 17.8882 9.59116 17.6431 9.89672 17.4593L71.4382 128.066C69.9103 129.047 69.177 130.946 69.6048 132.968C70.3381 135.297 72.7827 136.522 75.1661 135.787C77.4273 135.174 78.7718 132.785 78.0996 130.456C77.3662 128.127 74.9216 126.779 72.6604 127.515C72.4771 127.576 72.416 127.637 72.1715 127.76L10.7523 17.2142C12.4024 15.9886 13.5024 14.2116 13.8691 12.1281L80.9108 16.6627C80.8497 18.1946 81.0941 19.7266 81.6442 21.3811C84.0276 30.1439 93.378 35.1074 102.117 32.5337C110.918 29.96 115.929 20.707 113.301 11.883C110.734 3.18154 101.506 -1.90453 92.6446 0.669146C85.6777 2.7526 81.2164 8.94167 80.9108 15.8661L13.9913 11.2702C13.9302 10.6575 13.8691 9.92211 13.7469 9.30933C12.5858 5.63265 8.67447 3.48791 5.06877 4.59092C1.34084 5.63264 -0.737042 9.55446 0.240776 13.2311ZM92.8891 1.46575C101.262 -1.04665 110.001 3.79432 112.507 12.1894C114.951 20.5845 110.123 29.4085 101.751 31.7984C93.4391 34.3108 84.761 29.5311 82.1942 21.136C81.8275 19.6653 81.5219 18.1333 81.5831 16.724L85.6776 16.9691C85.7388 17.7657 85.7388 18.4398 86.0443 19.2364C87.7555 24.9965 93.6835 28.2442 99.3671 26.5284C105.112 24.8127 108.473 18.8687 106.701 13.1086C104.99 7.28716 99.0615 4.03941 93.3168 5.81648C88.55 7.16459 85.5554 11.4541 85.5554 16.1725L81.5831 15.8661C81.8886 9.37062 86.2277 3.36537 92.8891 1.46575Z" fill="#D4EAFF"/>
</svg>
