<svg width="95" height="68" viewBox="0 0 95 68" fill="none" xmlns="http://www.w3.org/2000/svg">
<path d="M13.7271 67.8062C22.0956 69.1367 29.9162 63.3961 31.1679 54.9972C31.5129 52.5128 31.199 50.0757 30.4487 47.9115L62.767 36.0904C63.4944 37.7017 65.0546 38.8328 66.9229 39.1636C69.6468 39.5671 72.3706 37.9045 73.0322 35.3437L83.2547 37.176C82.9867 39.9769 85.0377 42.6647 87.8272 43.1082C90.8278 43.5007 93.7113 41.5762 94.0734 38.4735C94.5666 35.4508 92.5158 32.7629 89.5551 32.3049C89.1729 32.3413 88.9362 32.2867 88.7251 32.3377L86.6846 11.3318C88.821 10.9278 90.6634 9.08712 91.1653 6.78822C91.553 3.79095 89.4765 0.997608 86.4901 0.434101C83.4896 0.0415549 80.6973 2.11154 80.244 5.0688C79.6851 8.05154 81.8272 10.8849 84.8535 11.3829C85.1701 11.3065 85.4068 11.361 85.7491 11.3901L87.7639 32.2905C85.7987 32.709 84.1559 34.2223 83.4972 36.3357L73.2888 34.3325C73.4512 31.5572 71.5715 28.8838 68.6764 28.4658C65.6502 27.9678 62.7923 29.9978 62.4046 32.995C62.2677 33.8098 62.3419 34.5737 62.5216 35.3121L30.2433 47.0677C28.2322 42.2483 23.8966 38.4367 18.3433 37.6552C9.93477 36.3903 2.11421 42.1308 0.902447 50.4643C-0.480466 58.7832 5.31858 66.5412 13.7271 67.8062ZM18.1009 38.4955C23.3377 39.3534 27.4251 42.834 29.3592 47.3369L21.0022 50.415C20.2491 48.6983 18.6632 47.4617 16.8606 47.1708C13.8343 46.6728 11.0022 48.8083 10.5089 51.831C10.0555 54.7883 12.2376 57.5561 15.1184 58.1451C18.119 58.5377 20.9113 56.4677 21.4702 53.485C21.607 52.6702 21.4929 51.9718 21.4187 51.2079L29.6958 48.2608C30.3548 50.2795 30.5517 52.4656 30.2466 54.8845C29.1175 62.6396 21.8132 67.9764 13.9438 66.8605C6.11427 65.6791 0.549176 58.423 1.75812 50.5369C2.96706 42.6509 10.2714 37.3141 18.1009 38.4955Z" fill="#99CCFF"/>
</svg>
