<svg width="500" height="587" viewBox="0 0 500 587" fill="none" xmlns="http://www.w3.org/2000/svg">
<path d="M28.6642 279.744C28.2359 278.394 26.8284 277.597 25.421 278.026C24.0747 278.456 23.3404 279.805 23.7075 281.215C24.0747 282.626 25.6045 283.423 26.8896 282.994C28.2971 282.503 29.0926 281.154 28.6642 279.744Z" fill="#D4EAFF"/>
<path d="M133.305 450.407C132.999 449.119 131.469 448.383 130.123 448.69C128.899 449.18 127.981 450.591 128.41 451.878C128.838 453.289 130.246 454.025 131.653 453.78C132.938 453.289 133.734 451.817 133.305 450.407Z" fill="#D4EAFF"/>
<path d="M103.932 474.752C103.504 473.403 102.097 472.606 100.873 473.097C99.4653 473.342 98.6697 474.998 98.9757 476.347C99.5264 477.696 100.873 478.493 102.158 478.064C103.626 477.512 104.422 476.101 103.932 474.752Z" fill="#D4EAFF"/>
<path d="M192.296 564.775C191.867 563.365 190.46 562.629 189.114 563.058C187.828 563.365 186.911 564.714 187.4 566.247C187.706 567.535 189.114 568.393 190.46 568.025C191.928 567.473 192.663 566.063 192.296 564.775Z" fill="#D4EAFF"/>
<path d="M270.562 486.894C270.257 485.607 268.849 484.932 267.503 485.177C266.095 485.729 265.239 487.078 265.789 488.427C266.157 489.838 267.503 490.574 268.91 490.022C270.257 489.838 271.052 488.305 270.562 486.894Z" fill="#D4EAFF"/>
<path d="M344.668 181.749C345.036 183.098 346.565 183.895 348.095 183.527C349.258 183.037 350.176 181.688 349.747 180.277C349.319 178.928 347.912 178.131 346.565 178.56C345.097 178.928 344.301 180.338 344.668 181.749Z" fill="#D4EAFF"/>
<path d="M269.277 78.0507C267.931 78.48 267.197 79.8904 267.503 81.2395C268.053 82.65 269.339 83.3859 270.746 83.0179C272.092 82.5887 272.888 81.1782 272.521 79.8291C272.092 78.4187 270.624 77.6828 269.277 78.0507Z" fill="#D4EAFF"/>
<path d="M340.385 26.539C340.813 27.8882 342.282 28.6854 343.628 28.3174C345.035 27.8882 345.77 26.4164 345.403 25.1286C344.913 23.7182 343.506 22.9823 342.22 23.4115C340.874 23.7182 340.14 25.1899 340.385 26.539Z" fill="#D4EAFF"/>
<path d="M134.223 384.177C135.385 383.687 136.242 382.276 135.875 380.989C135.447 379.578 133.978 378.781 132.632 379.088C131.224 379.456 130.49 380.927 130.918 382.399C131.224 383.687 132.693 384.545 134.223 384.177Z" fill="#D4EAFF"/>
<path d="M343.26 448.935C341.792 449.18 341.119 450.775 341.547 452.124C341.914 453.473 343.26 454.332 344.729 453.841C346.136 453.473 346.81 452.063 346.381 450.652C345.892 449.303 344.668 448.383 343.26 448.935Z" fill="#D4EAFF"/>
<path d="M386.341 451.695C386.769 453.105 388.238 453.78 389.584 453.35C390.93 452.982 391.726 451.572 391.297 450.284C390.869 448.935 389.4 448.138 388.115 448.567C386.708 448.874 386.096 450.346 386.341 451.695Z" fill="#D4EAFF"/>
<path d="M394.296 353.332C394.724 354.681 396.193 355.478 397.539 355.049C398.947 354.681 399.62 353.209 399.314 351.86C398.763 350.572 397.478 349.775 396.071 350.143C394.724 350.511 394.051 351.983 394.296 353.332Z" fill="#D4EAFF"/>
<path d="M349.257 390.616C347.911 391.046 347.176 392.517 347.482 393.744C347.911 395.154 349.379 395.952 350.726 395.584C352.194 395.216 352.867 393.683 352.5 392.395C352.072 390.984 350.603 390.248 349.257 390.616Z" fill="#D4EAFF"/>
<path d="M325.759 493.763C325.331 492.291 323.924 491.616 322.516 491.984C321.109 492.352 320.435 493.824 320.803 495.173C321.231 496.583 322.7 497.381 324.046 497.013C325.453 496.399 326.188 495.05 325.759 493.763Z" fill="#D4EAFF"/>
<path d="M423.24 440.043C423.73 441.331 425.015 442.128 426.423 441.76C427.891 441.331 428.564 439.982 428.197 438.51C427.83 437.222 426.3 436.364 424.954 436.854C423.669 437.284 422.934 438.694 423.24 440.043Z" fill="#D4EAFF"/>
<path d="M338.427 586.484C339.712 586.177 340.508 584.644 340.14 583.356C339.59 581.946 338.243 581.271 336.897 581.578C335.49 581.946 334.755 583.417 335.123 584.828C335.551 586.116 336.958 586.913 338.427 586.484Z" fill="#D4EAFF"/>
<path d="M198.11 80.5037C199.456 80.1358 200.252 78.664 199.884 77.3762C199.456 75.9658 197.926 75.1685 196.702 75.6591C195.234 76.0271 194.377 77.3762 194.805 78.7866C195.295 80.1357 196.641 80.933 198.11 80.5037Z" fill="#D4EAFF"/>
<path d="M84.8396 77.131C86.2471 76.7631 87.0426 75.3526 86.6142 73.9422C86.2471 72.5931 84.7784 71.8572 83.371 72.1638C82.0247 72.5931 81.2292 74.0648 81.6575 75.3526C82.0247 76.8244 83.5545 77.6216 84.8396 77.131Z" fill="#D4EAFF"/>
<path d="M246.023 32.0583C247.431 31.6903 248.104 30.1572 247.798 28.8694C247.308 27.459 245.901 26.6618 244.555 27.0911C243.208 27.5203 242.413 28.9308 242.841 30.3412C243.208 31.6903 244.677 32.4262 246.023 32.0583Z" fill="#D4EAFF"/>
<path d="M433.704 5.6279C435.173 5.25996 435.846 3.7882 435.418 2.50041C435.051 1.02864 433.766 0.292765 432.297 0.722029C430.889 0.967323 430.278 2.56172 430.645 3.97216C431.012 5.32128 432.358 6.05717 433.704 5.6279Z" fill="#D4EAFF"/>
<path d="M429.544 192.297C430.891 191.867 431.809 190.457 431.258 189.108C430.952 187.759 429.422 186.961 428.076 187.329C426.73 187.697 425.934 189.169 426.362 190.518C426.73 191.929 428.259 192.787 429.544 192.297Z" fill="#D4EAFF"/>
<path d="M388.85 118.034C390.257 117.666 391.114 116.194 390.624 114.845C390.257 113.496 388.727 112.699 387.442 113.067C386.035 113.496 385.301 114.906 385.729 116.255C386.096 117.666 387.504 118.463 388.85 118.034Z" fill="#D4EAFF"/>
<path d="M243.27 545.949C242.842 544.6 241.435 543.741 240.027 544.17C238.681 544.538 237.947 545.949 238.314 547.359C238.803 548.77 240.15 549.567 241.557 549.26C242.903 548.77 243.699 547.114 243.27 545.949Z" fill="#D4EAFF"/>
<path d="M467.729 321.505C467.423 320.217 465.955 319.42 464.547 319.788C463.201 320.217 462.528 321.628 462.834 323.038C463.384 324.449 464.731 325.184 466.016 324.755C467.423 324.449 468.219 322.977 467.729 321.505Z" fill="#D4EAFF"/>
<path d="M480.089 370.993C479.722 369.705 478.253 368.847 476.907 369.276C475.5 369.644 474.765 371.116 475.01 372.403C475.438 373.814 476.907 374.55 478.192 374.12C479.538 373.752 480.517 372.403 480.089 370.993Z" fill="#D4EAFF"/>
<path d="M177.058 505.843C178.404 505.414 179.077 503.881 178.771 502.593C178.343 501.183 176.936 500.508 175.528 500.876C174.121 501.305 173.448 502.654 173.876 504.126C174.243 505.475 175.712 506.211 177.058 505.843Z" fill="#D4EAFF"/>
<path d="M48.552 189.905C47.9401 187.881 46.1655 186.593 44.2685 186.716L40.658 156.054C41.1476 155.993 41.5759 155.932 42.0655 155.809C47.5117 154.215 50.5714 148.511 48.9804 142.931C47.3281 137.535 41.6371 134.346 36.1297 136.001C31.1118 137.535 27.9909 142.624 28.97 147.714L-30.1431 160.715C-30.8774 158.446 -33.2028 157.158 -35.5281 157.833C-37.8535 158.568 -39.1385 160.899 -38.4654 163.29C-37.7311 165.621 -35.3445 166.97 -33.0192 166.234C-30.9386 165.559 -29.5923 163.536 -29.9595 161.512L29.0924 148.511C29.0924 148.573 29.1536 148.818 29.1536 148.879C30.6223 153.663 35.0894 156.606 39.8625 156.3L43.4117 186.9C43.2894 186.9 43.2282 186.9 43.1058 186.961C40.7804 187.697 39.4341 190.089 40.1685 192.419C40.7804 194.749 43.2894 196.098 45.5535 195.363C47.9401 194.627 49.2251 192.174 48.552 189.905ZM36.3133 136.737C41.3312 135.266 46.655 138.148 48.1236 143.176C49.5923 148.327 46.7162 153.54 41.6983 155.073C41.27 155.196 40.8416 155.318 40.4133 155.318L39.8013 150.167C39.9849 150.167 40.0461 150.106 40.2297 150.106C42.4938 149.37 43.8401 146.978 43.2282 144.648C42.4938 142.318 39.9849 141.03 37.7207 141.643C35.7013 142.318 34.3551 144.341 34.661 146.426L29.582 147.53C28.7864 142.87 31.6014 138.148 36.3133 136.737ZM29.8879 148.634C29.8267 148.511 29.8267 148.45 29.7655 148.389L34.8446 147.224C35.4566 149.125 37.2312 150.351 39.1894 150.228L39.7401 155.441C35.3954 155.748 31.173 152.927 29.8879 148.634Z" fill="#D4EAFF"/>
<path d="M332.797 220.26C333.47 222.652 335.979 223.939 338.182 223.265C339.344 222.897 340.201 222.1 340.813 221.18L377.04 236.756C376.734 237.615 376.734 238.473 377.101 239.393C377.835 241.723 380.099 242.95 382.486 242.336C384.811 241.601 386.096 239.209 385.484 236.879C384.689 234.487 382.241 233.138 379.916 233.874C378.692 234.119 377.896 234.978 377.284 236.02L341.058 220.321C341.303 219.401 341.364 218.543 341.241 217.684C340.446 215.354 337.876 214.005 335.611 214.741C333.347 215.538 332.185 217.93 332.797 220.26Z" fill="#D4EAFF"/>
<path d="M61.8301 167.154C62.5644 169.484 64.9509 170.833 67.2763 170.097C68.439 169.729 69.3569 168.932 69.9076 168.074L106.195 183.65C105.828 184.508 105.89 185.428 106.134 186.287C106.807 188.617 109.255 189.966 111.581 189.292C113.906 188.556 115.13 186.164 114.518 183.834C113.845 181.503 111.336 180.154 109.072 180.89C107.97 181.197 107.052 181.994 106.501 182.975L70.1524 167.276C70.3972 166.541 70.4583 165.621 70.1524 164.762C69.5404 162.432 67.0927 161.021 64.7673 161.819C62.442 162.432 61.0957 164.885 61.8301 167.154Z" fill="#D4EAFF"/>
<path d="M380.528 555.944C381.14 558.213 383.588 559.685 385.975 558.949C387.137 558.581 387.994 557.784 388.728 556.68L424.955 572.502C424.465 573.238 424.649 574.219 424.771 575.077C425.628 577.346 428.076 578.634 430.279 577.96C432.727 577.285 434.073 574.955 433.338 572.563C432.543 570.233 430.156 568.884 427.709 569.497C426.607 569.988 425.75 570.662 425.139 571.705L388.973 556.067C389.095 555.27 389.279 554.227 388.851 553.246C388.361 551.223 385.791 549.751 383.404 550.487C381.324 551.161 379.978 553.737 380.528 555.944Z" fill="#D4EAFF"/>
<path d="M204.351 535.83C203.678 533.377 201.352 532.151 198.966 532.887C196.702 533.439 195.355 536.014 196.029 538.406C196.64 540.798 199.149 541.963 201.536 541.166C203.861 540.736 205.085 538.161 204.351 535.83Z" fill="#D4EAFF"/>
<path d="M321.965 384.484C323.127 388.164 326.86 390.31 330.716 389.206C331.144 389.145 331.327 388.899 331.633 388.715L393.255 499.404C391.726 500.385 390.991 502.286 391.42 504.31C392.154 506.64 394.602 507.867 396.988 507.131C399.252 506.518 400.599 504.126 399.926 501.796C399.191 499.466 396.744 498.116 394.479 498.852C394.296 498.914 394.235 498.975 393.99 499.098L332.49 388.47C334.142 387.244 335.244 385.465 335.611 383.38L402.74 387.918C402.679 389.451 402.924 390.984 403.475 392.64C405.861 401.409 415.224 406.377 423.975 403.801C432.787 401.225 437.804 391.966 435.173 383.135C432.603 374.427 423.363 369.337 414.49 371.913C407.514 373.998 403.046 380.191 402.74 387.121L335.733 382.522C335.672 381.909 335.611 381.173 335.489 380.559C334.326 376.88 330.41 374.734 326.799 375.837C323.066 376.88 320.986 380.805 321.965 384.484ZM414.734 372.71C423.118 370.196 431.869 375.04 434.378 383.442C436.825 391.843 431.991 400.673 423.608 403.065C415.285 405.579 406.596 400.796 404.026 392.395C403.658 390.923 403.352 389.39 403.414 387.98L407.514 388.225C407.575 389.022 407.575 389.697 407.881 390.494C409.594 396.258 415.53 399.508 421.221 397.791C426.973 396.074 430.339 390.126 428.564 384.361C426.851 378.536 420.915 375.286 415.163 377.064C410.39 378.413 407.391 382.706 407.391 387.428L403.414 387.121C403.72 380.621 408.064 374.611 414.734 372.71Z" fill="#D4EAFF"/>
<path d="M146.645 517.311C146.217 515.41 145.177 513.877 143.83 512.65L243.025 348.978C245.412 350.327 248.472 350.756 251.287 349.898C252.878 349.469 254.163 348.733 255.387 347.813L297.488 379.824C296.754 380.866 296.509 382.215 296.937 383.503C297.059 384.178 297.488 384.73 297.916 385.22L287.268 396.688C285.677 395.216 283.168 394.541 280.843 395.277C279.864 395.584 278.824 396.197 278.028 396.933L268.298 387.796C268.666 387.121 268.972 386.447 268.666 385.649C268.298 384.178 266.83 383.442 265.422 383.871C264.076 384.3 263.464 385.711 263.709 387.06C264.26 388.47 265.606 389.267 266.952 388.838C267.258 388.654 267.564 388.593 267.809 388.348L277.661 397.546C276.192 399.263 275.642 401.655 276.254 403.985C277.416 407.603 281.333 409.749 284.882 408.646C288.615 407.603 290.695 403.678 289.716 399.999C289.288 398.895 288.86 398.037 288.003 397.24L298.589 385.711C299.63 386.508 301.037 386.815 302.322 386.447C304.709 385.711 306.055 383.319 305.443 380.989C304.647 378.659 302.322 377.371 299.874 377.984C299.14 378.291 298.406 378.597 297.977 379.21L255.937 347.261C258.079 344.992 259.303 341.864 259.119 338.676L288.186 334.874C288.125 335.119 288.248 335.425 288.309 335.548C289.349 339.289 293.265 341.313 297.059 340.27C300.67 339.166 302.75 335.303 301.588 331.623C300.609 327.944 296.57 325.798 292.96 326.902C291.736 327.331 290.573 328.128 289.655 328.987L276.621 318.929C277.722 317.212 278.151 315.066 277.416 312.981C276.437 309.302 272.582 307.217 268.972 308.321C265.239 309.424 263.158 313.288 264.26 317.028C264.688 318.071 265.116 319.052 265.912 319.849L255.387 331.378C252.694 328.987 248.961 328.128 245.228 329.17C244.494 329.354 243.699 329.661 243.025 330.09L220.567 279.621C225.891 277.046 228.706 270.975 226.932 265.149C225.157 258.71 218.303 254.969 211.817 256.87C209.247 257.729 206.982 259.323 205.453 261.469L181.22 244.973L208.879 171.815C210.532 172.55 212.612 172.734 214.509 172.182C215.06 171.998 215.672 171.753 216.039 171.447L245.473 220.444C243.148 222.161 241.924 225.166 242.781 228.171C243.943 231.85 247.676 233.996 251.348 232.831C255.264 231.85 257.284 227.987 256.06 224.246C255.937 223.878 255.815 223.326 255.693 223.081L272.521 212.779C274.051 215.232 277.294 216.458 280.231 215.538C283.78 214.434 285.922 210.571 284.76 206.892C283.842 203.212 279.864 201.066 276.192 202.231C275.703 202.292 275.397 202.538 275.03 202.66L267.258 189.23C269.706 187.513 270.991 184.447 270.012 181.442C269.033 177.763 265.116 175.617 261.384 176.72C259.425 177.395 257.834 178.805 257.1 180.584L220.139 166.725C220.751 165.192 220.873 163.413 220.2 161.696C218.854 157.22 214.203 154.583 209.736 155.993C205.085 157.281 202.576 162.003 203.923 166.541C204.167 167.215 204.29 167.706 204.535 168.258L139.792 208.363C138.384 204.071 133.734 201.556 129.266 202.783C124.799 204.132 122.229 208.854 123.514 213.392C124.86 217.746 129.389 220.26 133.795 219.156L160.108 291.273C158.211 292.192 157.171 294.4 157.721 296.546C157.905 296.976 158.027 297.405 158.333 297.834L118.925 334.015C116.599 331.623 113.172 330.52 109.868 330.949L99.6486 268.031C99.8322 268.031 100.077 267.908 100.322 267.908C104.789 266.437 107.359 261.776 105.952 257.238C104.605 252.823 99.9546 250.247 95.4875 251.535C92.7949 252.332 90.8367 254.295 89.8576 256.686L13.6715 231.482C14.4058 229.029 14.5282 226.27 13.6715 223.572C11.4685 216.274 3.7581 212.043 -3.58514 214.189C-10.9284 216.397 -15.1507 224.123 -12.9478 231.482C-10.7448 238.902 -3.09558 243.011 4.30886 240.926C8.71481 239.577 11.9581 236.327 13.3655 232.279L89.6741 257.361C89.1845 258.771 89.1845 260.427 89.6741 262.021C90.8367 266.069 94.8143 268.583 98.7919 268.031L109.072 330.888C108.766 330.949 108.399 331.01 108.155 331.133C102.402 332.85 99.1591 338.86 100.872 344.563C102.464 350.327 108.583 353.577 114.274 351.921C117.089 351.063 119.231 349.162 120.577 346.893L164.575 361.856C164.514 362.408 164.575 362.96 164.759 363.512C165.126 364.983 166.289 366.026 167.696 366.455L138.078 509.645C136.548 509.277 134.896 509.461 133.244 509.952C127.553 511.73 124.371 517.801 125.962 523.505C127.614 529.269 133.611 532.458 139.425 530.618C145.116 529.024 148.298 523.014 146.645 517.311ZM173.081 360.445C172.408 359.342 171.429 358.422 170.144 357.993L179.629 340.883L237.518 340.025C237.579 340.761 237.64 341.313 237.702 341.987L173.081 360.445ZM238.803 334.383L175.223 302.311C172.714 296.73 169.654 290.353 166.533 283.852L175.651 259.814L240.639 331.807C240.027 332.482 239.231 333.402 238.803 334.383ZM166.227 293.91C165.738 292.683 164.942 291.641 163.718 291.15L166.044 284.772C168.92 290.721 171.612 296.424 174.183 301.698L165.677 297.405C166.35 296.424 166.472 295.136 166.227 293.91ZM166.044 282.933C154.478 258.649 141.322 231.053 135.325 218.482C135.998 218.236 136.61 217.868 137.222 217.378L174.978 259.139L166.044 282.933ZM137.711 216.826C137.833 216.765 137.895 216.581 138.078 216.519L180.241 245.219L175.345 258.342L137.711 216.826ZM134.59 218.788C140.648 231.421 153.927 259.2 165.615 283.852L162.984 290.905C162.311 290.721 161.515 290.721 160.904 290.905L134.59 218.788ZM165.309 298.079L174.794 302.924C178.711 311.264 182.077 318.378 184.585 323.283C184.585 323.345 184.218 323.283 184.218 323.406L164.514 298.815C164.698 298.509 164.942 298.325 165.309 298.079ZM190.766 325.798C190.215 323.529 187.829 322.241 185.442 322.854C185.381 322.854 185.259 322.854 185.136 323.038C183.239 318.929 179.935 312 175.835 303.476L238.436 334.996C237.885 336.345 237.579 337.756 237.457 339.289L179.996 340.147L184.953 331.072C185.871 331.501 186.788 331.562 187.951 331.255C190.399 330.642 191.562 328.189 190.766 325.798ZM266.463 320.34C268.176 321.812 270.501 322.302 272.827 321.689C274.295 321.321 275.397 320.585 276.131 319.604L289.165 329.722C288.248 331.072 287.758 332.543 288.125 334.26L259.058 337.94C258.875 337.388 258.691 336.959 258.691 336.468C258.079 334.628 257.161 333.034 255.876 331.807L266.463 320.34ZM212.061 257.545C218.058 255.766 224.484 259.2 226.32 265.333C227.788 270.791 225.279 276.494 220.2 278.824L217.385 272.385C219.16 271.342 220.078 269.257 219.405 267.234C218.732 264.904 216.406 263.677 214.02 264.29C213.102 264.536 212.429 265.149 211.817 265.762L206.003 261.837C207.35 259.814 209.675 258.342 212.061 257.545ZM218.609 279.56C212.49 281.4 206.187 277.965 204.351 271.894C203.372 268.583 204.045 265.21 205.758 262.512L211.572 266.498C211.082 267.54 210.838 268.706 211.205 269.871C211.817 272.14 214.326 273.427 216.59 272.692C216.773 272.753 216.773 272.692 216.773 272.692L219.772 279.253C219.221 279.315 218.915 279.498 218.609 279.56ZM204.963 262.021C203.188 264.965 202.515 268.46 203.617 272.017C205.453 278.456 212.367 282.135 218.732 280.234C219.221 280.173 219.588 279.989 219.894 279.866L242.413 330.458C242.046 330.642 241.679 330.888 241.434 331.255L175.957 258.894L181.036 245.525L204.963 262.021ZM274.295 203.028C271.725 204.684 270.685 207.689 271.48 210.816C271.664 211.245 271.725 211.675 272.031 212.104L255.203 222.284C254.469 221.119 253.367 220.199 252.021 219.708L261.567 190.089C262.791 190.396 264.015 190.396 265.361 190.028C265.789 189.966 266.095 189.721 266.524 189.537L274.295 203.028ZM256.733 181.258C256.366 182.485 256.304 183.957 256.733 185.306C257.467 187.452 259.058 189.108 260.833 189.844L251.164 219.463C249.94 219.156 248.716 219.156 247.37 219.524C246.942 219.585 246.575 219.831 246.208 220.076L216.896 171.079C218.303 170.159 219.221 168.871 219.955 167.399L256.733 181.258ZM207.961 171.447L180.424 244.421L138.568 215.906C140.036 213.944 140.587 211.491 140.098 208.977L205.147 168.687C205.881 169.913 206.921 170.833 207.961 171.447ZM158.823 298.263C159.986 299.367 161.638 299.919 163.29 299.429C163.412 299.306 163.657 299.245 163.841 299.245L183.79 324.019C182.627 325.062 182.138 326.779 182.627 328.373C182.933 329.416 183.545 330.274 184.341 330.704L179.2 340.209L121.984 341.006C121.984 340.209 121.862 339.228 121.617 338.43C121.128 336.897 120.516 335.548 119.475 334.444L158.823 298.263ZM121.005 346.096C121.617 344.808 122.046 343.275 122.046 341.742L178.772 340.883L169.409 357.87C168.92 357.809 168.308 357.809 167.757 357.993C166.227 358.483 164.942 359.648 164.636 360.997L121.005 346.096ZM168.063 367.682L175.468 399.447C175.468 399.447 175.468 399.508 175.406 399.508C170.878 400.858 168.369 405.579 169.593 410.056C171 414.594 175.651 417.047 180.118 415.882C184.708 414.471 187.278 409.688 185.871 405.15C184.708 400.98 180.486 398.527 176.263 399.324L168.614 366.578C169.287 366.639 169.715 366.516 170.144 366.394C172.408 365.781 173.632 363.45 173.203 361.181L237.885 342.723C238.742 345.237 240.333 347.2 242.23 348.487L143.219 512.037C141.995 510.995 140.404 510.197 138.813 509.768L168.063 367.682Z" fill="#D4EAFF"/>
<path d="M137.099 133.303C135.324 132.935 133.549 133.058 131.775 133.61C125.533 135.45 121.984 142.011 123.819 148.205C125.655 154.399 132.203 157.894 138.445 156.116C144.625 154.276 148.113 147.714 146.278 141.521C146.216 141.03 146.094 140.723 145.849 140.294L178.343 125.761C179.383 127.232 181.403 128.029 183.177 127.478C185.564 126.803 186.91 124.35 186.298 122.02C185.503 119.689 183.116 118.402 180.73 119.076C178.527 119.812 177.058 122.265 177.915 124.595C177.915 124.718 177.915 124.902 177.976 125.025L145.543 139.681C144.075 136.553 141.198 134.407 137.894 133.487L150.867 81.9756C151.601 82.1595 152.458 82.2209 153.254 81.9756C155.579 81.3623 156.925 78.9094 156.252 76.5178C155.518 74.1875 153.07 72.961 150.806 73.5743C148.481 74.3101 147.134 76.7631 147.869 79.032C148.236 80.2585 149.092 81.1784 150.133 81.7916L137.099 133.303ZM145.482 141.766C147.195 147.469 143.952 153.663 138.078 155.38C132.264 157.097 126.267 153.785 124.554 147.96C122.779 142.195 126.084 136.063 131.897 134.407C133.488 133.855 135.263 133.794 136.793 134.162L135.385 140.11C134.712 140.049 134.161 140.049 133.61 140.233C131.346 140.907 130 143.36 130.673 145.752C131.285 148.082 133.733 149.37 136.058 148.695C138.384 148.082 139.73 145.752 139.179 143.483L145.115 140.785C145.237 140.907 145.421 141.337 145.482 141.766ZM144.809 139.926L138.934 142.563C138.322 141.337 137.282 140.539 136.119 140.172L137.588 134.223C140.648 134.959 143.34 137.044 144.809 139.926Z" fill="#D4EAFF"/>
<path d="M414.062 189.966C414.307 190.028 414.552 190.028 414.735 189.966L415.225 197.202C413.94 197.386 413.022 198.306 413.022 199.471C412.96 200.882 413.94 202.17 415.347 202.292C416.693 202.476 418.04 201.434 418.162 200.023C418.284 198.613 417.183 197.264 415.837 197.141C415.837 197.141 415.775 197.141 415.653 197.141L415.286 189.905C420.059 189.844 424.343 186.103 424.832 181.197C424.954 180.522 424.832 179.848 424.832 179.112L494.165 169.423C494.348 170.404 495.266 171.324 496.368 171.324C497.836 171.508 499.121 170.465 499.182 169.055C499.305 167.645 498.387 166.357 496.979 166.173C495.572 166.05 494.287 167.093 494.165 168.503C494.165 168.564 494.103 168.81 494.103 168.932L424.771 178.683C424.159 174.39 420.671 170.833 416.143 170.404C410.758 169.791 406.046 173.838 405.434 179.173C404.822 184.631 408.738 189.414 414.062 189.966ZM424.22 181.197C423.669 185.919 419.753 189.476 415.163 189.537L414.735 184.938C416.999 184.999 418.774 183.405 419.019 181.381C418.957 180.89 418.896 180.461 418.835 180.093L424.22 179.419C424.281 179.848 424.343 180.522 424.22 181.197ZM415.959 170.956C420.243 171.385 423.547 174.758 424.159 178.867L418.835 179.603C418.407 178.07 417.06 176.966 415.347 176.782C413.205 176.536 411.186 178.192 410.941 180.4C410.758 182.669 412.287 184.57 414.49 184.815L414.735 189.537C414.674 189.537 414.307 189.537 414.123 189.537C408.922 188.924 405.372 184.386 405.801 179.235C406.229 174.145 410.819 170.465 415.959 170.956Z" fill="#D4EAFF"/>
<path d="M104.667 401.103C102.709 394.603 95.9773 390.862 89.4907 392.824C87.349 393.376 85.5743 394.541 84.1057 395.952L34.7224 351.308C35.5791 350.204 35.9463 348.671 35.5179 347.384C34.7836 345.053 32.397 343.643 30.0717 344.379C27.7463 345.115 26.4001 347.506 27.1344 349.898C27.7463 352.167 30.2552 353.516 32.5194 352.78C33.1313 352.596 33.7433 352.228 34.1716 351.799L83.4938 396.565C80.9236 399.692 79.8833 403.801 81.1072 407.971C81.1072 408.032 81.2296 408.216 81.1684 408.4L72.4177 411.589C71.561 409.565 69.358 408.646 67.2162 409.136C64.8909 409.872 63.6058 412.325 64.2789 414.717C64.9521 416.924 67.3386 418.273 69.664 417.66C71.9893 416.986 73.2744 414.533 72.6013 412.325L81.5968 409.075C83.8609 414.901 90.2863 418.089 96.4056 416.25C102.831 414.41 106.564 407.419 104.667 401.103ZM81.9639 407.848C80.8012 404.046 81.7803 399.999 84.2281 397.117L89.4295 401.961C88.634 402.943 88.3281 404.23 88.6952 405.702L82.0863 408.155C82.0251 407.971 81.9639 407.971 81.9639 407.848ZM82.2699 408.83L88.94 406.438C89.8579 408.278 92.0609 409.382 94.1415 408.768C96.4668 408.032 97.7519 405.641 97.0788 403.372C96.4056 401.103 94.0191 399.631 91.6325 400.367C90.9594 400.612 90.4086 400.98 89.9191 401.348L84.6564 396.626C86.0027 395.277 87.7161 394.173 89.5519 393.56C95.7325 391.904 102.097 395.216 103.871 401.348C105.707 407.358 102.219 413.858 96.1608 415.698C90.4698 417.231 84.4729 414.165 82.2699 408.83Z" fill="#D4EAFF"/>
<path d="M311.685 280.295C313.582 286.734 320.497 290.475 326.861 288.574C328.819 288.022 330.41 287.041 331.695 285.692L351.094 305.07C350.421 306.174 349.931 307.646 350.359 309.056C351.033 311.264 353.236 312.552 355.316 312.184L357.397 320.217C355.133 321.014 354.092 323.345 354.827 325.614C355.316 327.882 357.825 329.232 360.212 328.557C362.415 327.821 363.761 325.368 363.088 322.977C363.088 322.854 362.904 322.547 362.843 322.363L377.346 313.901C378.264 315.372 380.283 316.108 382.058 315.556C384.444 314.882 385.668 312.429 385.056 310.099C384.322 307.768 381.935 306.481 379.549 307.155C377.285 307.83 375.816 310.221 376.612 312.613C376.673 312.797 376.795 312.981 376.795 313.165L362.476 321.75C361.497 320.401 359.906 319.665 358.192 319.91L356.173 311.938C358.315 311.141 359.416 308.75 358.743 306.481C358.315 304.212 355.744 302.924 353.358 303.598C352.807 303.721 352.195 304.028 351.767 304.457L332.368 285.14C335.183 282.013 336.407 277.536 335.183 273.305C333.225 266.804 326.372 263.125 319.885 265.026C313.521 266.927 309.788 273.795 311.685 280.295ZM334.449 273.55C335.612 277.597 334.51 281.706 331.879 284.588L326.8 279.621C327.718 278.578 328.085 277.045 327.657 275.574C326.922 273.243 324.536 271.955 322.21 272.569C319.885 273.305 318.722 275.696 319.273 278.088C320.007 280.418 322.455 281.706 324.658 281.031C325.331 280.97 325.821 280.602 326.372 280.234L331.328 285.201C330.043 286.428 328.513 287.348 326.739 287.9C320.558 289.617 314.255 286.244 312.481 280.112C310.706 274.102 314.072 267.663 320.069 265.884C326.188 263.983 332.674 267.479 334.449 273.55Z" fill="#D4EAFF"/>
<path d="M-36.5681 279.437C-34.7323 285.937 -27.9398 289.678 -21.4533 287.716C-19.5563 287.103 -17.8429 286.06 -16.5578 284.834L2.90178 304.212C1.98388 305.316 1.67792 306.787 2.10627 308.259C2.71821 310.405 4.85999 311.755 6.94057 311.387L9.08235 319.359C7.00177 320.095 5.7167 322.486 6.32863 324.694C7.06296 327.024 9.44951 328.435 11.8361 327.637C14.1614 326.963 15.4465 324.633 14.7734 322.241C14.651 321.996 14.5898 321.812 14.4674 321.628L28.9091 313.042C29.9494 314.453 31.8464 315.189 33.7434 314.698C36.0688 313.962 37.415 311.509 36.7419 309.179C36.0076 306.849 33.5598 305.561 31.2345 306.235C28.9091 306.849 27.5628 309.363 28.2972 311.693C28.4196 311.877 28.5419 312.123 28.5419 312.306L14.1002 320.769C13.1211 319.481 11.4689 318.807 9.75549 319.052L7.79728 311.019C9.87786 310.221 11.1017 307.891 10.4286 305.684C9.75549 303.292 7.30773 301.943 5.04356 302.679C4.37043 302.863 3.88088 303.169 3.45252 303.537L-16.0071 284.159C-13.1922 281.032 -11.9683 276.678 -13.2533 272.385C-15.1504 265.885 -22.004 262.144 -28.3682 264.106C-34.8547 266.13 -38.5263 272.937 -36.5681 279.437ZM-13.9265 272.692C-12.7638 276.739 -13.9265 280.909 -16.5578 283.791L-21.6369 278.824C-20.6578 277.659 -20.2906 276.126 -20.719 274.715C-21.3921 272.385 -23.901 271.036 -26.2264 271.71C-28.5518 272.446 -29.7756 274.838 -29.2249 277.168C-28.4906 279.437 -26.0428 280.786 -23.7175 280.173C-23.1055 279.989 -22.616 279.621 -22.1264 279.376L-17.1697 284.343C-18.3936 285.508 -19.9235 286.367 -21.7593 286.98C-27.7562 288.758 -34.0592 285.324 -35.895 279.253C-37.7308 273.182 -34.304 266.682 -28.2458 264.965C-22.0652 263.125 -15.7011 266.621 -13.9265 272.692Z" fill="#D4EAFF"/>
<path d="M345.769 560.728C348.339 554.473 345.218 547.298 339.038 544.661C337.202 544.048 335.244 543.803 333.469 543.925L330.47 516.636C331.756 516.33 333.102 515.41 333.775 514.061C334.448 511.914 333.653 509.645 331.756 508.419L335.121 500.876C337.263 501.551 339.711 500.569 340.506 498.423C341.485 496.215 340.445 493.701 338.303 492.781C335.855 491.862 333.347 492.904 332.551 495.112C332.429 495.48 332.367 495.664 332.245 495.848L315.6 493.395C315.723 491.678 314.744 489.899 313.03 489.163C310.644 488.182 308.074 489.286 307.339 491.555C306.299 493.64 307.4 496.277 309.665 497.197C311.868 498.178 314.377 497.135 315.356 494.928C315.478 494.621 315.539 494.437 315.539 494.192L332.184 496.583C332 498.239 332.918 499.834 334.387 500.631L330.96 508.235C328.818 507.56 326.37 508.542 325.575 510.688C324.535 512.957 325.636 515.532 327.961 516.514C328.451 516.698 329.124 516.698 329.797 516.759L332.735 544.232C328.696 544.722 325.024 547.482 323.25 551.652C320.741 557.784 323.617 565.02 329.92 567.596C335.978 569.988 343.199 567.044 345.769 560.728ZM323.862 551.775C325.269 547.85 328.879 545.274 332.673 544.845L333.53 551.897C332.184 552.081 330.96 553.124 330.409 554.411C329.43 556.68 330.593 559.317 332.735 560.176C335.121 561.157 337.569 560.053 338.426 557.907C339.466 555.577 338.426 553.001 336.039 552.02C335.611 551.775 334.876 551.652 334.387 551.775L333.469 544.784C335.305 544.661 337.018 544.968 338.732 545.581C344.545 547.911 347.482 554.657 345.157 560.544C342.709 566.308 335.978 569.068 330.103 566.737C324.229 564.407 321.291 557.6 323.862 551.775Z" fill="#D4EAFF"/>
<path d="M306.85 71.4893C310.583 83.8153 321.659 92.0327 333.714 92.5846L332.246 132.138C331.205 132.2 330.165 132.445 329.247 132.751C325.025 133.917 321.782 136.676 319.64 140.049L288.921 118.892C289.532 117.911 289.716 116.685 289.288 115.52C288.553 113.251 286.167 111.901 283.841 112.515C281.516 113.251 280.292 115.704 280.904 118.034C281.639 120.303 284.086 121.713 286.412 120.977C287.268 120.732 288.064 120.18 288.431 119.444L319.273 140.785C317.314 144.526 316.641 149.002 317.926 153.417C320.558 162.187 329.859 167.215 338.426 164.578C347.361 162.003 352.317 152.682 349.747 143.912C347.544 136.431 340.507 131.709 333.164 132.016L334.449 92.5232C337.447 92.5846 340.446 92.278 343.444 91.3581C359.049 86.6975 367.983 70.2628 363.332 54.564C358.804 38.9879 342.281 30.0346 326.616 34.6339C311.195 39.3558 302.138 55.7905 306.85 71.4893ZM329.431 133.487C330.41 133.242 331.328 132.997 332.307 132.935L332.001 142.257C331.511 142.318 330.777 142.379 330.288 142.502C328.758 142.992 327.534 143.79 326.677 144.955L320.435 140.54C322.332 137.228 325.392 134.652 329.431 133.487ZM349.074 144.219C351.46 152.498 346.749 161.389 338.304 163.904C330.043 166.418 321.292 161.635 318.722 153.172C317.559 149.063 317.926 144.771 319.946 141.214L326.188 145.629C325.27 147.224 324.902 149.247 325.514 151.21C326.555 154.951 330.41 156.974 334.143 155.87C337.753 154.767 339.834 150.842 338.793 147.224C337.937 144.403 335.55 142.502 332.796 142.257L333.102 132.813C340.262 132.506 346.932 137.044 349.074 144.219ZM362.781 54.8706C367.248 70.0789 358.681 86.2069 343.383 90.7449C340.384 91.6034 337.57 91.9713 334.51 91.91L335.122 77.6216C336.284 77.6216 337.692 77.4377 338.977 77.0697C346.259 74.8008 350.604 67.1353 348.401 59.8378C346.259 52.4177 338.426 48.1864 331.083 50.394C323.74 52.5404 319.517 60.2671 321.782 67.7486C323.434 73.4516 328.574 77.315 334.204 77.6216L333.837 92.0327C321.904 91.3581 311.134 83.386 307.585 71.3666C303.056 56.0971 311.746 40.153 326.983 35.6151C342.22 30.8932 358.314 39.7237 362.781 54.8706Z" fill="#D4EAFF"/>
</svg>
