<svg width="298" height="215" viewBox="0 0 298 215" fill="none" xmlns="http://www.w3.org/2000/svg">
<path d="M33.0202 152.227C45.8051 156.121 59.1848 149.089 63.0318 136.329C64.438 132.178 64.4697 127.981 63.5914 124.122L190.417 91.5017C191.26 94.0791 193.446 96.3639 195.996 97.0748C200.665 98.45 205.49 96.0444 206.848 91.3846C208.206 86.7247 205.61 81.909 201.035 80.611C196.706 79.205 191.727 81.7957 190.446 86.363C190.048 87.5974 190.007 88.9708 190.289 90.1437L63.2773 122.61C60.9344 115.032 55.2144 108.873 47.0981 106.354C46.9283 106.369 46.4958 106.323 46.2939 105.999L50.6017 88.1459C54.8665 88.8728 58.7337 86.2972 60.3257 82.301C61.607 77.7337 59.0112 72.9179 54.3266 71.373C49.9208 70.0596 45.1886 72.5423 43.6446 77.0478C42.2865 81.7077 44.8663 86.3536 49.1791 87.5898L44.8872 105.612C32.817 102.938 20.5651 110.125 17.0705 122.083C13.2235 134.844 20.5911 148.473 33.0202 152.227ZM46.5311 107.604C54.029 109.921 59.64 115.834 61.7649 122.918L48.2022 126.2C47.4682 123.869 45.6545 121.893 42.8251 120.951L46.0057 107.48C46.3613 107.619 46.4382 107.527 46.5311 107.604ZM44.599 107.094L41.3416 120.657C37.3557 120.162 33.0399 122.521 31.8964 126.734C30.6152 131.301 33.1181 136.039 37.6168 137.43C42.1155 138.82 47.1105 136.4 48.4686 131.74C48.7729 130.428 48.8145 129.055 48.7022 127.866L62.2489 124.415C63.1111 128.103 62.9706 132.054 61.9488 135.742C58.0216 147.653 45.5678 154.516 33.6481 150.715C21.8373 147.161 14.8896 134.35 18.3842 122.392C21.975 111.452 33.426 104.852 44.599 107.094Z" fill="#E7F3FF"/>
<path d="M197.101 85.8221C198.315 90.2836 202.917 92.9513 207.184 91.3483C209.262 90.5425 210.851 88.8491 212.023 86.759L278.703 115.312C277.912 116.826 278.204 118.789 278.525 120.391C280.194 124.767 284.703 127.185 288.627 125.676C293.117 124.091 295.379 119.54 293.961 114.82C292.414 110.332 288.016 107.923 283.545 109.268C281.559 110.323 279.989 111.776 279.049 113.763L212.452 85.5803C212.697 83.9019 212.96 81.9826 212.102 80.0958C211.072 76.134 206.36 73.4575 202.093 75.0604C198.299 76.337 195.989 81.49 197.101 85.8221Z" fill="#E7F3FF"/>
</svg>
