<svg width="148" height="114" viewBox="0 0 148 114" fill="none" xmlns="http://www.w3.org/2000/svg">
<path d="M4.60294 89.6634C8.17306 91.1196 12.2049 89.6224 13.8167 85.956C14.0429 85.5878 13.9715 85.2901 14.0253 84.9376L138.43 108.276C138.208 110.077 139.201 111.855 141.03 112.818C143.289 113.742 145.794 112.645 146.751 110.342C147.725 108.211 146.746 105.649 144.525 104.679C142.265 103.755 139.666 104.774 138.787 106.983C138.717 107.163 138.725 107.249 138.663 107.516L14.3835 84.1229C14.4952 82.0705 13.8311 80.0888 12.4628 78.4754L58.7898 29.8035C59.9292 30.8294 61.2638 31.6202 62.8879 32.2544C71.1513 36.0203 80.9442 31.9995 84.5487 23.6326C88.1924 15.2186 84.277 5.45129 75.8102 1.83424C67.4768 -1.75151 57.6678 2.09699 53.9851 10.5579C51.1359 17.2483 53.0459 24.6348 58.177 29.2944L11.881 77.8332C11.3706 77.4887 10.766 77.0658 10.2165 76.7683C6.64637 75.3121 2.49734 76.9502 1.04178 80.4286C-0.539019 83.9618 1.14996 88.0662 4.60294 89.6634ZM54.7541 10.8789C58.1715 2.8332 67.4795 -0.795838 75.5382 2.64114C83.5579 6.12512 87.2605 15.4773 83.7488 23.4447C80.3704 31.4434 71.1486 35.0646 63.0508 31.6746C61.6852 31.017 60.3116 30.2731 59.2665 29.3255L62.0715 26.3325C62.7233 26.7945 63.2418 27.2252 64.0498 27.4992C69.574 29.8636 75.8602 27.3789 78.1721 21.9107C80.5231 16.3954 78.0987 10.0118 72.5354 7.69439C66.9641 5.29083 60.6779 7.7755 58.3741 13.3299C56.3651 17.8581 57.7511 22.9025 61.3806 25.9175L58.6066 28.7773C53.8055 24.3917 51.9587 17.2168 54.7541 10.8789Z" fill="#D4EAFF"/>
</svg>
