<svg width="420" height="150" viewBox="0 0 420 150" fill="none" xmlns="http://www.w3.org/2000/svg">
<rect width="420" height="150" fill="white"/>
<path d="M179.963 60.8374H185.219L193.875 74.2917L202.531 60.8374H207.941V89.2924H202.84V68.879L193.875 82.3333H193.72L184.91 68.879V89.2924H179.963V60.8374Z" fill="#1D3B6C"/>
<path d="M213.661 60.8374H234.837V65.3222H218.762V72.7452H232.983V77.2299H218.762V84.8076H234.992V89.2924H213.661V60.8374Z" fill="#1D3B6C"/>
<path d="M244.576 65.3222V84.8076H250.141C256.169 84.8076 260.033 80.7868 260.033 75.2195V75.0649C260.033 69.4976 256.169 65.3222 250.141 65.3222H244.576ZM239.475 60.8374H250.141C259.106 60.8374 265.289 67.0233 265.289 75.0649V75.2195C265.289 83.2612 259.106 89.447 250.141 89.447H239.475V60.8374Z" fill="#1D3B6C"/>
<path d="M274.717 60.8374H269.771V89.447H274.717V60.8374Z" fill="#1D3B6C"/>
<path d="M278.891 75.0651C278.891 66.8688 284.92 60.219 293.576 60.219C298.831 60.219 301.923 62.0748 304.705 64.7037L301.459 68.4153C299.295 66.2502 296.822 64.8584 293.576 64.8584C288.166 64.8584 284.147 69.3431 284.147 74.9104V75.0651C284.147 80.6323 288.166 85.1171 293.576 85.1171C297.131 85.1171 299.295 83.7253 301.768 81.4056L305.014 84.6532C302.077 87.7461 298.831 89.7565 293.421 89.7565C285.074 89.7565 278.891 83.2613 278.891 75.0651Z" fill="#1D3B6C"/>
<path d="M326.037 78.0031L321.09 66.5593L316.144 78.0031H326.037ZM318.926 60.5281H323.563L336.084 89.2923H330.828L327.891 82.3332H314.443L311.507 89.2923H306.406L318.926 60.5281Z" fill="#1D3B6C"/>
<path d="M139.155 60.219L135.291 74.6011L131.427 60.219H123.389L119.834 74.1372L115.969 60.219H107.777L115.815 89.7565H124.007L127.562 75.8383L131.427 89.7565H139.465L147.193 60.219H139.155Z" fill="#1D3B6C"/>
<path d="M103.14 71.8172C102.676 71.6626 102.058 71.3533 101.439 71.1987C100.976 71.1987 100.203 71.044 98.9661 70.7347C97.1112 70.2708 95.8746 69.8068 94.9471 69.4975C94.0197 69.0336 94.0197 68.5697 93.8651 68.415C93.8651 68.2604 93.8651 67.9511 94.0197 67.9511C94.3288 67.6418 94.638 67.3325 95.1017 67.1779C95.72 66.7139 96.3383 66.5593 96.9566 66.5593C97.7295 66.5593 98.5024 66.7139 99.1207 67.1779C99.2752 67.3325 99.5844 67.4871 99.739 67.4871C100.512 68.1057 100.976 68.7243 101.285 69.6522L109.013 67.4871C106.231 60.0641 97.4203 60.2188 97.4203 60.2188C92.3194 60.2188 89.0733 62.0745 87.373 64.0849C86.291 65.4767 85.6727 67.1779 85.6727 69.1883C85.6727 72.7451 87.9913 75.8381 91.2373 76.9206C92.0102 77.2299 92.9377 77.5392 94.1743 77.8485L94.638 78.0031C95.8746 78.3124 96.9566 78.6217 97.5749 78.931C98.1932 79.0856 98.8115 79.3949 99.2752 79.5496C99.739 79.7042 99.8935 80.0135 100.048 80.0135C100.203 80.1682 100.203 80.3228 100.203 80.6321C100.203 80.7867 100.203 80.9414 100.203 81.096L100.048 81.2507C100.048 81.4053 100.048 81.4053 99.8935 81.56C99.739 81.7146 99.5844 81.8693 99.4298 82.0239C99.2752 82.1786 99.1207 82.1786 98.9661 82.3332C98.1932 82.7972 97.4203 83.1064 96.3383 83.1064C94.0197 83.1064 92.0102 81.2507 91.8556 78.931L84.8998 80.9414C85.2089 83.8797 87.0638 88.8284 96.0292 89.7563C96.0292 89.7563 99.5844 90.0655 103.14 88.5191C103.14 88.5191 109.323 86.354 109.323 80.0135C109.168 76.1474 106.695 72.8998 103.14 71.8172Z" fill="#1D3B6C"/>
<path d="M163.424 71.8175C162.96 71.6628 162.342 71.3536 161.723 71.1989C161.26 71.0443 160.487 70.8896 159.25 70.5803C157.395 70.1164 156.159 69.6524 155.231 69.3431C154.304 68.8792 154.149 68.4153 154.149 68.2606C154.149 68.106 154.149 67.7967 154.304 67.7967C154.613 67.4874 154.922 67.1781 155.386 67.0234C156.004 66.7142 156.622 66.5595 157.241 66.5595C158.014 66.5595 158.786 66.7142 159.405 67.1781C159.559 67.3327 159.869 67.4874 160.023 67.4874C160.796 68.106 161.26 68.7246 161.569 69.6524L169.298 67.4874C166.67 60.0644 157.859 60.219 157.859 60.219C152.758 60.219 149.357 62.0748 147.812 64.0852C146.73 65.477 146.111 67.1781 146.111 69.1885C146.111 72.7454 148.43 75.8383 151.676 76.9208C152.449 77.2301 153.376 77.5394 154.613 77.8487L155.077 78.0034C156.313 78.3126 157.395 78.6219 158.014 78.9312C158.632 79.0859 159.25 79.3952 159.714 79.5498C160.178 79.7045 160.332 80.0138 160.487 80.0138C160.641 80.1684 160.641 80.3231 160.641 80.6323C160.641 80.787 160.641 80.9416 160.641 81.0963L160.487 81.2509C160.487 81.4056 160.487 81.4056 160.332 81.5602C160.178 81.7149 160.023 81.8695 159.869 82.0242C159.714 82.1788 159.559 82.1788 159.405 82.3335C158.632 82.7974 157.859 83.1067 156.777 83.1067C154.458 83.1067 152.449 81.2509 152.294 78.9312L145.184 80.9416C145.493 83.8799 147.348 88.8286 156.313 89.7565C156.313 89.7565 159.869 90.0658 163.424 88.5193C163.424 88.5193 169.607 86.3543 169.607 80.0138C169.607 76.1476 166.979 72.9 163.424 71.8175Z" fill="#1D3B6C"/>
<path d="M339.33 60.8374H344.431V84.8076H359.425V89.2924H339.33V60.8374Z" fill="#1D3B6C"/>
</svg>
