<svg width="361" height="445" viewBox="0 0 361 445" fill="none" xmlns="http://www.w3.org/2000/svg">
<path opacity="0.35" d="M132.023 429.345C131.883 426.904 131.001 424.799 129.643 422.949L288.925 244.856C291.55 247.01 295.168 248.265 298.884 247.871C300.937 247.693 302.712 247.112 304.407 246.266L348.848 295.135C347.717 296.231 347.083 297.798 347.349 299.558C347.347 300.357 347.734 301.193 348.164 301.883L332.415 313.503C330.757 311.322 327.91 309.901 324.846 310.252C323.592 310.432 322.176 310.883 321.06 311.664L311.15 298.191C311.782 297.423 312.245 296.684 312.072 295.672C311.996 293.811 310.387 292.524 308.481 292.747C306.722 293.013 305.626 294.52 305.673 296.213C305.991 298.068 307.526 299.333 309.264 299.139C309.623 299.008 310.129 298.921 310.437 298.695L320.422 312.19C318.196 313.995 316.966 316.74 317.244 319.782C317.811 324.51 322.17 328.068 326.825 327.479C331.604 327.007 335.067 322.7 334.668 317.942C334.386 316.498 334.089 315.369 333.161 314.208L348.786 302.471C349.86 303.675 351.5 304.332 353.215 304.212C356.353 303.882 358.529 301.184 358.228 298.215C357.782 295.202 355.207 293.143 352.063 293.23C351.124 293.426 350.164 293.695 349.48 294.367L305.09 245.593C308.247 243.351 310.469 239.707 311.014 235.795L347.571 237.83C347.483 238.123 347.54 238.46 347.547 238.702C348.019 243.481 352.253 246.922 357.179 246.494C361.885 246.001 365.348 241.693 364.708 236.942C364.309 232.185 359.877 228.605 355.149 229.172C353.485 229.387 351.907 230.109 350.601 230.992L336.884 215.568C338.647 213.703 339.716 211.229 339.276 208.458C338.878 203.7 334.643 200.26 329.915 200.827C325.113 201.372 321.673 205.606 322.144 210.386C322.449 211.757 322.702 213.033 323.461 214.222L307.932 225.909C305.171 222.355 300.785 220.467 295.955 220.844C295.061 220.893 293.954 221.117 293.044 221.481L276.973 154.421C284.109 152.504 288.955 145.737 288.066 138.113C287.376 129.83 279.726 123.677 271.398 124.513C268.07 124.945 264.915 126.388 262.462 128.683L236.722 103.063L287.39 19.6744C289.241 20.9542 291.753 21.6348 294.216 21.4211C294.891 21.3056 295.734 21.1612 296.284 20.928L321.304 87.7399C318.104 89.3295 315.875 92.7316 316.225 96.5947C316.792 101.323 320.909 104.888 325.659 104.248C330.709 103.938 334.077 99.6811 333.407 94.762C333.394 94.2782 333.278 93.6037 333.147 93.2443L356.189 84.4716C357.492 87.824 361.187 90.1418 365.021 89.6239C369.676 89.0347 373.168 84.8955 372.623 80.0939C372.371 75.381 367.939 71.8008 363.189 72.441C362.558 72.4101 362.104 72.5922 361.671 72.7011L355.209 54.4366C358.628 52.9135 360.879 49.4382 360.31 45.5086C359.985 40.7735 355.626 37.2155 350.752 37.7381C348.171 38.076 345.888 39.5433 344.659 41.4896L302.416 15.9894C303.505 14.2406 304.075 12.0948 303.648 9.80719C303.003 4.01599 297.899 -0.247501 292.107 0.397442C286.045 0.880472 281.98 6.12482 282.602 11.9893C282.747 12.8324 282.862 13.5069 282.956 14.2547L194.208 48.6214C193.445 42.9544 188.296 38.8374 182.527 39.4092C176.736 40.0541 172.524 45.2541 173.051 51.1696C173.74 56.8143 178.721 60.9602 184.35 60.5861L200.19 155.077C197.572 155.803 195.8 158.224 196.02 160.929C196.158 161.53 196.171 162.014 196.529 162.682L139.855 198.046C137.533 194.625 133.552 192.46 129.405 192.164L131.189 112.602C131.431 112.595 131.746 112.611 132.061 112.626C137.874 111.908 142.087 106.708 141.464 100.844C140.819 95.0523 135.692 90.8621 129.923 91.4338C126.448 91.8208 123.549 93.7408 121.834 96.4994L33.7712 48.3334C35.266 45.5083 36.044 42.1464 35.5838 38.6495C34.5452 29.1417 26.025 22.1654 16.5173 23.2041C7.00947 24.2427 0.033055 32.7628 1.04951 42.3438C2.06597 51.9249 10.5573 58.7326 20.094 57.8626C25.812 57.1955 30.5618 53.9169 33.2411 49.292L121.377 97.4803C120.406 99.1047 120.1 101.171 120.352 103.245C120.932 108.457 125.158 112.455 130.126 112.68L128.386 192.095C127.998 192.058 127.588 192.093 127.177 192.129C119.744 192.916 114.385 199.528 115.172 206.961C115.813 214.35 122.571 219.753 129.96 219.112C133.603 218.697 136.722 216.843 138.832 214.364L189.459 242.802C189.26 243.461 189.207 244.165 189.249 244.817C189.325 246.679 190.53 248.243 192.199 249.068L123.067 418C121.229 417.204 119.215 416.994 117.067 417.223C109.685 418.105 104.354 424.885 105.039 432.128C105.754 439.539 112.46 444.847 119.916 443.986C127.473 443.317 132.759 436.683 132.023 429.345ZM200.379 242.91C199.803 241.377 198.774 240.026 197.324 239.268L212.923 220.487L284.302 232.664C284.205 233.514 284.129 234.291 284.054 235.068L200.379 242.91ZM287.067 225.907L216.175 171.988C214.347 164.559 212.03 156.103 209.707 147.406L226.398 120.002L289.896 223.166C289.022 223.941 287.766 224.919 287.067 225.907ZM207.17 159.748C206.859 158.135 206.115 156.631 204.761 155.821L209.037 148.562C211.194 156.49 213.197 164.131 215.158 171.12L205.664 163.929C206.649 162.788 207.115 161.25 207.17 159.748ZM209.432 146.203C200.712 113.745 190.831 76.9378 186.418 60.0929C187.283 59.8752 188.171 59.5843 188.956 59.1026L225.814 119.026L209.432 146.203ZM189.668 58.5988C189.837 58.5699 189.976 58.3724 190.167 58.2702L235.491 103.17L226.468 118.185L189.668 58.5988ZM185.362 60.4127C189.921 77.3019 199.882 114.373 208.689 147.337L203.854 155.387C203.07 155.069 202.096 154.854 201.297 154.852L185.362 60.4127ZM205.032 164.697L215.543 172.755C218.417 183.858 220.958 193.421 222.978 199.949C222.956 200.022 222.517 199.889 222.473 200.035L203.887 165.309C204.218 165.01 204.504 164.857 205.032 164.697ZM230.002 204.473C229.849 201.549 227.223 199.395 224.108 199.651C224.035 199.629 223.888 199.585 223.748 199.782C222.289 194.304 219.806 185.078 216.779 173.689L286.508 226.697C285.486 228.226 284.829 229.866 284.348 231.719L213.482 219.697L221.627 209.692C222.688 210.413 223.809 210.672 225.26 210.632C228.471 210.325 230.427 207.56 230.002 204.473ZM324.258 215.023C325.989 217.226 328.757 218.383 331.703 218.156C333.565 218.08 335.069 217.337 336.252 216.336L349.991 231.687C348.602 233.105 347.586 234.876 347.72 237.075L311.163 235.041C311.047 234.366 310.983 233.787 311.109 233.106C310.778 230.767 310.014 228.537 308.729 226.709L324.258 215.023ZM271.791 125.592C279.613 124.842 286.693 130.503 287.567 138.442C288.099 145.398 283.729 151.909 276.975 153.622L274.996 145.108C277.417 144.242 279.02 141.85 278.682 139.269C278.331 136.205 275.83 134.169 272.715 134.425C271.556 134.554 270.602 135.064 269.699 135.67L263.478 129.55C265.448 127.268 268.61 126.067 271.791 125.592ZM274.761 154.071C266.822 154.945 259.815 149.306 258.941 141.367C258.556 137.093 260.069 133.154 262.795 130.222L268.994 136.416C268.178 137.528 267.661 138.97 267.752 140.517C267.979 143.464 270.774 145.589 273.765 145.215C273.962 145.355 273.984 145.282 274.006 145.208L276.234 153.957C275.604 153.926 275.149 154.108 274.761 154.071ZM261.976 129.495C259.183 132.646 257.509 136.856 258.025 141.489C258.861 149.817 266.438 155.948 274.715 155.016C275.345 155.047 275.851 154.96 276.232 154.756L292.332 221.985C291.804 222.145 291.349 222.327 290.974 222.773L227.001 119.066L236.31 103.897L261.976 129.495ZM360.71 72.9698C357.24 74.3974 355.157 77.8439 355.462 81.8534C355.622 82.3815 355.614 82.9384 355.847 83.4887L332.85 92.115C332.201 90.5597 331.047 89.091 329.547 88.2371L348.035 54.1033C349.433 54.7664 351.016 55.0855 352.753 54.8921C353.31 54.9008 353.692 54.6966 354.293 54.5588L360.71 72.9698ZM344.1 42.2797C343.342 43.7288 342.956 45.5307 343.15 47.2681C343.59 50.0394 345.108 52.4177 347.179 53.764L328.544 87.8535C327.124 87.2636 325.564 86.8713 323.826 87.0647C323.292 86.9828 322.741 87.2159 322.287 87.398L297.436 20.5572C299.35 19.7779 300.717 18.4328 302.026 16.7506L344.1 42.2797ZM286.432 19.1443L235.881 102.408L190.93 57.8618C193.149 55.8154 194.424 52.9238 194.359 49.7064L283.562 15.1576C284.21 16.7129 285.24 18.064 286.432 19.1443ZM196.981 163.299C198.164 164.936 200.082 165.996 202.156 165.745C202.274 165.621 202.662 165.658 202.831 165.629L221.665 200.59C219.999 201.605 218.99 203.617 219.241 205.692C219.399 207.019 219.989 208.237 220.808 208.965L212.361 219.438L141.906 207.38C142.121 206.406 142.16 205.219 141.987 204.207C141.787 202.228 141.3 200.402 140.264 198.809L196.981 163.299ZM139.604 213.398C140.678 211.965 141.474 210.127 141.955 208.274L211.876 220.25L196.446 239.002C195.86 238.824 195.105 238.676 194.431 238.791C192.452 238.991 190.646 240.203 189.916 241.821L139.604 213.398ZM192.583 250.703L194.415 291.388C194.415 291.388 194.393 291.462 194.32 291.439C188.455 292.062 184.243 297.262 184.793 303.104C185.489 308.991 190.637 313.108 196.458 312.632C202.417 311.958 206.652 306.685 205.978 300.725C205.515 295.389 200.901 291.354 195.456 291.384L193.517 249.467C194.323 249.711 194.902 249.646 195.481 249.582C198.428 249.354 200.486 246.78 200.405 243.878L284.132 236.13C284.586 239.385 286.139 242.174 288.157 244.224L129.088 422.141C127.809 420.555 126.032 419.297 124.165 418.332L192.583 250.703Z" fill="#99CCFF"/>
</svg>
