<svg width="144" height="133" viewBox="0 0 144 133" fill="none" xmlns="http://www.w3.org/2000/svg">
<path opacity="0.47" d="M25.5803 71.9262C40.7794 77.1584 57.269 71.9835 66.619 60.2167L105.445 90.6441C104.684 91.7096 104.257 92.9757 103.876 94.0772C101.957 99.2603 102.37 104.495 104.218 109.173L60.3284 124.702C59.7775 123.374 58.6965 122.288 57.1576 121.82C54.2959 120.873 51.1668 122.268 50.1122 125.135C49.2222 128.049 50.7203 131.064 53.4791 132.124C56.3409 133.071 59.5213 131.619 60.468 128.757C60.8487 127.656 60.8485 126.518 60.4263 125.618L104.64 110.073C106.977 114.782 111.013 118.76 116.412 120.669C127.262 124.43 139.068 118.72 142.731 108.092C146.708 97.2313 140.994 85.3173 130.195 81.4999C120.992 78.2022 111.095 81.9247 105.991 89.5889L67.0667 59.3828C69.3617 56.4025 71.2089 53.1186 72.4951 49.4282C79.2141 30.204 69.2161 9.12421 49.9868 2.29714C30.8655 -4.5351 9.73943 5.62761 2.91236 24.8569C-3.70371 43.9679 6.24801 65.2124 25.5803 71.9262ZM104.71 94.5249C105.142 93.3668 105.631 92.2602 106.176 91.205L115.4 98.3474C115.102 98.9033 114.649 99.6291 114.356 100.293C113.744 102.218 113.667 104.009 114.238 105.769L105.175 108.802C103.286 104.397 102.889 99.4866 104.71 94.5249ZM129.974 82.5396C140.114 86.1718 145.638 97.4991 141.908 107.86C138.384 117.995 127.051 123.411 116.695 119.789C111.677 117.916 107.61 114.427 105.546 109.759L114.552 106.675C115.464 108.744 117.286 110.607 119.71 111.466C124.229 113.092 129.098 110.693 130.832 106.168C132.406 101.706 129.945 96.6778 125.483 95.1036C121.957 93.8637 118.323 94.9038 116.064 97.5033L106.727 90.2579C111.682 82.8716 121.157 79.3859 129.974 82.5396ZM49.8119 3.17213C68.4391 9.86547 78.4061 30.2968 71.7745 49.0835C70.4883 52.7739 68.744 55.9446 66.449 58.9249L52.4328 47.8407C53.2973 46.6619 54.1463 45.1589 54.7173 43.5067C57.8093 34.5303 53.2633 24.4021 44.1788 21.3153C35.1406 18.0638 25.0793 22.8775 21.8844 31.9671C18.6844 40.9487 23.3848 50.9071 32.5259 54.0453C39.5259 56.5817 47.2097 54.1565 51.6094 48.7466L65.8881 59.6557C56.4197 71.2116 40.522 76.304 25.8117 71.1027C7.08169 64.5226 -2.67432 43.9729 3.90577 25.2428C10.5373 6.45616 31.2414 -3.46975 49.8119 3.17213Z" fill="#99CCFF"/>
</svg>
