<svg width="561" height="1032" viewBox="0 0 561 1032" fill="none" xmlns="http://www.w3.org/2000/svg">
<g opacity="0.2">
<path d="M141.573 784.479C139.543 785.569 138.65 787.909 139.669 789.929C140.615 792.03 142.965 792.839 145.078 791.898C147.115 790.96 148 788.468 146.981 786.448C146.116 784.42 143.536 783.621 141.573 784.479Z" fill="#D4EAFF"/>
<path d="M384.292 577.982C382.34 579.069 381.451 581.485 382.473 583.582C383.496 585.679 385.842 586.412 387.962 585.624C389.919 584.613 390.804 582.121 389.792 580.253C388.909 577.843 386.409 577.117 384.292 577.982Z" fill="#D4EAFF"/>
<path d="M429.934 618.132C428.048 618.986 427.085 621.482 428.024 623.43C428.896 625.61 431.55 626.329 433.59 625.468C435.473 624.537 436.505 621.885 435.416 620.021C434.544 617.84 431.964 617.042 429.934 618.132Z" fill="#D4EAFF"/>
<path d="M419.936 486.471C417.969 487.253 417.083 489.745 418.025 491.769C419.128 493.939 421.328 494.832 423.507 493.658C425.544 492.72 426.353 490.231 425.571 488.353C424.472 486.26 422.196 485.37 419.936 486.471Z" fill="#D4EAFF"/>
<path d="M426.334 349.526C424.213 350.315 423.405 352.804 424.273 354.908C425.446 356.921 427.796 357.731 429.679 356.8C431.862 355.702 432.751 353.286 431.816 351.415C430.797 349.395 428.444 348.509 426.334 349.526Z" fill="#D4EAFF"/>
<path d="M279.521 593.367C278.806 591.255 276.302 590.453 274.192 591.471C272.079 592.412 271.351 594.974 272.128 596.776C273.228 598.869 275.665 599.904 277.771 598.81C279.881 597.792 280.613 595.307 279.521 593.367Z" fill="#D4EAFF"/>
<path d="M329.791 249.02C330.744 251.274 333.247 252.076 335.211 251.218C337.24 250.128 338.126 247.635 337.026 245.542C336.319 243.584 333.815 242.781 331.702 243.723C329.745 244.733 328.699 247.08 329.791 249.02Z" fill="#D4EAFF"/>
<path d="M323.446 180.763C325.556 179.746 326.291 177.337 325.272 175.316C324.403 173.212 321.977 172.406 319.943 173.42C317.757 174.442 316.784 176.708 317.883 178.802C318.825 180.826 321.409 181.701 323.446 180.763Z" fill="#D4EAFF"/>
<path d="M166.495 192.609C168.528 191.595 169.414 189.102 168.552 187.151C167.452 185.058 165.103 184.248 162.993 185.266C160.949 186.051 160.071 188.696 161.086 190.64C162.028 192.664 164.458 193.547 166.495 192.609Z" fill="#D4EAFF"/>
<path d="M236.477 253.989C237.423 256.09 239.922 256.815 241.882 255.881C243.996 254.94 244.735 252.608 243.792 250.584C242.77 248.487 240.413 247.524 238.38 248.538C236.197 249.636 235.458 251.968 236.477 253.989Z" fill="#D4EAFF"/>
<path d="M423.285 261.124C421.333 262.211 420.367 264.63 421.382 266.574C422.328 268.675 424.831 269.477 426.864 268.463C428.747 267.533 429.794 265.186 428.698 263.169C427.829 261.065 425.252 260.343 423.285 261.124Z" fill="#D4EAFF"/>
<path d="M275.796 165.294C277.763 164.513 278.725 162.017 277.703 159.92C276.834 157.816 274.331 157.014 272.297 158.028C270.264 159.042 269.302 161.538 270.241 163.485C271.26 165.506 273.836 166.228 275.796 165.294Z" fill="#D4EAFF"/>
<path d="M479.824 222.715C478.805 220.694 476.379 219.888 474.346 220.902C472.232 221.844 471.413 224.103 472.512 226.196C473.231 228.384 475.731 229.11 477.925 228.242C479.888 227.384 480.774 224.892 479.824 222.715Z" fill="#D4EAFF"/>
<path d="M525.975 377.734C523.942 378.748 523.056 381.241 524.072 383.185C524.864 385.293 527.374 386.248 529.554 385.074C531.514 384.14 532.399 381.647 531.384 379.703C530.518 377.675 528.088 376.793 525.975 377.734Z" fill="#D4EAFF"/>
<path d="M98.2247 85.3452C96.188 86.2828 95.3026 88.7752 96.3216 90.7957C97.2601 92.7434 99.6936 93.7021 101.723 92.6117C103.76 91.674 104.568 89.1852 103.633 87.314C102.845 85.2827 100.258 84.3311 98.2247 85.3452Z" fill="#D4EAFF"/>
<path d="M173.566 126.177C171.599 126.959 170.713 129.451 171.662 131.628C172.605 133.652 175.031 134.458 177.145 133.517C179.101 132.506 179.99 130.09 178.974 128.146C178.109 126.119 175.599 125.163 173.566 126.177Z" fill="#D4EAFF"/>
<path d="M460.673 495.83C459.574 493.736 457.301 492.923 455.191 493.941C453.224 494.722 452.269 497.371 453.361 499.312C454.153 501.419 456.656 502.222 458.773 501.357C460.733 500.423 461.696 497.927 460.673 495.83Z" fill="#D4EAFF"/>
<path d="M-4.86236 775.613C-7.80037 777.052 -9.42609 780.192 -8.74872 783.147L-56.133 796.466C-56.3994 795.712 -56.5048 795.104 -56.9213 794.434C-60.9276 786.196 -70.7206 782.747 -78.8605 786.65C-86.9968 790.63 -90.549 800.37 -86.7001 808.539C-83.0299 816.181 -74.24 819.6 -66.3507 816.934L-31.2796 906.293C-34.6646 908.059 -36.0938 912.109 -34.5457 915.56C-32.7705 918.924 -28.6133 920.492 -25.2211 918.878C-21.7556 917.184 -20.2567 912.978 -21.8781 909.607C-23.4119 906.462 -26.8736 904.938 -30.2174 905.937L-65.292 816.502C-65.2151 816.498 -64.9916 816.335 -64.845 816.175C-57.6833 812.776 -54.1187 804.95 -55.999 797.685L-8.53428 784.439C-8.52714 784.592 -8.36624 784.738 -8.27865 784.964C-6.57675 788.408 -2.50003 789.902 0.89217 788.289C4.58836 786.584 5.93703 782.462 4.31202 779.014C2.68344 775.49 -1.47016 773.999 -4.86236 775.613ZM-85.5682 808.027C-89.1578 800.459 -85.9615 791.348 -78.3456 787.775C-70.7333 784.126 -61.6429 787.378 -58.0532 794.947C-57.7207 795.468 -57.5384 796.072 -57.3525 796.752L-65.2669 798.884C-65.274 798.731 -65.3545 798.658 -65.4421 798.432C-67.1476 794.912 -71.2976 793.497 -74.8436 795.118C-78.3895 796.739 -79.8151 800.865 -78.0363 804.305C-76.5793 807.454 -73.0409 808.974 -69.8472 808.059L-66.7958 815.653C-73.9967 818.21 -82.2413 814.919 -85.5682 808.027ZM-65.283 815.046C-65.4332 815.13 -65.5834 815.213 -65.7371 815.22L-68.7082 807.7C-65.847 806.264 -64.3751 803.131 -64.972 800.249L-56.9879 797.961C-55.3633 804.702 -58.7256 811.906 -65.283 815.046Z" fill="#D4EAFF"/>
<path d="M-27.7267 322.161C-24.2576 320.544 -22.7623 316.262 -24.3838 312.89C-25.2383 311.092 -26.6794 309.934 -28.403 309.325L-12.747 248.543C-11.3558 248.631 -9.89141 248.639 -8.6933 247.894C-4.99354 246.266 -3.56796 242.14 -5.34318 238.776C-6.89487 235.248 -11.2023 233.765 -14.6606 235.611C-18.1404 236.999 -19.6357 241.282 -17.9338 244.726C-17.0793 246.524 -15.7187 247.609 -13.9915 248.295L-29.6511 309C-31.0493 308.759 -32.5031 308.98 -33.7012 309.725C-37.2471 311.346 -38.6763 315.396 -37.0477 318.92C-35.5032 322.295 -31.3424 323.939 -27.7267 322.161Z" fill="#D4EAFF"/>
<path d="M158.073 923.342C161.611 921.569 163.041 917.519 161.416 914.071C160.565 912.349 159.04 911.042 157.47 910.426L173.129 849.72C174.451 849.965 175.824 849.671 177.19 849.224C180.729 847.451 182.154 843.324 180.606 839.873C178.904 836.429 174.674 834.942 171.208 836.636C167.662 838.256 166.237 842.382 167.862 845.83C168.786 847.472 170.311 848.779 171.962 849.468L156.306 910.25C154.984 910.006 153.53 910.227 152.095 910.83C148.702 912.444 147.28 916.646 148.986 920.166C150.454 923.545 154.604 924.96 158.073 923.342Z" fill="#D4EAFF"/>
<path d="M413.884 209.937C417.43 208.316 418.936 204.263 417.08 200.826C416.46 199.093 415.012 197.782 413.292 197.25L428.864 136.319C430.342 136.632 431.642 136.419 432.998 135.743C436.544 134.122 438.046 129.992 436.337 126.395C434.635 122.951 430.558 121.456 427.089 123.074C423.543 124.695 422.045 128.901 423.677 132.501C424.454 134.303 425.972 135.458 427.615 135.994L412.12 196.921C410.872 196.597 409.342 196.821 407.906 197.424C404.36 199.045 402.857 203.175 404.559 206.619C406.415 210.056 410.645 211.543 413.884 209.937Z" fill="#D4EAFF"/>
<path d="M371.444 474.412C367.975 476.029 366.472 480.159 368.101 483.683C369.642 486.981 374.026 488.462 377.495 486.844C380.968 485.304 382.47 481.174 380.919 477.646C379.143 474.282 375.067 472.788 371.444 474.412Z" fill="#D4EAFF"/>
<path d="M222.552 335.371C228.135 332.812 230.523 326.19 227.722 320.653C227.547 320.201 227.214 319.681 226.801 319.087L385.773 195.394C387.718 197.448 391.141 198.13 394.009 196.848C397.405 195.31 398.827 191.108 397.202 187.66C395.577 184.213 391.269 182.729 387.72 184.273C384.327 185.887 382.909 190.166 384.534 193.613C384.625 193.915 384.943 194.13 385.042 194.585L226.07 318.279C223.946 315.697 220.722 314.316 217.416 314.47L207.832 208.22C210.278 207.799 212.707 206.996 215.198 205.884C228.393 199.677 233.977 183.944 227.729 170.601C221.426 157.721 205.668 151.946 192.403 158.31C179.131 164.521 173.55 180.331 179.788 193.444C184.743 203.859 195.786 209.318 206.602 208.277L216.262 314.524C215.186 314.574 214.12 314.854 212.995 315.519C207.493 318.15 205.095 324.543 207.816 330.008C210.47 335.705 217.057 338.155 222.552 335.371ZM180.919 192.931C174.941 180.419 180.323 165.308 192.921 159.512C205.505 153.409 220.623 158.678 226.604 171.267C232.582 183.779 227.2 198.89 214.602 204.687C212.426 205.937 210.064 206.507 207.772 206.92L207.241 200.511C208.388 200.304 209.67 199.708 210.805 199.272C219.476 195.191 223.087 185.065 218.986 176.448C214.885 167.831 204.551 164.33 195.956 168.408C187.359 172.409 183.751 182.612 187.772 191.156C191.102 198.124 198.676 201.907 206.018 200.721L206.625 207.127C196.197 208.227 185.696 202.819 180.919 192.931Z" fill="#D4EAFF"/>
<path d="M486.268 540.668C483.634 542.017 481.329 543.809 479.668 546.185L197.287 431.299C198.783 427.016 198.708 422.118 196.659 417.847C195.71 415.67 194.153 413.675 192.46 412.069L232.387 338.052C234.198 338.887 236.281 338.942 238.091 338.092C239.223 337.58 240.114 336.849 240.693 336.056L261.442 349.717C259.502 352.718 259.069 356.645 260.848 360.085C261.625 361.887 262.916 363.129 264.119 364.145L251.914 381.642C251.123 381.22 249.813 381.204 248.6 381.644C246.571 382.734 245.755 385.07 246.708 387.324C247.72 389.191 250.143 389.921 252.11 389.14C254.297 388.118 255.189 385.779 254.156 383.453C253.834 383.161 253.432 382.797 253.106 382.429L265.235 364.936C268.246 366.71 272.115 367.065 275.585 365.448C281.164 362.813 283.391 356.045 280.981 350.643C278.19 345.335 271.676 342.805 266.02 345.444C264.434 346.13 263.177 347.261 262.168 348.764L241.339 335.03C242.413 333.295 242.618 331.064 241.665 328.81C239.959 325.29 235.809 323.875 232.274 325.725C228.728 327.346 227.302 331.472 228.924 334.843C229.439 335.968 230.408 336.919 231.212 337.647L191.285 411.664C187.284 408.481 182.071 407.422 177.036 408.5L163.859 363.923C164.24 363.829 164.613 363.582 164.917 363.491C170.489 360.703 172.811 354.314 170.174 348.999C167.52 343.301 160.936 340.928 155.353 343.486C149.935 346.267 147.547 352.889 150.111 358.284C151.046 360.156 152.589 361.845 154.257 362.916L141.539 385.953C138.553 384.713 135.072 384.416 131.907 385.943C126.404 388.574 124.013 395.12 126.664 400.741C129.301 406.056 135.969 408.579 141.394 405.951C143.2 405.024 144.457 403.893 145.546 402.463L166.306 416.354C163.375 421.24 162.801 427.088 165.448 432.632C165.97 433.91 166.485 435.035 167.37 435.836L93.4699 483.635C88.0242 475.923 77.6302 472.808 69.0433 477.039C59.328 481.858 55.1552 493.16 59.8515 502.974C61.7321 506.946 64.8771 509.94 68.5836 511.758L48.6775 554.126L-73.4059 528.804C-72.6224 525.78 -72.8491 522.573 -74.3723 519.657C-74.7191 518.831 -75.2161 518.088 -75.7167 517.269L-5.9226 459.092C-2.68292 462.464 2.37906 463.606 6.90319 461.48C12.4931 459.075 14.7968 452.303 12.2226 446.679C9.50526 441.291 2.91818 438.841 -2.5072 441.468C-3.25825 441.887 -3.93242 442.301 -4.52969 442.712L-24.6808 418.759C-21.2795 415.69 -20.215 410.431 -22.3477 406.012C-24.9882 400.62 -31.4984 398.167 -37.0775 400.801C-42.5834 403.356 -44.9712 409.978 -42.3272 415.447C-41.9911 416.044 -41.6514 416.717 -41.3189 417.238L-60.5373 433.071C-63.7949 429.317 -69.0141 428.105 -73.5383 430.231C-79.0334 433.015 -81.4284 439.485 -78.7879 444.876C-77.4043 448.105 -74.6902 450.123 -71.5754 450.82L-84.3509 512.234C-86.9203 511.664 -89.7509 512.103 -92.3885 513.375C-99.1765 516.526 -101.958 524.622 -98.7293 531.058C-95.5561 537.957 -87.4903 540.721 -80.6219 537.643C-79.7206 537.141 -78.9034 536.49 -78.0719 536.145L1.26336 627.88C-5.3637 631.176 -8.07886 639.039 -4.91644 645.708C-1.67355 652.451 6.39227 655.215 13.1034 652.067C19.7375 648.924 22.6136 641.206 19.7587 634.523L126.726 575.376C128.784 578.19 132.378 579.248 135.63 577.947C136.224 577.46 136.968 576.889 137.495 576.635L204.386 629.58C201.115 633.792 200.142 639.353 201.618 644.569L105.156 676.187C105.065 675.885 104.97 675.506 104.721 675.135C101.482 668.469 93.4126 665.629 86.6246 668.78C79.9135 671.927 77.0553 680.026 80.2213 686.772C82.1788 690.74 85.6904 693.334 89.8119 694.137L69.1814 820.028C65.1475 819.45 60.7827 820.037 56.7861 821.909C45.7047 827.175 40.929 840.419 46.2135 851.279C51.505 862.291 64.6757 867.115 75.7535 861.772C86.8314 856.43 91.5409 843.418 86.3262 832.402C83.0904 825.813 77.1097 821.496 70.3455 820.203L91.0528 694.309C93.4577 694.656 95.9808 694.232 98.318 693.127C104.425 690.238 107.424 683.511 105.594 677.315L202.129 645.617C202.154 646.152 202.41 646.677 202.662 647.125C206.836 655.662 217.021 659.246 225.769 655.161C234.29 651.163 237.974 640.957 233.873 632.34C231.905 628.142 228.449 625.087 224.376 623.668L237.165 550.995C238.007 550.879 238.853 550.839 239.674 550.265C241.78 549.171 243.152 547.192 243.36 545.037L476.654 555.9C476.541 558.433 477.047 561.013 478.237 563.409C482.258 571.953 492.526 575.686 501.197 571.605C509.791 567.527 513.403 557.401 509.379 548.781C505.124 540.171 494.862 536.59 486.268 540.668ZM232.798 538.331C231.146 539.25 229.928 541.222 229.629 543.074L200.323 532.647L184.614 442.078C185.76 441.871 186.888 441.282 187.793 440.857L232.798 538.331ZM175.246 441.136L140.594 548.916C132.452 554.428 123.266 560.678 113.706 567.175L73.4833 558.942L170.753 438.972C172.033 439.984 173.533 440.757 175.246 441.136ZM129.725 565.355C127.689 566.293 126.523 567.726 125.931 569.898L115.499 567.628C124.084 561.712 132.373 556.04 140.06 550.702L135.492 565.086C133.541 564.564 131.532 564.428 129.725 565.355ZM112.364 568.157C77.1184 592.245 36.7973 619.863 18.4984 632.284C17.8369 631.319 17.1021 630.434 16.2975 629.705L72.6839 559.975L112.364 568.157ZM15.3392 628.984C15.2552 628.835 15.0173 628.693 14.8564 628.547L49.5034 555.313L71.4394 559.727L15.3392 628.984ZM19.2439 633.398C37.6126 620.821 78.1644 593.192 114.004 568.617L125.75 570.979C125.716 571.9 125.857 573.272 126.361 574.167L19.2439 633.398ZM136.447 565.731L141.706 549.63C153.724 541.333 164.182 534.257 171.499 529.243C171.587 529.469 171.591 529.545 171.751 529.691L137.815 566.969C137.321 566.303 136.926 566.091 136.447 565.731ZM173.779 518.643C170.24 520.417 168.884 524.387 170.593 527.983C170.673 528.056 170.681 528.209 170.834 528.202C164.865 532.387 154.712 539.372 142.312 547.763L176.589 441.84C178.767 442.274 181.165 442.469 183.464 442.208L199.068 532.169L183.702 526.529C183.941 525.062 183.867 523.457 183.103 521.961C181.478 518.514 177.317 516.869 173.779 518.643ZM146.346 401.43C148.286 398.429 148.566 394.51 146.937 390.986C145.848 389.122 144.466 387.578 142.798 386.507L155.512 363.394C157.645 364.52 160.354 364.776 162.8 364.356L176.054 408.928C175.139 409.124 174.454 409.31 173.626 409.731C170.985 410.927 168.687 412.872 167.022 415.171L146.346 401.43ZM60.9762 502.309C56.6196 493.168 60.5761 482.183 69.6315 478.084C77.8411 474.024 87.5251 476.789 92.4846 483.987L83.0678 490.248C81.0976 487.659 77.441 486.911 74.4958 488.197C71.0267 489.814 69.5314 494.097 71.1529 497.468C71.9055 498.735 72.8781 499.762 73.9867 500.4L69.2292 510.732C65.7569 508.98 62.7764 506.208 60.9762 502.309ZM93.997 486.674C98.3536 495.815 94.4634 506.567 85.3454 510.976C80.4475 513.349 75.1279 513.291 70.2573 511.297L75.1792 501.186C76.8189 501.646 78.7447 501.633 80.4846 500.939C84.027 499.242 85.3686 494.966 83.8204 491.515C83.7435 491.519 83.6595 491.369 83.5826 491.373L93.0727 485.032C93.6395 485.618 93.8147 486.07 93.997 486.674ZM69.7691 512.392C74.7934 514.379 80.6584 514.565 85.9335 512.021C95.5791 507.358 99.8181 495.824 95.129 486.162C94.8733 485.637 94.5301 484.887 94.3513 484.36L168.185 436.794C168.591 437.234 169.154 437.744 169.718 438.254L72.2423 558.77L49.9882 554.141L69.7691 512.392ZM-40.5072 418.119C-37.264 421.568 -31.9641 422.852 -27.3667 420.646C-26.7659 420.312 -26.1615 420.054 -25.4944 419.486L-5.41668 443.519C-7.04044 445.05 -8.10815 446.938 -8.61979 449.184L-57.6111 441.283C-57.466 439.438 -57.7966 437.309 -58.7245 435.591C-58.9944 434.761 -59.3234 434.317 -59.7363 433.723L-40.5072 418.119ZM-70.3345 450.992C-68.1566 451.427 -66.018 451.021 -63.9741 450.236C-60.6553 448.702 -58.561 445.694 -57.8616 442.521L-8.72005 450.337C-8.94198 452.186 -8.61139 454.315 -7.75687 456.114C-7.42434 456.634 -7.00068 457.457 -6.59483 457.898L-76.4479 516.461C-78.3931 514.407 -80.6103 513.132 -83.1135 512.329L-70.3345 450.992ZM-73.6671 529.812L48.1856 555.144L13.5977 627.993C10.2791 626.233 6.17907 625.888 2.39529 627.367L-77.2582 535.418C-75.4842 533.803 -74.413 531.991 -73.6671 529.812ZM138.298 575.678C139.747 573.696 140.08 570.923 138.889 568.527C138.878 568.298 138.56 568.083 138.542 567.701L172.479 530.423C174.542 531.705 177.35 532.417 179.676 531.083C181.339 530.392 182.359 529.119 183.056 527.555L199.202 533.388L214.781 622.814C213.411 623.184 212.195 623.548 210.836 624.147C208.503 625.328 206.718 626.714 205.185 628.547L138.298 575.678ZM223.128 623.344C220.862 622.683 218.384 622.416 216.015 622.833L200.471 534.172L229.459 544.384C229.579 545.298 229.772 546.131 230.279 547.103C231.316 549.506 233.46 550.861 235.858 551.056L223.128 623.344ZM245.302 543.721L293.568 524.54C293.649 524.613 293.649 524.613 293.582 524.846C296.818 531.435 304.961 534.196 311.752 531.121C318.614 527.89 321.322 519.875 318.31 513.122C314.993 506.459 306.84 503.47 300.206 506.614C293.802 509.747 290.901 516.929 293.211 523.485L243.354 543.276C243.399 542.585 243.133 541.831 242.874 541.23C241.249 537.783 237.403 536.277 233.926 537.742L188.859 440.578C192.468 438.647 195.184 435.763 196.795 432.318L479.026 547.287C477.507 549.426 476.783 552.064 476.593 554.601L245.302 543.721Z" fill="#D4EAFF"/>
<path d="M313.767 635.35C303.884 639.871 299.882 651.548 304.491 661.137C305.948 664.286 308.226 666.86 310.856 668.729L252.649 757.233C250.75 756.173 248.356 756.055 246.323 757.069C242.85 758.61 241.355 762.892 242.98 766.34C244.758 769.78 248.989 771.268 252.458 769.651C256 767.953 257.499 763.747 255.567 760.314C255.14 759.415 254.635 758.519 253.684 757.951L311.968 669.443C317.36 672.715 324.323 673.309 330.426 670.343C330.657 670.332 330.957 670.165 331.027 670.008L338.184 683.002C335.267 684.9 334.285 688.622 335.742 691.771C337.37 695.295 341.444 696.714 344.986 695.016C348.455 693.399 349.8 689.2 348.406 685.742C346.784 682.371 342.708 680.876 339.235 682.417L331.925 669.43C340.626 664.352 343.971 653.472 339.692 644.327C335.163 634.811 323.412 630.687 313.767 635.35ZM329.992 669.291C324.34 672.006 317.768 671.547 312.69 668.413L318.955 659.006C320.697 659.997 323.014 660.119 325.051 659.181L330.366 669.044C330.292 669.124 330.065 669.211 329.992 669.291ZM331.494 668.455L325.945 658.527C328.781 656.556 329.847 652.983 328.394 649.91C326.769 646.463 322.615 644.971 319.069 646.592C315.607 648.362 314.021 652.343 315.726 655.863C316.241 656.988 316.969 657.72 317.693 658.376L311.582 667.776C309.113 666.053 307.15 663.617 305.703 660.697C301.193 651.563 305.16 640.807 314.201 636.402C323.407 632.22 334.448 635.993 338.644 644.989C342.587 653.537 339.591 663.634 331.494 668.455Z" fill="#D4EAFF"/>
<path d="M71.978 340.179C81.6306 335.669 85.8661 324.058 81.2574 314.469C79.888 311.546 77.8552 309.267 75.6131 307.456L101.164 272.102C103.22 273.231 105.621 273.502 107.801 272.328C111.12 270.794 112.493 267.207 111.407 263.734L123.645 258.491C125.343 261.858 129.336 263.204 132.798 261.434C136.19 259.82 137.616 255.694 135.914 252.25C134.362 248.722 130.132 247.235 126.739 248.848C126.359 248.943 125.996 249.419 125.772 249.583L108.707 229.009C110.697 227.078 111.393 223.829 110.031 221.058C108.329 217.614 104.175 216.123 100.79 217.889C97.1639 219.438 95.8188 223.636 97.5243 227.157C99.0688 230.532 103.219 231.946 106.772 230.478C107.139 230.078 107.443 229.987 107.747 229.897L124.731 250.397C122.895 252.321 122.1 255.116 123.134 257.442L110.899 262.762C109.142 259.78 105.145 258.359 101.75 259.896C98.3681 261.739 96.8549 265.639 98.4907 269.316C98.9143 270.139 99.4882 270.878 100.216 271.61L74.5081 306.895C68.944 303.248 61.8131 302.356 55.2487 305.343C45.5263 310.01 41.3641 321.54 46.0568 331.279C50.5117 340.875 62.1858 345.002 71.978 340.179ZM55.6831 306.395C61.7969 303.659 68.5988 304.107 73.7749 307.695L67.1813 316.658C65.2091 315.678 62.8148 315.56 60.5474 316.508C57.0783 318.126 55.5759 322.255 57.2813 325.776C58.9832 329.22 63.1333 330.635 66.5988 328.941C70.1448 327.32 71.4934 323.198 69.9489 319.823C69.4447 318.927 68.8637 318.035 68.0698 317.536L74.7297 308.34C76.9647 309.997 78.8401 312.208 80.0415 314.832C84.3981 323.974 80.5149 334.878 71.3862 339.058C62.2718 343.543 51.3773 339.609 47.035 330.773C42.7553 321.628 46.5579 310.651 55.6831 306.395Z" fill="#D4EAFF"/>
<path d="M124.221 845.263C133.944 840.596 138.022 828.916 133.49 819.324C132.047 816.48 130.168 814.194 127.769 812.314L153.4 777.033C155.456 778.162 157.854 778.357 159.967 777.415C163.286 775.882 164.73 772.138 163.734 768.967L175.815 763.654C177.576 766.712 181.572 768.134 184.964 766.521C188.433 764.903 189.855 760.701 188.307 757.25C186.686 753.879 182.452 752.315 178.986 754.008C178.689 754.252 178.385 754.343 178.089 754.586L161.027 734.089C163.094 732.154 163.713 728.909 162.432 726.211C160.726 722.691 156.649 721.196 153.103 722.817C149.638 724.51 148.216 728.713 149.837 732.084C151.385 735.535 155.616 737.023 159.162 735.402C159.462 735.235 159.763 735.067 160.063 734.9L177.048 755.401C175.285 757.245 174.641 759.956 175.3 762.529L163.296 767.839C161.451 764.631 157.462 763.362 154.143 764.896C150.751 766.509 149.172 770.643 150.797 774.09C151.224 774.989 151.801 775.805 152.599 776.381L126.895 811.742C121.323 807.943 114.123 807.206 107.639 810.267C97.8358 814.86 93.7576 826.54 98.4468 836.202C102.898 845.722 114.499 849.929 124.221 845.263ZM107.996 811.322C114.033 808.589 120.842 809.191 126.168 812.695L119.428 821.818C117.522 820.605 115.055 820.567 112.941 821.508C109.395 823.129 107.969 827.255 109.598 830.779C111.3 834.223 115.45 835.638 118.919 834.021C122.469 832.476 123.887 828.197 122.262 824.75C121.761 823.931 121.264 823.188 120.463 822.536L127.13 813.493C129.442 815.147 131.16 817.288 132.365 819.989C136.792 828.974 132.835 839.958 123.71 844.214C114.665 848.543 103.698 844.689 99.4983 835.617C94.9914 826.559 98.8746 815.654 107.996 811.322Z" fill="#D4EAFF"/>
<path d="M-22.0957 982.536C-3.62908 973.708 6.56515 954.39 4.50557 935.031L67.106 927.436C67.4116 929.03 68.0283 930.687 68.7988 932.336C71.702 938.404 76.8441 942.913 82.7357 945.319L57.0277 998.757C55.3774 998.069 53.3818 998.238 51.6455 999.009C48.0995 1000.63 46.597 1004.76 48.3794 1008.28C50.0044 1011.72 54.0811 1013.22 57.704 1011.59C61.2428 1009.82 62.5915 1005.7 60.9665 1002.25C60.4445 1000.97 59.3146 999.876 58.1291 999.242L83.9104 945.724C90.3366 948.028 97.6482 947.84 104.205 944.7C117.477 938.489 122.978 922.607 116.821 909.566C110.51 896.533 94.602 890.842 81.491 897.199C70.2558 902.472 64.5808 914.609 66.8987 926.297L4.45205 933.884C3.77308 929.244 2.39499 924.482 0.262262 920.063C-10.85 896.607 -39.0509 886.741 -62.5728 897.873C-86.0982 908.928 -96.0395 936.967 -84.8539 960.343C-73.7452 983.722 -45.6176 993.668 -22.0957 982.536ZM70.0076 931.82C69.2443 930.323 68.6347 928.82 68.2558 927.306L83.0453 925.543C83.165 926.457 83.5154 927.359 84.0231 928.331C84.976 930.585 86.6655 932.114 88.7986 933.24L83.4617 944.366C77.6471 941.957 72.8232 937.663 70.0076 931.82ZM81.8521 898.331C94.4427 892.381 109.641 897.723 115.692 910.155C121.594 922.671 116.288 937.778 103.621 943.731C97.364 946.704 90.5137 946.871 84.4791 944.702L89.7462 933.732C92.6554 934.975 95.8149 934.981 98.7565 933.618C104.332 930.907 106.647 924.365 104.079 918.893C101.432 913.348 94.852 911.051 89.2692 913.61C85.0491 915.645 82.7849 919.964 83.0652 924.317L68.1289 926.239C65.6822 915.094 71.1479 903.426 81.8521 898.331ZM-62.1384 898.925C-39.2978 888.054 -11.7961 897.8 -1.02345 920.582C1.10571 924.926 2.39266 929.385 3.06806 933.949L-19.6125 936.693C-19.859 934.713 -20.4972 932.598 -21.5126 930.654C-26.7273 919.638 -40.1214 914.978 -51.126 920.241C-62.1377 925.35 -66.9133 938.595 -61.7022 949.534C-56.407 960.623 -43.1702 965.214 -32.0119 959.944C-23.341 955.863 -18.673 946.913 -19.559 937.839L3.12158 935.095C5.15262 953.843 -4.75546 972.689 -22.7751 981.189C-45.6157 992.06 -73.1907 982.394 -83.9669 959.535C-94.8022 937.062 -84.979 909.795 -62.1384 898.925Z" fill="#D4EAFF"/>
<path d="M460.145 268.288C450.874 266.117 441.655 271.679 439.459 280.743C438.818 283.53 438.789 286.213 439.599 288.702L402.47 298.861C401.832 296.746 400.299 295.286 398.209 295.077C395.164 294.224 392.167 296.049 391.065 298.857L379.818 295.629C380.602 292.605 378.453 289.489 375.422 288.941C372.063 287.949 368.842 289.937 367.992 293.194C367.146 296.527 369.376 299.717 372.648 300.483C372.885 300.625 373.039 300.618 373.665 300.819L373.897 323.94C371.213 324.218 369.215 325.997 368.568 328.631C367.798 331.961 369.643 335.168 373.066 335.851C376.338 336.617 379.566 334.781 380.408 331.372C381.188 328.272 379.113 325.075 375.756 324.159C375.445 324.097 375.211 324.032 374.823 323.973L374.504 300.626C376.884 300.439 379.046 298.882 379.638 296.71L390.958 299.858C390.332 302.951 392.17 306.006 395.511 306.616C398.71 307.462 402.081 305.39 402.854 302.137C403.052 301.438 403.086 300.518 402.974 299.757L439.799 289.689C441.52 295.2 446.282 299.803 452.12 301.063C461.618 303.147 470.602 297.519 472.722 288.458C474.919 279.394 469.178 270.317 460.145 268.288ZM452.465 300.204C446.781 298.937 442.579 294.768 441.015 289.326L450.533 286.89C451.157 288.699 452.69 290.159 454.871 290.67C458.224 291.51 461.28 289.299 462.129 286.042C462.909 282.942 460.98 279.585 457.628 278.746C454.363 278.132 451.065 280.125 450.285 283.225C450.097 284.153 450.06 284.997 450.169 285.681L440.734 288.266C440.093 286.075 440.045 283.396 440.553 281.075C442.614 272.4 451.297 266.939 459.873 269.067C468.364 271.045 473.853 279.674 471.788 288.272C469.654 297.027 460.956 302.182 452.465 300.204Z" fill="#D4EAFF"/>
</g>
<path d="M103.492 749.492C101.913 750.331 101.23 752.201 102 753.851C102.771 755.5 104.648 756.101 106.234 755.415C107.894 754.648 108.57 752.625 107.807 751.128C107.032 749.403 105.228 748.721 103.492 749.492Z" fill="#D4EAFF"/>
<path d="M294.56 587.074C292.97 587.684 292.452 589.777 293.061 591.28C293.898 592.696 295.866 593.6 297.292 592.768C298.948 591.924 299.634 590.131 299.014 588.398C298.254 586.978 296.293 586.227 294.56 587.074Z" fill="#D4EAFF"/>
<path d="M330.475 618.564C328.896 619.403 328.132 621.201 328.969 622.617C329.589 624.35 331.777 625.013 333.364 624.327C334.939 623.41 335.699 621.537 334.859 620.044C334.088 618.395 332.054 617.724 330.475 618.564Z" fill="#D4EAFF"/>
<path d="M424.812 491.912C423.156 492.755 422.473 494.625 423.313 496.118C423.927 497.698 425.815 498.529 427.544 497.606C429.134 496.995 429.89 495.045 429.123 493.472C428.276 491.827 426.398 491.225 424.812 491.912Z" fill="#D4EAFF"/>
<path d="M312.972 410.35C311.382 410.961 310.853 412.824 311.47 414.48C312.394 416.122 314.278 416.877 315.854 415.961C317.517 415.27 318.2 413.4 317.279 411.835C316.663 410.178 314.708 409.58 312.972 410.35Z" fill="#D4EAFF"/>
<path d="M212.273 598.805C211.44 597.465 209.555 596.711 207.969 597.397C206.313 598.241 205.557 600.191 206.247 601.767C207.017 603.416 208.975 604.091 210.708 603.244C212.298 602.634 213.054 600.683 212.273 598.805Z" fill="#D4EAFF"/>
<path d="M251.646 328.039C252.266 329.771 254.374 330.362 255.953 329.523C257.539 328.836 258.376 326.958 257.452 325.317C256.758 323.664 254.884 323.139 253.148 323.909C251.569 324.749 250.721 326.397 251.646 328.039Z" fill="#D4EAFF"/>
<path d="M246.592 274.274C248.248 273.431 248.774 271.492 248.007 269.919C247.24 268.346 245.433 267.588 243.854 268.428C242.275 269.268 241.518 271.218 242.355 272.634C243.052 274.363 245.08 274.881 246.592 274.274Z" fill="#D4EAFF"/>
<path d="M123.124 283.639C124.78 282.795 125.459 280.849 124.616 279.28C123.845 277.63 121.971 277.105 120.305 277.719C118.806 278.632 118.119 280.425 118.813 282.078C119.583 283.727 121.534 284.249 123.124 283.639Z" fill="#D4EAFF"/>
<path d="M178.165 332.005C178.932 333.578 180.886 334.176 182.476 333.566C184.132 332.723 184.812 330.776 184.045 329.203C183.267 327.401 181.316 326.88 179.73 327.566C178.078 328.486 177.475 330.429 178.165 332.005Z" fill="#D4EAFF"/>
<path d="M310.732 340.906C308.999 341.752 308.393 343.619 309.163 345.268C309.857 346.921 311.884 347.439 313.394 346.756C315.049 345.913 315.729 343.966 314.962 342.393C314.042 340.828 312.161 340.15 310.732 340.906Z" fill="#D4EAFF"/>
<path d="M224.997 230.934C226.423 230.102 227.19 228.381 226.496 226.728C225.719 224.926 223.845 224.401 222.108 225.171C220.599 225.854 219.85 227.957 220.694 229.526C221.457 231.023 223.415 231.697 224.997 230.934Z" fill="#D4EAFF"/>
<path d="M423.123 307.166C422.51 305.586 420.402 304.995 418.97 305.675C417.318 306.594 416.788 308.457 417.401 310.037C418.095 311.69 420.13 312.361 421.789 311.594C423.218 310.838 423.978 308.964 423.123 307.166Z" fill="#D4EAFF"/>
<path d="M391.531 432.649C389.952 433.489 389.112 435.289 389.963 437.011C390.653 438.588 392.53 439.189 394.193 438.499C395.846 437.579 396.613 435.858 395.916 434.129C395.072 432.56 392.883 431.896 391.531 432.649Z" fill="#D4EAFF"/>
<path d="M69.3238 199.138C67.7341 199.748 67.1313 201.691 67.8249 203.344C68.5918 204.917 70.5426 205.438 72.2092 204.824C73.8615 203.905 74.5448 202.034 73.7045 200.542C73.0145 198.965 71.053 198.214 69.3238 199.138Z" fill="#D4EAFF"/>
<path d="M128.265 174.25C126.679 174.936 125.923 176.887 126.766 178.456C127.537 180.105 129.495 180.779 131.085 180.169C132.74 179.326 133.343 177.383 132.66 175.959C131.817 174.39 129.921 173.406 128.265 174.25Z" fill="#D4EAFF"/>
<path d="M354.719 522.223C353.876 520.654 351.925 520.132 350.335 520.742C348.679 521.586 348.15 523.449 348.843 525.101C349.614 526.751 351.411 527.279 353.224 526.505C354.807 525.742 355.486 523.796 354.719 522.223Z" fill="#D4EAFF"/>
<path d="M-11.7236 742.538C-14.1377 743.647 -15.3307 746.153 -14.8356 748.505L-52.1812 758.98C-52.36 758.452 -52.4618 757.921 -52.7979 757.324C-55.8692 750.956 -63.4737 748.171 -70.1114 751.238C-76.5185 754.295 -79.2444 761.929 -76.166 768.449C-73.2699 774.365 -66.3575 777.182 -60.2187 774.981L-32.5822 845.384C-35.2931 846.736 -36.3842 849.774 -35.0953 852.625C-33.7367 855.319 -30.6005 856.475 -27.7322 855.192C-25.0213 853.84 -23.7836 850.641 -25.1458 847.871C-26.34 845.399 -29.1686 844.229 -31.597 845.032L-59.3103 774.632C-59.2334 774.628 -58.9294 774.538 -58.933 774.461C-53.2841 771.67 -50.4833 765.641 -51.8344 759.806L-14.639 749.415C-14.555 749.564 -14.5514 749.64 -14.4674 749.79C-13.1052 752.56 -9.89209 753.712 -7.10429 752.357C-4.30936 751.154 -3.15564 747.806 -4.5143 745.112C-5.79964 742.338 -9.08606 741.266 -11.7236 742.538ZM-75.3417 767.951C-78.1609 762.031 -75.5673 754.863 -69.6877 752.061C-63.5775 749.248 -56.5255 751.753 -53.6294 757.669C-53.4507 758.197 -53.1986 758.645 -53.0967 759.176L-59.4107 760.926C-59.4214 760.697 -59.5788 760.628 -59.5895 760.398C-60.9446 757.781 -64.2381 756.556 -66.9562 757.755C-69.6671 759.107 -70.8207 762.454 -69.6158 765.156C-68.4252 767.551 -65.6699 768.801 -63.0878 767.991L-60.7264 774.009C-66.2536 776.105 -72.6172 773.491 -75.3417 767.951ZM-59.2833 773.558C-59.4336 773.642 -59.5069 773.722 -59.5837 773.726L-62.022 767.712C-59.7653 766.534 -58.6422 764.184 -59.1408 761.756L-52.8233 760.082C-51.574 765.386 -54.2317 771.178 -59.2833 773.558Z" fill="#D4EAFF"/>
<path d="M148.014 894.4C150.802 893.044 151.882 889.777 150.604 887.155C150.079 885.801 148.795 884.712 147.466 884.315L159.797 836.479C160.807 836.662 161.957 836.532 163.012 836.023C165.653 834.827 166.961 831.473 165.602 828.779C164.317 826.005 161.03 824.933 158.239 826.212C155.601 827.484 154.44 830.678 155.645 833.38C156.405 834.8 157.532 835.819 158.71 836.3L146.379 884.136C145.365 883.877 144.296 884.08 143.164 884.592C140.53 885.941 139.292 889.139 140.578 891.913C142.01 894.527 145.38 895.748 148.014 894.4Z" fill="#D4EAFF"/>
<path d="M352.779 70.8004C355.731 71.1489 358.578 68.9276 358.831 65.8533C358.939 64.35 358.391 62.9327 357.494 61.6778L392.836 26.973C393.501 27.8456 394.733 28.1506 395.761 28.3477C398.79 28.3901 401.465 26.1644 401.677 23.3287C402.002 20.1194 399.968 17.5692 396.808 17.2839C393.747 17.138 391.108 19.2962 390.647 22.4336C390.711 23.9413 391.123 25.2867 392.025 26.3706L356.923 61.1157C356.009 60.5449 354.958 59.9021 353.613 59.9708C351.005 59.631 348.122 61.9199 347.869 64.9942C347.557 67.6904 349.931 70.4203 352.779 70.8004Z" fill="#D4EAFF"/>
<path d="M386.624 482.665C383.679 483.952 382.591 487.066 384.034 489.909C385.162 492.614 388.606 493.756 391.397 492.476C394.269 491.27 395.192 487.933 393.753 485.166C392.771 482.301 389.335 481.313 386.624 482.665Z" fill="#D4EAFF"/>
<path d="M175.941 366.883C180.311 364.764 182.155 359.7 180.096 355.2C179.917 354.672 179.599 354.457 179.277 354.166L304.403 256.486C305.946 258.176 308.435 258.673 310.859 257.794C313.57 256.441 314.651 253.174 313.208 250.331C312.003 247.63 308.713 246.481 305.999 247.757C303.288 249.109 302.053 252.383 303.412 255.077C303.5 255.303 303.657 255.372 303.822 255.594L178.762 353.041C176.985 351.286 174.467 350.178 171.846 350.147L164.391 266.393C166.31 266.227 168.13 265.605 170.087 264.595C180.501 259.896 184.848 247.361 179.899 237.099C175.021 226.68 162.487 222.286 152.086 227.291C141.756 232.139 137.252 244.604 142.208 255.02C146.137 263.262 154.739 267.609 163.322 266.596L170.773 350.274C170.011 350.462 169.173 350.655 168.418 350.996C164.048 353.115 162.214 358.409 164.263 362.68C166.315 367.026 171.563 368.849 175.941 366.883ZM143.193 254.668C138.416 244.78 142.725 233.089 152.594 228.263C162.47 223.589 174.382 227.858 179.082 237.75C183.855 247.561 179.623 259.248 169.674 264.002C167.934 264.696 166.04 265.397 164.279 265.632L163.809 260.522C164.725 260.326 165.64 260.13 166.542 259.629C173.399 256.321 176.265 248.375 172.948 241.712C169.629 234.974 161.629 231.977 154.848 235.281C147.987 238.512 145.122 246.458 148.445 253.273C151.096 258.894 156.932 261.762 162.824 260.874L163.21 265.835C155.081 266.674 146.87 262.462 143.193 254.668Z" fill="#D4EAFF"/>
<path d="M375.014 557.505C372.747 558.454 371.046 559.988 369.748 561.887L147.374 471.315C148.534 468.12 148.51 464.292 146.888 460.921C146.03 459.046 144.882 457.568 143.511 456.253L174.929 398.029C176.349 398.728 178.047 398.802 179.626 397.963C180.384 397.698 181.048 397.054 181.558 396.417L197.866 407.375C196.354 409.667 195.963 412.826 197.325 415.596C197.917 416.717 198.819 417.901 199.935 418.691L190.487 432.537C189.547 432.197 188.69 432.008 187.789 432.509C186.049 433.203 185.369 435.15 186.22 436.872C187.064 438.441 188.861 438.97 190.451 438.359C192.103 437.44 192.786 435.57 192.019 433.997C191.774 433.702 191.522 433.254 191.204 433.039L200.648 419.117C203.107 420.611 206.123 420.853 208.915 419.574C213.208 417.459 215.119 412.161 212.997 407.971C210.944 403.624 205.696 401.801 201.319 403.767C200.044 404.516 199.073 405.174 198.284 406.436L181.906 395.635C182.688 394.22 182.76 392.455 182.07 390.878C180.704 388.032 177.414 386.883 174.699 388.159C171.992 389.587 170.905 392.702 172.043 395.636C172.544 396.455 173.121 397.271 173.988 397.69L142.644 455.834C139.458 453.608 135.256 452.732 131.363 453.526L121.015 418.392C121.323 418.378 121.623 418.211 121.851 418.124C126.224 416.081 128.065 410.94 126.006 406.44C123.957 402.17 118.709 400.347 114.419 402.539C110.042 404.505 108.135 409.879 110.261 414.146C111.024 415.642 112.238 416.887 113.515 417.823L103.494 435.908C101.134 434.869 98.4282 434.689 95.948 436.031C91.5705 437.997 89.73 443.138 91.8556 447.405C93.9848 451.748 99.1558 453.575 103.53 451.532C104.728 450.787 105.853 450.122 106.725 449.008L123.023 459.737C120.58 463.528 120.263 468.291 122.242 472.718C122.588 473.544 123.173 474.513 123.824 475.249L65.6278 512.816C61.4139 506.732 53.3695 504.427 46.4385 507.814C38.8154 511.234 35.5494 520.501 39.139 528.07C40.6658 531.062 43.0937 533.553 46.094 535.098L30.4428 567.923L-65.6494 548.051C-65.0573 545.879 -65.2555 543.284 -66.2852 541.034C-66.6213 540.437 -67.0414 539.69 -67.4473 539.25L-12.4922 493.331C-9.91047 495.815 -5.9356 496.778 -2.38962 495.158C1.90383 493.042 3.90169 487.97 1.69921 483.707C-0.290438 479.051 -5.45787 477.301 -9.89797 479.576C-10.3522 479.751 -10.953 480.085 -11.2498 480.329L-27.3068 461.546C-24.5653 459.197 -23.6083 454.94 -25.3871 451.499C-27.5091 447.309 -32.6067 445.402 -36.9771 447.521C-41.3617 449.334 -43.2684 454.708 -41.0659 458.972C-40.8836 459.576 -40.5582 459.944 -40.3097 460.315L-55.4598 472.512C-58.0523 469.799 -62.104 468.839 -65.6392 470.689C-70.0203 472.579 -71.9306 477.876 -69.7979 482.296C-68.6108 484.615 -66.4528 486.276 -64.1944 486.783L-74.1898 535.122C-76.2138 534.68 -78.4401 534.861 -80.4661 536.028C-85.7413 538.572 -88.0701 544.808 -85.5137 550.051C-83.0199 555.602 -76.6812 557.681 -71.3292 555.133C-70.5781 554.715 -69.9773 554.381 -69.2996 554.043L-6.90626 626.194C-12.0241 628.807 -14.1991 635.036 -11.7195 640.282C-9.16313 645.525 -2.81741 647.756 2.6151 645.281C7.7365 642.744 9.99555 636.664 7.75025 631.484L92.0356 584.962C93.6035 587.187 96.4948 588.048 98.9857 586.936C99.5097 586.605 99.9639 586.43 100.477 585.87L153.045 627.459C150.58 630.791 149.864 635.267 150.976 639.274L74.9292 664.195C74.8416 663.969 74.7504 663.667 74.6593 663.365C72.026 658.126 65.6803 655.895 60.3282 658.442C55.053 660.986 52.8012 667.219 55.2807 672.465C56.8145 675.611 59.6091 677.701 62.8008 678.395L46.6989 777.496C43.518 777.031 40.0686 777.422 36.9071 779.025C28.2397 783.183 24.4854 793.545 28.6633 802.159C32.8411 810.772 43.2635 814.498 52.0078 810.337C60.7521 806.176 64.3562 795.897 60.3286 787.2C57.7757 782.034 53.0716 778.653 47.7861 777.675L63.8844 678.498C65.7511 678.87 67.8128 678.467 69.6958 677.537C74.4434 675.247 76.815 669.928 75.3601 665.17L151.253 640.257C151.348 640.636 151.52 641.011 151.691 641.386C154.934 648.128 163.004 650.968 169.788 647.741C176.579 644.666 179.434 636.491 176.345 629.741C174.727 626.447 171.922 624.127 168.863 622.967L178.829 565.744C179.521 565.712 180.205 565.527 180.81 565.269C182.55 564.575 183.628 562.916 183.85 561.068L367.263 569.739C367.126 571.737 367.603 573.706 368.541 575.654C371.857 582.316 380.077 585.073 386.715 582.006C393.503 578.855 396.284 570.759 392.964 564.02C389.791 557.122 381.725 554.358 375.014 557.505ZM175.264 555.417C174.003 556.472 173.068 557.894 172.835 559.514L149.788 551.092L137.365 479.748C138.203 479.556 138.965 479.367 139.727 479.178L175.264 555.417ZM130.028 479.401L102.704 564.243C96.2734 568.449 89.0328 573.46 81.5652 578.557L49.9737 571.99L126.479 477.652C127.507 478.217 128.857 479.073 130.028 479.401ZM94.1214 576.822C92.6962 577.655 91.5195 578.859 91.2064 580.405L82.8866 578.802C89.6801 574.119 96.2536 569.676 102.223 565.491L98.5917 576.843C97.1791 576.297 95.5644 576.372 94.1214 576.822ZM80.5173 579.219C52.6655 598.289 21.08 619.909 6.58816 629.7C6.09115 628.957 5.51724 628.218 4.7967 627.639L49.2441 572.866L80.5173 579.219ZM4.07975 627.136C3.99573 626.987 3.76147 626.921 3.60055 626.776L30.9576 569.048L48.2267 572.531L4.07975 627.136ZM7.24608 630.588C21.7308 620.644 53.5399 598.861 81.8422 579.54L91.099 581.406C91.0614 582.25 91.1847 583.24 91.451 583.994L7.24608 630.588ZM99.5321 577.182L103.644 564.582C113.208 558.161 121.423 552.569 126.934 548.482C127.011 548.478 127.033 548.937 127.186 548.93L100.498 578.057C100.102 577.845 99.8611 577.627 99.5321 577.182ZM128.866 540.349C126.145 541.472 124.984 544.667 126.273 547.517C126.276 547.594 126.284 547.746 126.518 547.812C121.813 551.019 113.898 556.444 104.115 563.105L130.965 479.664C132.758 480.117 134.534 480.187 136.453 480.021L148.851 550.829L136.628 546.498C136.955 545.257 136.825 544.114 136.299 542.76C134.93 539.836 131.651 538.917 128.866 540.349ZM107.217 447.99C108.725 445.621 108.893 442.626 107.688 439.925C106.991 438.196 105.781 437.027 104.434 436.247L114.378 418.166C116.189 419.001 118.21 419.366 120.25 418.505L130.598 453.639C129.997 453.973 129.469 454.228 128.781 454.336C126.674 455.43 124.816 456.896 123.514 458.718L107.217 447.99ZM40.0296 527.339C36.692 520.218 39.6826 511.653 46.9176 508.175C53.3354 505.348 60.9776 507.289 64.8696 513.081L57.461 517.793C55.8269 515.801 53.0197 515.09 50.6861 516.271C47.8983 517.627 46.8072 520.665 48.0961 523.516C48.6074 524.564 49.412 525.292 50.2898 525.941L46.5751 533.85C43.75 532.757 41.5492 530.179 40.0296 527.339ZM66.0389 515.018C69.5338 522.208 66.5396 530.697 59.3046 534.175C55.3813 535.967 51.1381 535.859 47.4423 534.269L51.2339 526.356C52.5624 526.754 54.1038 526.759 55.5397 526.155C58.2577 524.956 59.3345 521.612 57.9759 518.918C58.0421 518.685 57.9651 518.689 57.8883 518.693L65.4364 513.668C65.6187 514.272 65.9441 514.64 66.0389 515.018ZM47.0273 535.285C50.9538 536.863 55.5081 537.033 59.7283 534.998C67.3442 531.426 70.6138 522.235 66.9508 514.746C66.7685 514.142 66.5164 513.694 66.1946 513.403L124.541 475.751C124.87 476.195 125.195 476.563 125.744 476.767L48.883 571.734L31.3726 568.032L47.0273 535.285ZM-39.7322 461.131C-37.2131 463.924 -33.2454 464.734 -29.5456 463.106C-29.0986 462.779 -28.5675 462.601 -28.124 462.197L-12.2208 480.987C-13.478 482.118 -14.4831 483.697 -14.7891 485.396L-53.3667 479.384C-53.2074 477.845 -53.4361 476.247 -54.203 474.674C-54.3818 474.146 -54.7036 473.855 -55.0361 473.334L-39.7322 461.131ZM-63.2575 487.046C-61.6286 487.276 -59.7903 487.037 -58.2078 486.274C-55.7275 484.933 -53.9821 482.706 -53.4007 480.305L-14.816 486.47C-14.8984 488.005 -14.7466 489.607 -13.9797 491.179C-13.8778 491.711 -13.472 492.151 -13.1466 492.519L-68.1857 538.289C-69.5677 536.745 -71.3021 535.906 -73.3369 535.235L-63.2575 487.046ZM-65.8301 549.132L30.1047 568.934L2.95691 626.193C0.271337 624.786 -2.89896 624.551 -5.92813 625.689L-68.6468 553.17C-67.3897 552.039 -66.4543 550.616 -65.8301 549.132ZM100.91 585.237C102.065 583.575 102.427 581.413 101.492 579.542C101.334 579.473 101.24 579.094 101.156 578.945L127.984 549.505C129.505 550.736 131.753 551.014 133.636 550.084C134.841 549.492 135.798 548.528 136.213 547.513L148.981 551.972L161.208 622.405C160.212 622.528 159.073 622.888 158.171 623.39C156.362 624.24 154.794 625.309 153.631 626.819L100.91 585.237ZM167.688 622.562C165.968 622.03 163.958 621.894 162.039 622.06L149.915 552.158L172.878 560.431C172.907 561.042 173.019 561.803 173.355 562.4C174.21 564.198 175.966 565.495 177.745 565.642L167.688 622.562ZM185.272 560.159L223.238 544.829C223.238 544.829 223.315 544.825 223.319 544.902C225.879 550.22 232.224 552.452 237.58 549.981C242.929 547.356 245.104 541.127 242.697 535.801C240.057 530.41 233.634 528.182 228.209 530.81C223.304 533.03 221.027 538.728 222.884 543.85L183.786 559.692C183.747 558.851 183.491 558.327 183.235 557.803C182.03 555.101 178.898 554.022 176.173 555.068L140.708 478.75C143.643 477.234 145.766 474.837 147.032 472.25L369.169 562.68C368.094 564.415 367.498 566.511 367.21 568.593L185.272 560.159Z" fill="#D4EAFF"/>
<path d="M239.097 632.021C231.408 635.673 228.131 644.711 231.802 652.353C232.922 654.905 234.71 656.889 236.781 658.325L191.103 728.014C189.6 727.165 187.59 727.029 186.084 727.789C183.296 729.145 182.059 732.343 183.421 735.113C184.783 737.884 188.073 739.032 190.784 737.68C193.425 736.485 194.656 733.134 193.297 730.44C192.954 729.69 192.384 729.027 191.747 728.597L237.578 658.9C241.936 661.454 247.273 661.894 252.174 659.597C252.248 659.517 252.471 659.354 252.706 659.419L258.346 669.65C256.027 671.137 255.313 674.004 256.28 676.563C257.639 679.257 260.929 680.406 263.797 679.123C266.434 677.851 267.595 674.656 266.387 671.879C265.024 669.108 261.815 668.033 259.254 669.301L253.533 658.998C260.363 655.079 263.042 646.452 259.551 639.338C255.881 631.697 246.56 628.455 239.097 632.021ZM251.905 658.767C247.38 660.894 242.2 660.523 238.158 658.107L243.131 650.752C244.478 651.531 246.18 651.682 247.916 650.911L252.205 658.6C251.978 658.688 251.981 658.764 251.905 658.767ZM253.033 658.179L248.74 650.413C250.829 648.937 251.847 645.979 250.576 643.51C249.217 640.816 246.004 639.664 243.29 640.94C240.575 642.216 239.264 645.494 240.626 648.264C241.046 649.011 241.617 649.673 242.18 650.183L237.287 657.612C235.297 656.249 233.666 654.334 232.563 652.164C229.296 644.887 232.209 636.325 239.451 633C246.536 629.605 255.308 632.643 258.8 639.756C261.808 646.433 259.254 654.441 253.033 658.179Z" fill="#D4EAFF"/>
<path d="M48.7189 399.861C56.3349 396.289 59.6009 387.021 56.0112 379.453C54.9815 377.203 53.3545 375.364 51.5183 373.994L71.7215 346.243C73.2145 346.862 75.0812 347.235 76.814 346.388C79.3747 345.119 80.5462 342.154 79.6596 339.668L89.1727 335.471C90.6047 338.085 93.7266 338.935 96.4375 337.582C99.1627 336.536 100.316 333.189 99.0275 330.338C97.6724 327.721 94.3824 326.572 91.5911 327.851C91.4373 327.858 91.0671 328.182 90.84 328.269L77.6063 312.189C79.2336 310.735 79.8078 308.18 78.7084 306.087C77.3426 303.24 74.1366 302.241 71.3417 303.443C68.6308 304.796 67.4699 307.99 68.7553 310.764C70.0371 313.462 73.3342 314.763 76.1184 313.331C76.3455 313.244 76.5655 313.004 76.7961 312.993L90.257 328.986C88.7835 330.433 88.1914 332.606 88.8259 334.644L79.3826 338.685C77.9577 336.224 74.7553 335.301 72.1177 336.573C69.3925 337.62 68.2424 341.043 69.6047 343.814C69.8639 344.415 70.3609 345.157 70.9205 345.591L50.7173 373.342C46.3457 370.483 40.4594 369.838 35.4041 372.142C27.7149 375.795 24.5222 384.982 28.1154 392.627C31.8624 400.265 41.1066 403.51 48.7189 399.861ZM35.9119 373.114C40.6631 370.901 46.0041 371.418 50.061 374.139L44.9266 381.349C43.4193 380.423 41.4864 380.284 39.7537 381.131C37.0427 382.483 35.8819 385.677 37.0904 388.455C38.449 391.149 41.655 392.148 44.4535 391.022C47.1644 389.67 48.3216 386.399 47.0434 383.778C46.7735 382.948 46.2872 382.434 45.7169 381.772L50.8549 374.638C52.6142 376.011 54.0803 377.705 55.0993 379.725C58.444 386.999 55.5267 395.484 48.2881 398.886C41.2033 402.28 32.5152 399.392 29.1776 392.271C25.6862 385.158 28.7466 376.436 35.9119 373.114Z" fill="#D4EAFF"/>
<path d="M115.889 830.181C123.582 826.605 126.855 817.49 123.185 809.849C122.078 807.603 120.451 805.764 118.615 804.394L138.815 776.566C140.322 777.491 142.251 777.554 143.988 776.784C146.475 775.596 147.804 772.699 146.917 770.213L156.43 766.016C157.778 768.481 160.988 769.556 163.552 768.364C166.263 767.012 167.578 763.81 166.139 761.044C164.853 758.27 161.644 757.194 158.929 758.469C158.632 758.713 158.405 758.8 158.259 758.96L144.787 742.738C146.334 741.211 146.831 738.66 145.959 736.479C144.6 733.785 141.31 732.637 138.515 733.839C135.804 735.192 134.647 738.463 135.929 741.16C137.137 743.938 140.504 745.083 143.296 743.804C143.516 743.564 143.743 743.476 144.043 743.309L157.434 759.458C156.038 760.902 155.522 763.071 156.16 765.186L146.563 769.234C145.142 766.849 142.083 765.69 139.445 766.962C136.654 768.241 135.42 771.516 136.778 774.21C137.122 774.96 137.611 775.55 138.175 776.06L117.971 803.811C113.6 800.952 107.864 800.224 102.816 802.681C95.1264 806.333 91.8531 815.448 95.5197 823.013C99.0361 830.661 108.2 833.833 115.889 830.181ZM103.085 803.51C107.914 801.294 113.258 801.887 117.388 804.528L112.177 811.741C110.589 810.743 108.58 810.607 106.92 811.374C104.129 812.653 102.975 816.001 104.26 818.775C105.542 821.472 108.905 822.541 111.627 821.418C114.338 820.066 115.495 816.795 114.287 814.017C113.944 813.267 113.457 812.754 112.967 812.164L118.186 805.103C119.865 806.404 121.254 808.101 122.357 810.27C125.768 817.311 122.697 825.803 115.539 829.278C108.377 832.676 99.6888 829.788 96.2708 822.595C92.8527 815.401 95.9238 806.909 103.085 803.51Z" fill="#D4EAFF"/>
<path d="M389.804 303.206C381.546 301.294 373.313 306.503 371.228 314.643C370.8 317.038 370.837 319.487 371.402 321.682L338.151 330.741C337.538 329.161 336.083 327.697 334.363 327.164C331.57 326.758 328.939 328.183 327.75 330.767L317.762 328.092C318.172 325.316 316.421 322.487 313.621 321.928C310.734 321.144 307.733 322.892 307.016 325.683C306.393 328.853 308.074 331.838 311.024 332.313C311.569 332.441 311.723 332.434 311.957 332.5L312.17 353.553C309.943 353.734 308.012 355.279 307.424 357.528C306.644 360.628 308.558 363.679 311.505 364.078C314.319 364.942 317.316 363.117 318.023 360.097C318.814 357.226 317.06 354.321 314.095 353.54C313.704 353.405 313.473 353.416 313.166 353.43L312.876 332.38C314.952 332.283 316.733 330.821 317.49 328.871L327.559 331.618C327.149 334.395 328.822 337.227 331.699 337.782C334.744 338.636 337.664 336.814 338.444 333.714C338.569 333.096 338.453 332.258 338.337 331.421L371.826 322.505C373.211 327.419 377.402 331.359 382.863 332.79C390.966 334.709 399.363 329.721 401.365 321.432C403.151 313.459 398.138 305.115 389.804 303.206ZM382.977 331.942C377.845 330.956 373.962 327.001 372.668 322.389L381.264 319.996C381.727 321.66 383.325 322.887 384.965 323.347C388.006 324.124 390.996 322.146 391.636 319.359C392.416 316.258 390.589 313.433 387.709 312.802C384.587 311.952 381.667 313.773 380.887 316.873C380.685 317.495 380.65 318.416 380.906 318.94L372.471 321.479C371.98 319.204 371.953 316.984 372.392 314.819C374.114 307.155 381.9 302.273 389.685 303.977C397.328 305.919 402.001 313.59 400.285 321.406C398.562 329.069 390.7 333.956 382.977 331.942Z" fill="#D4EAFF"/>
<path d="M489.841 214.403C483.838 208.419 474.096 208.496 468.026 214.308C466.399 216.115 465.137 218.215 464.458 220.377L431.437 210.514C431.751 208.848 431.288 206.836 430.108 205.476C427.951 203.657 424.964 203.478 422.59 205.044L415.52 197.499C417.334 195.357 417.341 192.031 415.259 190.078C413.22 187.887 409.749 187.787 407.666 189.779C405.464 192.142 405.315 195.564 407.569 197.526C407.965 197.922 408.099 197.997 408.264 198.177L397.327 216.168C395.341 215.146 392.885 215.439 391.198 217.038C388.899 219.259 388.914 222.861 391.206 224.755C393.139 226.976 396.648 227.008 398.843 224.816C401.03 222.796 401.075 219.402 398.97 217.174C398.708 216.853 398.507 216.74 398.238 216.59L409.107 198.56C410.921 199.574 413.206 199.273 414.878 198.016L421.978 205.666C420.164 207.807 420.09 211.096 422.24 213.087C424.375 215.419 427.817 215.414 430.116 213.193C430.549 212.734 430.892 211.962 431.236 211.19L464.383 221.3C462.965 226.204 464.444 231.764 468.326 235.862C474.194 241.771 483.959 241.969 490.036 235.986C495.762 230.158 495.911 220.425 489.841 214.403ZM468.871 235.202C465.033 231.655 463.824 226.246 465.16 221.646L473.723 224.153C473.238 225.81 473.947 227.696 475.097 228.952C477.269 231.218 480.853 231.117 482.869 229.088C485.168 226.867 485.108 223.503 482.995 221.446C480.793 219.076 477.351 219.081 475.052 221.302C474.552 221.723 474.037 222.487 473.977 223.067L465.473 220.769C466.257 218.578 467.407 216.679 468.922 215.071C474.432 209.473 483.622 209.438 489.333 214.996C494.798 220.679 494.717 229.662 489.132 235.394C483.623 240.992 474.366 240.99 468.871 235.202Z" fill="#D4EAFF"/>
<path d="M5.16231 927.648C19.6359 920.768 27.7055 905.455 26.0764 890.365L75.341 884.312C75.7092 885.597 76.1578 886.955 76.6762 888.156C79.061 893.023 83.0034 896.593 87.7131 898.441L67.4083 940.52C66.0029 940.127 64.5384 940.118 63.1025 940.721C60.3916 942.074 59.3076 945.265 60.5894 947.962C61.8747 950.736 65.1648 951.885 67.8757 950.533C70.5168 949.337 71.7474 945.986 70.5425 943.285C69.9543 942.24 69.2266 941.508 68.3487 940.86L88.5732 898.707C93.6673 900.537 99.357 900.272 104.562 897.884C115.047 893.029 119.397 880.57 114.371 870.311C109.496 859.969 96.9586 855.499 86.7087 860.42C77.8107 864.588 73.3286 874.219 75.2946 883.318L26.0264 889.295C25.6245 885.637 24.527 881.935 22.7411 878.342C14.0243 859.983 -8.22597 852.136 -26.6193 860.885C-45.1629 869.716 -53.0722 891.762 -44.2017 910.114C-35.6351 928.556 -13.3848 936.403 5.16231 927.648ZM77.5042 887.734C76.9125 886.613 76.5514 885.481 76.2636 884.269L87.831 882.81C88.0974 883.563 88.2064 884.248 88.6265 884.994C89.4774 886.716 90.695 888.038 92.1987 888.887L88.0547 897.506C83.6598 895.796 79.8014 892.376 77.5042 887.734ZM86.9858 861.402C96.8548 856.576 108.763 860.769 113.54 870.656C118.166 880.628 114.095 892.46 104.135 896.985C99.3142 899.354 93.8479 899.457 89.0721 897.841L93.1356 889.149C95.4154 890.115 97.9598 890.15 100.297 889.045C104.667 886.926 106.588 881.857 104.456 877.438C102.326 873.095 97.159 871.344 92.7887 873.463C89.4733 875.073 87.6241 878.377 87.7847 881.816L76.1368 883.202C74.1923 874.561 78.5383 865.32 86.9858 861.402ZM-26.4156 861.947C-8.39954 853.37 13.2249 861.016 21.763 878.847C23.5417 882.288 24.4783 885.844 25.034 889.494L7.18317 891.707C7.03135 890.105 6.41461 888.449 5.72814 886.949C1.54671 878.259 -8.87568 874.533 -17.5395 878.767C-26.3606 882.932 -30.0381 893.291 -25.8602 901.904C-21.6824 910.518 -11.26 914.244 -2.4424 910.003C4.26868 906.855 8.09603 899.706 7.38334 892.693L25.1573 890.484C26.7685 905.192 19.0656 920.105 4.73862 926.825C-13.2005 935.398 -34.9019 927.756 -43.4435 909.849C-52.062 891.945 -44.5121 870.452 -26.4156 861.947Z" fill="#D4EAFF"/>
</svg>
