<?xml version="1.0" standalone="no"?>
<!DOCTYPE svg PUBLIC "-//W3C//DTD SVG 20010904//EN"
 "http://www.w3.org/TR/2001/REC-SVG-20010904/DTD/svg10.dtd">
<svg version="1.0" xmlns="http://www.w3.org/2000/svg"
 width="1120.000000pt" height="1120.000000pt" viewBox="0 0 1120.000000 1120.000000"
 preserveAspectRatio="xMidYMid meet">
<metadata>
Created by potrace 1.14, written by Peter Selinger 2001-2017
</metadata>
<g transform="translate(0.000000,1120.000000) scale(0.100000,-0.100000)"
fill="#000000" stroke="none">
<path d="M3918 7805 c-3 -3 -23 -6 -46 -7 -23 -1 -42 -4 -42 -7 0 -3 12 -49
26 -101 14 -52 28 -102 30 -110 2 -8 10 -40 19 -70 22 -78 45 -161 49 -179 2
-9 6 -23 9 -31 3 -8 15 -51 27 -95 12 -44 28 -105 36 -135 8 -30 17 -62 19
-70 7 -27 45 -164 55 -200 11 -38 118 -424 125 -452 3 -10 7 -27 9 -37 3 -11
14 -55 27 -98 12 -43 22 -82 24 -88 1 -5 7 -30 14 -55 8 -25 15 -52 16 -60 2
-8 4 -15 5 -15 1 0 3 -7 5 -15 2 -8 18 -67 35 -130 18 -63 33 -122 35 -130 6
-27 95 -343 111 -397 9 -29 17 -60 19 -70 2 -10 4 -19 5 -20 3 -3 4 -7 13 -53
l7 -35 360 2 c198 1 368 2 378 2 15 1 33 50 57 161 2 8 11 44 20 80 9 36 18
72 20 80 2 8 11 42 20 75 9 33 18 68 20 79 3 10 12 44 21 75 9 31 18 65 19 76
2 11 10 45 18 75 8 30 40 152 71 270 30 118 60 229 64 245 l9 30 11 -40 c6
-22 18 -67 27 -100 9 -33 23 -85 31 -115 9 -30 18 -64 20 -75 11 -45 13 -50
14 -50 1 0 3 -7 5 -15 2 -8 17 -64 34 -125 16 -60 39 -146 51 -190 11 -44 27
-100 35 -125 7 -25 34 -124 60 -220 26 -96 51 -179 56 -184 9 -10 715 -13 725
-3 4 4 31 96 38 132 1 6 5 19 9 30 3 11 8 31 11 45 3 14 16 66 30 115 14 50
26 91 26 93 0 1 0 3 1 5 0 1 2 9 4 17 1 8 15 59 29 113 15 53 29 105 31 115 2
9 18 69 34 132 17 63 36 135 42 160 6 25 13 52 16 60 3 8 7 22 9 31 2 8 10 40
18 70 8 30 23 81 32 114 9 33 17 67 19 75 2 8 8 35 15 60 7 25 14 52 16 60 2
8 19 74 38 145 19 72 47 175 61 230 15 55 35 134 47 175 35 132 38 145 43 163
2 10 7 27 10 37 3 10 8 27 10 37 4 20 51 198 88 336 13 48 21 90 17 92 -7 4
-106 5 -483 5 l-237 0 -9 -23 c-5 -13 -12 -37 -15 -53 -3 -16 -19 -78 -36
-139 -17 -60 -32 -117 -34 -125 -3 -8 -28 -100 -56 -205 -63 -232 -57 -208
-75 -280 -9 -33 -21 -76 -26 -95 -5 -19 -12 -42 -14 -50 -2 -8 -4 -15 -5 -15
-1 0 -3 -7 -5 -15 -1 -8 -13 -51 -25 -95 -11 -44 -26 -98 -31 -120 -11 -44
-29 -70 -29 -42 0 9 -36 149 -80 311 -44 161 -83 304 -86 317 -3 13 -6 29 -7
34 -2 6 -5 15 -9 20 -3 6 -9 26 -13 45 -4 19 -18 74 -31 121 -14 47 -26 95
-28 105 -2 10 -16 60 -30 110 -15 50 -29 101 -31 113 -3 11 -7 31 -10 43 -9
42 22 39 -395 39 -325 1 -333 0 -342 -9 -4 -4 -11 -25 -17 -47 -5 -22 -15 -58
-21 -80 -6 -22 -13 -48 -15 -58 -2 -10 -7 -27 -10 -37 -3 -10 -8 -27 -10 -38
-2 -12 -15 -65 -30 -119 -15 -54 -28 -105 -30 -113 -2 -8 -10 -42 -19 -75 -9
-33 -18 -67 -20 -75 -5 -19 -126 -481 -130 -495 -2 -5 -6 -27 -11 -47 -6 -33
-23 -52 -26 -30 -1 4 -3 16 -5 27 -1 11 -24 94 -49 185 -26 91 -48 172 -50
180 -2 8 -19 74 -39 145 -78 283 -89 320 -91 335 -2 8 -4 15 -5 15 -1 0 -3 7
-5 15 -2 8 -13 49 -25 90 -11 41 -23 86 -26 100 -2 14 -7 32 -11 40 -6 14 -11
37 -17 70 -2 12 -20 15 -82 17 -43 1 -104 2 -134 3 -30 0 -140 1 -243 0 -103
0 -191 1 -196 4 -4 3 -10 3 -13 1z"/>
<path d="M2695 7790 c-27 -4 -72 -10 -100 -14 -71 -10 -228 -58 -307 -95 -236
-110 -412 -322 -443 -533 -4 -23 -9 -46 -11 -50 -11 -18 -4 -191 11 -259 21
-95 92 -238 152 -310 53 -61 158 -149 179 -149 8 0 14 -4 14 -9 0 -14 267
-118 350 -136 54 -12 92 -22 180 -47 58 -16 129 -36 159 -44 71 -19 185 -65
189 -76 2 -4 9 -8 16 -8 25 0 53 -53 50 -97 -3 -55 -26 -87 -93 -133 -150
-101 -327 -104 -474 -6 -28 19 -61 47 -72 62 -11 15 -25 32 -31 39 -19 19 -41
68 -59 130 -10 33 -19 61 -20 63 -1 2 -45 -9 -96 -23 -52 -15 -101 -28 -109
-30 -8 -2 -27 -8 -42 -14 -16 -6 -28 -9 -28 -6 0 2 -16 -3 -35 -11 -19 -8 -37
-14 -40 -14 -3 0 -6 0 -7 -1 -2 0 -10 -2 -18 -4 -24 -6 -79 -22 -163 -46 l-79
-22 6 -46 c22 -184 134 -378 284 -493 31 -24 59 -46 60 -50 2 -5 8 -8 13 -8 5
0 27 -11 48 -24 42 -27 182 -86 251 -105 25 -7 56 -17 70 -22 14 -4 39 -10 55
-13 17 -2 41 -7 55 -10 70 -16 106 -19 235 -20 140 0 177 3 329 30 59 11 228
67 301 100 128 59 316 221 366 316 6 13 15 25 18 28 3 3 15 25 27 50 124 265
100 568 -61 786 -35 47 -141 154 -152 154 -4 0 -20 11 -37 24 -48 36 -162 90
-264 125 -85 29 -269 79 -317 87 -74 12 -329 91 -387 120 -55 28 -88 67 -88
104 0 31 48 90 74 90 9 0 16 4 16 9 0 5 12 12 28 16 15 4 27 6 27 4 0 -1 10 3
23 10 13 7 53 14 90 15 181 8 332 -93 408 -272 1 -1 35 7 75 18 41 12 81 23
89 25 8 2 40 11 70 20 30 9 62 18 70 20 8 2 40 11 70 20 30 9 64 18 76 20 11
3 47 13 80 24 32 10 82 24 111 31 60 16 60 16 9 118 -31 64 -54 100 -106 166
-39 49 -115 119 -188 170 -51 37 -202 118 -202 109 0 -3 -6 -1 -12 5 -18 14
-170 59 -264 78 -87 18 -349 26 -429 14z"/>
<path d="M8169 7795 c-2 -2 -31 -6 -64 -9 -33 -3 -71 -7 -85 -10 -14 -3 -36
-8 -49 -11 -39 -7 -135 -35 -156 -45 -65 -29 -115 -50 -121 -50 -4 0 -41 -23
-83 -51 -230 -156 -350 -377 -343 -638 1 -53 14 -142 26 -186 13 -47 81 -184
110 -222 51 -67 122 -134 184 -175 63 -42 171 -95 210 -103 9 -2 53 -15 97
-30 75 -24 156 -47 285 -81 30 -8 62 -18 70 -21 8 -3 20 -7 25 -8 54 -12 188
-61 226 -83 65 -36 85 -88 60 -155 -17 -45 -128 -129 -189 -142 -10 -2 -31 -8
-47 -13 -100 -31 -263 6 -345 78 -14 12 -30 25 -35 28 -17 11 -67 82 -58 82 4
0 2 4 -5 8 -14 10 -52 112 -52 142 0 24 -14 25 -69 5 -22 -8 -41 -12 -41 -8 0
3 -7 0 -15 -7 -8 -7 -15 -10 -15 -7 0 3 -28 -4 -62 -15 -35 -11 -72 -21 -82
-23 -22 -5 -84 -24 -106 -32 -19 -8 -17 -7 -65 -17 -22 -4 -44 -11 -50 -14
-11 -7 -9 -7 -77 -22 -44 -11 -46 -12 -42 -43 20 -152 92 -307 200 -429 30
-34 128 -118 137 -118 3 0 29 -16 59 -35 62 -41 222 -106 323 -131 39 -9 77
-19 85 -22 8 -3 22 -6 30 -7 8 -1 38 -6 65 -10 60 -11 300 -11 370 -2 41 6 88
15 170 32 29 6 103 27 120 34 11 5 36 15 55 22 278 99 485 312 554 569 42 155
32 369 -21 473 -8 16 -16 36 -18 46 -2 9 -25 50 -53 92 -54 81 -133 159 -221
217 -54 36 -210 112 -230 112 -5 0 -22 5 -38 11 -15 6 -29 10 -30 10 -2 0 -17
5 -35 10 -18 6 -120 33 -226 60 -367 94 -456 131 -478 199 -16 49 3 82 69 120
83 48 194 65 282 45 122 -28 228 -107 282 -211 30 -58 40 -62 95 -40 19 8 46
17 59 19 13 2 31 7 39 10 25 10 234 68 253 70 9 1 17 5 17 9 0 4 8 8 18 8 9 0
55 12 102 26 47 14 94 27 104 29 11 3 23 8 28 13 14 14 -86 203 -137 258 -5 6
-24 26 -40 45 -38 42 -125 116 -185 155 -53 35 -195 104 -214 104 -7 0 -16 3
-20 8 -4 4 -11 7 -14 8 -4 0 -27 6 -52 14 -131 39 -222 52 -381 56 -86 2 -158
1 -160 -1z"/>
<path d="M6689 4506 c-2 -2 -38 -6 -79 -9 -209 -17 -390 -158 -459 -358 -78
-224 -14 -464 167 -621 18 -16 35 -28 39 -28 3 0 14 -6 22 -14 24 -22 134 -63
188 -72 93 -14 200 -8 282 16 50 14 140 68 199 118 l53 45 -62 63 c-60 60 -64
63 -80 46 -85 -83 -185 -122 -302 -118 -186 7 -327 155 -337 356 -4 81 4 118
40 197 55 120 168 195 298 198 41 1 95 -4 119 -11 49 -15 163 -80 163 -94 0
-4 7 -10 15 -14 14 -5 25 5 113 102 21 24 22 26 5 45 -56 63 -203 130 -313
143 -30 3 -58 8 -61 10 -3 2 -8 2 -10 0z"/>
<path d="M7761 4475 c-19 -37 -81 -176 -81 -180 0 -3 -11 -28 -24 -57 -73
-161 -84 -188 -78 -188 4 0 2 -4 -4 -8 -6 -4 -25 -43 -44 -87 -18 -44 -43
-102 -55 -130 -13 -27 -34 -76 -49 -108 -14 -31 -38 -85 -52 -120 -14 -34 -37
-86 -50 -116 -14 -29 -23 -56 -20 -58 9 -9 177 -6 186 3 4 5 20 38 35 74 15
36 35 83 46 106 10 22 19 46 19 52 0 15 -16 14 268 16 152 1 247 -3 251 -9 5
-5 16 -32 26 -60 10 -27 21 -54 25 -60 4 -5 17 -36 30 -67 12 -32 27 -58 34
-59 27 -3 179 1 183 4 3 4 -11 37 -67 162 -10 22 -32 74 -50 115 -18 41 -41
95 -52 120 -41 91 -58 131 -174 395 -65 149 -119 271 -120 273 -1 1 -40 4 -87
5 -78 2 -87 0 -96 -18z m124 -285 c10 -25 32 -74 48 -110 16 -36 36 -83 45
-105 8 -22 22 -50 30 -62 8 -13 11 -23 6 -23 -4 0 -3 -5 4 -12 29 -29 13 -36
-69 -35 -44 1 -83 -1 -86 -6 -2 -4 -9 -4 -15 -1 -15 10 -147 11 -151 2 -1 -4
-8 -4 -15 1 -9 5 10 59 75 213 64 150 91 203 99 195 6 -7 19 -32 29 -57z"/>
<path d="M1760 4470 c-5 -9 -5 -22 0 -30 5 -8 5 -21 0 -31 -5 -9 -7 -19 -3
-22 7 -8 8 -106 0 -113 -3 -3 -1 -19 3 -35 5 -16 5 -29 1 -29 -5 0 -5 -18 -1
-39 4 -22 4 -45 0 -52 -4 -6 -4 -25 0 -40 5 -16 6 -29 2 -29 -4 0 -6 -30 -4
-67 2 -38 3 -74 2 -80 0 -7 0 -20 0 -28 0 -8 0 -22 0 -30 0 -8 0 -22 0 -30 0
-8 0 -22 0 -30 0 -8 0 -22 0 -30 0 -8 0 -38 1 -65 1 -28 -1 -53 -4 -56 -3 -3
-1 -19 3 -35 5 -16 6 -29 2 -29 -10 0 -4 -132 6 -142 10 -10 154 -14 168 -5 6
3 10 155 9 375 0 292 3 368 13 365 6 -3 12 -9 12 -14 0 -4 69 -112 154 -240
l155 -231 30 44 c17 23 34 48 38 53 5 6 44 64 87 130 43 66 83 122 87 123 5 2
9 9 9 16 0 7 9 21 20 31 11 10 20 22 20 27 0 11 42 68 49 68 3 0 5 -169 5
-375 l-2 -375 24 -1 c13 0 49 -1 79 -1 30 0 62 1 70 1 13 1 15 65 13 533 l-3
532 -94 1 -93 0 -29 -36 c-16 -20 -29 -41 -29 -47 0 -6 -3 -12 -8 -14 -4 -1
-29 -37 -55 -78 -64 -101 -63 -99 -142 -221 l-70 -107 -40 61 c-103 161 -195
303 -204 313 -5 6 -16 24 -24 40 -9 16 -27 43 -41 59 -24 29 -26 30 -116 30
-73 0 -93 -3 -100 -15z"/>
<path d="M3198 4482 c-14 -3 -16 -55 -14 -535 l1 -532 398 -1 397 -1 1 21 c3
70 1 137 -4 142 -3 4 -141 6 -306 6 l-300 0 -3 101 c-2 56 -2 121 0 144 l3 41
217 1 c119 0 240 0 268 1 l51 0 0 83 0 83 -268 0 -269 -1 0 140 0 140 303 0
302 0 2 65 c3 118 49 105 -384 105 -208 0 -386 -1 -395 -3z"/>
<path d="M4302 4472 c-3 -8 -5 -248 -6 -533 l-1 -519 50 -1 c269 -4 430 1 500
15 48 10 135 45 158 64 9 8 17 12 17 9 0 -11 40 23 100 84 73 75 122 169 137
266 20 133 -5 268 -71 373 -84 134 -205 211 -386 246 -19 3 -138 7 -264 8
-186 1 -229 -1 -234 -12z m523 -184 c76 -25 138 -68 173 -121 57 -86 70 -134
67 -239 -3 -87 -41 -184 -91 -232 -38 -37 -100 -76 -119 -76 -8 0 -15 -5 -15
-10 0 -6 -3 -9 -7 -8 -5 1 -28 -2 -53 -6 -61 -10 -261 -14 -280 -5 -13 6 -15
55 -13 361 0 194 1 354 2 356 1 2 63 2 139 1 109 -1 151 -5 197 -21z"/>
<path d="M5608 4479 c-7 -5 -11 -174 -12 -532 l-1 -525 50 -4 c28 -2 71 -2 96
0 l47 3 0 517 c0 284 -2 524 -4 532 -3 12 -21 15 -85 15 -44 0 -85 -3 -91 -6z"/>
<path d="M8693 4477 c-4 -6 -7 -948 -3 -1052 0 -7 127 -10 373 -10 363 0 372
0 378 20 3 11 3 29 -1 40 -4 11 -4 29 0 40 4 11 4 31 0 45 l-6 25 -270 1
c-149 0 -275 3 -280 6 -11 7 -11 428 0 446 4 7 4 12 -1 12 -4 0 -8 98 -7 218
l0 217 -89 0 c-49 0 -91 -4 -94 -8z"/>
</g>
</svg>
